<svg xmlns="http://www.w3.org/2000/svg" width="64" height="64" fill="none"><path fill="#F37131" d="M33 63.1c.1 0 .3 0 .4.3 0 .2-.1.3-.2.3 6.2-.4 12.3-2.3 14.2-4.2 2.9-3 4.9-18 1-21.3-10.4-8.7-9.2-13.6-10.8-16.4-1.4-2.3-7.6-5-10.4-6.8 0 .1-.1.2-.2.1l-.2-.2-.8-.7c-1.4-1.5-.5-10.7-.5-10.7C21.3 6.8 19.8 16 20.1 19h.2l.2.1c0 .2-.1.3-.3.3v.1c.5 2.4 6.3 4.3 4 7.7A103.3 103.3 0 0 0 13.4 46c-.2 2.8 1.6 12 7.2 15.7 1.6 1 3.6 1.6 5.8 2h.2l3.6.2h2.3v-.2c0-.3.2-.4.4-.5Zm15.3-8.8v-.1.1Zm-1.1-8h.1s0 .1-.1 0Zm-1.4-7.5v.2h-.1l-.1-.1.2-.1Zm-.7-1.9H45c0-.1.1-.1.1 0Zm-.9 4.3c.2 0 .3.2.2.4 0 0-.1.2-.3.1-.1 0-.2-.2-.1-.3 0-.2.1-.3.2-.2Zm-.3-3.4V38c-.2 0-.2-.1-.2-.2l.2-.1Zm-.1 7c.1 0 .2 0 .2.2 0 .1 0 .2-.2.2h-.2c0-.2 0-.3.2-.3Zm0 10.6.2.4-.1.2c-.2 0-.3-.2-.4-.4 0-.1 0-.2.2-.2Zm-.3 5.3h.2l-.1.2c-.1-.1 0-.2 0-.2Zm-1.2-22.4Zm-3-10.6.1.1h-.1Zm0 7.7h.2v.2l-.3-.1.2-.1ZM38 30.2c.2.1.2.4.2.6l.3.2c-.2 0-.2-.1-.3-.2l-.4-.5c0-.1.1-.2.2-.1Zm-.4 27.7c0 .1-.1.1-.1 0h.1Zm0-23.1h-.1Zm-.4 8c0 .2-.1.3-.2.2-.2-.4-.4-.8-.8-1 0-.1 0-.2.3-.3.3 0 .8.8.7 1.2Zm-1-12.5v-.1.1Zm.3-8.4c.2 0 .3.1.3.3 0 .1 0 .2-.2.2a.3.3 0 0 1-.3-.3c0-.1 0-.2.2-.2Zm-.3 4.5v.1Zm-1 10.7-.2.1c0-.1 0-.2.1-.1ZM34 32.3c.2 0 .3.1.3.3l-.2.2c-.2 0-.2-.1-.3-.2 0-.2 0-.3.2-.3Zm-1.2 24.5c.2 0 .3.2.3.3 0 .2-.1.3-.2.2l-.2-.3.1-.2Zm-11.8-44h-.3c0-.3.1-.4.3-.3.1 0 .2 0 .2.2 0 0 0 .2-.2.2Zm1.3 4.2c-.2 0-.3-.1-.3-.3 0-.3.1-.6.4-.8.2 0 .2.2.2.3 0 .3 0 .6-.3.8Zm1.8 2-.2-.1v-.2l.2.1v.2Zm-7.8 23.8v-.1h.1v.1Zm1.1-2.5s-.1 0 0-.1.2 0 .2 0l-.2.1Zm.9 16.3H18c0-.2.2-.3.3-.3 0-.1.1 0 .1 0l-.1.3Zm.1-3.6-.1-.1h.2Zm1-2.7-.1-.1v-.5h.2v.6Zm1.8 5.7h-.1v-.2l.1.1Zm.5-22.7Zm.8 2.8h-.1V36c.1 0 .2 0 .1.1Zm1.2 22.4-.2-.2.3-.1.1.2-.2.1Zm1.1-37.4Zm.5 18.4h.2v.3l-.2-.2v-.1Zm.3 23.4c-.2-.1-.3-.3-.3-.5s.2-.2.4-.2l.2.4c0 .2-.1.3-.3.3Zm.7-15.2-.2-.1.1-.2.2.1-.1.2Zm.3-27-.1.1v-.3h.1c.1 0 .1.1 0 .2Zm4.4 22.1Zm-3.9 14.6v-.1.1Zm.2-15.7-.2-.1c0-.1 0-.2.2-.3l.1.1v.3Zm.7 12.7c-.1-.1-.1-.2 0-.2h.2c0 .1 0 .2-.2.2Zm1-32.4Zm1.5 9.1-.2.2c-.1 0-.2 0-.2-.2v-.4c0-.2-.3-.4 0-.7h.1c.4 0 .4.4.4.8l-.1.3Zm0-8.8c-.3 0-.4-.4-.4-.7 0-.1.1-.2.3-.2.3.1.5.3.5.7 0 .2-.2.3-.4.2Zm.6 30.3-.2-.2-.1-.2.2.1s.2.2.1.3Zm-.1-8c-.2 0-.2-.1-.2-.3l.1-.1c.2 0 .2 0 .3.2l-.2.2Zm.7-14.7-.1-.1.1-.1h.1l-.1.2ZM46.2 27.9c3.2-2.2-1.8-14.3-1.8-14.3.7 5.1-2.6 7.9-2.6 9.9s3 5.4 4.4 4.4Zm-3-6H43v-.2c.2 0 .3 0 .3.2 0 0 0 .1-.1 0Zm1.3-5.3v-.2l.2.1c0 .1 0 .2-.2.1Zm.8 10.8c0-.2 0-.5.2-.6.3 0 .5.1.5.4 0 .2 0 .4-.3.5-.2 0-.3-.1-.4-.3ZM33.8 8.7c-1-1.6-.5-7.3-.3-8.7-.3 1.6-2.7 5.4-3.1 7.4-.4 2.2 1.1 4.7 3.4 6.2 1.9 1.3 1.1-3 0-4.9Zm-1.4 3s0 .1 0 0Z"/><path fill="#F37131" d="M17.6 32s4-4 2.1-7a14.8 14.8 0 0 1-2.5-8s-3.6 12.4.4 15Zm.6-1.7v.1l-.1.1s-.1 0 0-.1v-.1ZM17 23l.4.1c.4.5 0 1-.1 1.5l-.4-1.3V23Zm0 5.8-.1-.3.2-.1.2.2c0 .2-.1.2-.3.2Z"/><path fill="#fff" d="m39 40.6-5.1.6-2.2 3.1-2.9-2.5-5.2.6-2.2 3.1.6 5.3L33.4 59l9.1-10.6-.6-5.3-2.8-2.5Z"/></svg>