<svg xmlns="http://www.w3.org/2000/svg" width="64" height="64" fill="none"><path fill="#EE2345" d="M26.3 21.8c-1.6 2.8-.4 7.6-10.8 16.4-3 2.6-2.4 12.6-.6 18.1h.3c.1 0 .2 0 .2.2s-.2.3-.3.3c.4 1.2 1 2.1 1.4 2.7 3.4 3.3 19.6 6.7 26.8 2C49 58 50.7 48.8 50.5 46a103 103 0 0 0-10.8-18.7c-2.3-3.4 3.5-5.3 4-7.7.6-2.4-.8-12.5-5.3-16 0 0 1 9.2-.5 10.7-1.3 1.4-10 4.9-11.6 7.6ZM16 40.2h-.1V40c.1 0 0 0 0 .1Zm.8 18.2c-.2 0-.3-.1-.4-.3 0-.3.1-.5.4-.5.2 0 .3.2.3.4s0 .3-.3.4Zm2.1-1.8Zm.1-8.5c.1-.1.2 0 .2 0h-.2Zm1.4-2Zm1.8 12.6v-.1c0-.2 0-.1.1 0Zm2.6 1.7-.2-.2s.1-.1.2 0h.1l-.1.2Zm0-10.8c-.2 0-.4 0-.4-.3 0-.1 0-.2.2-.2.3 0 .5 0 .5.3 0 .2-.1.2-.3.2Zm.6-15 .4-.1c0 .3-.3 0-.4.1Zm.2 24h-.2c0-.2.1-.2.2-.3l.1.2v.1Zm.2-3.4h-.2l.1-.2.1.1v.1ZM26 29l-.2-.1.1-.2.2.1-.1.2Zm17.3 29.4h.1Zm.3-1.3h-.1V57h.1v.1Zm5-3.6v.1h-.2l.1-.1Zm-1.4-8.1c.1 0 .2 0 .2.2l-.3.2c-.1 0-.2 0-.2-.2l.3-.2ZM46 39.7c.2 0 .4 0 .5.3 0 .3-.2.4-.4.5-.3 0-.5 0-.5-.3s.1-.4.4-.5Zm-.8 17.4v.2c-.1 0-.1-.1 0-.2Zm-1.7-11.5c.2 0 .3 0 .3.2 0 .1-.1.2-.4.2 0 0-.1 0 0-.2l.1-.2ZM39.8 41Zm3 0v-.2.1Zm0-5.2.1.3c0 .1 0 .2-.2.2s-.2-.1-.2-.3c0-.1 0-.2.2-.2Zm-3.3-3.4h.3s.3 0 .2.2h-.3l-.2-.2Zm4.2-13.6h.1v.1h-.1v-.1ZM41.4 22v.1ZM39 59.5l.1.2s0 .1-.1 0h-.1v-.2Zm-5.8-.8H33c-.1 0 0-.1 0-.2.1 0 0 .1 0 .2ZM38 56 38 56h.2l.3.2H38Zm0-26c.2 0 .2.1.3.3 0 .2 0 .5-.2.5s-.4 0-.4-.3c0-.2 0-.4.2-.5Zm-1.8 14Zm-.7-23.3v.1ZM35 58c.3 0 .5.2.5.5 0 .2 0 .4-.2.4-.4 0-.5-.3-.5-.5s0-.4.2-.4Zm-.3-22.8Zm-3.2 11.2.1.1-.1.2-.2-.1.2-.2Zm-.3 10.4c.2 0 .6 0 .6.3s-.3.3-.5.3-.6 0-.6-.3.2-.4.5-.3Zm-1.8-28c.2 0 .3 0 .4.2 0 .3-.1.5-.4.5l-.3-.1c0-.3 0-.5.3-.5Zm-.6-2 .2.1-.2.1-.1-.1.1-.2Zm-.2 14c.3 0 .4.3.4.5v.2c-.3 0-.3-.3-.4-.5v-.2Zm-.1-16.4h-.1Zm-1 5.2.2.2-.1.2-.2-.2.1-.2Zm-.2 7h-.1ZM17.7 27.9c1.5 1 4.4-2.4 4.4-4.4 0-2-3.3-4.8-2.6-9.9 0 0-5 12-1.8 14.3Zm2.1-1.7.2.1-.1.3-.3-.1c0-.2 0-.3.2-.3Zm-1.4-3.6.2.2-.2.1-.2-.1.2-.2ZM30.1 8.7c-1 2-1.8 6.2 0 5 2.3-1.6 3.8-4.1 3.4-6.3-.3-2-2.7-5.8-3-7.4 0 1.4.6 7-.4 8.7Zm-.2 3.4c-.3 0-.4-.2-.4-.5 0-.2.2-.3.5-.3.2 0 .4.1.3.4 0 .2-.2.4-.4.4Z"/><path fill="#EE2345" d="M46.3 32c1.8-1.1 2-4.2 1.8-7.3v-.1a37.5 37.5 0 0 0-.6-3.2c0-.1-.2-.2-.1-.4h.2c-.4-2.3-.9-4-.9-4 0 2.1-.6 4.8-2.5 8-1.8 3 2.1 7 2.1 7Zm-.5-8.2c.3 0 .6.2.5.6 0 .1-.2.3-.3.2-.3 0-.6-.2-.7-.6 0-.2.2-.2.5-.2Zm-1 2.6c.4 0 .8 0 .8.4 0 .3-.3.2-.5.2-.3 0-.6 0-.7-.3 0-.3.3-.4.5-.3Z"/><path fill="#fff" d="M43.3 48.8 43 45l-1.2-4-3.5-3.4L35 36l-5.8.3-3 1.4-2.5 2.7-2 5.2.5 4.9-.4 3.6 4.8 1.6V57l1.5 1 1.8-.6.6 1.6h2l.6-1.7.7 1.1 1.6.4 1-1-.1-1.7 1.8 1.5 1.4-.8V55l3.3-1.5 1.4-1.9-.8-2.8Zm-12.9-.6L29 49.9l-2.3.1-1.8-1.5V46l1.5-1.7h2.3l1.7 1.5.1 2.3Zm3.4 4.8H32l-.6-1.6 1.4-1 1.4 1-.4 1.6Zm6.2-5.4-1.5 1.7-2.4.1-1.7-1.5v-2.3l1.5-1.8h2.3l1.7 1.5.1 2.3Z"/></svg>