<svg width="64" height="64" viewBox="0 0 64 64" fill="none" xmlns="http://www.w3.org/2000/svg">
<path d="M26.3123 21.8478C24.6851 24.6421 25.9233 29.4484 15.5285 38.2159C12.4707 40.7969 13.0814 50.811 14.901 56.2991C14.9763 56.2614 15.0684 56.2489 15.1646 56.2614C15.3193 56.2782 15.3946 56.3869 15.3988 56.5417C15.3486 56.7258 15.2273 56.7927 15.0725 56.7927C15.5118 57.9974 16.0095 58.9386 16.5408 59.4698C19.8746 62.8037 36.0838 66.2128 43.3037 61.5655C48.9674 57.9179 50.7494 48.6902 50.5193 45.8959C50.2851 43.1017 42.0655 30.6154 39.7356 27.2021C37.4098 23.7888 43.2242 21.9273 43.768 19.5221C44.3118 17.1169 42.9146 7.03163 38.4137 3.54301C38.4137 3.54301 39.3465 12.6954 37.9494 14.1678C36.5523 15.6444 27.9437 19.0578 26.3123 21.8478ZM15.8673 40.2196C15.8297 40.2071 15.7711 40.2071 15.7586 40.182C15.746 40.1527 15.7753 40.1067 15.7837 40.0648C15.8213 40.0774 15.8799 40.0774 15.8924 40.1025C15.905 40.1318 15.8799 40.1778 15.8673 40.2196ZM16.7206 58.3571C16.5157 58.378 16.3609 58.2651 16.3274 58.0643C16.2856 57.7966 16.4069 57.6167 16.6956 57.6293C16.9005 57.6418 17.0093 57.7882 17.0386 57.989C17.0344 58.2024 16.9256 58.3362 16.7206 58.3571ZM18.8456 56.6295C18.8289 56.6546 18.7745 56.6546 18.741 56.6672C18.7369 56.6295 18.7159 56.5835 18.7285 56.5584C18.7452 56.5333 18.7996 56.5333 18.8331 56.525C18.8414 56.5626 18.8623 56.6086 18.8456 56.6295ZM18.9167 48.0962C18.9376 48.0669 18.9544 48.0167 18.9837 48.0084C19.0129 48 19.084 48.0418 19.0799 48.046C19.059 48.1548 19.0004 48.1715 18.9167 48.0962ZM20.318 46.0758L20.2762 46.0131L20.3515 46.0089L20.318 46.0758ZM22.1293 58.6541C22.1 58.6248 22.0456 58.583 22.054 58.5663C22.1084 58.4491 22.1669 58.4533 22.2171 58.5705C22.1878 58.5997 22.1586 58.629 22.1293 58.6541ZM24.7018 60.3984C24.6391 60.3441 24.5345 60.298 24.5261 60.2353C24.5094 60.1307 24.5973 60.0805 24.706 60.1224C24.7437 60.1349 24.7897 60.1684 24.8064 60.206C24.8566 60.3106 24.8189 60.3775 24.7018 60.3984ZM24.7186 49.6105C24.5387 49.5854 24.3463 49.531 24.2919 49.3386C24.2459 49.1838 24.3797 49.1085 24.5261 49.0708C24.7604 49.0708 24.9779 49.142 25.003 49.418C25.0156 49.5686 24.8691 49.6314 24.7186 49.6105ZM25.2791 34.6395C25.4046 34.5433 25.6723 34.3885 25.6806 34.4554C25.7183 34.8026 25.4213 34.5851 25.2791 34.6395ZM25.5133 58.6123C25.4088 58.6667 25.3167 58.629 25.3293 58.5161C25.3335 58.4492 25.4255 58.3864 25.4799 58.3237C25.5928 58.3362 25.6388 58.4031 25.597 58.5119C25.5803 58.5537 25.5468 58.5956 25.5133 58.6123ZM25.6514 55.2031C25.6221 55.2199 25.5593 55.2199 25.5426 55.199C25.4631 55.1195 25.484 55.0567 25.6012 55.0442C25.6305 55.04 25.6639 55.0818 25.6974 55.1027C25.6806 55.1362 25.6765 55.1864 25.6514 55.2031ZM26.0989 28.9715C26.0404 28.9757 25.9735 28.8962 25.9065 28.8544C25.9484 28.7916 25.9902 28.6871 26.0362 28.6829C26.0989 28.6787 26.1659 28.7582 26.2286 28.8C26.191 28.8586 26.1491 28.9673 26.0989 28.9715ZM43.4417 58.445L43.425 58.3739L43.5003 58.3906L43.4417 58.445ZM43.6927 57.1357C43.6676 57.1482 43.609 57.1482 43.5923 57.1273C43.517 57.052 43.5421 56.9935 43.6467 56.9851C43.6718 56.9809 43.7052 57.0227 43.7345 57.0437C43.7178 57.0771 43.7136 57.1231 43.6927 57.1357ZM48.6161 53.4797C48.6454 53.4797 48.6705 53.5174 48.6997 53.5383C48.6872 53.5718 48.683 53.622 48.6621 53.6345C48.5701 53.6805 48.5157 53.6429 48.5366 53.5425C48.5408 53.5174 48.5868 53.4797 48.6161 53.4797ZM47.3193 45.3898C47.4239 45.3898 47.4783 45.4693 47.4574 45.5739C47.4281 45.7203 47.3235 45.7956 47.1771 45.8165C47.0725 45.7956 47.0182 45.7328 47.0433 45.6282C47.0725 45.4818 47.1729 45.394 47.3193 45.3898ZM45.9557 39.726C46.1983 39.7218 46.42 39.7929 46.4618 40.0439C46.5078 40.3116 46.3071 40.4371 46.0728 40.4664C45.8344 40.4957 45.6169 40.4162 45.5792 40.1569C45.5374 39.8975 45.7173 39.772 45.9557 39.726ZM45.1818 57.1106C45.2069 57.1022 45.2655 57.1315 45.2822 57.1608C45.2948 57.1901 45.2739 57.2361 45.2697 57.2737C45.232 57.2821 45.1776 57.3072 45.1567 57.2905C45.0689 57.2235 45.0814 57.1524 45.1818 57.1106ZM43.5337 45.5739C43.6718 45.5613 43.7805 45.6366 43.7763 45.7872C43.7722 45.921 43.701 46.0256 43.3873 46.0424C43.404 46.0424 43.3037 45.9754 43.3078 45.8248C43.312 45.691 43.3915 45.5864 43.5337 45.5739ZM39.8108 41.1148L39.7523 41.052L39.8318 41.0311L39.8108 41.1148ZM42.831 41.0144C42.8059 41.0186 42.7682 40.9893 42.7348 40.9725C42.7348 40.9349 42.7222 40.8847 42.7389 40.868C42.8142 40.8052 42.8728 40.8345 42.8895 40.9349C42.8937 40.9558 42.8561 41.006 42.831 41.0144ZM42.7389 35.886C42.8854 35.9153 42.9397 36.0366 42.9272 36.183C42.8979 36.321 42.831 36.4424 42.672 36.4089C42.5256 36.3796 42.4629 36.2541 42.4838 36.1119C42.5047 35.978 42.5842 35.8567 42.7389 35.886ZM39.5222 32.4559C39.6059 32.4685 39.6937 32.4685 39.7774 32.4894C39.8945 32.5187 40.0953 32.5438 40.0367 32.6776C39.9823 32.8073 39.815 32.6944 39.7146 32.6233C39.6477 32.5773 39.5891 32.5103 39.5222 32.4559ZM43.7429 18.8654C43.7722 18.8654 43.7972 18.903 43.8265 18.9239C43.814 18.9574 43.8098 19.0076 43.7889 19.0201C43.6969 19.062 43.6425 19.0201 43.6592 18.9239C43.6634 18.8988 43.7136 18.8654 43.7429 18.8654ZM41.4422 22.1281L41.4213 22.2034L41.3669 22.149L41.4422 22.1281ZM38.9701 59.4949C39.0286 59.5493 39.1206 59.5911 39.1332 59.6539C39.1541 59.7542 39.0705 59.8003 38.9701 59.7584C38.9324 59.7459 38.899 59.7082 38.8822 59.6748C38.8278 59.5744 38.8613 59.5116 38.9701 59.4949ZM33.1808 58.6667C33.1473 58.6709 33.0971 58.6959 33.0804 58.6792C32.9967 58.6165 33.0051 58.5537 33.0971 58.5161C33.118 58.5077 33.1766 58.537 33.1891 58.5621C33.2059 58.5872 33.185 58.629 33.1808 58.6667ZM38.0498 56.1443C37.9871 56.1192 37.9494 56.0356 37.8992 55.977C37.9787 55.9812 38.0707 55.9603 38.1293 55.9979C38.2422 56.0648 38.3301 56.161 38.4305 56.2489C38.3008 56.2154 38.1669 56.1945 38.0498 56.1443ZM37.9327 30.0926C38.1627 30.0758 38.2422 30.2348 38.2799 30.4063C38.3301 30.6238 38.351 30.8664 38.0624 30.9292C37.8657 30.971 37.7277 30.8371 37.6942 30.6447C37.6566 30.4188 37.7193 30.218 37.9327 30.0926ZM36.2386 44.022L36.2846 44.0931L36.2009 44.0973L36.2386 44.022ZM35.4731 20.8314L35.4689 20.9067L35.4061 20.8648L35.4731 20.8314ZM35.1384 57.9556C35.448 57.9932 35.5693 58.2149 35.6111 58.4952C35.6362 58.6834 35.5693 58.88 35.3643 58.8967C35.0171 58.926 34.9376 58.6458 34.9 58.3739C34.8791 58.194 34.9084 58.0183 35.1384 57.9556ZM34.808 35.1958L34.7703 35.2627L34.7327 35.1958H34.808ZM31.562 46.3603C31.6163 46.4188 31.6665 46.4774 31.7209 46.5318C31.6791 46.5987 31.6373 46.6656 31.5954 46.7325C31.541 46.674 31.4532 46.6196 31.449 46.561C31.4407 46.4941 31.5201 46.4272 31.562 46.3603ZM31.2733 56.7592C31.541 56.7718 31.8673 56.822 31.9091 57.1273C31.951 57.441 31.6373 57.3992 31.4281 57.4243C31.1688 57.3741 30.8174 57.4285 30.7839 57.0771C30.763 56.8052 31.0433 56.7467 31.2733 56.7592ZM29.5248 28.8544C29.6922 28.8293 29.8218 28.8837 29.8553 29.0259C29.918 29.2852 29.7884 29.4609 29.5416 29.5362C29.3952 29.5822 29.2697 29.4902 29.2278 29.3522C29.1484 29.0844 29.2948 28.9339 29.5248 28.8544ZM28.9434 26.7336C28.9936 26.7336 29.0396 26.8382 29.0856 26.8967C29.0229 26.9386 28.9559 26.9846 28.8932 27.0264C28.8472 26.9678 28.8012 26.9135 28.751 26.8549C28.8137 26.8089 28.8806 26.7294 28.9434 26.7336ZM28.7468 40.801C29.0229 40.8387 29.0647 41.0729 29.1149 41.2863C29.1316 41.3532 29.0563 41.5122 29.0438 41.508C28.7719 41.462 28.7552 41.211 28.6673 41.0186C28.6924 40.9433 28.7301 40.801 28.7468 40.801ZM28.5627 24.3911L28.546 24.4664L28.4916 24.4078L28.5627 24.3911ZM27.6048 29.6366C27.6676 29.6784 27.7763 29.7161 27.7805 29.7621C27.7889 29.8248 27.7136 29.8959 27.6718 29.9629C27.609 29.921 27.5003 29.8876 27.4961 29.8416C27.4919 29.7746 27.5672 29.7035 27.6048 29.6366ZM27.358 36.5176L27.3455 36.6013L27.2786 36.5511L27.358 36.5176Z" fill="#EE2345"/>
<path d="M17.7034 27.8797C19.1716 28.892 22.1249 25.4954 22.1249 23.4792C22.1249 21.463 18.8286 18.7441 19.4896 13.6282C19.4854 13.6282 14.5201 25.6878 17.7034 27.8797ZM19.8284 26.1982C19.8911 26.1856 20.0124 26.2567 20.0333 26.3153C20.0877 26.4659 19.9957 26.5663 19.8535 26.6207C19.7824 26.5788 19.6736 26.5537 19.6485 26.491C19.5941 26.3446 19.682 26.2275 19.8284 26.1982ZM18.402 22.6301C18.4522 22.6259 18.5107 22.7221 18.5651 22.7723C18.5066 22.8267 18.448 22.8769 18.3769 22.9438C18.3267 22.8894 18.2305 22.8225 18.2388 22.7765C18.2472 22.7137 18.3392 22.6342 18.402 22.6301Z" fill="#EE2345"/>
<path d="M30.1145 8.7383C29.027 10.6792 28.2531 14.8664 30.1145 13.6241C32.3943 12.1014 33.9169 9.59163 33.5279 7.42065C33.1681 5.41281 30.7587 1.5519 30.4576 0C30.5914 1.42641 31.0599 7.05255 30.1145 8.7383ZM29.8845 12.0722C29.6293 12.0554 29.4871 11.8839 29.5038 11.6329C29.5247 11.3736 29.7172 11.2607 29.9598 11.2732C30.2108 11.2858 30.3613 11.4238 30.3446 11.6957C30.2819 11.9341 30.1313 12.0889 29.8845 12.0722Z" fill="#EE2345"/>
<path d="M46.3237 32.0878C48.1099 30.8873 48.3901 27.8003 48.1475 24.7341C48.0722 24.6965 48.0471 24.6379 48.1015 24.5626C48.1057 24.5542 48.1224 24.5501 48.1308 24.5459C48.0346 23.4416 47.8756 22.3456 47.6999 21.3459C47.6581 21.3668 47.6037 21.3752 47.5452 21.3501C47.4197 21.3041 47.336 21.1827 47.3736 21.0447C47.3904 20.9861 47.4908 20.9527 47.5577 20.9108C47.587 20.9192 47.6037 20.9359 47.6288 20.9485C47.2063 18.7064 46.7127 17.0374 46.7127 17.0374C46.7922 19.1331 46.0936 21.8478 44.2322 24.9474C42.3708 28.0554 46.3237 32.0878 46.3237 32.0878ZM45.7506 23.7888C46.102 23.8306 46.353 23.9812 46.2819 24.3995C46.2568 24.5417 46.1355 24.663 45.9891 24.6254C45.6753 24.5459 45.3533 24.4078 45.324 24.0397C45.3072 23.8264 45.5499 23.8013 45.7506 23.7888ZM44.8889 26.3613C45.1817 26.3948 45.5833 26.4073 45.5875 26.7922C45.5917 27.0599 45.2612 26.9846 45.0563 26.9971C44.8053 26.9427 44.4623 26.9804 44.4163 26.6541C44.3828 26.3655 44.6756 26.3404 44.8889 26.3613Z" fill="#EE2345"/>
<path d="M43.333 48.8282L42.8938 44.9339L41.664 40.96L38.2214 37.5383L34.8624 35.9027L29.0522 36.1705L26.1451 37.6261L23.5683 40.3075L21.5688 45.4735L22.0959 50.3759L21.6651 53.9775L26.4588 55.6173L26.5759 56.8847L27.9814 57.9639L29.7675 57.3114L30.4034 58.9469L32.4865 58.8507L32.9885 57.2235L33.6577 58.3488L35.3184 58.721L36.3139 57.6293L36.1634 55.9854L38.0499 57.4996L39.4094 56.7425L39.3508 55.0233L42.693 53.4546L44.0985 51.5974L43.333 48.8282ZM30.4243 48.2008L28.864 49.9116L26.5508 50.0204L24.84 48.4601L24.7312 46.1469L26.2915 44.4361L28.6047 44.3273L30.3155 45.8876L30.4243 48.2008ZM33.7623 52.9945L32.0264 53.074L31.4115 51.4468L32.7709 50.3592L34.2224 51.3171L33.7623 52.9945ZM40.0117 47.6068L38.4515 49.3176L36.1383 49.4264L34.4274 47.8661L34.3187 45.5529L35.8789 43.8421L38.1921 43.7333L39.903 45.2936L40.0117 47.6068Z" fill="white"/>
</svg>
