<svg xmlns="http://www.w3.org/2000/svg" width="64" height="64" fill="none"><path fill="#EE2345" d="M21.7 31H20l-.7-.1h-.5l-.5-.1a1 1 0 0 1-.5-.7c-.2-.7-.1-1.5-.1-2.3v-3.4l-.2-1.4c0-.3 0-.7.2-1l-.1-.4-.3-.7-.6-.3H12.8c-.2 0-.4.2-.6.4-.2.3-.4.6-.4 1l-.1 1.2v11l-.1 1.4c-.1.5-.2 1.1-.6 1.4l-.3.1a1 1 0 0 1-.7.2H8.2c-.7 0-1-.3-1-.9V23l.2-2-.1-.8v-1l-.1-.8V11.3a5 5 0 0 0 0-2V7.2c0-.4.2-.8.5-1H8a15.4 15.4 0 0 0 2.4 0l.4.1c.2 0 .4 0 .5.2.2.2.2.4.2.6v4l.3 3a20.9 20.9 0 0 1 .1 2.2l.4.4.2.1h.2l1.5.3h2l1-.2.3-.5.3-.8V15l.1-.3v-.2l-.1-1.8v-6c0-.2.1-.5.4-.5h.3l.1-.1h3.3c.2 0 .3.1.3.3l.2 1.3V18c0 3 .3 5.6.3 8.6V30.2c0 .4-.5.8-.9.8ZM8 24h.2v-.1c-.2 0-.3.1-.2.2 0 .2 0 0 0 0Zm0-6.2v.2H8v-.4.2Zm.3 3v-.4c-.1.1-.1.1-.2 0v.2c0 .1 0 .2.2.1Zm.2 14.4H8V35.5c-.1 0-.2.3 0 .2.1-.2.3-.3.3-.5ZM8 19.5l.2.1h-.1V19.2v.2Zm0 14.9v.1s.2-.1 0-.1ZM8.2 19h.1v-.1.1c-.1 0-.1 0 0 0Zm0-10.6h.1v-.1.1Zm0 12v.1Zm.1-10.7h.4v-.2s.1-.2 0-.2c-.2 0-.4.2-.4.4Zm.2 9.2v-.3h-.1v.3h.1Zm0-8v-.2h-.1l.2.3ZM9 36l-.3-.1v-.4s.1 0 0-.1c0-.2-.2.1-.2.2l-.1.5h.5l.1-.2Zm-.5-5.3v.1c0 .1 0 0 0 0l.1-.1v-.1h-.1Zm0-22v.1h.1v-.1c0-.2-.1 0 0 0ZM8.5 35h.2l.1-.2h-.1c-.1-.1-.2 0-.2.2Zm0-24.6c.1.1.3-.1.2-.2l-.2.2Zm.6 8.8h-.3v-.3l-.2.4v.4l.4-.1s.2-.3.1-.4Zm-.3-7.7-.2-.2v.2h.1v.4H9v-.6h-.1v.2ZM8.7 8v-.2s-.2.3 0 .2Zm.2 8.3h-.1v-.6s-.2.1-.1.2v.4s-.1.1 0 .2V17s.3-.1.3-.3v-.2Zm-.2-3.3v-.2.2Zm.6 8v-.2h-.1v-.1s.1 0 0 0v-.3H9v-.2h-.3l.2-.1V20h-.3V20.6H9v-.1.4h.2l-.1.2v.1l.2-.2ZM9 17.7h-.1l-.2.1v.2H9l.1-.1-.1-.2Zm0 2.1h-.2c0-.1-.1.1 0 0H9Zm.1 2.3c-.2-.2-.3.2-.1.1l.1-.1Zm.1-3.7v.2l.3.1v.1l-.1.2v.1l.4.3v-.1l.3-.1V19h-.3l-.1-.4v-.2h-.2s-.1 0 0 0v-.2c.2 0 .2-.2.1-.4l-.1.2h-.1l-.1.2v.2Zm.3 5.6-.1-.3c-.2 0-.2.2-.2.2v.1s0 .1.1 0h.1c0 .1.1 0 .1 0Zm0-1.3h-.2v.4c.1.1.3-.2.3-.2l-.1-.2ZM9.3 8.3s.1 0 0 0v-.1.1Zm.3 12.4c0-.1-.1-.1 0-.2v-.2c0-.1-.2 0-.2.2l.1.3v-.1Zm-.2-11c0 .1 0 0 0 0h.2c.1 0 0 0 0 0v.1c.1 0 .2 0 .2-.2h-.3l-.1.1ZM9.6 32V32l-.1.2c0 .1.1 0 .1 0Zm0-11v.1Zm0 13.6c.1 0 .2-.1.2-.3v-.1h-.2v.4Zm.5-14.5c.1-.2.2-.2.2 0V20l-.1-.4s-.2-.3-.3-.2c-.2 0-.2.2-.3.3v.2c0 .2.2.2.3.2v.1h.3v-.1ZM10 35.8h.1v.1h.1l.3.1v-.2l-.1-.1h-.4c0-.2-.3.1-.3.2l.2.1.1-.2Zm-.2-25v-.2h.1v-.1h-.1v.2Zm0-3H10v-.4h-.2l-.1.1v.3Zm0 4.4V12s.1-.1 0-.2v.3Zm0 5 .1-.1v.1Zm.2-.4v.1Zm.3 3.8v-.1c-.1-.2-.2 0-.2 0 0 .2 0 .2.2.2v-.1ZM10 8.4c0 .2.1.1.2.1 0 0 .2-.2 0-.2l-.2.1Zm.1 10.2.2.2v.2c.1.2.4 0 .5 0l.1-.1v-.1h-.4.2V18.5l-.3.2v.1-.5h-.2v-.1l-.1.2v.2Zm0-.7c0 .1.2.2.3.1l.4.1-.3-.1v-.2H10Zm.4-6.7c.2 0 .3-.2.2-.3l-.2-.3H10.2v.2l.2.1v.1l.1.2Zm0 5-.2.1v.1l.1.1.1-.2Zm-.1 5.2v.1l.1-.1s.2-.2 0-.2V21l-.2.1v.4h.1Zm0-10.3Zm.2 8.5c0 .2 0 .3.2.4 0-.2 0-.3-.2-.4ZM11 7.1v.5-.5Zm0 28v1.2-1.1Zm.3-15.7-.1.3h.1l.2-.1v-.2c.1 0 .1-.2 0-.1v-.1c-.2 0-.2.1-.2.2Zm0 12.8-.1-1.1v.2l.1 1.7v-.8Zm.1-10.5v.3l-.1.2v.2l.1-.7Zm.2-4.4c-.2 0-.3.4-.2.4.2 0 .3-.4.2-.4Zm.2 2.2h-.2v.2h.2v-.2Zm2.2-.7H13.7l-.1-.2-.2.2.1.1.2.1h.1v.4c.1 0 .2-.1.2-.3v-.2Zm-.2-1v-.1.2Zm1.4 0v-.1l-.2-.1s-.2.2 0 .2h.1Zm.5.6v-.2l-.2-.1c-.1 0-.2.1-.1.2 0 0 .2 0 .3.2Zm0 1h-.2l-.1.2h.2v-.1Zm1 0-.1.1v.1l.1-.2Zm1.3-.8.1-.1.1-.1s.1-.1 0-.1h-.1l-.2.2.1.1Zm0-11.9V7v-.2Zm0 9.4Zm0 5.7.2.7v-.4l-.1-.3Zm.4 7.2v.3-.3Zm-.2-20.2s0-.2.2-.3v-.1l-.2-.8V9Zm.3 19.7Zm0-18.7h-.2l.1.5v-.5Zm-.2 4.6v.2-.2Zm.3 2.6v.1l-.2.2v.3l.1-.1H18.8v-.2h-.1V17Zm0 10.6.1-.2v-.1.3Zm0-12.2-.1-.5v.3l.1.2Zm.3 13.2v.7-.7Zm0-14.4-.1-.2v.2l.1.4v-.4Zm.2-7.5H19s.1 0 0 0Zm0 12v-.2H19v.3s.1 0 0 0Zm0 .5-.1.1h.2v-.1Zm.4-.8.1-.2-.3-.2c-.1-.1-.2.2-.2.4v.2l.2-.1v-.1h.2Zm-.3-10.1Zm.3 19.2s.2-.1 0-.1v.1Zm.2-20s0 .1-.1 0c0 0-.1.2 0 .2h-.1l-.2.2c0 .2 0 .3.2.3v-.3l.1-.1s.2-.2 0-.2Zm-.2 9.8v.1h.1v-.1l.1-.1V17h-.1s-.1.1 0 .2Zm0-5.2V12v.2Zm.3 16.6v.3V28.7ZM20 19c0 .1.1 0 .1 0v-.4h-.2l-.2.1v.3l.2-.1v-.2c.2 0 .1.3.1.3Zm-.1 1.1c0 .1.1 0 .1 0V20l-.1-.2h-.1l-.1.1V20.3h.2Zm-.1-11.4-.1.2.2-.1.1-.1.1-.3h-.2l-.1.3Zm.8 19.3s0-.2-.2-.2l-.2-.1v-.2c-.2 0-.2.2-.2.3l.1.2h.4Zm-.2.4c-.1 0-.3 0-.3.2 0-.1.2-.1.2 0h.1v-.2Zm-.5-16.2v.4h.1v-.4h.1V12H20l-.1.1v.1Zm.1-4.3c0-.1-.2 0-.1.1v.2l.1-.3Zm0-.8v-.2c.2 0 .2-.2.2-.3 0-.1-.1 0-.2 0l-.1.4v.2L20 7Zm-.1 2h.1c0 .1.1 0 .1 0 0-.1-.1 0-.2 0Zm0 6.5.1-.1h-.1v.1Zm0 1.7c0 .2.1.3.3.3v-.1a.2.2 0 0 1-.3-.3v.1Zm.4-1.4v-.2H19.8v.2c0 .1-.1.2 0 .2v.1h.1V16h.1l.1-.2Zm-.1 2.4V18l-.2-.1v.2h.1c0 .1 0 .1 0 0Zm0 6.4c0 .1.1 0 .2 0v-.4l-.2.4Zm.4 2.7-.1-.1c-.2 0-.3.3-.2.3h.2s.2-.2 0-.2Zm0 2.3h-.2c0-.1-.1.2 0 .2 0 .1 0 0 0 0l.1-.2Zm.2-3.7.2-.2-.2-.1-.1.1c0-.1 0-.2-.1-.1h-.2c0-.1-.1 0 0 .1 0 .2.2.3.4.2Zm-.2-6.5v-.2c0-.1-.2-.3-.4-.2 0 0-.1.2 0 .2h.1l.2.1v.6h.1v-.2c.1 0 .1-.1 0-.1v-.2Zm-.5-6.3h.2-.1Zm.3 13.7v-.3.3c0 .1 0 0 0 0Zm0-16.7H20v.2l.1-.2ZM20 16Zm.2 1.9v-.2l-.1.2v.1l.1-.1Zm.1 3v-.2c0-.1 0-.1 0 0h-.2v.4h.1l.1-.2Zm-.2-7.7Zm.8 16v-.3s.2-.2 0-.2h-.3l-.1.1c-.1 0-.1.3 0 .2H20.8v.2Zm-.6-22s-.2.2 0 .3l.1-.2s.1-.1 0-.1h-.1Zm.6 11.4v-.1a1 1 0 0 1-.1-.4c0-.2-.2-.1-.2 0h-.2c-.2 0-.3.3-.2.3h.3v.5h.1c.2.2.4-.2.3-.3ZM20.4 9Zm.2.9v-.5l-.2.2c.2 0 .2.2.2.3Zm-.1-2.1V8l.1-.2v-.1l-.1.2Zm0 9.2v.1c0 .1 0 0 .1 0l.1.1.2-.2-.2-.2v-.5l-.1.1v.6Zm.2-9-.1.1v.5s0 .1 0 0h.1c.2.1.2 0 .3.2v-.3h-.1v-.2h-.1V8.1h-.1Zm.5 2.5.2-.3-.2-.2c-.2 0-.2.3-.2.3h.2l-.1.1h-.2l-.2.2-.1.2h.2c.2 0 .3-.2.4-.3Zm-.3 9.7-.2-.1c-.1 0-.1.2 0 .2h.1v-.1Zm.3 7.2H21c0-.1 0 0 0 0H21v.1h.1Zm.1 1.7h-.2l-.1.2H21.4v-.2Zm-.5-9.3v-.2.2Zm0-13v.2h.2l.1.3s-.1 0 0 0l.1.2h.1v-.2c0-.1 0 0-.2 0V7l-.1-.3c0-.1-.3.2-.2.3ZM21 28l.1.2h.2v-.1H21Zm0-2.8Zm.7 1.2c0-.1 0-.2-.2-.2v-.3c-.1 0-.2 0-.2.2l-.1.1-.2.1.2.1h.4ZM21 13.7v-.1l-.2-.2v.4h.1v-.1h.1Zm-.2 7.2h.1s.1-.1 0-.1v-.4.5Zm.1-6.6v.1Zm.3.7H21l-.1.1v.1h.2V15Zm0 9.7v.1l.1-.1v-.2l-.1.2Zm0 4h.2v-.3l-.1.2Zm.4.4-.1-.1h-.1l-.1.2h.2v.1-.2Zm-.5-9.6v.3h.1v.1s-.1.2 0 .2c0 0 0 .1 0 0l.1-.2v-.4h-.1Zm.2-11v-.1c0-.1-.1 0-.1 0l-.1.2v.2h.2c.1.1.2-.1.1-.2Zm.2 3.4h-.2v-.2l-.2.2v.5l.1-.2h.2c.1 0 .2-.2.1-.3Zm-.2 8.7-.1-.2v.3-.1Zm.2 9.2c-.1-.1-.2.2-.1.1h.1Zm-.1-13.3-.1-.2v.1c0 .1-.1.3 0 .4 0 0 .1-.1 0-.1v-.2ZM47 15.2V11.3l-.1-.5-.3-.5-.1-.2h-.2c-.2-.2-.5-.2-.8-.2h-3.1c-.5 0-.8-.4-.8-.8v-2c0-.4.2-.7.5-1h4.2c.8 0 1.5 0 2.2.2h.6c.5 0 1-.2 1.5-.1l.9-.1h4.7c.2 0 .3.1.3.4.3.9.2 1.8.2 2.7 0 .4-.4.6-.7.6h-2.8c-.3 0-.5.2-.7.3l-.5.3c-.4 1.3-.6 2.6-.7 3.8l.1-5.2.3 1.7v2.8l-.2 2.2-.1 2v.1l.2 4.9v.9l-.1 1.2c-.1.2-.3.5-.6.5H47.8l-.2-.1-.2-.1-.1-.3-.2-.4v-1.9l-.1-2.7v-2.9l.2-3.4-.2 1.7Zm-4.7-7.7v-.1h-.1v.2h.1Zm.2.5-.1.2s.1-.1 0-.2Zm.4-1.4-.2-.1v.1h.2Zm1.3.8-.1-.2V7L44 7c0-.1 0-.1-.2 0V7.2l-.3.1-.3-.2c-.1-.2-.3.1-.3.2.2.2.3.1.5.2l.1-.2h.4c0 .2.1.2.2.2s.2-.1.1-.2Zm-.6 1c-.2 0-.4 0-.4.2v.1h.1l.1-.1h.1s.1-.1 0-.2Zm1.7-.9c.1 0 .2 0 .3.2l.1-.2-.1-.2h-.2l-.1.1v.1Zm.6.8h-.4v.5-.2l.4-.2v-.1Zm.6-.1V8c.1 0 .1-.1 0-.1v.3Zm.2-.7h.3-.1c-.1 0-.2.3 0 .2l.1.1h.1v-.3h.1v-.1l-.2-.1h-.2s-.2.2 0 .2Zm.6.7-.1.3H47v.3h.1V9c0 .2.2.2.3.2l-.2-.2h.2l.1-.3V8.3h-.2Zm.4 1.6v-.2l-.1.1-.1.3v.1l.2-.1v-.2Zm-.2-2.2h.1v-.2s-.1.3 0 .2Zm.2 1h-.1s-.1 0 0 0h.1Zm.3 10.3v-.2s0-.1-.1 0l-.1.1v.3h.2v-.2ZM47.9 9h.1l.2-.2v-.2l-.1-.1-.2.2V9ZM48 8l.2-.1h.1l.1-.2-.1-.2h-.1l-.1.1v.1c-.1 0-.2.3 0 .3Zm.1 15.6.3-.1v-.2l-.1-.1-.2.1v.3Zm0-13.8s.1-.1 0-.1v.1Zm.2-1v.1c-.1.2-.1.4.1.6h.1l.2-.1-.1-.2h.2V9h.1v-.1h.1v-.2l-.1.1-.6-.1Zm.1-.5-.1.2v.2l.1-.2c0 .1 0 0 0 0l.2-.2h-.1Zm0 8.9h.1s-.2.3 0 .3h.4v-.2h-.2l.1-.4h-.4s-.2.3 0 .3Zm.1-7.2v-.2c-.1.1-.2.6 0 .6v-.4Zm0 3.9s-.2.3 0 .3h.3V14h-.1v-.2h-.2Zm0-4.7Zm0 1.4c0 .2 0 0 0 0Zm.4 1.2s0-.1 0 0h-.2l-.1.1h.2Zm-.3-2.3h.3c0 .1 0 0 0 0s.1 0 0 0c0-.1-.3-.2-.3 0Zm0 2.6v-.3.3Zm.2 4c0-.1-.1 0-.1 0v.2-.1l.1-.1Zm.3 6v-.1H49s0-.2-.2-.1c0 0-.1.1 0 .2 0 .1 0 .1 0 0v.2H49.2V22Zm.3-11.8c.1 0 .2-.2 0-.2H49s-.2.2-.1.3h.5Zm-.3 3.6H49v-.3.1l-.1.2h.1Zm.3-3.8a.7.7 0 0 0-.5-.2l.3.2.1.1v.2c.2 0 .2-.2.1-.3ZM49 8.3c0 .2.1.4.4.3-.2-.1-.2-.3-.2-.5-.2 0-.2.1-.2.2Zm1 1V9s0-.1-.1 0h-.2v-.2s0-.1 0 0v-.1h-.5v.1l.1.2h-.1l-.1.2.1.1.2.1h.1l.1-.1V9l.2.1s0 .1 0 0h.2Zm-.8 1.9.1-.3c-.1 0-.2 0-.1.2Zm0 1.5h.1v-.3l-.1.2Zm0 2v.2s.1-.1 0-.1Zm.2 3-.1.2c.1 0 .1-.2 0-.1Zm0 5.8c0-.1 0 0 0 0v.2-.2Zm.1-14.6v.2h-.1V8.8h.1V9Zm.6 13.4h.1v-.1h.2s.2-.2 0-.3h-.6v-.2h-.2l-.1.2.2.2c0 .2.2.1.3.1v.1Zm-.3.4h-.1c0-.2-.1 0-.2 0v.3h.3v-.3Zm-.2-6.9s-.1.2 0 .2v-.2Zm0-3.3v.4s-.1.2 0 .2h.1l.1-.1v-.5c0-.1 0 0 0 0v-.1c-.2-.1-.2 0-.2.1Zm0-1.1c0 .1 0 0 0 0v-.2c.1 0 0 0 0 0v.2Zm0 7h.2v-.1c0-.1 0-.1-.1 0l-.1.1Zm.2-9.4s.1 0 0 0v-.3h-.1s-.1.2 0 .2l.1.1Zm-.1 2.7v-.1l.1-.1s.1 0 0 0c-.1-.2-.1.1-.1.2Zm0-3.8h.1c0 .1.1 0 .1 0l.2-.1h.1v-.1l-.1-.1H49.7V8Zm.2 9.8v.2l.2-.1s0-.2-.2-.2v.1Zm0 2.2h.1v-.2s.1-.1 0-.2v.4ZM50 11h.1l.1-.2H50l-.1.2Zm.4 13v-.3h-.2v-.3c-.2 0-.4.3-.2.4l.1.2h.3ZM50 12c.1 0 .2 0 .2-.2-.2 0-.2.2-.2.2Zm.1-1.5h.2v-.2h-.1v-.1c0 .1-.2.2 0 .3Zm0 8.8h.2c0 .1 0 0 0 0h.2c.2.1.2.1.2 0 0 0 .1 0 0 0v-.2h-.3v-.3h-.1v.2l-.2.3Zm.2-5v.1l-.2.2h.2v-.3Zm0-5.7V9c.1 0 .2-.1.1-.2V8.4h.4v.3l.2-.1v-.2h-.5v-.2h-.1l-.2.2v.3Zm0-.2v-.1.2Zm.4.7c-.2 0-.4.6-.2.6s.4-.6.2-.6Zm.2 15.5h.1v-.2.1H51Zm0-2.2v.4-.4Zm0 1.7h.1v-1 1Zm.4-12.8.2-.6s-.2.1-.2.3v.4-.1Zm.2-3.9v.1h.1v.2h.2V7.4h-.2Zm.7 1h.2v-.2h-.2s-.1.2 0 .1Zm1.2-1.2v-.1h-.1v.2s0 .1 0 0c.1 0 .2 0 .1-.1Zm1.3-.3-.1-.2h-.1V6.4h-.1v.1h-.2V7l.2.1h.1l.2.2V7Zm-.5-.4Zm.1 1.1v-.1.2c0 .1 0 0 0 0Zm.3 1.1h-.1l-.1-.2-.1.3.2.1.1-.2Zm1-.6c-.2 0-.4.5-.2.5s.4-.5.2-.5Zm0-1.6s-.1.2 0 .2c0 0 .1-.1 0-.2Z"/><path fill="#F37131" d="M22.3 62.4v.7c-.1.5-.5.7-1 .7-.2 0-.5-.1-.8 0h-1c-.7 0-1.3-.4-1.5-1.2a16 16 0 0 0-1-2.1c-.4-.7-.6-1.4-.8-2.2l-.9-1.8-.8-1.6-.3-.6H14v-.1l-.5-.7-.7-.8-.5-.1h-.1v.1l-.1.1v.1l-.1.2V53.5l-.1.3V56l.1 2.4.2 2V63l-.1.2-.1.1-.3.3h-1.2l-.5.1h-2c-.6 0-.8-.2-.8-.8l-.1-1.8v-6.6l.2-1-.1-1v-1l-.1-1.2V45c.1-.7 0-1.4.2-2l-.2-1.8v-1.7c0-.4.2-.7.5-1H8a15.4 15.4 0 0 0 2.6 0c.4 0 .7.4.8.9 0 .3.2.6.4.9l.5 1 .7 1.4.2.8c.3.4.7.7.9 1.3l.6 1.3.6 1.3.4 1.2c.2 0 .4.2.5.3l.4.4.5-.1.3-.4-.1-1 .3-9.3v-.3l-.1-1.5-.1-1.6.1-1.4v-1.2c0-.2.2-.5.3-.5h.5c.4-.1.8-.2 1.2-.1h2.3c.4 0 .5 0 .6.5l.1 1v15.2l-.1.5v13.2ZM7.8 48.9c0 .1.3 0 .4 0v-.2l-.4.1v.1Zm.1 3.4c.1 0 .2 0 .2.2v-.3L8 52s-.1.2 0 .2Zm0 1H8V53c-.1 0-.2.2-.1.3Zm.5 7c.1-.2.2-.4 0-.5v-.2h-.2v-.4c0-.1-.1 0-.2 0l-.1.2v.2l.1.1h.1l.1.3h.2v.3c-.1 0 0 0 0 0Zm-.2-6.4H8L8 54H8Zm0-8.7V45v.1l-.1.2v-.1Zm0 8.5.2-.2V53.2s0-.1-.1 0l-.2.2V53.7Zm0-8.6h.1v-.2l-.1.2Zm.2-1.4s.2-.2 0-.2v.2Zm0 .7.2.2v-.4h-.2v.2Zm0 16.3h.1v-.1l.2.1s.2-.3 0-.3v.1h-.2v.1s-.1.1 0 .1Zm.2.8c-.2 0-.2.1-.2.2 0-.1 0-.2.2-.2Zm-.1-21.6.2.4v-.6h-.1c-.1 0-.2.1-.1.2ZM9 61.4v-.2h-.4s-.1 0 0 .1h.1v.2l.1.2H9v-.3Zm-.3-5.1v-.4l-.1.5.1-.1Zm.3 3.4-.1-.1v-.3l-.3.2v.2H9Zm-.3-.2v-.1Zm0-16.7H9v.2c0 .1.2 0 .2 0l.2-.1h.2v.2l-.1.4h-.1c0-.1 0 0 0 0V43.8l.1.2h.4-.2v-.2h-.1v-.2h-.1.1v-.1s.1-.2 0-.2V43h.1v-.3H9c-.3 0 0-.2 0-.2l.1-.1c-.2 0-.6.3-.3.4Zm0 15 .3.4s.1 0 0-.1l-.3-.3Zm.3-6.1v-.3.3Zm.2-6.8v.4l.1-.3c0-.1.1-.1 0-.2l-.2-.2h.1l.1-.3h-.1l-.1.1-.1.2v.1l.2.2Zm0 17h-.1c0-.2-.1 0 0 0h.1Zm.3-16.1c-.1-.1-.2-.1-.4 0h.3ZM9 53.2l.1.1V53H9Zm.4-6.8-.2-.2-.1.1v.3l.3-.1v-.1Zm-.3-4.9h.2l.1-.2h-.3v.2Zm0 18.1v-.5h.1l-.1.2v.3Zm0-12.2h.1v-.1Zm.2-.6v.3h.1v.3l.1-.1.2-.2-.2-.2c.2-.1.2-.2.2-.3 0 0 0-.1-.1 0 0 0-.2 0-.3.2Zm0 14.2h.2l.1-.3c-.2 0-.4.1-.3.3Zm.2.5v.1l.1.4s.3-.2.2-.3v-.1h-.2v-.2h-.2c0-.2-.2 0-.1.1h.1ZM9.5 49l-.1.1Zm-.1 11.4v.1H9.7l.2.1h.1s.1-.1 0-.1v-.1h-.4l-.1-.3-.1.3Zm.1-7.3v.1l.2.3.2-.2h.1s.2-.3 0-.3h-.2v-.1h-.2l-.1.1Zm.4 4.2v-.1h-.2c0-.1 0 0-.2 0v.2c.1.1.2.2.4.1v-.1Zm0-12.7.1-.2-.2.2c-.2 0-.2.2-.2.3 0 .2.2.2.3.2v.2l.1-.1V45c.1 0 .2-.2.1-.3v-.1l-.2-.1Zm-.3 12.1v.1h.1v-.1c0-.1 0 0 0 0Zm0-14.1h.1c0 .1 0 0 0 0h.1c.2 0 .3-.3.2-.3h-.2l-.1.3Zm.2-2.6.2.2h.2c0 .1 0 0 0 0v-.2l-.2-.2-.2.2Zm.1 14 .1-.2v-.1l-.1.1-.2.2s0 .1.2 0Zm.4-7.1v-.1l-.1-.2-.2.1.1.1.2.1c0 .1 0 0 0 0Zm0-2.6h-.1c-.1-.1-.2.2 0 .2v-.2Zm0-.8v.2l.1-.2h-.1Zm.2 1.8h-.2v.3-.2h.1Zm0 .7h.2v-.1l-.2.1Zm.3-1.8h.4s.1-.1 0-.2h-.1v-.2H11c-.2 0-.3.3-.2.4Zm0 2.8v.5c0 .1.1 0 .2 0 0 0 .1-.2 0-.2L11 47Zm.1-3.8.1-.3v.3Zm0 8.7Zm0 3.7v.1-.1Zm.3-10.6H11v.1l.2.1V45.4h.3v.2l.2.2v-.6h-.3l-.1-.3Zm.1 1.5-.1-.4-.2.2.1.2h.2Zm0 16.3v.2-.2Zm.2-12.8h-.2v.5l.2-.5Zm-.2 8.6V58v3.8-3.5Zm0-14.7.2.2.2-.2-.1-.4v-.1h-.1v.4h-.1Zm.1 7.6V51.7 51.4Zm.3 11.6v-.9V63Zm0-18a2089948807668.9 2089948807668.9 0 0 1 .4 0c0-.1 0-.2-.1-.1v-.1h-.2s-.1 0 0 .1Zm.3 7.6Zm.1-1.4V51l-.1.1h.1Zm.1-6.5h.2l.1-.2v-.2a2 2 0 0 0-.3.3v.1Zm.4 1H12.3s-.2.2 0 .2h.2v.2c-.1 0 0 .1 0 0l.1-.3Zm-.2.4v-.2l-.1.1v.1Zm0 4.4.1.1v-.1Zm.1-4.4.2.3.1-.2h-.3Zm.6 4.7v.2h.4v-.1c.1-.1.1-.2 0-.2l-.1.1h-.1v-.3c.1 0 .1-.3 0-.2v.2l-.2.1v.2Zm.6-1.8s.1 0 0 0Zm.6 0h.4c-.1 0-.2-.1-.4 0Zm0 2h.2v-.1h-.2Zm.8-.6V50l-.3-.2v-.3l-.1-.1s-.1.1 0 .2v.5l.3.3Zm.3 1.8V52l-.2-.1s-.1 0 0 0v.5l.2-.1v-.2Zm1.1 1.5-.1-.3.1.4v-.1Zm.3-2.7h.4-.4Zm.1 6.3s-.1.1 0 .1l.2.3c0-.2 0-.4-.2-.4Zm.4-6-.1.1h.1l.3-.2c-.1 0-.3 0-.3.2Zm-.1 3.9Zm.3 1.1V56l-.1-.1-.2.1v.1l.2.2Zm-.2-5.8h.2-.2Zm.1 5.4.2-.1h-.1v-.2l-.1.2Zm.8 3.1h-.4v-.1h-.2c0-.2-.1 0-.1 0 0 .1-.1.3 0 .4l.2-.2.4.1s.2 0 .1-.2Zm-.7-6.8Zm.2-17.3c0-.3 0-.6.2-1v-.2c-.2.4-.2.8-.2 1.2Zm.3-2.2h-.1v.4-.4Zm-.1 24.5.1.4h.3v-.1h-.2L18 57s-.2 0-.1.1Zm.7 1.3h-.2c0-.1-.1 0-.1 0H18v-.2l.2-.1v-.1l-.3.1v.5h.5v-.2Zm-.5-8.8v.2-.2Zm.3 7h.2v-.2h-.3l-.2.1v.3l.2-.1v.1H18.7l-.1-.1Zm.2-24h-.2v.1h.2Zm-.1 23.1.1.2h.3v-.1l-.1-.3h-.2l-.1.2Zm1.6 2.3v-.4s0-.1 0 0h-.2v.1h-.2v.1h-.2l.1-.4-.3-.1-.1-.2c0 .2-.1.3 0 .4l-.2.3h-.2v.2h.2l-.2.1c.2.1.3 0 .4-.1h.2V58c0 .2.1.3.4.3 0 0 .2 0 .3-.2Zm-.8 1.6h-.1s0-.1 0 0v-.4h-.3l-.1.1.1.1h.1v.2H19v.3h.2c.2.1.2-.2.2-.3Zm-.1-1.2c-.1-.1-.2 0-.2 0l.1.3V58.5ZM19 57s0 .1.2 0c.1 0 .2 0 .2-.2l-.3.1.3-.3c-.2 0-.4.2-.4.4Zm.3.6-.1.1H19h.1v-.1h.2Zm.2 1.4h.2V58.7h-.4c-.1-.1-.2 0-.2 0v.1l.2.2h.1V59h.1v.1Zm-.3-4.7c0 .1 0 .2.2.3l-.2-.3Zm.2 6.5-.2.3c0 .1.1 0 .1 0l.2-.2V61Zm.1-27.9v.4-.3Zm.5 1.4-.3-.2V34h-.1s-.2.1-.1.2v.1h.2l-.1.3s0 .1 0 0h.3v-.3Zm-.4 20.7s-.1.2 0 .1h.2s.1-.1 0-.1h-.2l-.2-.3v.3h.2Zm0-3.6v.1Zm.3 6.6H19.6v-.2c0 .1 0 0 0 0h.1l.2.2Zm0 1.8h-.2l-.1.1h.3Zm.5-24.4c-.1-.2-.3 0-.4.2l-.3-.1.2.2v.3h.1v-.3h.3v-.3Zm-.6 26.9h-.2.2Zm0-24.9v-.1h.1v-.1h-.1v.2Zm0 1.3c.1-.1 0-.3.2-.3 0 0 .1-.2 0-.2l-.2.4s0 .1 0 0Zm0-4.7h.3v.1l.1.2.2.2v.2l.1-.2h.3s.2-.2 0-.2v-.2h-.1l-.2.1H20.3V34h.1l.3-.1h-.1c0-.1-.1-.1-.2 0v-.2l-.1.2H20v.1Zm0 .8.1-.2v.2Zm0 15.6s.1 0 0 0Zm.5-9.9-.2-.2-.1-.2c0 .2.1.4.3.4Zm.3 19.1h-.1V59.3c-.1 0-.3.1-.3.3v-.1l-.1-.3V59l-.2.2c.2.1.2.2.2.3v.3c.1.2.3.2.4.1 0 0 .2-.2.1-.3Zm-.5-1.6-.1.2v.3c0 .2.1 0 .1-.1V58Zm0-25.6v.2-.2c.1-.1 0 0 0 0Zm0 16.2.3-.1.1.2c.1-.3 0-.4-.1-.4h-.1l-.1-.1v-.1h.2s.1-.2 0-.2H20.3v.7Zm0 8v-.1c0 .2 0 0 0 0Zm.1-23.4.2.5-.2-.5Zm0 28.6v-.2h-.1v.3Zm.2-1.3h-.2s-.1.1 0 .1h.2v-.1Zm0-21.5v.2c0 .2.1.2.2.2v-.2l-.2-.2Zm-.2 14.5.2.2s.1-.2 0-.2v-.1h-.2Zm0 5.8h.1v-.1c0-.1 0 0 0 0Zm.2-20.2.1.1h-.1Zm0 18.1c.1-.1.2-.1.2-.3v-.2h.2l.1-.3h-.3l-.2.2v.2l.1.1-.1.2s-.2.1 0 .1Zm.2-17.2v.1-.1Zm0-3.2s.1-.2 0-.2v.2Zm.1 22.1h-.2v.1h.2Zm.3-24H21l-.3.1h.1v.3h.2v.1-.2h.4v.1c-.1.2-.2.5 0 .5l.1-.2v-.3l.1-.2-.1-.2h-.2c0-.1-.1-.1-.2 0Zm-.2 23-.1.3.2.2c.2 0 .2-.2.3-.2 0-.1-.1 0-.2 0H21l.1-.2V58h-.2v-.2l.2-.2h-.1c-.2 0-.3.1-.3.3 0 .1.1.2.3.2Zm.2-21.4-.2-.1.2.1Zm.2 15.2V51H21c0-.2-.2 0-.1.1v.4l.3.1c0 .1 0 0 0 0Zm0 10-.2-.1-.1.1s-.1.1 0 .2v.1s0 .1 0 0l.4-.2v-.2Zm-.3-5.6v-.3.3Zm.5-19.5s0 .3-.2.3v-.3l-.1.1v.4c.2 0 .3-.3.3-.5ZM21 57.8l.1.1v-.1Zm.2-23.5c0 .1.1 0 .1 0Zm.6 6-.1-.1V40h-.2s-.1.2 0 .2h.1l-.1.2h.3v-.2Zm0-1.6-.2-.1v.2c0 .1.1.1.2 0ZM56.8 41.7c0 .3-.3.6-.7.6h-2.7c-.3 0-.5.1-.7.3-.2 0-.4.2-.5.3-.5 1.3-.6 2.5-.8 3.8l.2 2.2c.2.6.2 1.2.2 1.7v2.8l-.2 2.2v2.1l.2 3.4v1l-.1 1c-.2.3-.4.6-.7.6h-3l-.3-.1-.1-.1-.2-.3-.1-.4V62.5l-.1-.6v-2.2l-.1-2.9.2-3.4v-3.1l-.1-2.7L47 45V43.2a6.4 6.4 0 0 0-.5-.6h-.1c-.3-.2-.6-.2-.8-.2-1.1 0-2.1-.1-3.2 0-.4 0-.7-.4-.7-.8v-2c0-.4.2-.7.5-1h4.1c.8-.1 1.5 0 2.3.2h.6c.4 0 1-.2 1.4-.1l1-.1h4.6c.2 0 .3.1.4.3.3 1 .1 1.9.1 2.8ZM42.5 40v-.1c-.1-.1-.2 0-.2 0v.1h.1Zm.1.5s-.2.2 0 .2v-.2Zm.5-1.5H43s-.1 0 0 0h.2Zm1.3.9-.2-.2v-.3H44V39.7l-.3.2v-.1l-.3-.1h-.1c-.1-.2-.2 0-.2.2.1.2.3 0 .4.1l.2-.1h.3c0 .1.1.2.3.2 0 0 .2-.2 0-.2Zm-.7 1c-.2 0-.3 0-.3.2 0 0 0 .1 0 0h.2l.1-.2Zm1.7-.9.4.1v-.3H45.4v.2Zm.7.8h-.4l-.1.3v.1-.1c.2 0 .3-.2.5-.3Zm.5-.2c0 .1 0 0 0 0v-.1h.1v-.1l-.1.2Zm.3-.7h.3-.2v.3l.2.1V40h.2v-.1l-.2-.2h-.3s-.1.2 0 .2Zm.5.8s-.2.3 0 .3H47v.3h.2c0 .2.1.3.2.3l-.1-.2h.1l.2-.3-.1-.2v-.1l-.2-.1Zm.4 1.6V42c0-.1 0-.1 0 0v.1l-.1.3h.1l.1-.2Zm-.1-2.2s.1-.1 0-.1v-.1.2Zm.2 1h-.2c0-.1 0 0 0 0h.2Zm.2 17.7v-.2s0-.1 0 0l-.2.1v.3H48.2v-.2Zm0-17.3.2-.2V41h-.1l-.2.2v.3Zm0-1.2h.3l.2-.2-.2-.2h-.1v.1h-.1c0 .1-.2.3 0 .3Zm.2 21.6.2-.1s.1-.2 0-.2v-.1c-.1-.1-.2.1-.3.1v.3Zm0-19.7V42s-.1.2 0 .2Zm.2-1h-.1c-.1.3 0 .5.2.7v-.1h.2l-.1-.3H49s.1-.1 0-.2h.2v-.1l-.2.1-.5-.1Zm0-.5v.1s-.1.2 0 .2c0 .1 0 0 0 0l.1-.1.1-.2s0-.1 0 0h-.1Zm0 16.3h.2s-.2.3 0 .3h.3V57H49s.2-.4 0-.4H48.6l-.1.3Zm.2-14.6v-.2h-.1s-.2.6 0 .6l.1-.1v-.3Zm0 3.9-.1.2h.3v-.2h-.2Zm-.1-4.8Zm.1 1.5c0-.1 0 0 0 0 0 .1 0 0 0 0Zm.3 8.6s0-.1 0 0h-.2s-.1.1 0 .1h.2Zm-.3-2.3H49c0 .1.1 0 .1 0 0-.1-.3-.2-.4 0Zm0-4.8.1-.3v.3Zm.2 11.4c0-.1-.1 0-.1 0v.2l.1-.1v-.1Zm0 3.9v.3-.2h.2v-.3H49c0-.1-.2.1 0 .2Zm.4.7h-.1v-.2c-.1 0-.1-.2-.2-.1 0 0-.2.1-.1.2 0 .2 0 .1 0 0l.1.1v.2l.2-.1s.1 0 0-.1Zm.3-10.4s.1-.2 0-.2h-.5v.3h.5Zm-.4 3.6v-.3l-.1.1v.2h.1Zm.4-11.3a.7.7 0 0 0-.5-.1l.2.2h.2v.2c.1 0 .2-.2 0-.3Zm-.5-1.6c0 .2 0 .4.3.3-.2-.1-.1-.4-.1-.5 0-.1 0-.1-.1 0l-.1.2Zm.9.9V41.4H49.6l.1-.1v-.1h-.5s-.1.1 0 .1v.1c-.2 0-.3.3-.2.3h.2l.1.2h.2V41.6h.2v.1h.2Zm-.8 2 .1-.1v-.2s0-.1 0 0c0 0-.1 0 0 .1l-.1.1Zm.1 1.4c.1-.1.2-.2 0-.2l-.1.2h.1Zm0 2.1s-.1.2 0 .2v-.2Zm0 12.7c0 .1.1 0 .2 0 0 0 .1-.2 0-.2l.1-.2v-.2c-.2 0-.3.2-.3.3V60Zm.1-2.2v.1-.1Zm0 4.2c0-.1 0 0 0 0v.2-.2Zm.2-20.5v.1h-.1v-.2Zm.5 19.3h.1v-.1H50.6s.2-.2 0-.3h-.6l-.1-.2h-.2s-.1.2 0 .2l.1.3h.4v.1Zm-.2.4h-.2c0-.2 0 0-.1 0v.3h.3V61Zm-.3-12.8v.1-.1Zm0-3.3V45.6h.1c.2 0 .2-.1.2-.2v-.5h-.1v-.1c-.2 0-.2 0-.2.2Zm0 6.3c0 .1.1 0 .1 0V51l-.1.2Zm0 7H50v-.1c0-.1-.1-.1-.2 0 0 0-.1.1 0 .1ZM50 49v-.3h-.2v.2l.2.1Zm-.2-4.7.1-.2h.1c-.2-.2-.2.1-.2.2Zm0-3.9.2.1c0 .1 0 0 0 0l.1-.1h.1l.2-.1V40h-.4l-.1.2Zm.3 17.3v.2l.1-.1s0-.2-.1-.1Zm0 2.2.1-.2v-.2l-.1.4Zm.1-8.8h.2s.1-.2 0-.2h-.2s-.1.2 0 .2Zm.4 11.4.1-.1-.1-.1h-.1v-.3h-.1c-.2 0-.3.3-.2.4l.2.2h.2ZM50.3 52c.1 0 .2 0 .2-.2h-.1l-.1.2Zm0-9h.2v-.2h-.1v.3Zm.1 16.3h.1c0 .1 0 0 0 0H50.9c.1.1.1.1.2 0L51 59h-.2v-.2h-.2v.1l-.1.3Zm.1-5v.1l-.1.2h.1v-.3Zm0-13.2v.2s0 .1 0 0c.2 0 .2 0 .2-.2V40.8h.4l-.1.3c0 .1 0 0 0 0h.2v-.3h-.4v-.1h-.1c-.2 0-.2.1-.2.2v.2Zm0-.1.1-.2v.2Zm.4.7c-.2 0-.4.6-.2.6s.4-.6.2-.6Zm.3 21.4h.1v-.2l-.1.1Zm0-2.2v.4-.4Zm0 1.8.1-.2-.1-.9v1Zm.3-18.9.2-.6-.1.3-.1.5v-.2Zm.3-3.8v.1s0 .2.1.1l.1.1.1-.1V40h-.3Zm.7 1 .1-.1v-.1h-.1c0-.1-.2.2 0 .1Zm1.2-1.3h-.1v.1c-.1.1 0 .2 0 .1 0 0 .1-.1 0-.2Zm1.2-.3v-.1l-.2-.1V39h-.1l-.1.1V39.4l.2.1.2.2v-.3Zm-.5-.4Zm.2 1.2V40h-.1v.3-.1Zm.2 1.1-.1-.1v-.1h-.1v.3h.1c0 .2.1 0 .1 0Zm1-.6c-.1 0-.3.4-.1.4.1 0 .3-.4.1-.4ZM56 39c-.1 0-.2.2 0 .2V39Z"/><path fill="#836DB1" d="M49.5 33.2v.3l-.1.2-.4.2-.4.2h-.4a4.2 4.2 0 0 1-.6-.1l-.3-.1-.1-.1-.2-.2v-3.1l.1-.3.2-.1.3-.1.2-.1h1l.2.1.3.2.1.2v2.8Zm-2.4-2Zm0 .5h.1Zm.2 1.3h-.1Zm-.2-1.6h.1Zm0-.4v-.1.1Zm0 1Zm.1-.9v.2-.2Zm0-.6Zm0 1v.1Zm0 1v.1s.1 0 0 0Zm0-1.6Zm0 2v-.1Zm0-2.2Zm0-.3Zm0 .9Zm0 .3Zm0 .2Zm0 1.2Zm0-2h.1Zm.1.4v-.1Zm0-.3Zm0 1.7Zm0-1.3Zm0 1.6Zm0-2v.1Zm0 .3Zm0 1.3c0-.1 0-.1 0 0Zm0 .6Zm0-2.5Zm0 0v.1h.1v.1-.1Zm0-.1Zm0 1.4Zm.2-.7h-.1Zm-.1-.1Zm0 1.2Zm0-1.3Zm0 1.7Zm0-2.4Zm0 .1Zm0 1.3Zm0 .9Zm0-1.4Zm.1-1v-.1Zm0 3Zm.1-2.7v.1-.2Zm0 2.5V33v.2Zm0 0v.1Zm0-2.3h.1Zm.2-.4v.1Zm0-.1Zm0 .4Zm0 3Zm1-.8v-2.3l-.2-.2H48l-.1.1v.2h-.1V33l.1.3.2.2h.5l.1-.1c.2-.1.2-.2.2-.4Zm-1-2.8Zm0 .5Zm0 3Zm0-3.4Zm.1-.2h.1Zm.1.1Zm0 3.6Zm0-3.5h.1Zm0 3.6Zm0-3.7h.1Zm.2 3.5H48Zm0-3.5Zm0 3.6Zm0-3.6v.1h.1-.1Zm.1 3.6h-.1v.1h.1Zm0 0Zm0-3.7Zm0 .1Zm0 0Zm0 0c0-.1 0 0 0 0Zm0-.1s.1 0 0 0Zm0 3.4Zm0-3.2h.1Zm.2-.1Zm0 3.5Zm0-3.6Zm0 .2Zm.2 3.4Zm0-3.5h.1-.1Zm0 0Zm0 .1s.1 0 0 0Zm.3.9Zm0 1.7s0-.1 0 0Zm0-1.3Zm0 1.5Zm0-.7Zm0 .8Zm.1-.5Zm0-.6Zm0 1Zm0-.2Zm0-.7Zm0 .8Zm0-1.7Zm0 1.6Zm0 .5Zm0-1.4Zm0 .5Zm0-.8Zm0-.9Zm0 .7Zm0 1Zm0 .1Zm0-2Zm0 1.8h.2-.1v-.1Zm0 .6h.1v-.1Zm0-1.9Zm0 1.4Zm0-1.6Zm.2 2v-.1h-.1v-.1.1Zm-.1.5Zm0-.3c0 .1 0 0 0 0Zm0-1.9Zm0 1.4h.1-.1Zm0-1.7Zm.1 1.7v.1Zm0-.4Zm0-1.2Zm0 1.4Zm0-.8Zm0 0v.1Zm0 1.6Zm0-2V31Zm0 .2Zm0 1.5Zm0 .2V33v.1Zm0-2Zm0 .2ZM52.2 34h-.6l-.2-.3v-.1l-.2-.3-.1-.2-.2-.2v-.1l-.1-.1h-.2V34l-.1.1h-.8V30l.1-.2H51.5c.2 0 .2.1.2.2l.3.2.2.3v.6c0 .3 0 .5-.2.7l-.5.4h-.1v.2l.2.4.3.4.2.4v.1l.1.2Zm-2.3-.3Zm0-3.6Zm0 3.7Zm0-1.6Zm0 1.2Zm0-1Zm0-2.1s.1 0 0 0Zm0 1.2Zm0 0v.1h.1Zm0 1.4Zm.1-2.6v.1Zm0 .2Zm0 1.5Zm0 0v-.1Zm0-.9Zm0-.4Zm0 2.3Zm0-3Zm0 1Zm0 1.3Zm0-2.2v.1Zm0 3.6Zm0-3.3Zm0 .1Zm0 .1Zm0 1.5Zm0 0Zm0-.4v.1h.1Zm0 1.5Zm0-1.3h.1Zm0 1.9h.1Zm0-3.5h.1v-.1.1Zm.1 2.7v-.1.1Zm0 .6Zm0-1.6Zm0-2Zm0 1v.1Zm0 2.1Zm0-1.2Zm0-1c0 .1 0 0 0 0Zm.1.7Zm0-1.3v.1Zm0 1.6Zm0-1.7Zm0 .3Zm0 .3Zm0 3v-.1Zm0 .2Zm0-1.9v.1Zm0 1Zm0-1.2Zm0-1.3Zm0-.2Zm0 2Zm0-2v.1Zm0-.3h.1V30Zm0 1.8Zm0-1.6Zm0 1.7s.1 0 0 0Zm0-1.8Zm.2.1h-.1c.1 0 0 0 0 0Zm-.1 1.6Zm0 .3v.1-.1Zm0-1.9Zm0 .2Zm0 1.6Zm0-1.8Zm0-.2Zm0 .2Zm0 0Zm0 2.7v-.1Zm0 .2v-.1Zm0 .4v.2-.2Zm0 .3Zm0 0Zm0-3v-.1.1Zm.1 1.1Zm.1 1.1v.1Zm0-3Zm0 3.3Zm0-1Zm0 .1Zm1-1.8-.3-.2h-.5l-.1.1v.8c0 .2.2.2.3.3h.2c.2 0 .2-.1.3-.2.1 0 .2 0 .2-.2V30.7h-.1Zm-.9-.2v.1Zm0 1.4Zm0 .8v-.1Zm0-.6Zm0 .4Zm0-.4.1.1V32Zm0-.2h.1Zm.2.1Zm.1.2V32h-.1v.1h.1Zm0 0Zm0 .1Zm0-.3Zm0-.1Zm0-1.6Zm0 2v-.1Zm0 .1Zm0-.4Zm.1.3Zm0-.2Zm0 0c0 .1 0 0 0 0Zm0-2c0-.1 0 0 0 0Zm.1 2H51h.1Zm0-1.8Zm0 2.3Zm0-.2Zm0-.1Zm0 .2Zm0-2.5Zm0 2.2Zm0-.2Zm0 .8Zm0-2.5h.1v-.1Zm0 1.8Zm0-.2h.1Zm0 .5Zm0 .1Zm.1-.7Zm0 .5Zm0-2.3Zm0 2.1Zm0 .2Zm0-2.2Zm0 2.4Zm0 .6s.1 0 0 0Zm0-.6s.1 0 0 0Zm.2.2h-.1Zm-.1-2.4Zm0-.3Zm0 3.3Zm0-1.3Zm0-1.7Zm0 1.6Zm0 .3Zm0-2c0-.1 0 0 0 0Zm0 1.6Zm0 .1h.1Zm.1 1Zm0 .2Zm.1-1.2Zm0 0c0 .1 0 .1 0 0Zm0-1.5Zm.1 3v-.1Zm0-3Zm0 2.5Zm0-2.3v-.1Zm0 2.8Zm0-1.7Zm0 .2Zm.1-1.6Zm0 3.4s.1 0 0 0v.1s.1 0 0 0Zm0 0Zm0-2.5h.1V31Zm0 .6Zm0 1.6Zm.1 0v.1Zm0-2Zm0-.6Zm0 .5Zm0 2.5Zm.1 0Zm.2 0H52v.1Zm-.1-3.1s0-.1 0 0Zm0 .3h.1Z"/><path fill="#F3DE67" d="M47.7 28.7a5 5 0 0 1-.8 0h-.4l-.1-.3V27.6l.1-.3H52.5l.3.1V28.6l-.7.2h-4.4Zm-1.1-.8c.1 0 0-.1 0-.1v.1Zm0-.2h.1v-.1h-.1s0 .1 0 0Zm0 .3h.2v-.1h-.1Zm.2.2Zm0-.4v-.1Zm.2.3Zm0-.3v.1h.1-.1Zm0 0v-.1Zm.2.2v.1h.1Zm0-.2h.1c0-.1-.1-.1 0-.1h-.1Zm.3.1c.1 0 0 0 0 0Zm.4.2v.1h.2-.1Zm.3-.4Zm.4.3Zm.1-.2Zm.3.2v.1s0-.1 0 0Zm0-.1Zm.3 0h-.1s.1.1.1 0Zm.6-.1v.1h.1v-.1s0-.1 0 0h-.1Zm0 .8h.3H50Zm.1-.5Zm.4.1h-.1.1Zm.3.2h-.2.2Zm0-.8h-.1v.1h.1s0-.1 0 0Zm0 .4v.1Zm0-.2v.1-.1Zm.3-.2h.1Zm.4.4h-.1.1Zm0-.2h.1Zm.3.7h-.2.2Zm.2-.8h-.2.1c.1 0 0 0 0 0Zm0 .4h-.1Zm0-.5h-.1.2Zm0 .8h-.1.1Zm0-.3h.1Zm.1-.3v.1Zm.1-.2v.1Zm0 .2v.2h.2v-.1l-.1-.1Zm0 .6h.2-.1Zm.2-.3h-.1s.1 0 0 0Zm0-.4v-.1.1Zm0 .3v.1c.1 0 .1 0 0 0V28Zm0-.2h.1Zm.1.1.1.1c.1 0 0 0 0 0Zm.2-.4h-.1v.2h.1v-.1ZM47.7 36.5a5 5 0 0 1-.8 0h-.4l-.1-.2v-.8l.1-.2H52.8v1.1H52l-.4.1h-4Zm-1.1-.8c.1 0 0 0 0 0v-.1.1Zm0-.2h.1c-.1 0-.1-.1-.1 0Zm0 .3h.2v-.1h-.1Zm.2.2Zm0-.4v-.1Zm.2.3Zm0-.2h.1-.1Zm0-.1v-.1.1Zm.2.3h.1Zm0-.3h.1s-.1-.1 0 0h-.1Zm.3.2c.1 0 0 0 0 0Zm.4.2h.2-.1Zm.3-.5Zm.4.3Zm.1-.2Zm.3.3Zm0-.2Zm.3.1v-.1h-.1v.1h.1Zm.6-.2v.1h.1v-.1h-.1Zm0 .8h.3H50Zm.1-.5Zm.4.2V36h-.1.1Zm.3.2h-.2.2Zm0-.9-.1.1h.1Zm0 .4v.1Zm0-.2v.1Zm.3-.2h.1Zm.4.4h-.1.1Zm0-.2h.1Zm.3.8h-.2.2Zm.2-.8h-.2.1c.1 0 0 0 0 0Zm0 .3h-.1Zm0-.5h-.1.2Zm0 .8h-.1.1Zm0-.3s.1.1.1 0Zm.1-.3v.1Zm.1-.1Zm0 .1v.2h.2v-.1h-.1v-.1Zm0 .6h.2-.1Zm.2-.2v-.1h-.1s.1.1 0 0Zm0-.5c0-.1 0-.1 0 0Zm0 .3v.1c.1 0 .1 0 0 0Zm0-.1h.1Zm.1 0v.1h.1c.1 0 0 0 0 0Zm.2-.4h-.1V35.7l.1-.1v-.1Z"/><path fill="#F37131" d="m33.5 31 .2.1v.2c3-.3 6-1.2 6.9-2.1 1.4-1.5 2.4-8.9.5-10.5-5.1-4.3-4.5-6.6-5.3-8-.7-1.1-3.8-2.5-5.1-3.3h-.1s-.1 0 0-.1c-.3-.1-.4-.3-.5-.4-.7-.7-.2-5.2-.2-5.2-2.1 1.7-2.8 6.1-2.7 7.6h.2l-.1.2c.2 1.3 3 2.2 2 3.8a50.7 50.7 0 0 0-5.4 9.2c0 1.4.8 6 3.6 7.7.7.5 1.7.8 2.8 1h.1l1.7.1h1.2v-.1c0-.1 0-.2.2-.2Zm7.5-4.4Zm-.5-4v.1Zm-.7-3.6v.1s-.1 0 0 0Zm-.3-.9h-.1Zm-.5 2 .1.3H39l-.1-.1.1-.1Zm-.1-1.6v.1h-.1Zm0 3.5v.2h-.1V22Zm-.1 5.2.1.2-.2-.1v-.1Zm-.1 2.6Zm-.6-11Zm-1.5-5.2Zm0 3.7h.1v.1h-.1Zm-.6-2.5.1.3h.1c0 .1 0 0-.1 0 0 0-.2-.1-.2-.3Zm-.2 13.6Zm0-11.3s-.1 0 0 0Zm-.2 4h-.1l-.4-.5.1-.1c.2 0 .5.3.4.5Zm-.5-6.2Zm.2-4.2.1.2s0 .1 0 0h-.2v-.2ZM35 13Zm-.5 5.2h-.1Zm-.5-2.4.1.2H34v-.2Zm-.6 12 .1.2v.1l-.2-.1s0-.2.1-.1ZM27.7 6.4h-.1l.1-.2.1.1-.1.1Zm.6 2-.1-.1c0-.2 0-.3.2-.4v.5Zm.9 1v-.1.1ZM25.4 21Zm.5-1.2v-.1h.1Zm.4 8v-.2h.1v.2Zm.1-1.8Zm.5-1.3V24.4v.3Zm.9 2.8v-.1Zm.2-11.2Zm.4 1.4Zm.6 11v-.2l.1.1s0 .1-.1 0Zm.6-18.4Zm.2 9 .1.1v.1h-.1v-.2Zm.2 11.5c-.2 0-.2 0-.2-.2 0 0 .1-.1.2 0h.1l-.1.2Zm.3-7.4h-.1v-.1h.1Zm.2-13.2h-.1v-.1ZM32.6 21Zm-2 7.2V28h.1Zm.2-7.8c-.1 0 0-.1 0-.1v.1Zm.3 6.3v-.1h.1Zm.5-16v.1Zm.7 4.6h-.1V15c0-.1-.2-.3 0-.4.2 0 .2.2.2.4v.2Zm0-4.3c-.1-.1-.2-.2-.1-.4 0 0 0-.1.1 0 .1 0 .2 0 .2.2l-.1.2Zm.3 14.8v-.1l-.1-.1c.1 0 .2.1.1.2Zm0-4h-.1v-.1h.2l-.1.2Zm.3-7.1v-.1h.1ZM40 13.7c1.6-1.1-.9-7-.9-7 .4 2.5-1.3 3.8-1.3 4.8s1.5 2.7 2.2 2.2Zm-1.5-3s0 .1 0 0Zm.7-2.6Zm.4 5.3v-.2l.3.1-.1.3c-.2 0-.2 0-.2-.2ZM34 4.3c-.5-.8-.3-3.6-.2-4.3-.2.8-1.4 2.7-1.5 3.6-.2 1.1.5 2.3 1.6 3 1 .7.6-1.4 0-2.3Zm-.8 1.5Z"/><path fill="#F37131" d="M26 15.7s2-2 1-3.5a7.3 7.3 0 0 1-1.2-3.8s-1.8 6 .2 7.3Zm.3-.9v.1h-.1Zm-.6-3.5h.2c.2.3 0 .5 0 .8-.2-.2-.2-.5-.3-.7v-.1Zm0 2.8V14h.1v.1Z"/><path fill="#fff" d="m36.5 20-2.5.2-1.1 1.5-1.4-1.2-2.6.3-1 1.5.2 2.6 5.6 4 4.5-5.2-.3-2.6-1.4-1.2Z"/><path fill="#EE2345" d="M30.3 43.3c-.8 1.3-.2 3.7-5.3 8-1.5 1.3-1.2 6.2-.3 8.9h.2c0 .2 0 .2-.2.2l.8 1.3c1.6 1.7 9.5 3.3 13 1 2.9-1.7 3.7-6.3 3.6-7.6 0-1.4-4.1-7.5-5.3-9.2-1.1-1.7 1.7-2.6 2-3.8.3-1.2-.4-6.1-2.6-7.8 0 0 .4 4.5-.2 5.2-.7.7-5 2.4-5.7 3.8Zm-5.2 9v-.1Zm.4 8.9-.1-.2.1-.2c.1 0 .2 0 .2.2 0 .1 0 .2-.2.2Zm1-.9s.1 0 0 0Zm.1-4.2h.1Zm.7-1Zm.9 6.2Zm1.3.9-.1-.1h.1Zm0-5.3c-.1 0-.2 0-.2-.2h.3l-.1.2Zm.2-7.4h.2c0 .1 0 0-.2 0Zm.2 11.8h-.1v-.1h.1v.1Zm0-1.7Zm.2-12.8v-.1h.1Zm8.6 14.4Zm0-.6v-.1h.1Zm2.5-1.8Zm-.6-4v.1l-.1.1v-.2Zm-.7-2.8c.1 0 .2 0 .2.2 0 .1 0 .2-.2.2 0 0-.2 0-.2-.2l.2-.2Zm-.4 8.6Zm-.8-5.7.1.1-.2.1.1-.2Zm-1.8-2.2Zm1.5 0s-.1-.1 0-.1Zm0-2.5v.1l-.1.1-.1-.1c0-.1 0-.2.1-.1Zm-1.7-1.7h.2s.1 0 0 0c0 .1 0 0 0 0h-.2Zm2.1-6.7c0 .1 0 0 0 0Zm-1.1 1.6Zm-1.2 18.3v.1c-.1 0 0 0 0 0Zm-2.9-.4Zm2.4-1.2V60l.2.1H36Zm0-12.8.1.2v.2l-.3-.1c0-.1 0-.2.2-.3Zm-.9 6.8Zm-.4-11.3ZM34.6 61l.2.2-.1.2c-.2 0-.2 0-.2-.2V61Zm-.2-11.2Zm-1.6 5.5h.1v.2l-.1-.1v-.1Zm-.1 5c.1 0 .3.1.3.3l-.2.1c-.2 0-.3 0-.4-.2l.3-.1Zm-.9-13.6h.2c0 .2 0 .3-.2.3h-.1l.1-.3Zm-.3-1h.1v.1h-.2l.1-.1Zm0 6.9.1.2v.1l-.2-.2v-.1Zm-.1-8Zm-.5 2.5v.1-.1Zm-.1 3.4ZM26 46.2c.8.5 2.2-1.1 2.2-2.1s-1.6-2.4-1.3-4.9c0 0-2.4 6-.9 7Zm1-.8h.2l-.1.2H27v-.2Zm-.6-1.8v.2h-.1v-.2ZM32.1 36.8c-.5 1-.9 3 0 2.4 1.1-.7 1.9-2 1.7-3-.2-1-1.4-2.9-1.5-3.6 0 .7.3 3.4-.2 4.2Zm0 1.7c-.2 0-.3-.1-.3-.2 0-.2.1-.2.2-.2.2 0 .2 0 .2.2 0 .1 0 .2-.2.2Z"/><path fill="#EE2345" d="M40 48.3c1-.6 1-2.1 1-3.6v-.1a18.4 18.4 0 0 0-.3-1.6l-.1-.1h.1l-.4-2c0 1-.3 2.4-1.3 3.9-.9 1.5 1 3.5 1 3.5Zm-.2-4c.2 0 .3 0 .2.2l-.1.1c-.2 0-.3 0-.3-.3h.2Zm-.4 1.2c.1 0 .3 0 .3.2h-.6c0-.2.2-.2.3-.2Z"/><path fill="#fff" d="m38.6 56.5-.2-2-.6-1.9L36 51l-1.7-.8h-2.8l-1.4.8-1.3 1.3-1 2.6.3 2.4L28 59l2.3.8v.6l.8.6.8-.3.4.8h1l.2-.9.4.6.8.1.5-.5-.1-.8 1 .8.6-.4v-.9l1.6-.7.7-1-.4-1.3Zm-6.3-.3-.8.8h-1.1l-.9-.7v-1.1l.7-.9h1.2l.8.8v1Zm1.6 2.3h-.8l-.3-.7.6-.6.7.5-.2.8Zm3-2.6-.7.8h-1.1l-.9-.7V55l.7-.8 1.2-.1.8.8v1.1Z"/></svg>