<?xml version="1.0" standalone="no"?>
<!DOCTYPE svg PUBLIC "-//W3C//DTD SVG 1.1//EN" "http://www.w3.org/Graphics/SVG/1.1/DTD/svg11.dtd">
<svg xmlns="http://www.w3.org/2000/svg">
<defs >
<font id="KumbhSans" horiz-adv-x="1158" ><font-face
    font-family="Kumbh Sans SemiBold"
    units-per-em="2048"
    panose-1="0 0 0 0 0 0 0 0 0 0"
    ascent="2020"
    descent="-520"
    alphabetic="0" />
<glyph unicode=" " horiz-adv-x="476" />
<glyph unicode="!" horiz-adv-x="476" d="M302 409H175L137 1500H340L302 409ZM238 -20Q185 -20 149 15T113 103Q113 153 149 188T238 224Q291 224 327 189T363 103Q363 51 327 16T238 -20Z" />
<glyph unicode="&quot;" horiz-adv-x="794" d="M298 1085H163L139 1520H322L298 1085ZM631 1085H496L472 1520H655L631 1085Z" />
<glyph unicode="#" horiz-adv-x="1343" d="M1263 868H1035L978 549H1212L1186 383H949L881 0H684L751 383H460L393 0H195L263 383H53L79 549H293L348 868H131L158 1034H378L460 1500H658L575 1034H866L949 1500H1146L1063 1034H1290L1263 868ZM489 549H781L837
868H546L489 549Z" />
<glyph unicode="$" horiz-adv-x="1084" d="M63 225L174 406Q236 358 293 327T408 280T523 265Q598 265 654 288T740 353T771 450Q771 514 734 555T637 628T510 686Q444 715 379 746T260 820T174 924T141 1072Q141 1220 234 1314T481 1433L477 1620H634L631 1437Q711
1432 793 1409T955 1344L863 1154Q801 1192 729 1213T593 1234Q498 1234 440 1189T381 1071Q381 1013 417 974T512 904T640 843Q705 814 770 781T890 704T978 597T1011 448Q1011 347 964 267T832 136T631 67L634 -120H477L481 62Q368 70 261 111T63 225Z" />
<glyph unicode="%" horiz-adv-x="1643" d="M400 873Q248 873 156 962T63 1196Q63 1342 155 1431T400 1520Q552 1520 644 1431T736 1196Q736 1051 644 962T400 873ZM444 0H239L1206 1500H1411L444 0ZM400 1014Q473 1014 518 1064T563 1196Q563 1279 519 1329T400
1380Q326 1380 281 1330T236 1196Q236 1114 281 1064T400 1014ZM1243 -20Q1092 -20 1000 69T907 303Q907 449 999 538T1243 627Q1395 627 1487 538T1580 303Q1580 158 1488 69T1243 -20ZM1243 121Q1316 121 1361 171T1407 303Q1407 386 1362 436T1243 487Q1170
487 1125 437T1080 303Q1080 221 1125 171T1243 121Z" />
<glyph unicode="&amp;" horiz-adv-x="1482" d="M1429 133L1318 -30Q1251 13 1187 58T1063 146Q965 61 851 16T610 -30Q465 -30 350 25T169 178T103 400Q103 501 145 574T255 701T400 800Q332 904 297 1000T261 1180Q261 1283 309 1361T443 1485T636 1530Q743 1530
824 1488T952 1370T999 1198Q999 1091 951 1016T826 885T666 780Q735 695 828 605T1038 419Q1086 485 1126 568T1197 749L1389 686Q1353 571 1305 473T1199 294Q1256 251 1310 213T1429 133ZM579 903Q636 939 683 977T757 1063T785 1172Q785 1247 744 1295T637
1344Q572 1344 530 1294T488 1165Q488 1108 511 1042T579 903ZM492 673Q449 642 414 607T359 529T339 432Q339 358 376 300T480 209T630 175Q701 175 768 200T897 274Q773 376 672 476T492 673Z" />
<glyph unicode="&apos;" horiz-adv-x="449" d="M292 1085H157L133 1520H316L292 1085Z" />
<glyph unicode="(" horiz-adv-x="633" d="M580 -289H339Q200 -103 127 133T53 625Q53 881 126 1117T339 1540H580Q429 1343 349 1109T269 626Q269 379 349 145T580 -289Z" />
<glyph unicode=")" horiz-adv-x="634" d="M295 -289H53Q205 -90 285 144T365 626Q365 874 285 1108T53 1540H295Q433 1353 507 1117T581 625Q581 369 507 133T295 -289Z" />
<glyph unicode="*" horiz-adv-x="1046" d="M874 751L716 635L523 963L330 635L171 751L420 1038L53 1124L113 1310L459 1160L426 1540H620L586 1160L933 1310L993 1124L625 1039L874 751Z" />
<glyph unicode="+" horiz-adv-x="1129" d="M996 393H672V71H457V393H133V588H457V910H672V588H996V393Z" />
<glyph unicode="," horiz-adv-x="478" d="M262 -240H93L169 188H375L262 -240Z" />
<glyph unicode="-" horiz-adv-x="1066" d="M933 407H133V597H933V407Z" />
<glyph unicode="." horiz-adv-x="478" d="M239 -20Q183 -20 149 14T115 103Q115 159 149 193T239 228Q294 228 328 194T363 103Q363 48 329 14T239 -20Z" />
<glyph unicode="/" horiz-adv-x="897" d="M246 -20H13L651 1520H884L246 -20Z" />
<glyph unicode="0" horiz-adv-x="1221" d="M611 -30Q446 -30 326 61T140 327T75 751Q75 999 140 1173T325 1438T611 1530Q776 1530 896 1439T1081 1173T1146 751Q1146 502 1081 328T896 62T611 -30ZM611 202Q737 202 806 346T876 751Q876 1011 807 1154T611 1298Q485
1298 415 1155T345 751Q345 490 415 346T611 202Z" />
<glyph unicode="1" horiz-adv-x="819" d="M660 0H396V1240L136 1146L53 1356L449 1500H660V0Z" />
<glyph unicode="2" horiz-adv-x="1229" d="M1106 0H168V157Q348 316 471 440T670 664T780 851T814 1018Q814 1103 783 1166T695 1265T565 1300Q479 1300 401 1252T270 1117L133 1285Q217 1401 344 1465T613 1530Q746 1530 852 1473T1021 1312T1084 1069Q1084 966
1048 861T942 650T769 439T536 231H1106V0Z" />
<glyph unicode="3" horiz-adv-x="1155" d="M87 134L190 329Q271 266 352 234T512 201Q591 201 651 231T746 316T781 441Q781 556 688 620T430 685H371V870H430Q520 870 590 900T700 982T740 1102Q740 1159 711 1203T631 1273T513 1299Q447 1299 377 1271T234 1187L116
1370Q203 1447 311 1488T538 1530Q669 1530 771 1481T931 1347T990 1152Q990 1029 917 931T725 785Q879 745 967 646T1056 404Q1056 279 988 181T803 26T536 -30Q411 -30 296 12T87 134Z" />
<glyph unicode="4" horiz-adv-x="1286" d="M1050 0H786V323H53V527L787 1500H1050V554H1233V323H1050V0ZM309 554H786V1188L309 554Z" />
<glyph unicode="5" horiz-adv-x="1154" d="M75 158L214 370Q255 293 336 248T513 202Q601 202 668 239T772 342T810 494Q810 580 772 646T667 750T512 787Q449 787 394 766T294 705L164 782L231 1500H998V1268H472L436 915Q510 937 592 937Q734 937 844 877T1016
711T1079 468Q1079 324 1009 212T816 35T535 -30Q401 -30 281 19T75 158Z" />
<glyph unicode="6" horiz-adv-x="1179" d="M589 -30Q433 -30 318 41T139 241T75 544Q75 687 118 823T245 1084T447 1313T717 1500L838 1331Q718 1262 619 1173T446 983T330 773Q388 838 471 874T655 910Q787 910 888 853T1046 694T1104 461Q1104 318 1038 208T855
34T589 -30ZM592 201Q661 201 716 237T802 335T834 473Q834 549 804 607T719 698T595 731Q524 731 469 698T381 605T349 469Q349 394 381 333T468 237T592 201Z" />
<glyph unicode="7" horiz-adv-x="1072" d="M472 0H186L709 1268H53V1500H1019L1018 1325L472 0Z" />
<glyph unicode="8" horiz-adv-x="1184" d="M591 -30Q439 -30 325 23T147 172T83 397Q83 541 162 644T379 794Q265 838 201 928T136 1144Q136 1261 192 1348T351 1482T591 1530Q729 1530 831 1483T990 1348T1047 1144Q1047 1020 983 929T804 794Q942 749 1021 645T1101
398Q1101 270 1038 173T860 23T591 -30ZM591 901Q680 901 734 959T789 1111Q789 1206 735 1264T591 1322Q503 1322 449 1264T394 1111Q394 1018 448 960T591 901ZM591 186Q665 186 720 217T806 306T837 438Q837 513 807 570T721 659T591 691Q519 691 464 659T378
570T347 438Q347 362 377 306T463 218T591 186Z" />
<glyph unicode="9" horiz-adv-x="1179" d="M463 0L341 169Q462 239 561 328T734 518T850 727Q792 661 709 626T524 590Q393 590 292 647T133 806T75 1039Q75 1182 142 1293T325 1467T592 1530Q748 1530 863 1459T1041 1259T1104 956Q1104 813 1061 677T934 416T732
187T463 0ZM585 769Q656 769 711 803T799 896T831 1031Q831 1107 799 1167T712 1263T588 1299Q520 1299 465 1264T377 1166T345 1027Q345 952 376 894T461 802T585 769Z" />
<glyph unicode=":" horiz-adv-x="477" d="M238 731Q186 731 151 767T115 855Q115 907 150 943T238 980Q291 980 326 944T362 855Q362 803 327 767T238 731ZM238 -20Q186 -20 151 16T115 104Q115 156 150 192T238 229Q291 229 326 193T362 104Q362 52 327 16T238 -20Z" />
<glyph unicode=";" horiz-adv-x="479" d="M259 732Q206 732 172 767T137 855Q137 907 171 943T259 980Q311 980 347 944T383 855Q383 803 347 768T259 732ZM262 -240H93L169 188H376L262 -240Z" />
<glyph unicode="&lt;" horiz-adv-x="1110" d="M977 0L53 451V572L977 1020V814L305 511L977 206V0Z" />
<glyph unicode="=" horiz-adv-x="1221" d="M1088 642H133V833H1088V642ZM1088 155H133V346H1088V155Z" />
<glyph unicode="&gt;" horiz-adv-x="1110" d="M133 0V206L805 511L133 814V1020L1057 572V451L133 0Z" />
<glyph unicode="?" horiz-adv-x="932" d="M188 1193L83 1393Q268 1530 481 1530Q603 1530 692 1487T830 1363T879 1174Q879 1104 858 1052T801 955T720 866Q671 815 624 756T546 614T515 409H303Q303 557 334 654T413 817T506 932Q550 982 582 1028T614 1141Q614
1219 565 1265T432 1311Q365 1311 301 1280T188 1193ZM409 -20Q354 -20 320 14T286 103Q286 159 320 193T409 228Q465 228 499 194T533 103Q533 48 499 14T409 -20Z" />
<glyph unicode="@" horiz-adv-x="1914" d="M906 72Q779 72 681 130T528 290T472 525Q472 668 536 782T710 964T957 1031Q1065 1031 1150 989T1290 868L1299 968H1466Q1459 915 1451 850T1436 714T1423 579T1414 461T1410 378Q1410 317 1439 276T1512 234Q1559
234 1597 282T1656 414T1678 599Q1678 793 1596 938T1365 1164T1019 1245Q856 1245 717 1190T475 1035T314 801T257 508Q257 324 333 185T547 -31T866 -109Q1088 -109 1278 3L1350 -155Q1102 -277 847 -277Q615 -277 438 -178T161 97T61 505Q61 701 132 867T333
1156T636 1347T1015 1415Q1202 1415 1357 1358T1626 1194T1800 941T1861 619Q1861 458 1816 335T1690 142T1504 72Q1418 72 1357 119T1268 253Q1204 166 1111 119T906 72ZM941 242Q1022 242 1089 277T1202 375T1260 517L1266 579Q1266 664 1232 727T1136 826T994
861Q904 861 832 817T717 697T675 525Q675 398 748 320T941 242Z" />
<glyph unicode="A" horiz-adv-x="1550" d="M308 0H31L635 1500H916L1519 0H1242L1105 350H445L308 0ZM532 581H1018L775 1202L532 581Z" />
<glyph unicode="B" horiz-adv-x="1318" d="M133 0V1500H681Q913 1500 1043 1399T1174 1117Q1174 1000 1118 912T968 780Q1099 744 1173 650T1247 419Q1247 293 1185 199T1011 52T746 0H133ZM397 861H667Q781 861 847 916T913 1067Q913 1160 846 1214T661 1268H397V861ZM397
232H682Q772 232 838 259T940 336T977 453Q977 518 943 565T847 638T699 664H397V232Z" />
<glyph unicode="C" horiz-adv-x="1509" d="M1422 190Q1318 86 1175 28T861 -30Q692 -30 548 28T298 191T134 439T75 750Q75 919 133 1061T298 1308T548 1472T861 1530Q1030 1530 1173 1472T1420 1311L1236 1124Q1167 1206 1070 1252T857 1298Q747 1298 654 1257T491
1142T384 968T345 750Q345 632 383 533T491 359T653 243T857 202Q973 202 1070 248T1236 376L1422 190Z" />
<glyph unicode="D" horiz-adv-x="1567" d="M133 0V1500H605Q878 1500 1077 1409T1384 1150T1492 750Q1492 520 1384 351T1077 91T605 0H133ZM397 232H615Q808 232 943 292T1150 469T1222 750Q1222 915 1151 1031T944 1207T615 1268H397V232Z" />
<glyph unicode="E" horiz-adv-x="1217" d="M133 0V1500H1084V1268H397V873H1044V642H397V232H1094V0H133Z" />
<glyph unicode="F" horiz-adv-x="1182" d="M133 0V1500H1059V1268H397V873H1019V642H397V0H133Z" />
<glyph unicode="G" horiz-adv-x="1653" d="M1234 1151Q1163 1222 1065 1260T855 1298Q742 1298 649 1259T487 1148T382 976T345 755Q345 633 382 532T488 356T651 242T858 202Q956 202 1038 232T1182 320T1285 459T1338 639H864V843H1571L1578 743Q1578 572 1526
431T1376 186T1146 26T852 -30Q686 -30 545 29T298 193T134 441T75 750Q75 916 133 1058T296 1307T542 1471T849 1530Q1006 1530 1149 1476T1406 1321L1234 1151Z" />
<glyph unicode="H" horiz-adv-x="1505" d="M397 0H133V1500H397V855H1108V1500H1372V0H1108V623H397V0Z" />
<glyph unicode="I" horiz-adv-x="530" d="M397 1500H133V0H397V1500Z" />
<glyph unicode="J" horiz-adv-x="531" d="M-204 -360L-217 -129Q-40 -129 47 -45T134 211V1500H398V215Q398 12 336 -115T142 -301T-204 -360Z" />
<glyph unicode="K" horiz-adv-x="1443" d="M398 0H133V1500H397V707Q437 766 474 817T539 903L1014 1500H1327L777 810L1434 0H1093L608 597L398 332V0Z" />
<glyph unicode="L" horiz-adv-x="1146" d="M1093 0H133V1500H397V232H1093V0Z" />
<glyph unicode="M" horiz-adv-x="1839" d="M1706 0H1442V1125L1025 252H812L397 1120V0H133V1500H469L919 541L1368 1500H1706V0Z" />
<glyph unicode="N" horiz-adv-x="1610" d="M1477 0H1179L397 1091V0H133V1500H431L1213 408V1500H1477V0Z" />
<glyph unicode="O" horiz-adv-x="1721" d="M861 -30Q691 -30 548 28T298 191T134 439T75 750Q75 919 133 1061T298 1308T547 1472T862 1530Q1032 1530 1175 1472T1424 1309T1588 1061T1646 750Q1646 582 1588 440T1424 192T1175 28T861 -30ZM861 202Q972 202 1066
243T1229 358T1337 533T1376 750Q1376 867 1338 967T1230 1141T1066 1257T861 1298Q751 1298 657 1257T493 1142T384 967T345 750Q345 633 384 533T492 359T656 243T861 202Z" />
<glyph unicode="P" horiz-adv-x="1324" d="M133 0V1500H629Q817 1500 952 1440T1160 1269T1233 1004Q1233 851 1161 739T953 567T631 506H397V0H133ZM397 737H604Q777 737 870 807T963 1004Q963 1130 870 1199T604 1268H397V737Z" />
<glyph unicode="Q" horiz-adv-x="1725" d="M1582 -242Q1438 -214 1328 -186T1119 -120T908 -29H861Q691 -29 548 29T298 192T134 439T75 750Q75 919 133 1061T298 1308T547 1472T862 1530Q1032 1530 1175 1472T1424 1309T1588 1061T1646 750Q1646 585 1589 445T1429
200T1187 39Q1267 19 1339 6T1483 -15T1638 -27L1582 -242ZM861 202Q972 202 1066 243T1229 358T1337 533T1376 750Q1376 867 1338 967T1230 1141T1066 1257T861 1298Q751 1298 657 1257T493 1142T384 967T345 750Q345 633 384 533T492 359T656 243T861 202Z" />
<glyph unicode="R" horiz-adv-x="1356" d="M1303 0H1010L681 564H397V0H133V1500H686Q861 1500 985 1444T1176 1284T1243 1032Q1243 876 1166 768T948 609L1303 0ZM397 780H667Q812 780 892 844T973 1024Q973 1140 893 1204T667 1268H397V780Z" />
<glyph unicode="S" horiz-adv-x="1218" d="M63 156L188 358Q257 304 321 269T450 216T582 199Q668 199 731 225T830 299T865 409Q865 480 823 527T711 609T563 677Q491 707 418 742T284 825T188 943T151 1110Q151 1237 215 1331T392 1477T650 1529Q752 1529 859
1503T1072 1422L967 1209Q896 1251 816 1274T663 1298Q591 1298 537 1276T452 1212T421 1115Q421 1050 461 1005T568 926T709 858Q784 825 859 788T997 699T1097 577T1135 406Q1135 276 1068 178T878 25T593 -30Q447 -30 313 17T63 156Z" />
<glyph unicode="T" horiz-adv-x="1225" d="M745 0H481V1268H25V1500H1200V1268H745V0Z" />
<glyph unicode="U" horiz-adv-x="1559" d="M1426 1500V673Q1426 455 1349 297T1126 55T779 -30Q578 -30 433 54T211 297T133 673V1500H397V703Q397 540 441 428T570 259T779 202Q903 202 988 259T1118 428T1162 703V1500H1426Z" />
<glyph unicode="V" horiz-adv-x="1574" d="M928 0H646L43 1500H321L787 298L1254 1500H1531L928 0Z" />
<glyph unicode="W" horiz-adv-x="2186" d="M1663 0H1423L1094 1060L765 0H525L37 1500H314L644 435L974 1500H1214L1543 438L1872 1500H2149L1663 0Z" />
<glyph unicode="X" horiz-adv-x="1554" d="M1517 0H1185L769 578L351 0H37L614 773L82 1500H414L787 983L1153 1500H1475L940 778L1517 0Z" />
<glyph unicode="Y" horiz-adv-x="1447" d="M855 0H591V641L19 1500H340L723 870L1108 1500H1428L855 639V0Z" />
<glyph unicode="Z" horiz-adv-x="1287" d="M1212 0H75V197L854 1268H115V1500H1199V1293L427 232H1212V0Z" />
<glyph unicode="[" horiz-adv-x="655" d="M602 -289H133V1540H602V1345H349V-91H602V-289Z" />
<glyph unicode="\" horiz-adv-x="897" d="M884 -20H651L13 1520H246L884 -20Z" />
<glyph unicode="]" horiz-adv-x="655" d="M522 -289H53V-94H307V1345H53V1540H522V-289Z" />
<glyph unicode="^" horiz-adv-x="1069" d="M1016 700H825L535 1301L244 700H53L466 1500H603L1016 700Z" />
<glyph unicode="_" horiz-adv-x="1338" d="M1205 0H133V196H1205V0Z" />
<glyph unicode="`" horiz-adv-x="509" d="M436 1164H260L63 1500H289L436 1164Z" />
<glyph unicode="a" horiz-adv-x="1110" d="M997 0H783L769 123Q714 55 632 18T450 -20Q344 -20 261 21T131 135T83 299Q83 396 134 469T275 585T480 627Q550 627 620 611T751 566V598Q751 664 715 712T618 786T481 813Q412 813 343 790T214 720L144 913Q240 966
340 993T537 1020Q678 1020 781 965T940 807T997 565V0ZM501 178Q566 178 621 205T712 280T750 392V403Q703 437 644 455T525 474Q433 474 374 433T315 324Q315 283 339 250T405 197T501 178Z" />
<glyph unicode="b" horiz-adv-x="1276" d="M350 0H133V1500H379V879Q445 946 532 983T723 1020Q864 1020 974 952T1147 767T1211 500Q1211 351 1148 234T974 48T723 -20Q613 -20 521 22T362 139L350 0ZM669 201Q753 201 818 240T921 346T959 500Q959 586 922 653T819
760T669 800Q590 800 527 764T424 666T379 525V477Q385 397 423 335T526 237T669 201Z" />
<glyph unicode="c" horiz-adv-x="1062" d="M1001 154Q928 71 824 26T597 -20Q445 -20 325 48T135 233T65 500Q65 649 134 766T324 952T597 1020Q719 1020 822 975T999 848L855 695Q810 744 747 771T612 798Q526 798 460 760T356 655T318 501Q318 414 355 347T459
241T612 202Q683 202 747 229T855 305L1001 154Z" />
<glyph unicode="d" horiz-adv-x="1278" d="M1145 0H928L915 140Q850 65 757 23T555 -20Q414 -20 303 48T129 233T65 500Q65 649 128 766T303 952T555 1020Q658 1020 746 983T899 879V1500H1145V0ZM609 201Q689 201 755 237T860 338T899 484V519Q899 600 860 663T755
763T609 800Q525 800 459 761T355 654T317 501Q317 415 355 347T459 240T609 201Z" />
<glyph unicode="e" horiz-adv-x="1165" d="M1040 116Q853 -20 631 -20Q470 -20 342 50T140 241T65 515Q65 660 132 774T317 954T583 1020Q737 1020 853 948T1035 747T1100 448V416H330Q348 348 393 296T507 215T660 186Q820 186 956 290L1040 116ZM320 560H872Q864
635 827 691T730 778T596 810Q521 810 462 778T366 690T320 560Z" />
<glyph unicode="f" horiz-adv-x="888" d="M458 0H212V780H37V1000H212V1175Q212 1279 259 1359T389 1484T580 1530Q647 1530 716 1511T851 1452L758 1260Q725 1285 690 1297T619 1310Q550 1310 504 1261T458 1127V1000H760V780H458V0Z" />
<glyph unicode="g" horiz-adv-x="1256" d="M548 -8Q409 -8 300 59T128 242T65 506Q65 654 128 770T300 953T548 1020Q657 1020 749 978T905 861L917 1000H1133V27Q1133 -139 1063 -262T864 -452T561 -520Q318 -520 126 -365L227 -164Q361 -299 545 -299Q649 -299
725 -258T844 -141T887 36V132Q823 66 736 29T548 -8ZM602 211Q681 211 745 246T848 344T887 485V529Q887 608 849 669T745 765T602 801Q520 801 455 763T353 657T315 506Q315 422 352 355T455 250T602 211Z" />
<glyph unicode="h" horiz-adv-x="1223" d="M133 0V1500H379V872Q489 1020 702 1020Q894 1020 1002 903T1110 576V0H864V513Q864 649 801 724T624 800Q509 800 444 724T379 513V0H133Z" />
<glyph unicode="i" horiz-adv-x="517" d="M258 1265Q206 1265 171 1301T135 1390Q135 1441 170 1477T258 1514Q311 1514 347 1478T383 1390Q383 1338 347 1302T258 1265ZM381 0H135V1000H381V0Z" />
<glyph unicode="j" horiz-adv-x="519" d="M267 1265Q215 1265 180 1301T144 1389Q144 1441 179 1477T267 1514Q320 1514 356 1478T392 1389Q392 1337 356 1301T267 1265ZM-135 -504V-309Q-119 -312 -105 -313T-78 -314Q25 -314 84 -246T144 -59V1000H391V-69Q391
-289 294 -404T11 -520Q-22 -520 -59 -516T-135 -504Z" />
<glyph unicode="k" horiz-adv-x="1200" d="M379 0H133V1500H379V533L470 644L807 1000H1116L698 558L1169 0H852L528 399L379 252V0Z" />
<glyph unicode="l" horiz-adv-x="529" d="M396 0H133V1540H396V0Z" />
<glyph unicode="m" horiz-adv-x="1859" d="M1746 0H1500V513Q1500 649 1444 724T1284 800Q1180 800 1122 724T1063 513V0H817V513Q817 649 760 724T601 800Q496 800 438 724T379 513V0H133V1000H330L339 830Q390 923 474 971T674 1020Q793 1020 879 969T1012 821Q1062
919 1149 969T1354 1020Q1539 1020 1642 903T1746 576V0Z" />
<glyph unicode="n" horiz-adv-x="1223" d="M1110 0H864V528Q864 653 800 725T627 798Q515 798 447 722T379 516V0H133V1000H336L344 839Q398 927 486 973T694 1020Q888 1020 999 902T1110 576V0Z" />
<glyph unicode="o" horiz-adv-x="1192" d="M598 -20Q445 -20 325 48T135 233T65 500Q65 649 134 766T324 952T598 1020Q750 1020 870 952T1058 767T1127 500Q1127 351 1059 234T870 48T598 -20ZM596 201Q676 201 739 240T838 347T875 501Q875 586 839 653T739
760T596 799Q517 799 454 760T354 654T317 501Q317 415 353 347T453 240T596 201Z" />
<glyph unicode="p" horiz-adv-x="1277" d="M379 -500H133V1000H350L362 860Q428 935 521 977T724 1020Q864 1020 974 952T1148 767T1212 500Q1212 351 1149 234T975 48T724 -20Q621 -20 533 17T379 121V-500ZM671 202Q755 202 820 240T922 346T959 501Q959 588
922 655T820 761T671 800Q592 800 528 765T425 668T379 527V472Q386 393 424 332T527 237T671 202Z" />
<glyph unicode="q" horiz-adv-x="1277" d="M1144 -500H898V121Q833 54 745 17T554 -20Q413 -20 303 48T129 233T65 500Q65 649 128 766T302 952T554 1020Q664 1020 756 978T915 860L928 1000H1144V-500ZM608 202Q688 202 751 236T854 332T898 471V527Q893 607
854 668T752 763T609 798Q524 798 459 760T356 654T318 500Q318 413 355 346T458 241T608 202Z" />
<glyph unicode="r" horiz-adv-x="835" d="M379 0H133V1000H347L356 818Q408 914 496 967T700 1020Q730 1020 761 1016T824 1004L794 782Q732 800 674 800Q586 800 520 759T416 646T379 477V0Z" />
<glyph unicode="s" horiz-adv-x="886" d="M63 86L119 300Q152 267 201 240T305 198T414 182Q485 182 528 211T571 289Q571 327 545 352T477 397T385 436Q319 460 251 493T138 582T92 730Q92 819 137 884T265 984T456 1020Q628 1020 799 934L728 732Q696 756 650
776T556 808T469 820Q412 820 378 795T344 729Q344 701 363 679T422 635T525 588Q593 562 661 528T776 437T823 287Q823 195 774 126T636 19T429 -20Q233 -20 63 86Z" />
<glyph unicode="t" horiz-adv-x="843" d="M792 26Q682 -20 579 -20Q474 -20 395 25T271 150T226 338V780H51V1000H239V1250H472V1000H757V780H472V383Q472 298 518 249T635 200Q697 200 758 238L792 26Z" />
<glyph unicode="u" horiz-adv-x="1223" d="M1090 0H887L879 161Q825 73 737 27T529 -20Q336 -20 225 98T113 425V1000H359V472Q359 347 422 275T595 202Q708 202 776 279T844 484V1000H1090V0Z" />
<glyph unicode="v" horiz-adv-x="1169" d="M1116 1000L703 0H465L53 1000H317L585 250L854 1000H1116Z" />
<glyph unicode="w" horiz-adv-x="1645" d="M1286 0H1004L822 666L640 0H358L37 1000H297L496 268L713 1000H932L1148 267L1348 1000H1608L1286 0Z" />
<glyph unicode="x" horiz-adv-x="1214" d="M344 0H13L441 513L39 1000H374L609 686L840 1000H1172L774 517L1201 0H866L607 347L344 0Z" />
<glyph unicode="y" horiz-adv-x="1254" d="M596 -500H333L541 4L45 1000H322L658 285L954 1000H1217L596 -500Z" />
<glyph unicode="z" horiz-adv-x="1085" d="M1020 0H65V127L604 779H93V1000H988V893L434 221H1020V0Z" />
<glyph unicode="{" horiz-adv-x="646" d="M593 -289Q407 -289 312 -216T217 2V359Q217 445 170 507T53 575V676Q122 681 169 743T217 892V1249Q217 1393 312 1466T593 1540V1344Q508 1344 471 1310T433 1197V886Q433 798 390 729T272 625Q347 591 390 522T433
365V56Q433 -22 470 -57T593 -93V-289Z" />
<glyph unicode="|" horiz-adv-x="481" d="M348 -250H133V1540H348V-250Z" />
<glyph unicode="}" horiz-adv-x="646" d="M53 -289V-93Q138 -93 175 -58T213 56V365Q213 453 256 522T374 625Q300 660 257 729T213 886V1197Q213 1274 176 1309T53 1344V1540Q239 1540 334 1467T429 1249V892Q429 806 476 744T593 676V575Q524 570 477 508T429
359V2Q429 -142 334 -215T53 -289Z" />
<glyph unicode="~" horiz-adv-x="1308" d="M1175 583Q1103 507 1037 471T900 435Q837 435 778 458T660 509Q601 538 541 561T415 585Q277 585 133 441V621Q280 765 419 765Q472 765 528 746T662 689Q721 661 780 638T902 614Q1038 614 1175 763V583Z" />
<glyph unicode="&#xa0;" horiz-adv-x="476" />
<glyph unicode="&#xa1;" horiz-adv-x="476" d="M237 776Q185 776 149 812T113 899Q113 949 149 984T237 1020Q290 1020 326 985T362 899Q362 848 326 812T237 776ZM339 -500H136L174 591H301L339 -500Z" />
<glyph unicode="&#xa2;" horiz-adv-x="1062" d="M1001 294Q941 226 858 182T676 125L680 -60H517L521 125Q389 141 286 211T124 392T65 640Q65 777 123 887T285 1068T521 1155L517 1340H679L675 1155Q774 1142 857 1099T999 988L855 835Q812 884 749 911T615 939Q529
939 462 901T356 795T317 641Q317 555 356 487T462 380T614 340Q686 340 749 368T855 445L1001 294Z" />
<glyph unicode="&#xa3;" horiz-adv-x="1227" d="M922 674H551Q559 642 562 612T566 550Q566 456 535 374T439 220H1086V0H111V139Q232 212 301 315T370 542Q370 574 365 606T349 674H103V826H298Q266 908 251 970T235 1094Q235 1218 292 1314T448 1465T676 1520Q813
1520 930 1456T1124 1274L962 1152Q916 1223 852 1261T714 1300Q643 1300 591 1267T509 1175T479 1036Q479 992 487 947T521 826H922V674Z" />
<glyph unicode="&#xa4;" horiz-adv-x="1259" d="M1155 355L1057 256L897 420Q841 379 773 357T629 335Q554 335 486 357T362 419L202 256L103 355L266 515Q226 571 205 638T184 783Q184 859 205 926T266 1050L103 1210L202 1308L362 1146Q417 1187 485 1208T630
1229Q706 1229 773 1208T896 1146L1057 1310L1156 1211L992 1050Q1033 994 1054 927T1076 783Q1076 707 1055 639T992 515L1155 355ZM630 500Q707 500 767 536T862 637T897 783Q897 865 863 929T767 1029T629 1066Q553 1066 492 1030T397 929T362 783Q362 701 397
638T492 537T630 500Z" />
<glyph unicode="&#xa5;" horiz-adv-x="1274" d="M764 0H512V291H191V399H512V543H191V650H506L29 1500H317L636 838L957 1500H1245L771 650H1083V542H764V399H1083V291H764V0Z" />
<glyph unicode="&#xa6;" horiz-adv-x="482" d="M349 820H133V1540H349V820ZM349 -250H133V470H349V-250Z" />
<glyph unicode="&#xa7;" horiz-adv-x="1051" d="M154 -5L238 183Q291 149 361 128T489 107Q561 107 603 138T646 222Q646 265 617 295T541 348T437 395Q368 423 298 460T180 555T133 706Q133 796 182 867T318 984Q274 1010 240 1042T185 1118T164 1220Q164 1311
214 1381T354 1490T561 1530Q737 1530 897 1445L814 1257Q761 1291 691 1312T562 1333Q491 1333 448 1302T405 1216Q405 1182 427 1155T494 1103T611 1047Q682 1018 753 981T871 885T918 734Q918 645 870 574T734 456Q777 430 812 398T867 322T888 220Q888 129
838 59T697 -50T489 -90Q315 -90 154 -5ZM633 509Q677 536 703 578T730 673Q730 729 699 773T598 856T418 931Q374 904 348 863T321 770Q321 715 353 670T455 585T633 509Z" />
<glyph unicode="&#xa8;" horiz-adv-x="910" d="M681 1224Q632 1224 602 1254T571 1334Q571 1384 601 1414T681 1444Q730 1444 760 1414T790 1334Q790 1285 760 1255T681 1224ZM229 1224Q180 1224 150 1254T119 1334Q119 1384 149 1414T229 1444Q279 1444 309 1414T339
1334Q339 1285 309 1255T229 1224Z" />
<glyph unicode="&#xa9;" horiz-adv-x="1305" d="M653 -104Q480 -104 344 -27T131 186T53 495Q53 668 130 803T344 1015T653 1093Q826 1093 961 1016T1174 803T1252 495Q1252 322 1175 187T962 -26T653 -104ZM653 30Q786 30 890 90T1053 256T1113 493Q1113 627
1053 732T889 898T653 959Q521 959 417 899T252 733T192 493Q192 360 251 255T415 90T653 30ZM916 262Q816 169 670 169Q574 169 498 211T379 327T336 495Q336 589 379 662T498 778T670 820Q815 820 916 728L828 636Q801 666 763 681T679 697Q590 697 534 641T478
494Q478 405 534 349T679 292Q724 292 763 308T829 354L916 262Z" />
<glyph unicode="&#xaa;" horiz-adv-x="824" d="M691 810H560L552 911Q518 858 461 829T332 800Q224 800 154 859T83 1009Q83 1074 120 1124T222 1203T369 1233Q417 1233 462 1223T547 1192V1207Q547 1289 500 1336T370 1384Q322 1384 274 1367T185 1318L122 1432Q240
1520 389 1520Q528 1520 609 1446T691 1245V810ZM368 917Q417 917 457 936T522 989T547 1062V1102Q482 1149 397 1149Q324 1149 277 1115T229 1026Q229 978 268 948T368 917Z" />
<glyph unicode="&#xab;" horiz-adv-x="1184" d="M608 111H376L53 497L376 882H608L273 496L608 111ZM1051 111H818L495 497L818 882H1051L716 496L1051 111Z" />
<glyph unicode="&#xac;" horiz-adv-x="1071" d="M938 87H723V407H133V602H938V87Z" />
<glyph unicode="&#xad;" horiz-adv-x="1128" d="M995 393H133V588H995V393Z" />
<glyph unicode="&#xae;" horiz-adv-x="1305" d="M653 423Q480 423 344 500T131 713T53 1022Q53 1195 130 1330T344 1542T653 1620Q826 1620 961 1543T1174 1330T1252 1022Q1252 849 1175 714T962 501T653 423ZM653 558Q786 558 890 618T1053 783T1113 1021Q1113
1155 1053 1260T889 1425T653 1486Q521 1486 417 1426T252 1260T191 1021Q191 888 251 783T415 618T653 558ZM916 702H770L641 952H558V703H428V1345H664Q771 1345 833 1292T895 1148Q895 1084 863 1038T774 970L916 702ZM558 1064H639Q701 1064 732 1085T763 1150Q763
1192 733 1212T639 1233H558V1064Z" />
<glyph unicode="&#xaf;" horiz-adv-x="935" d="M802 1265H133V1407H802V1265Z" />
<glyph unicode="&#xb0;" horiz-adv-x="681" d="M340 945Q257 945 192 982T90 1084T53 1233Q53 1316 90 1380T192 1482T340 1520Q423 1520 488 1483T590 1381T628 1233Q628 1149 591 1085T488 983T340 945ZM340 1078Q403 1078 445 1122T487 1233Q487 1300 445 1343T340
1387Q276 1387 235 1344T194 1233Q194 1166 235 1122T340 1078Z" />
<glyph unicode="&#xb1;" horiz-adv-x="1129" d="M672 288H457V613H133V808H457V1127H672V808H996V613H672V288ZM996 0H134V189H996V0Z" />
<glyph unicode="&#xb2;" horiz-adv-x="743" d="M620 790H172V870Q282 967 348 1040T445 1171T475 1279Q475 1336 443 1370T358 1405Q313 1405 272 1381T204 1314L133 1396Q176 1454 243 1487T381 1520Q482 1520 546 1458T610 1297Q610 1236 582 1172T497 1041T356
906H620V790Z" />
<glyph unicode="&#xb3;" horiz-adv-x="712" d="M123 869L176 966Q253 905 329 905Q383 905 417 936T452 1014Q452 1066 410 1093T289 1121H256V1215H289Q351 1215 392 1244T433 1317Q433 1356 403 1380T327 1405Q262 1405 197 1351L137 1442Q220 1520 340 1520Q435
1520 496 1469T558 1340Q558 1283 527 1239T441 1172Q509 1153 549 1107T589 996Q589 907 519 849T341 790Q217 790 123 869Z" />
<glyph unicode="&#xb4;" horiz-adv-x="509" d="M249 1164H73L220 1500H446L249 1164Z" />
<glyph unicode="&#xb5;" horiz-adv-x="1307" d="M1268 -20Q1149 -20 1069 19T947 140Q895 64 815 22T633 -20Q463 -20 369 97V-500H136V1000H379V487Q379 356 444 279T618 201Q726 201 789 278T852 487V1000H1098V350Q1098 161 1282 161L1268 -20Z" />
<glyph unicode="&#xb6;" horiz-adv-x="1306" d="M1173 -150H1000V1328H817V-150H644V645Q483 645 364 699T179 851T113 1082Q113 1211 176 1305T356 1449T634 1500H1173V-150Z" />
<glyph unicode="&#xb7;" horiz-adv-x="477" d="M239 406Q183 406 149 440T115 530Q115 585 149 619T239 654Q294 654 328 620T363 530Q363 475 329 441T239 406Z" />
<glyph unicode="&#xb8;" horiz-adv-x="570" d="M103 -393L143 -289Q184 -308 227 -308Q276 -308 307 -284T339 -222Q339 -184 305 -159T212 -134Q207 -134 201 -134T190 -135L245 7H342L300 -87Q375 -94 419 -136T464 -244Q464 -321 403 -371T245 -422Q175 -422
103 -393Z" />
<glyph unicode="&#xb9;" horiz-adv-x="493" d="M360 780H219V1367L95 1322L53 1430L247 1500H360V780Z" />
<glyph unicode="&#xba;" horiz-adv-x="828" d="M415 800Q311 800 229 847T100 975T53 1160Q53 1264 100 1345T228 1473T415 1520Q520 1520 601 1474T728 1346T775 1160Q775 1056 729 975T601 847T415 800ZM415 930Q478 930 527 959T604 1041T632 1160Q632 1227
604 1279T527 1361T415 1391Q353 1391 303 1361T225 1279T196 1160Q196 1094 224 1042T303 960T415 930Z" />
<glyph unicode="&#xbb;" horiz-adv-x="1184" d="M365 111H133L468 496L133 882H365L688 497L365 111ZM808 111H575L911 496L575 882H808L1131 497L808 111Z" />
<glyph unicode="&#xbc;" horiz-adv-x="1636" d="M389 0H231L1253 1540H1404L389 0ZM410 780H269V1367L145 1322L103 1430L297 1500H410V780ZM1448 0H1313V153H967V257L1317 720H1448V271H1533V153H1448V0ZM1088 271H1313V569L1088 271Z" />
<glyph unicode="&#xbd;" horiz-adv-x="1683" d="M389 0H231L1253 1540H1404L389 0ZM410 780H269V1367L145 1322L103 1430L297 1500H410V780ZM1580 0H1126V76Q1241 178 1309 250T1406 379T1435 488Q1435 549 1402 585T1317 622Q1237 622 1181 537L1109 622Q1151
679 1212 709T1342 740Q1438 740 1506 679T1574 513Q1574 447 1544 380T1456 247T1318 118H1580V0Z" />
<glyph unicode="&#xbe;" horiz-adv-x="1644" d="M397 0H238L1260 1540H1412L397 0ZM103 864L155 963Q230 903 300 903Q353 903 388 933T423 1010Q423 1060 380 1089T264 1119H235V1214H257Q320 1214 361 1243T403 1316Q403 1354 374 1378T300 1403Q242 1403 176
1354L117 1445Q201 1520 314 1520Q408 1520 468 1470T529 1343Q529 1286 496 1240T406 1170Q478 1150 519 1103T560 991Q560 904 490 846T313 788Q194 788 103 864ZM1455 0H1321V153H975V257L1325 720H1455V271H1541V153H1455V0ZM1096 271H1321V569L1096 271Z"
/>
<glyph unicode="&#xbf;" horiz-adv-x="932" d="M552 1030Q607 1030 641 996T676 907Q676 851 642 817T552 782Q497 782 463 816T428 907Q428 962 462 996T552 1030ZM773 -182L879 -383Q698 -520 485 -520Q363 -520 273 -477T133 -356T83 -171Q83 -97 105 -43T164
54T242 141Q291 192 338 251T416 393T447 601H658Q658 453 627 355T549 193T458 79Q412 28 380 -19T347 -132Q347 -210 396 -255T529 -301Q597 -301 660 -270T773 -182Z" />
<glyph unicode="&#xc0;" horiz-adv-x="1550" d="M855 1664H679L483 2000H708L855 1664ZM308 0H31L635 1500H916L1519 0H1242L1105 350H445L308 0ZM532 581H1018L775 1202L532 581Z" />
<glyph unicode="&#xc1;" horiz-adv-x="1550" d="M874 1664H699L845 2000H1071L874 1664ZM308 0H31L635 1500H916L1519 0H1242L1105 350H445L308 0ZM532 581H1018L775 1202L532 581Z" />
<glyph unicode="&#xc2;" horiz-adv-x="1550" d="M1095 1664H912L774 1898L636 1664H455L672 2000H877L1095 1664ZM308 0H31L635 1500H916L1519 0H1242L1105 350H445L308 0ZM532 581H1018L775 1202L532 581Z" />
<glyph unicode="&#xc3;" horiz-adv-x="1550" d="M1136 1961Q1132 1844 1079 1782T930 1720Q872 1720 831 1741T750 1793Q724 1813 694 1829T624 1846Q522 1846 509 1730H414Q424 1970 621 1970Q686 1970 729 1948T808 1900Q838 1878 867 1862T934 1846Q1028 1846
1041 1961H1136ZM308 0H31L635 1500H916L1519 0H1242L1105 350H445L308 0ZM532 581H1018L775 1202L532 581Z" />
<glyph unicode="&#xc4;" horiz-adv-x="1550" d="M308 0H31L635 1500H916L1519 0H1242L1105 350H445L308 0ZM532 581H1018L775 1202L532 581ZM1001 1724Q952 1724 922 1754T891 1834Q891 1884 921 1914T1001 1944Q1050 1944 1080 1914T1110 1834Q1110 1785 1080
1755T1001 1724ZM549 1724Q500 1724 470 1754T439 1834Q439 1884 469 1914T549 1944Q599 1944 629 1914T659 1834Q659 1785 629 1755T549 1724Z" />
<glyph unicode="&#xc5;" horiz-adv-x="1550" d="M774 1585Q676 1585 616 1643T556 1797Q556 1893 616 1951T774 2010Q873 2010 933 1952T993 1797Q993 1702 933 1644T774 1585ZM774 1686Q823 1686 853 1716T883 1797Q883 1847 853 1877T774 1908Q725 1908 695
1878T665 1797Q665 1747 695 1717T774 1686ZM308 0H31L635 1500H916L1519 0H1242L1105 350H445L308 0ZM533 581H1018L775 1202L533 581Z" />
<glyph unicode="&#xc6;" horiz-adv-x="2196" d="M2113 0H1175L1129 335H500L325 0H25L827 1500H1909L1940 1269H1267L1322 872H1957L1988 641H1352L1409 232H2082L2113 0ZM620 566H1098L999 1289H994L620 566Z" />
<glyph unicode="&#xc7;" horiz-adv-x="1509" d="M1422 190Q1326 95 1199 38T919 -28L893 -87Q968 -94 1012 -136T1057 -244Q1057 -321 996 -371T838 -422Q768 -422 696 -393L735 -289Q776 -308 820 -308Q869 -308 900 -284T932 -222Q932 -184 898 -159T805 -134Q800
-134 794 -134T783 -135L824 -29Q661 -22 525 38T287 203T131 447T75 750Q75 919 133 1061T298 1308T548 1472T861 1530Q1030 1530 1173 1472T1420 1311L1236 1124Q1167 1206 1070 1252T857 1298Q747 1298 654 1257T491 1142T384 968T345 750Q345 632 383 533T491
359T653 243T857 202Q973 202 1070 248T1236 376L1422 190Z" />
<glyph unicode="&#xc8;" horiz-adv-x="1217" d="M727 1664H551L355 2000H580L727 1664ZM133 0V1500H1084V1268H397V873H1044V642H397V232H1094V0H133Z" />
<glyph unicode="&#xc9;" horiz-adv-x="1217" d="M678 1664H502L648 2000H875L678 1664ZM133 0V1500H1084V1268H397V873H1044V642H397V232H1094V0H133Z" />
<glyph unicode="&#xca;" horiz-adv-x="1217" d="M934 1664H753L614 1898L476 1664H295L512 2000H717L934 1664ZM133 0V1500H1084V1268H397V873H1044V642H397V232H1094V0H133Z" />
<glyph unicode="&#xcb;" horiz-adv-x="1217" d="M133 0V1500H1084V1268H397V873H1044V642H397V232H1094V0H133ZM835 1724Q786 1724 756 1754T725 1834Q725 1884 755 1914T835 1944Q884 1944 914 1914T944 1834Q944 1785 914 1755T835 1724ZM383 1724Q334 1724
304 1754T273 1834Q273 1884 303 1914T383 1944Q433 1944 463 1914T493 1834Q493 1785 463 1755T383 1724Z" />
<glyph unicode="&#xcc;" horiz-adv-x="531" d="M355 1664L209 2000H-18L179 1664H355ZM398 1500H134V0H398V1500Z" />
<glyph unicode="&#xcd;" horiz-adv-x="530" d="M355 1664L552 2000H326L179 1664H355ZM397 1500H133V0H397V1500Z" />
<glyph unicode="&#xce;" horiz-adv-x="531" d="M585 1664L368 2000H163L-54 1664H127L265 1898L404 1664H585ZM398 1500H134V0H398V1500Z" />
<glyph unicode="&#xcf;" horiz-adv-x="530" d="M397 1500H133V0H397V1500ZM492 1724Q443 1724 413 1754T382 1834Q382 1884 412 1914T492 1944Q541 1944 571 1914T601 1834Q601 1785 571 1755T492 1724ZM40 1724Q-9 1724 -39 1754T-70 1834Q-70 1884 -40 1914T40
1944Q90 1944 120 1914T150 1834Q150 1785 120 1755T40 1724Z" />
<glyph unicode="&#xd0;" horiz-adv-x="1604" d="M192 0V651H13V840H192V1500H664Q937 1500 1136 1409T1443 1150T1551 750Q1551 520 1443 351T1136 91T664 0H192ZM813 651H456V232H674Q867 232 1002 292T1209 469T1281 750Q1281 915 1210 1031T1003 1207T674 1268H456V840H813V651Z"
/>
<glyph unicode="&#xd1;" horiz-adv-x="1610" d="M1184 1961Q1179 1844 1127 1782T978 1720Q919 1720 879 1741T801 1790Q772 1812 742 1829T673 1846Q570 1846 557 1730H462Q473 1970 670 1970Q735 1970 777 1948T856 1900Q886 1878 915 1862T982 1846Q1076 1846
1089 1961H1184ZM1477 0H1179L397 1091V0H133V1500H431L1213 408V1500H1477V0Z" />
<glyph unicode="&#xd2;" horiz-adv-x="1721" d="M967 1664H791L595 2000H820L967 1664ZM861 -30Q691 -30 548 28T298 191T134 439T75 750Q75 919 133 1061T298 1308T547 1472T862 1530Q1032 1530 1175 1472T1424 1309T1588 1061T1646 750Q1646 582 1588 440T1424
192T1175 28T861 -30ZM861 202Q972 202 1066 243T1229 358T1337 533T1376 750Q1376 867 1338 967T1230 1141T1066 1257T861 1298Q751 1298 657 1257T493 1142T384 967T345 750Q345 633 384 533T492 359T656 243T861 202Z" />
<glyph unicode="&#xd3;" horiz-adv-x="1721" d="M931 1664H755L901 2000H1127L931 1664ZM862 -30Q692 -30 548 28T298 191T134 439T75 750Q75 919 133 1061T298 1308T548 1472T862 1530Q1033 1530 1176 1472T1424 1309T1588 1061T1646 750Q1646 582 1588 440T1425
192T1176 28T862 -30ZM861 202Q972 202 1066 243T1229 358T1337 533T1376 750Q1376 867 1338 967T1230 1141T1066 1257T861 1298Q751 1298 657 1257T493 1142T384 967T345 750Q345 633 384 533T492 359T656 243T861 202Z" />
<glyph unicode="&#xd4;" horiz-adv-x="1721" d="M1181 1664H999L861 1898L723 1664H542L759 2000H964L1181 1664ZM862 -30Q692 -30 548 28T298 191T134 439T75 750Q75 919 133 1061T298 1308T548 1472T862 1530Q1033 1530 1176 1472T1424 1309T1588 1061T1646
750Q1646 582 1588 440T1425 192T1176 28T862 -30ZM861 202Q972 202 1066 243T1229 358T1337 533T1376 750Q1376 867 1338 967T1230 1141T1066 1257T861 1298Q751 1298 657 1257T493 1142T384 967T345 750Q345 633 384 533T492 359T656 243T861 202Z" />
<glyph unicode="&#xd5;" horiz-adv-x="1721" d="M1222 1961Q1217 1844 1164 1782T1015 1720Q957 1720 917 1741T835 1793Q809 1813 779 1829T710 1846Q607 1846 595 1730H499Q510 1970 707 1970Q772 1970 815 1948T893 1900Q923 1878 953 1862T1020 1846Q1114
1846 1126 1961H1222ZM861 -30Q691 -30 548 28T298 191T134 439T75 750Q75 919 133 1061T298 1308T547 1472T862 1530Q1032 1530 1175 1472T1424 1309T1588 1061T1646 750Q1646 582 1588 440T1424 192T1175 28T861 -30ZM861 202Q972 202 1066 243T1229 358T1337
533T1376 750Q1376 867 1338 967T1230 1141T1066 1257T861 1298Q751 1298 657 1257T493 1142T384 967T345 750Q345 633 384 533T492 359T656 243T861 202Z" />
<glyph unicode="&#xd6;" horiz-adv-x="1721" d="M861 -30Q691 -30 548 28T298 191T134 439T75 750Q75 919 133 1061T298 1308T547 1472T862 1530Q1032 1530 1175 1472T1424 1309T1588 1061T1646 750Q1646 582 1588 440T1424 192T1175 28T861 -30ZM861 202Q972
202 1066 243T1229 358T1337 533T1376 750Q1376 867 1338 967T1230 1141T1066 1257T861 1298Q751 1298 657 1257T493 1142T384 967T345 750Q345 633 384 533T492 359T656 243T861 202ZM1087 1724Q1038 1724 1008 1754T977 1834Q977 1884 1007 1914T1087 1944Q1136
1944 1166 1914T1196 1834Q1196 1785 1166 1755T1087 1724ZM635 1724Q586 1724 556 1754T525 1834Q525 1884 555 1914T635 1944Q685 1944 715 1914T745 1834Q745 1785 715 1755T635 1724Z" />
<glyph unicode="&#xd7;" horiz-adv-x="1054" d="M818 63L527 354L236 63L97 202L389 493L97 784L236 923L527 631L818 923L957 784L665 493L957 202L818 63Z" />
<glyph unicode="&#xd8;" horiz-adv-x="1721" d="M584 -84L473 -35L507 46Q376 107 279 211T128 453T75 750Q75 919 133 1061T298 1308T547 1472T861 1530Q926 1530 988 1521T1108 1494L1143 1580L1255 1535L1220 1452Q1350 1390 1445 1286T1593 1046T1646 750Q1646
582 1588 440T1424 192T1175 28T861 -30Q798 -30 738 -22T621 4L584 -84ZM601 273L1017 1275Q980 1286 941 1292T861 1298Q750 1298 656 1257T492 1142T383 967T344 750Q344 645 376 554T465 391T601 273ZM861 202Q971 202 1065 243T1229 358T1337 533T1376 750Q1376
854 1346 944T1259 1106T1125 1223L712 223Q747 213 784 208T861 202Z" />
<glyph unicode="&#xd9;" horiz-adv-x="1559" d="M886 1664H710L513 2000H739L886 1664ZM1426 1500V673Q1426 455 1349 297T1127 55T780 -30Q579 -30 434 54T211 297T133 673V1500H397V703Q397 540 441 428T571 259T780 202Q904 202 989 259T1118 428T1162 703V1500H1426Z" />
<glyph unicode="&#xda;" horiz-adv-x="1559" d="M849 1664H674L820 2000H1046L849 1664ZM1426 1500V673Q1426 455 1349 297T1127 55T780 -30Q579 -30 434 54T211 297T133 673V1500H397V703Q397 540 441 428T571 259T780 202Q904 202 989 259T1118 428T1162 703V1500H1426Z"
/>
<glyph unicode="&#xdb;" horiz-adv-x="1559" d="M1100 1664H918L780 1898L642 1664H460L678 2000H882L1100 1664ZM1426 1500V673Q1426 455 1349 297T1127 55T780 -30Q579 -30 434 54T211 297T133 673V1500H397V703Q397 540 441 428T571 259T780 202Q904 202 989
259T1118 428T1162 703V1500H1426Z" />
<glyph unicode="&#xdc;" horiz-adv-x="1559" d="M1426 1500V673Q1426 455 1349 297T1126 55T779 -30Q578 -30 433 54T211 297T133 673V1500H397V703Q397 540 441 428T570 259T779 202Q903 202 988 259T1118 428T1162 703V1500H1426ZM1006 1724Q957 1724 927 1754T896
1834Q896 1884 926 1914T1006 1944Q1055 1944 1085 1914T1115 1834Q1115 1785 1085 1755T1006 1724ZM554 1724Q505 1724 475 1754T444 1834Q444 1884 474 1914T554 1944Q604 1944 634 1914T664 1834Q664 1785 634 1755T554 1724Z" />
<glyph unicode="&#xdd;" horiz-adv-x="1447" d="M793 1664H618L764 2000H990L793 1664ZM855 0H591V641L19 1500H339L722 870L1108 1500H1428L855 639V0Z" />
<glyph unicode="&#xde;" horiz-adv-x="1223" d="M380 0H133V1500H380V1196H610Q763 1196 875 1142T1049 988T1110 752Q1110 616 1049 516T875 360T610 304H380V0ZM380 525H562Q706 525 782 583T858 750Q858 859 782 917T561 975H380V525Z" />
<glyph unicode="&#xdf;" horiz-adv-x="1217" d="M397 0H133V1094Q133 1224 191 1322T355 1475T599 1530Q735 1530 839 1481T1003 1346T1063 1148Q1063 1070 1037 1017T974 929T901 868Q871 846 850 827T829 783Q829 761 852 742T923 695Q964 670 1002 642T1069
579T1116 496T1134 387Q1134 266 1068 174T884 31T610 -20L560 205Q655 205 725 235T834 318T874 441Q874 496 852 532T795 593T724 640Q677 668 641 698T604 781Q604 824 629 851T689 904Q716 925 742 949T786 1007T803 1095Q803 1155 778 1201T709 1272T604 1298Q508
1298 453 1230T397 1044V0Z" />
<glyph unicode="&#xe0;" horiz-adv-x="1110" d="M672 1164H495L299 1500H525L672 1164ZM997 0H783L769 123Q714 55 632 18T450 -20Q344 -20 261 21T131 135T83 299Q83 396 134 469T275 585T480 627Q550 627 620 611T751 566V598Q751 664 715 712T618 786T481 813Q412
813 343 790T214 720L144 913Q240 966 340 993T537 1020Q678 1020 781 965T940 807T997 565V0ZM500 178Q566 178 623 207T715 287T750 397V403Q706 437 648 455T527 474Q433 474 374 433T315 324Q315 283 339 250T405 197T500 178Z" />
<glyph unicode="&#xe1;" horiz-adv-x="1110" d="M626 1164H451L597 1500H824L626 1164ZM997 0H783L769 123Q714 55 632 18T450 -20Q344 -20 261 21T131 135T83 299Q83 396 134 469T275 585T480 627Q550 627 620 611T751 566V598Q751 664 715 712T618 786T481 813Q412
813 343 790T214 720L144 913Q240 966 340 993T537 1020Q678 1020 781 965T940 807T997 565V0ZM500 178Q566 178 623 207T715 287T750 397V403Q706 437 648 455T527 474Q433 474 374 433T315 324Q315 283 339 250T405 197T500 178Z" />
<glyph unicode="&#xe2;" horiz-adv-x="1110" d="M881 1164H699L561 1398L422 1164H241L458 1500H664L881 1164ZM997 0H783L769 123Q714 55 632 18T450 -20Q344 -20 261 21T131 135T83 299Q83 396 134 469T275 585T480 627Q550 627 620 611T751 566V598Q751 664
715 712T618 786T481 813Q412 813 343 790T214 720L144 913Q240 966 340 993T537 1020Q678 1020 781 965T940 807T997 565V0ZM500 178Q566 178 623 207T715 287T750 397V403Q706 437 648 455T527 474Q433 474 374 433T315 324Q315 283 339 250T405 197T500 178Z"
/>
<glyph unicode="&#xe3;" horiz-adv-x="1110" d="M917 1461Q912 1344 859 1282T710 1220Q652 1220 612 1241T531 1293Q503 1314 474 1330T405 1346Q302 1346 289 1230H194Q205 1470 401 1470Q466 1470 509 1448T588 1400Q618 1378 647 1362T714 1346Q808 1346 821
1461H917ZM997 0H783L769 123Q714 55 632 18T450 -20Q344 -20 261 21T131 135T83 299Q83 396 134 469T275 585T480 627Q550 627 620 611T751 566V598Q751 664 715 712T618 786T481 813Q412 813 343 790T214 720L144 913Q240 966 340 993T537 1020Q678 1020 781
965T940 807T997 565V0ZM500 178Q566 178 623 207T714 287T750 397V403Q706 437 648 455T527 474Q433 474 374 433T315 324Q315 283 339 250T405 197T500 178Z" />
<glyph unicode="&#xe4;" horiz-adv-x="1110" d="M997 0H783L769 123Q714 55 632 18T450 -20Q344 -20 261 21T131 135T83 299Q83 396 134 469T275 585T480 627Q550 627 620 611T751 566V598Q751 664 715 712T618 786T481 813Q412 813 343 790T214 720L144 913Q240
966 340 993T537 1020Q678 1020 781 965T940 807T997 565V0ZM501 178Q566 178 621 205T712 280T750 392V403Q703 437 644 455T525 474Q433 474 374 433T315 324Q315 283 339 250T405 197T501 178ZM801 1224Q752 1224 722 1254T691 1334Q691 1384 721 1414T801 1444Q850
1444 880 1414T910 1334Q910 1285 880 1255T801 1224ZM349 1224Q300 1224 270 1254T239 1334Q239 1384 269 1414T349 1444Q399 1444 429 1414T459 1334Q459 1285 429 1255T349 1224Z" />
<glyph unicode="&#xe5;" horiz-adv-x="1110" d="M561 1096Q463 1096 403 1154T342 1308Q342 1403 402 1461T561 1520Q660 1520 720 1462T780 1308Q780 1212 720 1154T561 1096ZM561 1197Q610 1197 640 1227T670 1308Q670 1358 640 1388T561 1418Q512 1418 482
1388T452 1308Q452 1258 482 1228T561 1197ZM997 0H783L769 123Q714 55 632 18T450 -20Q344 -20 261 21T131 135T83 299Q83 396 134 469T275 585T480 627Q550 627 620 611T751 566V598Q751 664 715 712T618 786T481 813Q412 813 343 790T214 720L144 913Q240 966
340 993T537 1020Q678 1020 781 965T940 807T997 565V0ZM500 178Q566 178 623 207T715 287T750 397V403Q706 437 648 455T527 474Q433 474 374 433T315 324Q315 283 339 250T405 197T500 178Z" />
<glyph unicode="&#xe6;" horiz-adv-x="1843" d="M1718 114Q1540 -20 1321 -20Q1185 -20 1070 34T881 187Q844 123 785 77T649 5T485 -20Q368 -20 277 22T135 137T83 305Q83 402 136 476T283 593T497 635Q640 635 764 573L762 580Q750 682 673 744T481 806Q333
806 203 712L136 913Q226 966 321 993T508 1020Q631 1020 726 971T879 830Q948 921 1052 970T1280 1020Q1429 1020 1541 949T1715 751T1778 455V423H1008Q1027 353 1073 300T1187 218T1337 188Q1496 188 1633 292L1718 114ZM998 554H1551Q1542 628 1505 683T1409
768T1275 799Q1200 799 1141 768T1044 682T998 554ZM768 407Q721 444 662 463T538 482Q472 482 422 463T343 410T315 329Q315 285 340 251T412 197T518 177Q583 177 637 200T726 269T766 378L768 407Z" />
<glyph unicode="&#xe7;" horiz-adv-x="1062" d="M1001 154Q936 79 844 35T643 -18L612 -87Q687 -94 731 -136T776 -244Q776 -321 715 -371T557 -422Q487 -422 415 -393L455 -289Q496 -308 539 -308Q588 -308 619 -284T651 -222Q651 -184 617 -159T524 -134Q519
-134 513 -134T502 -135L547 -18Q408 -7 299 62T128 245T65 500Q65 649 134 766T324 952T597 1020Q719 1020 822 975T999 848L855 695Q810 744 747 771T612 798Q526 798 460 760T356 655T318 501Q318 414 355 347T459 241T612 202Q683 202 747 229T855 305L1001
154Z" />
<glyph unicode="&#xe8;" horiz-adv-x="1165" d="M1040 116Q853 -20 631 -20Q470 -20 342 50T140 241T65 515Q65 660 132 774T317 954T583 1020Q737 1020 853 948T1035 747T1100 448V416H330Q348 348 393 296T507 215T660 186Q820 186 956 290L1040 116ZM320 560H872Q864
635 827 691T730 778T596 810Q521 810 462 778T366 690T320 560ZM700 1164H524L327 1500H553L700 1164Z" />
<glyph unicode="&#xe9;" horiz-adv-x="1165" d="M1040 116Q853 -20 631 -20Q470 -20 342 50T140 241T65 515Q65 660 132 774T317 954T583 1020Q737 1020 853 948T1035 747T1100 448V416H330Q348 348 393 296T507 215T660 186Q820 186 956 290L1040 116ZM320 560H872Q864
635 827 691T730 778T596 810Q521 810 462 778T366 690T320 560ZM673 1164H497L644 1500H870L673 1164Z" />
<glyph unicode="&#xea;" horiz-adv-x="1165" d="M1040 116Q853 -20 631 -20Q470 -20 342 50T140 241T65 515Q65 660 132 774T317 954T583 1020Q737 1020 853 948T1035 747T1100 448V416H330Q348 348 393 296T507 215T660 186Q820 186 956 290L1040 116ZM320 560H872Q864
635 827 691T730 778T596 810Q521 810 462 778T366 690T320 560ZM903 1164H721L582 1398L445 1164H263L480 1500H685L903 1164Z" />
<glyph unicode="&#xeb;" horiz-adv-x="1165" d="M1040 116Q853 -20 631 -20Q470 -20 342 50T140 241T65 515Q65 660 132 774T317 954T583 1020Q737 1020 853 948T1035 747T1100 448V416H330Q348 348 393 296T507 215T660 186Q820 186 956 290L1040 116ZM320 560H872Q864
635 827 691T730 778T596 810Q521 810 462 778T366 690T320 560ZM809 1224Q760 1224 730 1254T699 1334Q699 1384 729 1414T809 1444Q858 1444 888 1414T918 1334Q918 1285 888 1255T809 1224ZM357 1224Q308 1224 278 1254T247 1334Q247 1384 277 1414T357 1444Q407
1444 437 1414T467 1334Q467 1285 437 1255T357 1224Z" />
<glyph unicode="&#xec;" horiz-adv-x="513" d="M358 1164H182L-14 1500H212L358 1164ZM380 0H133V1000H380V0Z" />
<glyph unicode="&#xed;" horiz-adv-x="512" d="M331 1164H155L302 1500H528L331 1164ZM378 0H133V1000H378V0Z" />
<glyph unicode="&#xee;" horiz-adv-x="513" d="M577 1164H395L257 1398L118 1164H-63L155 1500H359L577 1164ZM380 0H134V1000H380V0Z" />
<glyph unicode="&#xef;" horiz-adv-x="513" d="M380 0H133V1000H380V0ZM482 1224Q433 1224 403 1254T372 1334Q372 1384 402 1414T482 1444Q531 1444 561 1414T591 1334Q591 1285 561 1255T482 1224ZM30 1224Q-19 1224 -49 1254T-80 1334Q-80 1384 -50 1414T30
1444Q80 1444 110 1414T140 1334Q140 1285 110 1255T30 1224Z" />
<glyph unicode="&#xf0;" horiz-adv-x="1165" d="M1033 1274L853 1202Q978 1059 1045 891T1112 544Q1112 370 1050 241T872 41T600 -30Q450 -30 334 33T150 207T83 461Q83 592 140 693T299 852T533 910Q634 910 717 874T858 773Q826 866 771 954T640 1121L326 993L285
1094L556 1203Q508 1242 461 1273T355 1333L464 1500Q549 1455 626 1401T769 1286L993 1374L1033 1274ZM596 201Q665 201 720 236T807 332T839 469Q839 545 807 604T720 697T593 731Q523 731 469 698T384 607T353 473Q353 397 385 335T472 237T596 201Z" />
<glyph unicode="&#xf1;" horiz-adv-x="1223" d="M979 1461Q974 1344 922 1282T773 1220Q714 1220 674 1241T596 1290Q567 1312 537 1329T468 1346Q365 1346 352 1230H257Q267 1470 465 1470Q530 1470 572 1448T651 1400Q681 1378 710 1362T776 1346Q871 1346 884
1461H979ZM1110 0H864V528Q864 653 800 725T627 798Q515 798 447 722T379 516V0H133V1000H336L344 839Q398 927 486 973T694 1020Q888 1020 999 902T1110 576V0Z" />
<glyph unicode="&#xf2;" horiz-adv-x="1192" d="M703 1164H527L331 1500H556L703 1164ZM597 -20Q445 -20 325 48T135 233T65 500Q65 649 134 766T324 952T597 1020Q750 1020 870 952T1058 767T1127 500Q1127 351 1059 234T870 48T597 -20ZM596 201Q676 201 739
240T838 347T875 501Q875 587 839 654T739 760T596 800Q517 800 454 761T354 654T317 501Q317 415 353 347T453 240T596 201Z" />
<glyph unicode="&#xf3;" horiz-adv-x="1192" d="M666 1164H491L637 1500H863L666 1164ZM597 -20Q445 -20 325 48T135 233T65 500Q65 649 134 766T324 952T597 1020Q750 1020 870 952T1058 767T1127 500Q1127 351 1059 234T870 48T597 -20ZM596 201Q676 201 739
240T838 347T875 501Q875 587 839 654T739 760T596 800Q517 800 454 761T354 654T317 501Q317 415 353 347T453 240T596 201Z" />
<glyph unicode="&#xf4;" horiz-adv-x="1192" d="M917 1164H735L596 1398L459 1164H277L495 1500H699L917 1164ZM597 -20Q445 -20 325 48T135 233T65 500Q65 649 134 766T324 952T597 1020Q750 1020 870 952T1058 767T1127 500Q1127 351 1059 234T870 48T597 -20ZM596
201Q676 201 739 240T838 347T875 501Q875 587 839 654T739 760T596 800Q517 800 454 761T354 654T317 501Q317 415 353 347T453 240T596 201Z" />
<glyph unicode="&#xf5;" horiz-adv-x="1192" d="M951 1461Q946 1344 894 1282T745 1220Q686 1220 646 1241T568 1290Q539 1312 509 1329T440 1346Q337 1346 324 1230H229Q239 1470 437 1470Q502 1470 544 1448T623 1400Q653 1378 682 1362T748 1346Q843 1346 856
1461H951ZM597 -20Q445 -20 325 48T135 233T65 500Q65 649 134 766T324 952T597 1020Q750 1020 870 952T1058 767T1127 500Q1127 351 1059 234T870 48T597 -20ZM596 201Q676 201 739 240T838 347T875 501Q875 587 839 654T739 760T596 800Q517 800 454 761T354
654T317 501Q317 415 353 347T453 240T596 201Z" />
<glyph unicode="&#xf6;" horiz-adv-x="1192" d="M598 -20Q445 -20 325 48T135 233T65 500Q65 649 134 766T324 952T598 1020Q750 1020 870 952T1058 767T1127 500Q1127 351 1059 234T870 48T598 -20ZM596 201Q676 201 739 240T838 347T875 501Q875 586 839 653T739
760T596 799Q517 799 454 760T354 654T317 501Q317 415 353 347T453 240T596 201ZM818 1224Q769 1224 739 1254T708 1334Q708 1384 738 1414T818 1444Q867 1444 897 1414T927 1334Q927 1285 897 1255T818 1224ZM366 1224Q317 1224 287 1254T256 1334Q256 1384 286
1414T366 1444Q416 1444 446 1414T476 1334Q476 1285 446 1255T366 1224Z" />
<glyph unicode="&#xf7;" horiz-adv-x="1066" d="M533 731Q480 731 445 767T410 855Q410 907 445 943T533 980Q585 980 621 944T658 855Q658 803 622 767T533 731ZM933 406H133V554H933V406ZM533 -20Q481 -20 446 16T410 104Q410 156 445 192T533 229Q585 229 621
193T657 104Q657 52 621 16T533 -20Z" />
<glyph unicode="&#xf8;" horiz-adv-x="1192" d="M415 -74L321 -37L350 35Q220 97 143 219T65 500Q65 649 134 766T324 952T597 1020Q638 1020 675 1015T749 1000L777 1067L872 1029L846 965Q974 902 1050 780T1127 500Q1127 351 1059 234T870 48T597 -20Q557 -20
519 -15T445 -1L415 -74ZM439 251L663 792Q631 800 596 800Q517 800 454 761T354 654T317 501Q317 421 350 356T439 251ZM596 201Q676 201 739 240T839 347T876 501Q876 581 843 645T755 748L532 208Q562 201 596 201Z" />
<glyph unicode="&#xf9;" horiz-adv-x="1223" d="M721 1164H546L349 1500H575L721 1164ZM1090 0H887L879 161Q825 73 737 27T529 -20Q336 -20 225 98T113 425V1000H359V472Q359 347 422 275T595 202Q708 202 776 279T844 484V1000H1090V0Z" />
<glyph unicode="&#xfa;" horiz-adv-x="1223" d="M605 1164H430L576 1500H802L605 1164ZM1090 0H887L879 161Q825 73 737 27T529 -20Q336 -20 225 98T113 425V1000H359V472Q359 347 422 275T595 202Q708 202 776 279T844 484V1000H1090V0Z" />
<glyph unicode="&#xfb;" horiz-adv-x="1223" d="M880 1164H698L560 1398L422 1164H240L458 1500H662L880 1164ZM1090 0H887L879 161Q825 73 737 27T529 -20Q336 -20 225 98T113 425V1000H359V472Q359 347 422 275T595 202Q708 202 776 279T844 484V1000H1090V0Z" />
<glyph unicode="&#xfc;" horiz-adv-x="1223" d="M1090 0H887L879 161Q825 73 737 27T529 -20Q336 -20 225 98T113 425V1000H359V472Q359 347 422 275T595 202Q708 202 776 279T844 484V1000H1090V0ZM838 1224Q789 1224 759 1254T728 1334Q728 1384 758 1414T838
1444Q887 1444 917 1414T947 1334Q947 1285 917 1255T838 1224ZM386 1224Q337 1224 307 1254T276 1334Q276 1384 306 1414T386 1444Q436 1444 466 1414T496 1334Q496 1285 466 1255T386 1224Z" />
<glyph unicode="&#xfd;" horiz-adv-x="1253" d="M707 1164H531L678 1500H904L707 1164ZM595 -500H333L541 4L37 1000H321L658 285L954 1000H1216L595 -500Z" />
<glyph unicode="&#xfe;" horiz-adv-x="1265" d="M379 -500H133V1500H379V838Q441 923 534 971T741 1020Q877 1020 983 952T1151 767T1212 500Q1212 351 1151 234T984 48T742 -20Q629 -20 536 29T379 163V-500ZM670 201Q754 201 819 240T922 346T960 499Q960 586
923 653T820 760T670 800Q591 800 527 764T424 666T379 523V475Q385 396 424 334T527 237T670 201Z" />
<glyph unicode="&#xff;" horiz-adv-x="1254" d="M596 -500H333L541 4L45 1000H322L658 285L954 1000H1217L596 -500ZM877 1224Q828 1224 798 1254T767 1334Q767 1384 797 1414T877 1444Q926 1444 956 1414T986 1334Q986 1285 956 1255T877 1224ZM425 1224Q376
1224 346 1254T315 1334Q315 1384 345 1414T425 1444Q475 1444 505 1414T535 1334Q535 1285 505 1255T425 1224Z" />
<glyph unicode="&#x2013;" horiz-adv-x="1286" d="M1153 411H133V601H1153V411Z" />
<glyph unicode="&#x2014;" horiz-adv-x="2306" d="M2173 411H133V601H2173V411Z" />
<glyph unicode="&#x2018;" horiz-adv-x="540" d="M312 1070H133L266 1520H413L312 1070Z" />
<glyph unicode="&#x2019;" horiz-adv-x="540" d="M274 1070H133L234 1520H407L274 1070Z" />
<glyph unicode="&#x201a;" horiz-adv-x="478" d="M262 -240H93L169 188H375L262 -240Z" />
<glyph unicode="&#x201c;" horiz-adv-x="922" d="M306 1070H133L266 1520H407L306 1070ZM688 1070H516L648 1520H789L688 1070Z" />
<glyph unicode="&#x201d;" horiz-adv-x="922" d="M656 1070H516L617 1520H789L656 1070ZM274 1070H133L234 1520H407L274 1070Z" />
<glyph unicode="&#x201e;" horiz-adv-x="864" d="M647 -240H478L554 188H760L647 -240ZM262 -240H93L169 188H375L262 -240Z" />
<glyph unicode="&#x2022;" horiz-adv-x="551" d="M276 528Q201 528 152 576T103 700Q103 775 152 824T276 873Q352 873 400 824T448 700Q448 625 400 577T276 528Z" />
<glyph unicode="&#x2039;" horiz-adv-x="764" d="M631 114H396L53 515L396 916H631L280 515L631 114Z" />
<glyph unicode="&#x203a;" horiz-adv-x="764" d="M367 114H133L483 515L133 916H367L711 515L367 114Z" />
</font>
</defs>
</svg>
