<svg width="0" height="0" class="hidden">
  <symbol id="wallet"
    xmlns="http://www.w3.org/2000/svg" fill="none" viewBox="0 0 24 24">
    <path fill="currentColor" fill-rule="evenodd" d="M14.2 2.2c-.4-.6-1.1-1-1.8-1.2-.8 0-1.5.1-2.1.6l-5.4 4c-.8.3-1.6.8-2 1.5A4 4 0 0 0 2 9.5V18c0 1 .4 2 1.1 2.8.7.8 1.7 1.2 2.7 1.2h12.3c1 0 2-.4 2.7-1.2A4 4 0 0 0 22 18v-.9c.6-.2 1.2-.5 1.5-1a3 3 0 0 0 0-3.6c-.3-.5-.9-.8-1.5-1v-2A4 4 0 0 0 19.8 6l-1-2.7a3 3 0 0 0-1.9-1.7 2.7 2.7 0 0 0-2.4.4l-.3.3ZM7.7 5.5h2L13 3.1c-.3-.3-.6-.5-.9-.5-.3 0-.6 0-1 .2L7.8 5.5Zm7.7-2.3c.7-.5 1.6-.2 2 .6l.6 1.7h-5.7l3.1-2.3Zm5 14h-1.3c-.7 0-1.4-.3-2-.8a3 3 0 0 1 0-4.2c.6-.5 1.3-.8 2-.8h1.3V9.5c0-1.3-1-2.4-2.3-2.4H5.8c-1.2 0-2.3 1-2.3 2.4V18c0 1.3 1 2.4 2.3 2.4h12.3c1.3 0 2.3-1 2.3-2.4v-.8ZM19.1 13l-.9.3a1.4 1.4 0 0 0 0 2c.3.2.6.3 1 .3h2c.3 0 .6-.1.9-.4a1.4 1.4 0 0 0 0-1.9c-.3-.2-.6-.3-1-.3h-2Z" clip-rule="evenodd"/>
  </symbol>
  <symbol id="trophy-fill"
    xmlns="http://www.w3.org/2000/svg" fill="none" viewBox="0 0 23 21">
    <path stroke="currentColor" stroke-width="1.5" d="M18 2h3a1 1 0 0 1 1 1v2a5 5 0 0 1-5 5M5 2H2a1 1 0 0 0-1 1v2a5 5 0 0 0 5 5"/>
    <path fill="currentColor" stroke="currentColor" stroke-width="1.5" d="M4.75 1.88c0-.63.5-1.13 1.13-1.13h11.25c.62 0 1.12.5 1.12 1.13V7.5a6.75 6.75 0 0 1-13.5 0V1.87v.01Zm2 17.79c0 .32.26.58.58.58h8.34c.32 0 .58-.26.58-.58 0-1.06-.86-1.92-1.92-1.92H8.67c-1.06 0-1.92.86-1.92 1.92Z"/>
    <path fill="currentColor" d="M11 17h2v-3h-2v3Z"/>
  </symbol>
  <symbol id="arrow-up"
    xmlns="http://www.w3.org/2000/svg" fill="none" viewBox="0 0 24 24">
    <path fill="currentColor" d="m12.4 6 .3.3 5 5a1 1 0 1 1-1.4 1.4L13 9.4V17a1 1 0 1 1-2 0V9.4l-3.3 3.3A1 1 0 0 1 6 12a1 1 0 0 1 .3-.7l5-5 .3-.2c.3-.1.5-.1.8 0Z"/>
  </symbol>
  <symbol id="caret-left"
    xmlns="http://www.w3.org/2000/svg" fill="none" viewBox="0 0 24 24">
    <path stroke="currentColor" stroke-linecap="round" stroke-linejoin="round" stroke-width="2" d="m15 18-6-6 6-6"/>
  </symbol>
  <symbol id="text-align-middle"
    xmlns="http://www.w3.org/2000/svg" fill="none" viewBox="0 0 18 16">
    <path fill="currentColor" fill-rule="evenodd" d="M0 1.5c0 .4.3.7.8.7h16.4a.8.8 0 0 0 0-1.5H.9c-.5 0-.8.4-.8.8Zm0 9c0 .4.3.7.8.7h16.4a.8.8 0 0 0 0-1.5H.9c-.5 0-.8.4-.8.8Zm3.8-3.8a.8.8 0 0 1 0-1.5h10.4a.8.8 0 0 1 0 1.5H3.8ZM4 15c0 .4.3.7.8.7h8.4a.8.8 0 0 0 0-1.5H4.8c-.5 0-.8.4-.8.8Z" clip-rule="evenodd"/>
  </symbol>
  <symbol id="checkmark"
    xmlns="http://www.w3.org/2000/svg" fill="none" viewBox="0 0 20 16">
    <path fill="currentColor" d="M19.4 4.1 9 14.7a2 2 0 0 1-2.9 0L.6 9.2a2 2 0 0 1 2.8-2.8l4 4 9.2-9A2 2 0 0 1 19.4 4Z"/>
  </symbol>
  <symbol id="chevron-up"
    xmlns="http://www.w3.org/2000/svg" fill="none" viewBox="0 0 14 9">
    <path stroke="currentColor" stroke-linecap="round" stroke-width="1.5" d="M1 7.3 7 2l6 5.3"/>
  </symbol>
  <symbol id="close"
    xmlns="http://www.w3.org/2000/svg" fill="none" viewBox="0 0 20 20">
    <path fill="currentColor" fill-rule="evenodd" d="m11 10 3.8-3.8a.7.7 0 1 0-1-1L10 9 6.2 5.2a.7.7 0 1 0-1 1L9 10l-3.8 3.8a.7.7 0 1 0 1 1L10 11l3.8 3.8a.7.7 0 1 0 1-1L11 10Z" clip-rule="evenodd"/>
  </symbol>
  <symbol id="cloud-not-available"
    xmlns="http://www.w3.org/2000/svg" fill="none" viewBox="0 0 48 48">
    <path stroke="currentColor" stroke-linecap="round" stroke-linejoin="round" stroke-width="4" d="M12 33c-3.3 0-8-1.5-8-7.5 0-7 7-8.5 9-8.5 1-3.5 3-9 11-9 7 0 10 4 11 7.5 0 0 9 1 9 9.5 0 6-4 8-8 8M29 28 19 38M19 28l10 10"/>
  </symbol>
  <symbol id="pouch"
    xmlns="http://www.w3.org/2000/svg" fill="none" viewBox="0 0 36 41">
    <path fill="currentColor" fill-rule="evenodd" d="M17.8 2.5c.1-.1.3-.1.4 0L20.8 5c.5.5 1.3.7 2 .4L29 3c.3-.1.5.1.3.3L24.3 13H11.8L6.6 3.3c-.1-.2 0-.4.3-.3l6.4 2.5c.6.3 1.4.1 1.9-.4l2.6-2.6Zm-2.6 12h-3.5l-7.3 9.4a9.2 9.2 0 0 0 7.3 14.9h12.6a9.2 9.2 0 0 0 7.3-14.9l-7.3-9.4h-3.8l3 8.5a.7.7 0 0 1-1.4.5l-3.2-9h-2.2L13 30a.7.7 0 1 1-1.5-.3l3.7-15.3ZM5.2 4l5.2 9.6L3.2 23a10.7 10.7 0 0 0 8.5 17.3h12.6A10.7 10.7 0 0 0 32.8 23l-7.2-9.4L30.8 4c.7-1.4-.7-3-2.2-2.4L22.2 4h-.3l-2.6-2.7c-.7-.6-1.8-.6-2.5 0L14 4.1H14L7.4 1.6C6 1 4.4 2.6 5.3 4Z" clip-rule="evenodd"/>
  </symbol>
  <symbol id="copy"
    xmlns="http://www.w3.org/2000/svg" fill="none" viewBox="0 0 23 25">
    <path fill="currentColor" d="M22.3 8.7v-.4l-.3-.4L14.6.4l-.4-.3a1 1 0 0 0-.5-.1h-5A3.7 3.7 0 0 0 5 3.8V5H3.7A3.7 3.7 0 0 0 0 8.8v12.4A3.8 3.8 0 0 0 3.7 25h10a3.7 3.7 0 0 0 3.7-3.8V20h1.2a3.7 3.7 0 0 0 3.7-3.8V8.8ZM15 4.3 18 7.5h-2A1.2 1.2 0 0 1 15 6.2v-2Zm0 17a1.3 1.3 0 0 1-1.3 1.2H3.7a1.2 1.2 0 0 1-1.2-1.3V8.8a1.3 1.3 0 0 1 1.2-1.3H5v8.8A3.8 3.8 0 0 0 8.7 20h6.2v1.3Zm5-5a1.3 1.3 0 0 1-1.3 1.2h-10a1.2 1.2 0 0 1-1.2-1.3V3.8a1.3 1.3 0 0 1 1.3-1.3h3.7v3.8a3.8 3.8 0 0 0 3.7 3.7h3.7v6.3Z"/>
  </symbol>
  <symbol id="dfinity-logo"
    xmlns="http://www.w3.org/2000/svg" fill="none" viewBox="0 0 197 97">
    <path fill="#F15A24" d="M148.7.4c-10.9 0-22.8 5.8-35.4 17.3-6 5.4-11.2 11.2-15 15.9l12.8 14.3c3.6-4.5 8.9-10.6 14.9-16.1 11.2-10.2 18.5-12.3 22.7-12.3a28.9 28.9 0 1 1 0 57.8L146 77a35 35 0 0 0 14.2 3.6c28.8 0 34.4-19.5 34.8-20.9A48 48 0 0 0 148.7.4Z"/>
    <path fill="#ED1E79" d="M48.1 96.3c10.9 0 22.8-5.8 35.4-17.3 6-5.4 11.2-11.2 15-15.9L85.7 48.8c-3.6 4.5-8.9 10.6-14.9 16.1-11.2 10.2-18.5 12.3-22.7 12.3a28.9 28.9 0 1 1 0-57.8l2.7.3a35 35 0 0 0-14.2-3.6C7.8 16.1 2.2 35.6 1.8 37a48 48 0 0 0 46.3 59.3Z"/>
    <path fill="#29ABE2" d="M70 32.2c-3.1-3-18.5-15.2-33.3-15.6-26.3-.6-34 18-34.6 20.5C7.1 16.1 25.9.5 48.2.4c18.2 0 36.5 17.4 50.1 33.2l.1-.1 12.8 14.3s7.6 8.8 15.7 16.6c3.1 3 18.5 15.1 33.2 15.5 27 .7 34.4-19 34.9-20.5a47.8 47.8 0 0 1-46.1 36.9c-18.2 0-36.5-17.5-50.2-33.2l-.1.1-12.8-14.3c-.1-.1-7.7-8.9-15.8-16.7Zm-68 5V37c.1.1.1.2 0 .2Z"/>
  </symbol>
  <symbol id="discord-logo"
    xmlns="http://www.w3.org/2000/svg" fill="none" viewBox="0 0 24 24">
    <path fill="currentColor" d="M20.3 4.5a20 20 0 0 0-5-1.5l-.6 1.3C13 4 11.1 4 9.3 4.3A12.4 12.4 0 0 0 8.6 3a20 20 0 0 0-5 1.5A19.7 19.7 0 0 0 .1 18a20 20 0 0 0 6.1 3c.5-.7.9-1.3 1.2-2V19c-.7-.2-1.3-.5-1.9-.9V18a10.3 10.3 0 0 0 .5-.3 14.4 14.4 0 0 0 12.1 0l.4.3v.1c-.6.4-1.3.7-2 .9v.1a15.7 15.7 0 0 0 1.4 2 20 20 0 0 0 6-3 19.6 19.6 0 0 0-3.6-13.5ZM8 15.3c-1.2 0-2.1-1-2.1-2.4 0-1.3 1-2.4 2.1-2.4 1.2 0 2.2 1.1 2.2 2.4 0 1.3-1 2.4-2.2 2.4Zm8 0c-1.2 0-2.2-1-2.2-2.4 0-1.3 1-2.4 2.2-2.4 1.2 0 2.2 1.1 2.2 2.4 0 1.3-1 2.4-2.2 2.4Z"/>
  </symbol>
  <symbol id="coin-dollar"
    xmlns="http://www.w3.org/2000/svg" fill="none" viewBox="0 0 22 22">
    <path fill="currentColor" d="M10 8h4a1 1 0 1 0 0-2h-2V5a1 1 0 0 0-2 0v1a3 3 0 0 0 0 6h2a1 1 0 0 1 0 2H8a1 1 0 0 0 0 2h2v1a1 1 0 0 0 2 0v-1a3 3 0 0 0 0-6h-2a1 1 0 0 1 0-2Zm1-8a11 11 0 1 0 0 22 11 11 0 0 0 0-22Zm0 20a9 9 0 1 1 0-18 9 9 0 0 1 0 18Z"/>
  </symbol >
  <symbol id="cloud-download"
    xmlns="http://www.w3.org/2000/svg" fill="none" viewBox="0 0 22 22">
    <path fill="currentColor" d="m13.5 16.8-1.4 1.4v-6.1a1.1 1.1 0 1 0-2.2 0v6.1l-1.4-1.4a1.1 1.1 0 1 0-1.6 1.6l3.3 3.3.4.2a1 1 0 0 0 .8 0l.4-.2 3.3-3.3a1.1 1.1 0 1 0-1.6-1.6Zm4.6-12.2A7.7 7.7 0 0 0 3.4 6.7a4.4 4.4 0 0 0 1 8.7 1.1 1.1 0 1 0 0-2.2 2.2 2.2 0 1 1 0-4.4 1.1 1.1 0 0 0 1.1-1.1 5.5 5.5 0 0 1 10.7-1.8 1.1 1.1 0 0 0 .9.8 3.3 3.3 0 0 1 .2 6.4 1.1 1.1 0 0 0 .6 2.1 5.5 5.5 0 0 0 .2-10.6Z"/>
  </symbol>
  <symbol id="external-link"
    xmlns="http://www.w3.org/2000/svg" fill="none" viewBox="0 0 24 24">
    <path stroke="currentColor" stroke-linecap="round" stroke-linejoin="round" stroke-width="2" d="M12 6H7a1 1 0 0 0-1 1v10a1 1 0 0 0 1 1h10a1 1 0 0 0 1-1v-5m-6 0 7.5-7.5M15 3h6v6"/>
  </symbol>
  <symbol id="eye-open"
    xmlns="http://www.w3.org/2000/svg" fill="none" viewBox="0 0 18 14">
    <path stroke="currentColor" stroke-linecap="round" d="M1 7c1.2 3.5 4.4 6 8 6 3.6 0 6.8-2.5 8-6M1 7c1.2-3.4 4.4-6 8-6 3.6 0 6.8 2.6 8 6"/>
    <path stroke="currentColor" stroke-linecap="round" stroke-linejoin="round" d="M9.1 9.9a2.9 2.9 0 1 0 0-5.8 2.9 2.9 0 0 0 0 5.8Z"/>
  </symbol>
  <symbol id="fire"
    xmlns="http://www.w3.org/2000/svg" fill="none" viewBox="0 0 17 21">
    <path fill="currentColor" d="M8 21c-2.7 0-10.8-3.8-7-11C4.8 2.8 9.2 5 8 0c0 0 2.3 2.2 1 5-1.3 2.8-3 5.2-2 7 0 0 0-3 3-4s2-2 2-2 2.4 1.1 1 4-1.7 3.3-1 5c0 0 0-2.5 2-3s1-2 1-2 1 .9 1 3-.5 8-8 8Z"/>
  </symbol>
  <symbol id="flag"
    xmlns="http://www.w3.org/2000/svg" fill="none" viewBox="0 0 40 45">
    <path fill="currentColor" d="M2 45a2 2 0 0 1-2-2V2C0 1.4.2 1 .6.6A2 2 0 0 1 2 0h19.3c.4 0 .9.1 1.2.4.4.3.6.7.7 1.2l1 4H38a2 2 0 0 1 2 2v20.6c0 .6-.2 1-.6 1.4a2 2 0 0 1-1.4.6H24.5a2 2 0 0 1-1.2-.5c-.4-.2-.6-.6-.7-1l-1-4.1H4V43c0 .6-.2 1-.6 1.4A2 2 0 0 1 2 45Z"/>
  </symbol>
  <symbol id="flash-not-available"
    xmlns="http://www.w3.org/2000/svg" fill="none" viewBox="0 0 21 21">
    <path fill="currentColor" fill-rule="evenodd" d="m10.3 4.1-2 2.4L6.4 9A18.8 18.8 0 0 0 5 11.2a.5.5 0 0 0 0 .1l.5.2h2.9a1.2 1.2 0 0 1 .8.4l.3.7v1.1a28.2 28.2 0 0 0 .3 3.9 28.2 28.2 0 0 0 2.6-2.9l2-2.4a18.8 18.8 0 0 0 1.5-2.2V10l-.1-.1-.5-.1H13l-.7-.1a1.2 1.2 0 0 1-.7-.4c-.2-.2-.3-.5-.3-.7v-1a28.2 28.2 0 0 0-.4-4l-.6.5Zm-1-1c.5-.6 1.3-1.1 2.1-.8.9.2 1.1 1.1 1.2 1.9l.1 3.3v.7H15.4c.7.2 1.3.4 1.7 1v.2c.3.6 0 1.3-.2 1.8l-1.4 2-2 2.4-2.1 2.6c-.6.6-1.3 1.1-2.2.8-.8-.3-1-1.2-1.2-2L8 13.8V13H5.2c-.6-.1-1.3-.3-1.6-1l-.1-.1c-.3-.7 0-1.4.3-1.9l1.4-2 2-2.4 2-2.6Z" clip-rule="evenodd"/>
    <rect width="1.5" height="16.1" x="15" y="4" fill="currentColor" rx=".8" transform="rotate(42 15 4)"/>
  </symbol>
  <symbol id="flash"
    xmlns="http://www.w3.org/2000/svg" fill="none" viewBox="0 0 21 21">
    <path fill="currentColor" fill-rule="evenodd" d="m10.3 4.1-2 2.4L6.4 9A18.8 18.8 0 0 0 5 11.2a.5.5 0 0 0 0 .1l.5.2h2.9a1.2 1.2 0 0 1 .8.4l.3.7v1.1a28.2 28.2 0 0 0 .3 3.9 28.2 28.2 0 0 0 2.6-2.9l2-2.4a18.8 18.8 0 0 0 1.5-2.2V10l-.1-.1-.5-.1H13l-.7-.1a1.2 1.2 0 0 1-.7-.4c-.2-.2-.3-.5-.3-.7v-1a28.2 28.2 0 0 0-.4-4l-.6.5Zm-1-1c.5-.6 1.3-1.1 2.1-.8.9.2 1.1 1.1 1.2 1.9l.1 3.3v.7H15.4c.7.2 1.3.4 1.7 1v.2c.3.6 0 1.3-.2 1.8l-1.4 2-2 2.4-2.1 2.6c-.6.6-1.3 1.1-2.2.8-.8-.3-1-1.2-1.2-2L8 13.8V13H5.2c-.6-.1-1.3-.3-1.6-1l-.1-.1c-.3-.7 0-1.4.3-1.9l1.4-2 2-2.4 2-2.6Z" clip-rule="evenodd"/>
  </symbol>
  <symbol id="flash-fill"
    xmlns="http://www.w3.org/2000/svg" fill="none" viewBox="0 0 21 21">
    <path fill="currentColor" d="M5.8 8.5 7.7 6c1.8-2.3 2.7-3.4 3.5-3.1.8.2.8 1.7.8 4.6V8l.1.8c.2.2.4.2.9.2 2 0 3 0 3.4.6.3.7-.3 1.5-1.6 3.2L13 15.2c-1.7 2.2-2.6 3.4-3.4 3-.8-.2-.8-1.6-.8-4.5v-.4c0-.5 0-.7-.2-.9l-.8-.1c-2.1 0-3.1 0-3.5-.6v-.1c-.3-.7.3-1.5 1.6-3.1Z"/>
  </symbol>
  <symbol id="flip"
    xmlns="http://www.w3.org/2000/svg" fill="none" viewBox="0 0 19 21">
    <path fill="currentColor" fill-rule="evenodd" d="M9.3 2.6a7 7 0 0 0-6.1 3.7h4.4a.8.8 0 0 1 0 1.5H.8V2a.7.7 0 1 1 1.5 0v3a8.6 8.6 0 0 1 7-3.8C14 1.1 18 5 18 9.7h-1.5a7 7 0 0 0-7-7Zm0 16.1a7 7 0 0 0 6.2-3.7H11a.8.8 0 0 1 0-1.5H18v6a.7.7 0 1 1-1.5 0v-3a8.6 8.6 0 0 1-7.1 3.7 8.5 8.5 0 0 1-8.5-8.5h1.5a7 7 0 0 0 7 7Z" clip-rule="evenodd"/>
  </symbol>
  <symbol id="flip-not-available"
    xmlns="http://www.w3.org/2000/svg" fill="none" viewBox="0 0 19 21">
    <path fill="currentColor" fill-rule="evenodd" d="M9.3 2.6a7 7 0 0 0-6.1 3.7h4.4a.8.8 0 0 1 0 1.5H.8V2a.7.7 0 1 1 1.5 0v3a8.6 8.6 0 0 1 7-3.8C14 1.1 18 5 18 9.7h-1.5a7 7 0 0 0-7-7Zm0 16.1a7 7 0 0 0 6.2-3.7H11a.8.8 0 0 1 0-1.5H18v6a.7.7 0 1 1-1.5 0v-3a8.6 8.6 0 0 1-7.1 3.7 8.5 8.5 0 0 1-8.5-8.5h1.5a7 7 0 0 0 7 7Z" clip-rule="evenodd"/>
    <rect fill="currentColor" width="1.5" height="24.8" x="17.6" rx=".8" transform="rotate(42 17.6 0)"/>
  </symbol>
  <symbol id="giftbox"
    xmlns="http://www.w3.org/2000/svg" fill="none" viewBox="0 0 39 39">
    <path fill="currentColor" fill-rule="evenodd" d="M12.6 10.8h6v7.8H4a17.2 17.2 0 0 1-1.8-.1l-.6-.6v-.5l-.1-1.2v-3a17.2 17.2 0 0 1 .1-1.7l.6-.6h.5l1.3-.1h8.6Zm-8.9 9.3H2.6c-.4 0-.8-.1-1.1-.3-.5-.3-1-.7-1.2-1.2-.2-.3-.2-.7-.3-1v-5.7c0-.4.1-.8.3-1.1.3-.5.7-1 1.2-1.2.3-.2.7-.2 1-.3h6.1l-.2-.2C7.4 8.1 7 6.7 7 5.4c0-1.3.4-2.7 1.4-3.7 1-1 2.4-1.7 4.2-1.7 3 0 5.6 2.2 6.8 5.5C20.5 2.2 23 0 26 0c1.8 0 3.2.7 4.2 1.7s1.4 2.4 1.4 3.7a5.4 5.4 0 0 1-1.6 3.9h6c.4 0 .8.1 1.1.3.5.3 1 .7 1.2 1.2.2.3.2.7.3 1v5.7c0 .4-.1.8-.3 1.1-.3.5-.7 1-1.2 1.2-.3.2-.7.2-1 .3H35v15l-.4 1.6c-.4.7-1 1.2-1.7 1.6l-1.4.4H7.3c-.6 0-1-.2-1.5-.4-.7-.4-1.3-1-1.7-1.6l-.3-1.5V20Zm1.5 0v15l.3.9c.2.4.5.7 1 1l.9.2H18.6V20.1H5.2Zm14.9 17.1h11.3l.9-.2 1-1 .2-1V20.2H20v17.1Zm14.1-18.6h.6a17.2 17.2 0 0 0 1.7-.1c.3-.2.5-.3.6-.6v-.5l.1-1.2v-3a17.2 17.2 0 0 0-.1-1.7c-.1-.3-.3-.4-.6-.6H36l-1.2-.1H20v7.8h14.1Zm-8.1-9.3a4 4 0 0 0 3.1-1.2 4 4 0 0 0 1-2.7c0-1-.3-2-1-2.7a4 4 0 0 0-3.1-1.2c-3 0-5.7 2.9-6 7.8h6Zm-7.5 0h-6a4 4 0 0 1-3.1-1.2 4 4 0 0 1-1-2.7c0-1 .3-2 1-2.7a4 4 0 0 1 3.1-1.2c3 0 5.7 2.9 6 7.8Z" clip-rule="evenodd"/>
  </symbol>
  <symbol id="giftbox-fill"
    xmlns="http://www.w3.org/2000/svg" fill="none" viewBox="0 0 28 28">
    <path fill="currentColor" fill-rule="evenodd" d="M6 6.7a4 4 0 0 1-1-2.5c0-1 .4-2 1-2.7C7 .7 8 .2 9.4.2c2 0 3.8 1.4 4.7 3.4l.7-1.3a5 5 0 0 1 4-2c1.4 0 2.4.4 3.1 1.2a4 4 0 0 1 1 2.7 4 4 0 0 1-.8 2.5h3.2l1 .3c.6.3 1 .7 1.3 1.2l.2 1.1v2.9c0 .4 0 .7-.2 1a3 3 0 0 1-1.2 1.3l-1.1.2H14.8v-8h-1.6v8.1H2.8l-1-.3a2.8 2.8 0 0 1-1.5-2.3V9.3c0-.4 0-.7.2-1 .3-.6.7-1 1.2-1.3l1.1-.2H6v-.1Zm7.3 10.5H3.6c-.4 0-.8.3-.8.7v6.3l.4 1.5c.4.7 1 1.3 1.7 1.7.4.2.9.3 1.4.3h15.3c.6 0 1-.1 1.5-.3.7-.4 1.3-1 1.7-1.7.2-.4.3-.9.3-1.4v-6.4c0-.4-.3-.7-.7-.7h-9.6v10.6h-1.6V17.2h.1Zm0-10.5h-4c-1 0-1.6-.3-2-.7-.5-.5-.7-1.1-.7-1.8 0-.6.2-1.2.7-1.7.4-.4 1-.8 2-.8 1.8 0 3.7 1.8 4 5Zm1.5 0h4a3 3 0 0 0 2-.7c.4-.5.6-1.1.6-1.8 0-.6-.2-1.2-.7-1.7-.4-.4-1-.8-2-.8-1.1 0-2 .5-2.8 1.5-.6.9-1 2-1.1 3.5Z" clip-rule="evenodd"/>
  </symbol>
  <symbol id="google-logo"
    xmlns="http://www.w3.org/2000/svg" viewBox="0 0 186.7 190.5">
    <path fill="#4285f4" d="M95.3 78v36.8h51.2a44 44 0 0 1-19.1 28.7l30.9 24a93 93 0 0 0 28.4-70c0-6.8-.6-13.3-1.7-19.6z"/>
    <path fill="#34a853" d="m41.9 113.4-7 5.3L10.2 138a95.2 95.2 0 0 0 85 52.6 91 91 0 0 0 63-23l-30.8-24a56.9 56.9 0 0 1-85.5-30z"/>
    <path fill="#fbbc05" d="M10.2 52.6a94 94 0 0 0 0 85.3L42 113.3a57 57 0 0 1 0-36.1z"/>
    <path fill="#ea4335" d="M95.3 38A52 52 0 0 1 131.7 52L159 25A91.4 91.4 0 0 0 95.2 0a95 95 0 0 0-85 52.6L42 77.2a56.9 56.9 0 0 1 53.4-39.3z"/>
  </symbol>
  <symbol id="heart-fill-color"
    xmlns="http://www.w3.org/2000/svg" fill="none" viewBox="0 0 33 31">
    <path fill="#F74909" stroke="#fff" stroke-linecap="round" stroke-linejoin="round" stroke-width="2" d="M17.5 27c.6 0 12.5-6.4 12.5-15.3C30 7.2 26.9 4 23.1 4c-1.9 0-3.7.6-5.6 3.2C15.6 4.6 13.7 4 11.9 4 8 4 5 7.2 5 11.7 5 20.7 16.9 27 17.5 27Z"/>
  </symbol>
  <symbol id="heart"
    xmlns="http://www.w3.org/2000/svg" fill="none" viewBox="0 0 33 31">
    <path stroke="currentColor" stroke-linecap="round" stroke-linejoin="round" stroke-width="2" d="M17.5 27c.6 0 12.5-6.4 12.5-15.3C30 7.2 26.9 4 23.1 4c-1.9 0-3.7.6-5.6 3.2C15.6 4.6 13.7 4 11.9 4 8 4 5 7.2 5 11.7 5 20.7 16.9 27 17.5 27Z"/>
  </symbol>
  <symbol id="heart-fill"
    xmlns="http://www.w3.org/2000/svg" fill="none" viewBox="0 0 33 31">
    <path fill="currentColor" d="M17.5 27c.6 0 12.5-6.4 12.5-15.3C30 7.2 26.9 4 23.1 4c-1.9 0-3.7.6-5.6 3.2C15.6 4.6 13.7 4 11.9 4 8 4 5 7.2 5 11.7 5 20.7 16.9 27 17.5 27Z"/>
  </symbol>
  <symbol id="home-fill"
    xmlns="http://www.w3.org/2000/svg" fill="none" viewBox="0 0 20 22">
    <path fill="currentColor" fill-rule="evenodd" d="M9.8 2h.4c.1 0 .3 0 .8.3l7.7 3.4a.8.8 0 0 0 .6-1.4L11.6 1c-.5-.2-.8-.4-1.1-.4h-1c-.3 0-.6.2-1 .4h-.1L.7 4.3a.7.7 0 1 0 .6 1.4L9 2.3c.5-.3.7-.3.8-.3Zm-.4 2.6h1.2c.4 0 .7.3 1.2.6h.1L17 8h.1l1.8 1.2.8 1.4c.2.6.2 1.2.1 2.1v4a5.8 5.8 0 0 1-5 5H13a1 1 0 0 1-.8-1v-4.2a1.7 1.7 0 1 0-3.6 0V21.1a1 1 0 0 1-1 .7h-.1c-1.5 0-2.4 0-3.1-.3-2-.5-3.5-2-4-4-.3-.7-.3-1.6-.3-3v-1.8c0-1 0-1.5.2-2.1l.8-1.4L3 8h.1l5-2.8 1.3-.6Z" clip-rule="evenodd"/>
  </symbol>
  <symbol id="home"
    xmlns="http://www.w3.org/2000/svg" fill="none" viewBox="0 0 20 20">
    <path fill="currentColor" fill-rule="evenodd" d="M9.8 1.5h.4l.8.3 8 3.6a.8.8 0 0 0 .6-1.4l-8-3.5-1.1-.5h-1l-1 .4h-.1L.4 4a.8.8 0 0 0 .7 1.4L9 1.8l.8-.3Zm0 3.1h.4l.8.3 5.1 2.3c1 .5 1.4.7 1.7 1 .3.2.4.5.6.8l.1 2v3.9a4.3 4.3 0 0 1-4.7 3.6v-4a3.3 3.3 0 1 0-6.6 0v4a10 10 0 0 1-2.7-.2 4.3 4.3 0 0 1-2.8-2.8 12 12 0 0 1-.2-3.2V11L1.6 9l.6-.9 1.7-.9 5-2.3.9-.3Zm.7-1.4h-1l-1 .3h-.1L3.3 6h-.1c-1 .4-1.6.7-2 1.2-.5.4-.8.9-1 1.4-.2.6-.2 1.3-.2 2.3v1.7C0 14 0 15 .3 16c.5 1.8 2 3.2 3.7 3.7.9.3 1.9.3 3.5.3H8a1 1 0 0 0 .7-1v-4.5a1.8 1.8 0 0 1 3.6 0v4.7c.1.4.4.7.8.8h2a5.8 5.8 0 0 0 4.8-5l.1-1.6v-2.6c0-1 0-1.7-.2-2.3-.2-.5-.5-1-1-1.4-.4-.5-1-.8-2-1.2l-5.2-2.3c-.5-.2-.8-.4-1.1-.4Z" clip-rule="evenodd"/>
  </symbol>
  <symbol id="hot-logo"
    xmlns="http://www.w3.org/2000/svg" fill="none" viewBox="0 0 42 71">
    <path fill="#F47421" d="M13.4 4.3s-1 10.1.5 11.8c1.6 1.6 11 5.4 12.9 8.4 1.8 3.1.4 8.5 12 18.2 4.2 3.6 2 20.3-1.2 23.5C33.9 69.9 16 73.6 8 68.5c-6.3-4-8.2-14.3-8-17.3.3-3.1 9.4-17 12-20.7 2.5-3.8-4-5.9-4.5-8.5-.6-2.7 1-13.8 5.9-17.7Zm22.9 26.9c-1.6 1.1-4.9-2.6-4.9-4.8 0-2.3 3.7-5.3 3-11 0 0 5.4 13.4 1.9 15.8ZM22.6 15.5c-2.5-1.7-4.2-4.5-3.8-7 .4-2.3 3.5-7.1 3.4-8.5 0 0-.8 7.9.4 10 1.2 2.2 2 6.8 0 5.5Z"/>
    <path fill="#F47421" d="M4.7 35.9s4.3-4.5 2.3-8c-2-3.3-2.9-6.4-2.8-8.7 0 0-4 13.7.5 16.7Z"/>
    <path fill="#fff" d="m28.4 45.3-5.8.7-2.4 3.4-3.2-2.8-5.7.7L9 50.7l.6 5.9 12.6 9 10.1-11.7-.7-5.8-3.1-2.8Z"/>
  </symbol>
  <symbol id="not-logo"
    xmlns="http://www.w3.org/2000/svg" fill="none" viewBox="0 0 44 74">
    <path fill="#EE2345" d="M29.2 4.5s1 10.5-.5 12.2C27 18.4 17 22.4 15.3 25.6c-2 3.2-.5 8.8-12.5 18.9C-1.6 48.2.7 65.6 4 69c3.8 3.8 22.5 7.7 30.8 2.4 6.6-4.2 8.6-14.9 8.3-18-.2-3.3-9.7-17.7-12.4-21.6-2.7-4 4-6.1 4.7-8.9.6-2.8-1-14.4-6.2-18.4Zm-23.9 28c1.7 1.2 5.1-2.7 5.1-5 0-2.4-3.8-5.5-3-11.4 0 0-5.7 14-2 16.4Zm14.3-16.4c2.7-1.8 4.4-4.6 4-7.2C23 6.4 19.9 1.4 20 0c0 0 .9 8.2-.4 10.5-1.2 2.2-2.1 7 0 5.6Z"/>
    <path fill="#EE2345" d="M38.3 37.4s-4.5-4.7-2.4-8.2c2.2-3.6 3-6.7 2.9-9.2 0 0 4.2 14.3-.5 17.4Z"/>
    <path fill="#fff" d="m34.9 56.9-.5-4.5-1.4-4.6-4-4-4-1.8-6.7.3L15 44l-3 3-2.3 6 .6 5.7-.5 4.1 5.5 2 .2 1.4 1.6 1.2 2-.7.8 1.9 2.4-.1.6-2 .7 1.4 2 .4 1.1-1.3-.2-1.9 2.2 1.8 1.6-.9-.1-2 3.8-1.8 1.7-2.1-1-3.2ZM20 56.2l-1.8 2h-2.7l-2-1.7v-2.7l1.7-2 2.7-.1 2 1.8.1 2.7Zm3.8 5.5h-2l-.7-1.8 1.6-1.2 1.7 1-.6 2Zm7.2-6.2-1.8 2h-2.6l-2-1.7-.1-2.7 1.8-2H29l2 1.7v2.7Z"/>
  </symbol>
  <symbol id="ic-app"
    xmlns="http://www.w3.org/2000/svg" fill="none" viewBox="0 0 24 24">
    <path fill="currentColor" fill-rule="evenodd" d="M21.2 6.5h-.6c-1.6.2-2.3 1.6-2 3.9.2 2 1.3 4.3 3.3 4h.4c-1.1 5-5.5 8.7-10.8 8.7C5.3 23.1.4 18.1.4 12 .4 5.7 5.4.7 11.4.7c4.3 0 8 2.3 9.8 5.8ZM9 19.6c4.8 0 9.3-4.3 9.3-9 0-4.8-2.6-8.7-7.3-8.7C5.8 2 1 6.5 1 11.2c0 6.1 3.8 8.4 7.8 8.4Z" clip-rule="evenodd"/>
    <path fill="currentColor" d="M23.8 10c.4 1.9-.1 3.4-1.7 3.7-1.5.3-2.4-1.5-2.7-3.2-.3-1.8.2-3 1.4-3.2 1.2-.3 2.6.7 3 2.7ZM11.8 5.8c-.7 0-1.5.6-2.3 1.6l-.8 1.4 1 1c.2-.4.5-1 .9-1.4.7-1 1.1-1.1 1.4-1.2 1.1-.1 2.2.7 2.3 2 .2 1.2-.6 2.3-1.6 2.4h-.2l1 .2c2-.3 2.2-1.9 2.2-2V9c-.3-2-2-3.5-3.9-3.2Z"/>
    <path fill="currentColor" stroke="currentColor" stroke-width=".1" d="M8.1 12.4c-.8 1-1.5 1.6-2.3 1.7-1.8.2-3.5-1.2-3.8-3.2V10s0-.4.4-.9c.3-.4.8-.9 1.8-1H5c-1.1.2-1.9 1.4-1.7 2.6.2 1.2 1.2 2.1 2.3 2 .3 0 .8-.3 1.5-1.2L8 10a105.5 105.5 0 0 1 .9.9c-.2.5-.4 1-.8 1.4Z"/>
    <path fill="currentColor" d="M13.5 11.7c-1 .2-2.3-.6-2.5-.8l-2.3-2C7.6 7.6 6.1 6.5 4.8 6.6 3.2 7 2.1 8.4 2 10c0 0 .3-1.7 2.2-1.9 1-.1 2.2.7 2.5.9.6.5 2.1 2 2.3 2 1 1.1 2.6 2.3 3.9 2.1 1.5-.2 2.7-1.6 2.8-3.3 0 .1-.3 1.7-2.2 2Z"/>
  </symbol>
  <symbol id="info"
    xmlns="http://www.w3.org/2000/svg" fill="none" viewBox="0 0 24 24">
    <path stroke="currentColor" stroke-linecap="round" stroke-linejoin="round" stroke-width="2" d="M12 11v5m0 5a9 9 0 1 1 0-18 9 9 0 0 1 0 18Zm0-13v.1h0V8h0Z"/>
  </symbol>
  <symbol id="loading"
    xmlns="http://www.w3.org/2000/svg" fill="none" viewBox="0 0 84 84">
    <path fill="currentColor" d="M46.3 4.3c0 2.4-2 4.3-4.3 4.3-2.4 0-4.3-1.9-4.3-4.3S39.7 0 42 0c2.4 0 4.3 2 4.3 4.3Z"/>
    <path fill="currentColor" d="M46.3 79.7c0 2.4-2 4.3-4.3 4.3-2.4 0-4.3-2-4.3-4.3 0-2.4 2-4.3 4.3-4.3 2.4 0 4.3 1.9 4.3 4.3Z" opacity=".7"/>
    <path fill="currentColor" d="M79.7 46.3c-2.4 0-4.3-2-4.3-4.3 0-2.4 1.9-4.3 4.3-4.3s4.3 2 4.3 4.3c0 2.4-2 4.3-4.3 4.3Z" opacity=".5"/>
    <path fill="currentColor" d="M4.3 46.3C2 46.3 0 44.3 0 42c0-2.4 2-4.3 4.3-4.3 2.4 0 4.3 2 4.3 4.3 0 2.4-1.9 4.3-4.3 4.3Z" opacity=".8"/>
    <path fill="currentColor" d="M71.7 18.4a4.3 4.3 0 1 1-6.1-6.1 4.3 4.3 0 0 1 6 6.1Z" opacity=".3"/>
    <path fill="currentColor" d="M18.4 71.7a4.3 4.3 0 1 1-6-6.1 4.3 4.3 0 0 1 6 6Z" opacity=".7"/>
    <path fill="currentColor" d="M65.6 71.7a4.3 4.3 0 1 1 6.1-6.1 4.3 4.3 0 0 1-6.1 6Z" opacity=".6"/>
    <path fill="currentColor" d="M15.4 19.7a4.3 4.3 0 1 0 0-8.7 4.3 4.3 0 0 0 0 8.7Z" opacity=".9"/>
    <path fill="currentColor" d="M60.3 8.8a4.3 4.3 0 1 1-8-3.3 4.3 4.3 0 0 1 8 3.3Z" opacity=".2"/>
    <path fill="currentColor" d="M31.7 78.5a4.3 4.3 0 1 1-8-3.3 4.3 4.3 0 0 1 8 3.3Z" opacity=".7"/>
    <path fill="currentColor" d="M75.2 60.3a4.3 4.3 0 1 1 3.3-8 4.3 4.3 0 0 1-3.3 8Z" opacity=".5"/>
    <path fill="currentColor" d="M5.5 31.7a4.3 4.3 0 1 1 3.3-8 4.3 4.3 0 0 1-3.3 8Z" opacity=".8"/>
    <path fill="currentColor" d="M78.4 31.5a4.3 4.3 0 1 1-3.3-8 4.3 4.3 0 1 1 3.3 8Z" opacity=".4"/>
    <path fill="currentColor" d="M8.9 60.5a4.3 4.3 0 1 1-3.3-8 4.3 4.3 0 1 1 3.3 8Z" opacity=".8"/>
    <path fill="currentColor" d="M52.5 78.4a4.3 4.3 0 1 1 8-3.3 4.3 4.3 0 1 1-8 3.3Z" opacity=".6"/>
    <path fill="currentColor" d="M23.5 8.9a4.3 4.3 0 1 1 8-3.3 4.3 4.3 0 1 1-8 3.3Z" opacity=".9"/>
  </symbol>
  <symbol id="lock"
    xmlns="http://www.w3.org/2000/svg" fill="none" viewBox="0 0 22 22">
    <path fill="currentColor" stroke="currentColor" stroke-width=".3" d="M11 12a1.2 1.2 0 0 1 .8 2.2V15.6a.8.8 0 0 1-1.6 0V14.2a1.2 1.2 0 0 1 .8-2.1Zm4.4-3.7v.1h.2a2.6 2.6 0 0 1 2.6 2.6v6.4a2.6 2.6 0 0 1-2.6 2.6H6.4a2.6 2.6 0 0 1-2.6-2.6V11a2.6 2.6 0 0 1 2.6-2.6h.2v-2a4.4 4.4 0 1 1 8.8 0v1.9Zm-1.6.1h.1v-2a2.9 2.9 0 1 0-5.8 0v2h5.7Zm2.5 9.8c.2-.2.4-.5.4-.8V11a1 1 0 0 0-1.1-1H6.4a1 1 0 0 0-1 1v6.4a1 1 0 0 0 1 1h9.2c.3 0 .5 0 .7-.2Z"/>
  </symbol>
  <symbol id="logout"
    xmlns="http://www.w3.org/2000/svg" fill="none" viewBox="0 0 20 21">
    <path stroke="currentColor" stroke-linecap="round" stroke-linejoin="round" stroke-width="2" d="M19 10.7H7M7 19.7H3a2 2 0 0 1-2-2v-14a2 2 0 0 1 2-2h4M14 15.7l5-5-5-5"/>
  </symbol>
  <symbol id="text-align-right"
    xmlns="http://www.w3.org/2000/svg" fill="none" viewBox="0 0 19 17">
    <rect fill="currentColor" width="13.4" height="2" x="5.4" rx="1"/>
    <rect fill="currentColor" width="13.4" height="2" x="5.4" y="14.3" rx="1"/>
    <rect fill="currentColor" width="18.8" height="2" y="7.2" rx="1"/>
  </symbol>
  <symbol id="chat-box"
    xmlns="http://www.w3.org/2000/svg" fill="none" viewBox="0 0 24 24">
    <path stroke="currentColor" stroke-linecap="round" stroke-linejoin="round" stroke-width="1.5" d="M20 5H4a1 1 0 0 0-1 1v13a1 1 0 0 0 1.6.7l3.1-2.5.7-.2H20c.6 0 1-.4 1-1V6c0-.6-.4-1-1-1Z"/>
    <path stroke="currentColor" stroke-linecap="round" stroke-linejoin="round" stroke-width="2" d="M16 11h0v0h0v0ZM12 11h0v0h0v0ZM8 11h0v0h0v0Z"/>
  </symbol>
  <symbol id="music"
    xmlns="http://www.w3.org/2000/svg" fill="none" viewBox="0 0 16 16">
    <path fill="currentColor" d="M15.9 4a.5.5 0 0 0-.4-.2l-6.7 2c-.2 0-.3.1-.3.4v6.3a1.9 1.9 0 1 0 1 1.6V8.4L15 6.8v3.8a1.9 1.9 0 1 0 1 1.7v-8l-.2-.4ZM7.5 15a1 1 0 0 1-1-.9 1 1 0 0 1 2 0c0 .5-.5 1-1 1Zm6.7-1.8a1 1 0 0 1-1-1 1 1 0 0 1 2 0c0 .6-.5 1-1 1Zm1-7.4L9.3 7.4v-.9L15.1 5v.9ZM6.6 3.3c-1-.7-1.8-1.5-2.4-2.3L3.7.2a.5.5 0 0 0-.9.3v7.3a1.9 1.9 0 1 0 1 1.6V2C4.3 2.7 5 3.4 6 4c.4.3.6.8.6 1.2 0 .8-.6 1.4-1.4 1.4a.5.5 0 1 0 0 1 2.4 2.4 0 0 0 1.4-4.3Zm-4.7 7a1 1 0 0 1-1-.9 1 1 0 0 1 2 0c0 .6-.5 1-1 1Z"/>
  </symbol>
  <symbol id="speaker-muted"
    xmlns="http://www.w3.org/2000/svg" fill="none" viewBox="0 0 32 24">
    <path fill="currentColor" d="M13.4.4 8 6H1.5A1.5 1.5 0 0 0 0 7.5v9A1.5 1.5 0 0 0 1.5 18h6.4l5.5 5.6a1.5 1.5 0 0 0 2.6-1.1v-21a1.5 1.5 0 0 0-2.6-1ZM28.8 12l2.9-2.8a1 1 0 0 0 0-1.5l-1.4-1.4a1 1 0 0 0-1.5 0L26 9.2l-2.9-2.9a1 1 0 0 0-1.4 0l-1.4 1.4a1 1 0 0 0 0 1.5L23 12l-2.8 2.8a1 1 0 0 0 0 1.5l1.4 1.4a1 1 0 0 0 1.4 0l2.9-2.9 2.8 2.9a1 1 0 0 0 1.5 0l1.4-1.4a1 1 0 0 0 0-1.5L28.8 12Z"/>
  </symbol>
  <symbol id="notebook"
    xmlns="http://www.w3.org/2000/svg" fill="none" viewBox="0 0 22 22">
    <path stroke="currentColor" stroke-linecap="round" stroke-linejoin="round" stroke-width="1.5" d="M17.4 3.7H4.6a1 1 0 0 0-1 .9v12.8c0 .5.5 1 1 1h12.8c.5 0 1-.5 1-1V4.6c0-.5-.5-1-1-1ZM11 10h3.7M11 7.3h3.7M7.3 18.3V3.7"/>
  </symbol>
  <symbol id="bell"
    xmlns="http://www.w3.org/2000/svg" fill="none" viewBox="0 0 24 24">
    <path fill="currentColor" fill-rule="evenodd" d="M7.2 2.8c1.2-1 3-1.5 4.8-1.5 1.9 0 3.6.5 4.8 1.5 1.2 1 2 2.5 2 4.2v.1a2.9 2.9 0 0 0-.1.4v1.2c.2.9.5 2 1.3 2.8 1.3 1.3 1.4 3.4.1 5.2-1.3 1.8-3.9 3-8.1 3-4.2 0-6.8-1.2-8.1-3-1.3-1.8-1.2-4 0-5.2 1-.9 1.2-2 1.4-2.8a6.5 6.5 0 0 0 0-1.6V7c0-1.7.7-3.2 2-4.2ZM12 21c-1 0-2 0-2 .7 0 .6 1 1.3 2 1.3s2-.7 2-1.3c0-.7-1-.7-2-.7Z" clip-rule="evenodd"/>
  </symbol>
  <symbol id="bell-alert"
    xmlns="http://www.w3.org/2000/svg" fill="none" viewBox="0 0 24 24">
    <path fill="currentColor" fill-rule="evenodd" d="M7.2 2.8c1.2-1 3-1.5 4.8-1.5 1.9 0 3.6.5 4.8 1.5 1.2 1 2 2.5 2 4.2v.1a2.9 2.9 0 0 0-.1.4v1.2c.2.9.5 2 1.3 2.8 1.3 1.3 1.4 3.4.1 5.2-1.3 1.8-3.9 3-8.1 3-4.2 0-6.8-1.2-8.1-3-1.3-1.8-1.2-4 0-5.2 1-.9 1.2-2 1.4-2.8a6.5 6.5 0 0 0 0-1.6V7c0-1.7.7-3.2 2-4.2ZM12 21c-1 0-2 0-2 .7 0 .6 1 1.3 2 1.3s2-.7 2-1.3c0-.7-1-.7-2-.7Z" clip-rule="evenodd"/>
    <circle cx="17.5" cy="3.5" r="3.5" fill="red"/>
  </symbol>
  <symbol id="pencil"
    xmlns="http://www.w3.org/2000/svg" fill="none" viewBox="0 0 18 18">
    <path fill="currentColor" d="M17.3 5a.8.8 0 0 0-.2-.6L13.6 1a.8.8 0 0 0-1-.2l-.2.2L10 3.3l-9 9a.8.8 0 0 0-.3.7v3.5a.8.8 0 0 0 .8.8H5a.8.8 0 0 0 .7-.2l9-9.1 2.4-2.3.2-.3V5ZM4.7 15.7H2.3v-2.4L10.6 5 13 7.4l-8.3 8.3ZM14 6.2 11.8 4 13 2.7 15.3 5l-1.2 1.2Z"/>
  </symbol>
  <symbol id="pie-chart"
    xmlns="http://www.w3.org/2000/svg" fill="none" viewBox="0 0 18 18">
    <path fill="currentColor" d="M14.3 9H9V3.7c0-.4-.3-.7-.8-.7-3.7 0-6.7 3-6.7 6.8 0 3.7 3 6.7 6.8 6.7 3.7 0 6.7-3 6.7-6.8 0-.4-.3-.7-.8-.7ZM9 15a5.2 5.2 0 0 1-6-4.5 5.2 5.2 0 0 1 4.5-6v5.3c0 .4.3.7.8.7h5.1A5.1 5.1 0 0 1 9 14.9Zm2.3-13.5c-.5 0-.8.3-.8.8v4.5c0 .4.3.7.8.7h4.4c.5 0 .8-.3.8-.8 0-2.9-2.3-5.2-5.3-5.2ZM12 6V3c1.5.4 2.6 1.5 3 3h-3Z"/>
  </symbol>
  <symbol id="play"
    xmlns="http://www.w3.org/2000/svg" viewBox="0 0 512 512">
    <path fill="currentColor" d="M133 440a35.4 35.4 0 0 1-17.5-4.7c-12-6.8-19.5-20-19.5-34.3V111c0-14.4 7.5-27.5 19.5-34.3a35.1 35.1 0 0 1 35.8.4L399 225.5a36 36 0 0 1 0 61L151.2 434.9A35.5 35.5 0 0 1 133 440Z"/>
  </symbol>
  <symbol id="plus"
    xmlns="http://www.w3.org/2000/svg" fill="none" viewBox="0 0 16 16">
    <path stroke="currentColor" stroke-linecap="round" stroke-width="2" d="M8 1v14M15 8H1"/>
  </symbol>
  <symbol id="grid-fill"
    xmlns="http://www.w3.org/2000/svg" fill="none" viewBox="0 0 24 24">
    <path fill="currentColor" fill-rule="evenodd" d="M6.2 2.3h2c.4 0 .7 0 1 .2a2.8 2.8 0 0 1 1.5 2.3v3.4c0 .4 0 .7-.2 1a2.8 2.8 0 0 1-2.3 1.5H4.8c-.4 0-.7 0-1-.2a2.8 2.8 0 0 1-1.5-2.3V4.8c0-.4 0-.7.2-1a2.8 2.8 0 0 1 2.3-1.5h1.4Zm11 0h2c.4 0 .7 0 1 .2a2.8 2.8 0 0 1 1.5 2.3v3.4c0 .4 0 .7-.2 1a2.8 2.8 0 0 1-2.3 1.5h-3.4c-.4 0-.7 0-1-.2a2.8 2.8 0 0 1-1.5-2.3V4.8c0-.4 0-.7.2-1a2.8 2.8 0 0 1 2.3-1.5h1.4Zm-11 11H4.8c-.4 0-.7 0-1 .2a2.8 2.8 0 0 0-1.5 2.3v3.4c0 .4 0 .7.2 1a2.8 2.8 0 0 0 2.3 1.5h3.4c.4 0 .7 0 1-.2a2.8 2.8 0 0 0 1.5-2.3v-3.4c0-.4 0-.7-.2-1a2.8 2.8 0 0 0-2.3-1.5h-2Zm11 0h2c.4 0 .7 0 1 .2a2.8 2.8 0 0 1 1.5 2.3v3.4c0 .4 0 .7-.2 1a2.8 2.8 0 0 1-2.3 1.5h-3.4c-.4 0-.7 0-1-.2a2.8 2.8 0 0 1-1.5-2.3v-3.4c0-.4 0-.7.2-1a2.8 2.8 0 0 1 2.3-1.5h1.4Z" clip-rule="evenodd"/>
  </symbol>
  <symbol id="grid"
    xmlns="http://www.w3.org/2000/svg" fill="none" viewBox="0 0 24 24">
    <path fill="currentColor" fill-rule="evenodd" d="M6.2 2.3H4.8c-.4 0-.7 0-1 .2a2.8 2.8 0 0 0-1.5 2.3v3.4c0 .4 0 .7.2 1a2.8 2.8 0 0 0 2.3 1.5h3.4c.4 0 .7 0 1-.2a2.8 2.8 0 0 0 1.5-2.3V4.8c0-.4 0-.7-.2-1a2.8 2.8 0 0 0-2.3-1.5h-2ZM4.4 3.9l.5-.1h1.9a17.2 17.2 0 0 1 1.8 0l.5.6.1.5v1.9a17.2 17.2 0 0 1 0 1.8l-.6.5-.5.1H6.2a17.2 17.2 0 0 1-1.8 0L4 8.5 3.8 8V6.2a17.2 17.2 0 0 1 0-1.8l.6-.5Zm12.8-1.6h-1.4c-.4 0-.7 0-1 .2a2.8 2.8 0 0 0-1.5 2.3v3.4c0 .4 0 .7.2 1a2.8 2.8 0 0 0 2.3 1.5h3.4c.4 0 .7 0 1-.2a2.8 2.8 0 0 0 1.5-2.3V4.8c0-.4 0-.7-.2-1a2.8 2.8 0 0 0-2.3-1.5h-2Zm-1.8 1.6.5-.1h1.9a17.2 17.2 0 0 1 1.8 0l.5.6.1.5v1.9a17.2 17.2 0 0 1 0 1.8l-.6.5-.5.1h-1.9a17.2 17.2 0 0 1-1.8 0l-.5-.6-.1-.5V6.2a17.2 17.2 0 0 1 0-1.8l.6-.5Zm-9.2 9.3h2l1 .3a2.8 2.8 0 0 1 1.5 2.3v3.4c0 .4 0 .7-.2 1a2.8 2.8 0 0 1-2.3 1.5H4.8c-.4 0-.7 0-1-.2a2.8 2.8 0 0 1-1.5-2.3v-3.4c0-.4 0-.7.2-1a2.8 2.8 0 0 1 2.3-1.5h1.4Zm-1.3 1.6h-.5l-.5.6-.1.5v1.9a17.2 17.2 0 0 0 0 1.8l.6.5.5.1h1.9a17.2 17.2 0 0 0 1.8 0l.5-.6.1-.5v-1.9a17.2 17.2 0 0 0 0-1.8l-.6-.5-.5-.1H4.9Zm12.3-1.6h-1.4l-1 .3a2.8 2.8 0 0 0-1.5 2.3v3.4c0 .4 0 .7.2 1a2.8 2.8 0 0 0 2.3 1.5h3.4c.4 0 .7 0 1-.2a2.8 2.8 0 0 0 1.5-2.3v-3.4c0-.4 0-.7-.2-1a2.8 2.8 0 0 0-2.3-1.5h-2ZM15.4 15l.5-.1h1.9a17.2 17.2 0 0 1 1.8 0l.5.6.1.5v1.9a17.2 17.2 0 0 1 0 1.8l-.6.5-.5.1h-1.9a17.2 17.2 0 0 1-1.8 0l-.5-.6-.1-.5v-1.9a17.2 17.2 0 0 1 0-1.8l.6-.5Z" clip-rule="evenodd"/>
  </symbol>
  <symbol id="help"
    xmlns="http://www.w3.org/2000/svg" fill="none" viewBox="0 0 22 22">
    <path stroke="currentColor" d="M21.5 11a10.5 10.5 0 1 1-21 0 10.5 10.5 0 0 1 21 0Z"/>
    <path fill="currentColor" d="M8.8 8.7 8 7c1-.7 2-1 3-1 .6 0 1.1.1 1.6.3.4.2.8.5 1 1 .3.3.4.8.4 1.4 0 .3 0 .6-.2.9l-.4.7-.6.7-.7.7a3.6 3.6 0 0 0-.8 2.5H9.5l.2-1.8.6-1.2.7-.8.5-.6c.2-.2.2-.5.2-.8 0-.3 0-.6-.3-.8-.2-.2-.5-.4-1-.4a2 2 0 0 0-.8.3c-.3.1-.6.3-.8.6Zm1.6 8.6a1 1 0 0 1-.7-.2 1 1 0 0 1-.3-.8c0-.3.1-.5.3-.7.2-.2.4-.3.7-.3a1 1 0 0 1 1 1c0 .3 0 .6-.3.8a1 1 0 0 1-.7.2Z"/>
  </symbol>
  <symbol id="report"
    xmlns="http://www.w3.org/2000/svg" fill="none" viewBox="0 0 25 25">
    <path fill="currentColor" d="m13.63 4-.16 11.41h-1.94L11.37 4h2.26ZM12.5 20a1.5 1.5 0 0 1-1.06-.41 1.3 1.3 0 0 1-.44-.99c0-.38.15-.7.44-.98.3-.27.65-.41 1.06-.41.41 0 .76.14 1.06.41a1.3 1.3 0 0 1 .23 1.68 1.5 1.5 0 0 1-1.29.7Z"/>
    <path stroke="currentColor" d="m1.45 7.92 6.47-6.47h9.16l6.47 6.47v9.16l-6.47 6.47H7.92l-6.47-6.47V7.92Z"/>
  </symbol>
  <symbol id="download"
    xmlns="http://www.w3.org/2000/svg" fill="none" viewBox="0 0 20 21">
    <path stroke="currentColor" stroke-linecap="round" stroke-linejoin="round" stroke-width="2" d="M19 17.74a2 2 0 0 1-2 2H3a2 2 0 0 1-2-2M10 13.74v-12M5 8.74l5 5 5-5"/>
  </symbol>
  <symbol id="share"
    xmlns="http://www.w3.org/2000/svg" fill="none" viewBox="0 0 24 24">
    <path stroke="currentColor" stroke-linejoin="round" stroke-width="1.5" d="M21.15 12.75 12.93 20v-4.3a.2.2 0 0 0-.2-.2c-4.34 0-7.78.06-10.73 4 0-8.88 5.84-10.94 10.73-11 .11 0 .2-.09.2-.2V4l8.22 7.25a1 1 0 0 1 0 1.5Z"/>
  </symbol>
  <symbol id="share-message"
    xmlns="http://www.w3.org/2000/svg" fill="none" viewBox="0 0 24 24">
    <path fill="currentColor" fill-rule="evenodd" d="M2.29.93 2.26.92a7.52 7.52 0 0 0-.6-.15 1.22 1.22 0 0 0-.75.06c-.34.15-.58.46-.65.83-.06.33.07.61.13.75.08.15.18.34.3.53l.01.03 2.1 3.6.06.12a8.95 8.95 0 0 0 1.64 2.3c.51.46 1.12.8 1.78.99.75.21 1.56.18 2.83.13h.14l5.67-.24-4.88 1.9-.14.06c-1.26.5-2.08.81-2.7 1.36a4.77 4.77 0 0 0-1.27 1.75c-.32.77-.36 1.64-.43 3l-.01.14-.21 3.95v.03a7.2 7.2 0 0 0-.02.6c0 .14.03.44.22.7.22.3.57.46.94.45.32 0 .57-.17.69-.27.13-.1.3-.23.45-.37l.02-.02 14.52-12.8.03-.02c.33-.3.62-.56.83-.78.22-.23.44-.51.52-.88.1-.5-.01-1.02-.32-1.42-.23-.3-.55-.47-.84-.58l-1.09-.34h-.03L2.29.92Z" clip-rule="evenodd"/>
  </symbol>
  <symbol id="speaker-max"
    xmlns="http://www.w3.org/2000/svg" fill="none" viewBox="0 0 15 12">
    <path stroke="currentColor" stroke-linecap="round" stroke-linejoin="round" stroke-width="1.5" d="M9.75 4.25s1 .5 1 1.75-1 1.75-1 1.75m1-6.5c2 1 3 2.5 3 4.75s-1 3.75-3 4.75m-10-7v4.5h2.5l4 3V.75l-4 3H.75Z"/>
  </symbol>
  <symbol id="telegram-logo"
    xmlns="http://www.w3.org/2000/svg" fill="none" viewBox="0 0 19 18">
    <path fill="currentColor" d="M18.22 1.08a1.68 1.68 0 0 0-1.7-.27L1.85 6.73a1.67 1.67 0 0 0 .09 3.13l2.96 1.03 1.66 5.46c.02.08.05.15.1.21l.02.03a.8.8 0 0 0 .23.21.8.8 0 0 0 .25.12h.01l.17.02h.02c.08 0 .16-.02.24-.05l.06-.02a.82.82 0 0 0 .16-.1l.13-.1 2.2-2.44 3.3 2.55a1.66 1.66 0 0 0 2.08-.03c.3-.24.5-.58.58-.96l2.67-13.1a1.66 1.66 0 0 0-.56-1.61ZM7.67 11.15a.81.81 0 0 0-.23.41L7.2 12.8l-.64-2.12 3.32-1.73-2.2 2.2Zm6.79 4.34-3.9-3.02a.82.82 0 0 0-1.1.1l-.71.78.25-1.22 5.8-5.8a.82.82 0 0 0-.97-1.3L5.52 9.36 2.47 8.25l14.71-5.89-2.72 13.13Z"/>
  </symbol>
  <symbol id="stopwatch"
    xmlns="http://www.w3.org/2000/svg" fill="none" viewBox="0 0 18 20">
    <path fill="currentColor" d="m15.3 6.09-.12.1A7.85 7.85 0 1 1 1.15 11c0-1.74.58-3.44 1.66-4.8l.08-.11-.1-.1-.91-.9a.86.86 0 0 1 1.2-1.22l.91.92.1.09.1-.08a7.85 7.85 0 0 1 9.6 0l.11.08.1-.1.9-.9a.85.85 0 0 1 1.2 1.2l-.9.9.1.11ZM8.1 10l.05-.04V8a.85.85 0 1 1 1.7 0v1.96l.05.04a1.35 1.35 0 1 1-1.8 0Zm-2.52 6.11A6.15 6.15 0 1 0 12.42 5.9 6.15 6.15 0 0 0 5.58 16.1ZM11 1.85H7a.85.85 0 1 1 0-1.7h4a.85.85 0 1 1 0 1.7Z"/>
  </symbol>
  <symbol id="stopwatch-not-available"
    xmlns="http://www.w3.org/2000/svg" fill="none" viewBox="0 0 18 20">
    <path fill="currentColor" d="m15.3 6.09-.12.1A7.85 7.85 0 1 1 1.15 11c0-1.74.58-3.44 1.66-4.8l.08-.11-.1-.1-.91-.9a.86.86 0 0 1 1.2-1.22l.91.92.1.09.1-.08a7.85 7.85 0 0 1 9.6 0l.11.08.1-.1.9-.9a.85.85 0 0 1 1.2 1.2l-.9.9.1.11ZM8.1 10l.05-.04V8a.85.85 0 1 1 1.7 0v1.96l.05.04a1.35 1.35 0 1 1-1.8 0Zm-2.52 6.11A6.15 6.15 0 1 0 12.42 5.9 6.15 6.15 0 0 0 5.58 16.1ZM11 1.85H7a.85.85 0 1 1 0-1.7h4a.85.85 0 1 1 0 1.7Z"/>
    <rect fill="currentColor" width="1.9" height="22.73" x="16.39" y="2.22" rx=".95" transform="rotate(44.32 16.4 2.22)"/>
  </symbol>
  <symbol id="trophy"
    xmlns="http://www.w3.org/2000/svg" fill="none" viewBox="0 0 23 21">
    <path stroke="currentColor" stroke-width="1.5" d="M18 2h3a1 1 0 0 1 1 1v2a5 5 0 0 1-5 5M5 2H2a1 1 0 0 0-1 1v2a5 5 0 0 0 5 5"/>
    <path stroke="currentColor" stroke-width="1.5" d="M4.75 1.88c0-.63.5-1.13 1.13-1.13h11.25c.62 0 1.12.5 1.12 1.13V7.5a6.75 6.75 0 0 1-13.5 0V1.87ZM6.75 19.67c0 .32.26.58.58.58h8.34c.32 0 .58-.26.58-.58 0-1.06-.86-1.92-1.92-1.92H8.67c-1.06 0-1.92.86-1.92 1.92Z"/>
    <path fill="currentColor" d="M11 17h2v-3h-2z"/>
  </symbol>
  <symbol id="arrow-long-down"
    xmlns="http://www.w3.org/2000/svg" fill="none" viewBox="0 0 33 233">
    <path stroke="currentColor" stroke-linecap="round" stroke-width="2" d="M27 1C-7.5 59.5-5.5 169.5 21.5 226.5"/>
    <path stroke="currentColor" stroke-linecap="round" stroke-linejoin="round" stroke-width="2" d="m27.42 212.85-5.02 14.72-14.73-5.02"/>
  </symbol>
  <symbol id="twitter-logo"
    xmlns="http://www.w3.org/2000/svg" fill="none" viewBox="0 0 20 17">
    <path fill="currentColor" d="M20 1.95c-.75.33-1.55.54-2.36.64a4.13 4.13 0 0 0 1.8-2.27 8.2 8.2 0 0 1-2.6 1 4.1 4.1 0 0 0-7 3.74A11.64 11.64 0 0 1 1.39.77a4.16 4.16 0 0 0-.07 4c.32.6.78 1.1 1.34 1.48a4.05 4.05 0 0 1-1.86-.5v.04a4.1 4.1 0 0 0 3.3 4 3.93 3.93 0 0 1-1.87.1 4.11 4.11 0 0 0 3.83 2.84A8.22 8.22 0 0 1 0 14.43a11.57 11.57 0 0 0 6.29 1.85A11.59 11.59 0 0 0 17.99 4.6v-.53a8.43 8.43 0 0 0 2-2.12Z"/>
  </symbol>
  <symbol id="user-single"
    xmlns="http://www.w3.org/2000/svg" fill="none" viewBox="0 0 86 86">
    <path fill="currentColor" d="M56.3 45.54a21.5 21.5 0 1 0-26.6 0A35.83 35.83 0 0 0 7.43 74.86a3.6 3.6 0 0 0 7.16.78 28.67 28.67 0 0 1 56.98 0 3.58 3.58 0 0 0 3.58 3.2h.4a3.58 3.58 0 0 0 3.15-3.95 35.83 35.83 0 0 0-22.4-29.35ZM43 43a14.33 14.33 0 1 1 0-28.67A14.33 14.33 0 0 1 43 43Z"/>
  </symbol>
  <symbol id="user-multiple"
    xmlns="http://www.w3.org/2000/svg" fill="none" viewBox="0 0 18 18">
    <path fill="currentColor" d="M9.22 9.16a3.7 3.7 0 0 0 .18-5.44 3.75 3.75 0 0 0-6.07 4.19c.22.48.54.9.95 1.25a6 6 0 0 0-3.53 5.46.75.75 0 1 0 1.5 0 4.5 4.5 0 1 1 9 0 .75.75 0 1 0 1.5 0 6 6 0 0 0-3.53-5.46Zm-2.47-.54a2.25 2.25 0 1 1 0-4.5 2.25 2.25 0 0 1 0 4.5Zm7.3.25a3.75 3.75 0 0 0-2.8-6.24.75.75 0 1 0 0 1.5 2.25 2.25 0 0 1 1.13 4.19.75.75 0 0 0-.04 1.27l.29.2.1.05a5.25 5.25 0 0 1 3 4.79.75.75 0 1 0 1.5 0 6.75 6.75 0 0 0-3.18-5.77Z"/>
  </symbol>
  <symbol id="coin-face"
    xmlns="http://www.w3.org/2000/svg" fill="none" viewBox="0 0 67 67">
    <path fill="#FC0" d="M67 33.5a33.5 33.5 0 1 1-67 0 33.5 33.5 0 0 1 67 0Z"/>
    <path fill="#FCDC59" d="M59.13 11.94A33.5 33.5 0 0 0 1.9 44.59a1819.7 1819.7 0 0 1 57.24-32.65ZM37.37 66.77a33.4 33.4 0 0 0 19.78-9.55c-5.23 2.52-10.45 5.06-15.67 7.6l-4.1 1.95Z"/>
    <path fill="#DA8100" d="M58.44 32.97a25.46 25.46 0 1 1-50.93 0 25.46 25.46 0 0 1 50.93 0Z"/>
    <path fill="#F0AA00" d="M59.16 34.03a25.13 25.13 0 1 1-50.26 0 25.13 25.13 0 0 1 50.26 0Z"/>
  </symbol>
  <symbol id="wallet-fill"
    xmlns="http://www.w3.org/2000/svg" fill="none" viewBox="0 0 22 21">
    <path fill="currentColor" fill-rule="evenodd" d="M4 4.06 9.32.26a1.4 1.4 0 0 1 2.18.8l-4.5 3H4Zm12.31-2.05L17 4.06H8.5l4.84-3.1A2 2 0 0 1 16.3 2ZM3.75 5.3A3.75 3.75 0 0 0 0 9.06v8a3.75 3.75 0 0 0 3.75 3.75h12a3.75 3.75 0 0 0 3.75-3.75v-1.5a2 2 0 0 0 0-4v-2.5a3.75 3.75 0 0 0-3.75-3.75h-12Zm15.75 5h-3a3.25 3.25 0 1 0 0 6.5h3v-1.25h-3a2 2 0 1 1 0-4h3v-1.25Z" clip-rule="evenodd"/>
  </symbol>
  <symbol id="whatsapp-logo"
    xmlns="http://www.w3.org/2000/svg" xml:space="preserve" style="enable-background:new 0 0 308 308" viewBox="0 0 308 308">
    <path fill="currentColor" d="m228 177-27-13-5-1c-3 0-6 2-8 5a208 208 0 0 1-12 14l-5-2c-24-10-42-36-45-40v-1l1-1 4-5 2-2 4-6v-1c3-4 1-8 0-10l-11-26c-3-6-6-8-10-8h-2c-2 0-14 1-19 5-5 3-14 14-14 33 0 17 11 33 15 39l1 1c18 26 40 46 63 55 22 8 32 9 38 9h7c7-1 24-9 28-20 3-8 3-17 2-20l-7-5z"/>
    <path fill="currentColor" d="M157 0A151 151 0 0 0 26 226L0 303a4 4 0 0 0 5 5l80-26a151 151 0 0 0 223-132C308 67 240 0 157 0zm0 269c-24 0-47-7-66-20a4 4 0 0 0-4 0l-40 13 13-39v-3c-15-21-23-45-23-70C37 85 91 31 157 31s120 54 120 119c0 66-54 119-120 119z"/>
  </symbol>
  <symbol id="airdrop-parachute"
    xmlns="http://www.w3.org/2000/svg" fill="none" viewBox="0 0 47 66">
    <path stroke="#EFEFEF" stroke-linejoin="round" stroke-width=".5" d="M46.7 19.6 25 44.6m18.4-24.2-18.5 24m9.7-22.8-9.9 22.8m-.3-22-.1 22m-11-22.1 10.5 22.1M3.2 21l20.1 23.6M.7 19.7l22.5 25"/>
    <path fill="#7C2C00" d="M.7 19.7s1 1.5 2.5 1.4l3.8-6s-3.7.3-6.3 4.6Z"/>
    <path fill="#787878" d="M3.2 21s4.3 3 10 1.3l2.1-9.4-8.8 2.2-3.3 6V21Z"/>
    <path fill="#7C2C00" d="M13.3 22.3s5.3 2.3 11.1.1l-.2-12.1-8.9 2.6-2 9.4Z"/>
    <path fill="#787878" d="M34.6 21.6s-3.5 2.3-10.2.8l-.2-12.1 7.9 1.2 2.5 10.1Z"/>
    <path fill="#7C2C00" d="M34.6 21.6s5.2 1.9 8.8-1.2L39 10.2l-7 1.3 2.5 10.1h.1Z"/>
    <path fill="#757575" d="M43.4 20.4s1 .2 3.3-.8L39 10.2l4.3 10.2h.1Z"/>
    <path stroke="#EFEFEF" stroke-miterlimit="10" stroke-width=".5" d="m2.2 18.9 21.3 25.7M9.6 17.1l14 27.4m-2.4-27.7L24 44.4m7.7-27.9-7 27.9m16.4-27.1L25 44.5"/>
    <path fill="#CB4900" d="M.7 19.7c1.1-.2 1.5-.8 1.5-.8L23.2.3C10.8.6.9 9.3.7 19.7Z"/>
    <path fill="#E9E8E3" d="M9.6 17.1s-1 1.8-7.4 1.8c0 0-.2-16 21-18.6L9.7 17l-.1.1Z"/>
    <path fill="#D85004" d="M23.3.3s-3.2 4-2.1 16.5c0 0-5.8 2.3-11.6.3 0 0 2.2-13.6 13.7-16.8Z"/>
    <path fill="#F3F2ED" d="m24.5.3 16.6 17s1.3.8 3 1.2c.9.2 1.8.6 2.6 1.1v-.5C46.4 8.7 36.7.5 24.5.3Z"/>
    <path fill="#FF6400" d="M31.7 16.5s3.7 2.1 9.4.8c0 0-2.4-13-15.4-17h-1.3l4.6 15 2.7 1.2Z"/>
    <path fill="#F3EFEC" d="M21.2 16.8s5 2 10.5-.3c0 0-3.2-12.1-7.3-16.3h-1.1s-5.1 4.2-2.1 16.6Z"/>
    <path fill="#FC0" d="M26.4.4c0 .1-1.4.3-3.1.3L20 .6c0-.2 1.4-.3 3.1-.4 1.8 0 3.2 0 3.2.2h.1Z"/>
    <path fill="#FCDC59" d="M24.6 66a14 14 0 0 0 8.3-4l-6.6 3-1.7 1Z"/>
    <path fill="#FC0" d="M37 52a14 14 0 1 1-28 0 14 14 0 0 1 28 0Z"/>
    <path fill="#DA8100" d="M33.4 51.8a10.7 10.7 0 1 1-21.3 0 10.7 10.7 0 0 1 21.3 0Z"/>
    <path fill="#F0AA00" d="M33.7 52.2a10.5 10.5 0 1 1-21 0 10.5 10.5 0 0 1 21 0Z"/>
    <path fill="#FFE167" d="M21.6 45.8s-.2 2 .1 2.4c.3.3 2.2 1 2.5 1.6.4.6.1 1.7 2.3 3.6.9.7.4 4-.2 4.6-.7.8-4.2 1.5-5.7.5-1.3-.8-1.6-2.8-1.6-3.4 0-.6 1.8-3.3 2.3-4 .5-.8-.7-1.2-.8-1.8-.2-.5.1-2.7 1.1-3.5Zm4.4 5.4c-.2.2-.9-.6-.9-1s.7-1 .6-2.2c0 0 1 2.7.4 3.2H26ZM23.4 48c-.5-.3-.8-.8-.7-1.3 0-.5.6-1.4.6-1.7 0 0-.1 1.6.1 2 .2.4.4 1.3 0 1Z"/>
    <path fill="#FFE167" d="M20 52s.8-.8.4-1.5-.6-1.3-.6-1.7c0 0-.8 2.7.1 3.3l.1-.1Z"/>
  </symbol>
  <symbol id="camera-graphic"
    xmlns="http://www.w3.org/2000/svg" fill="none" viewBox="0 0 210 194">
    <path fill="#FF9E87" d="M18 39.4a4 4 0 0 1 4.3-5.5l1.4.2a4 4 0 0 1 2.6 6.5l-.9 1.1a4 4 0 0 1-6.8-1l-.6-1.3ZM5.4 103.8a2.9 2.9 0 1 1 5.3-2.1 2.9 2.9 0 0 1-5.3 2ZM189 146.7a5.6 5.6 0 1 1 10.3-4.2 5.6 5.6 0 0 1-10.3 4.2Z"/>
    <path fill="#FF9E87" d="M160.7 128.5a4 4 0 0 1 1.8-6.6l1.4-.4a4 4 0 0 1 4.9 5l-.4 1.3a4 4 0 0 1-6.7 1.8l-1-1Z" opacity=".2"/>
    <path fill="#03A9F4" d="M161 30.2c-2.9 4.3-3-9.1-7.4-12-4.4-3-16.5-4.8-13.5-9.2 3-4.3 17-1.7 21.3 1.3 4.3 2.9 2.6 15.5-.3 19.9Z" opacity=".3"/>
    <path stroke="#FF83CC" stroke-linecap="round" stroke-width="3" d="M34.7 192.2c-.2-.9-1.5-2.5-4.4-1.8-3 .6-4.5-1.1-5-2M193 35c-.3 1.3.2 4.5 4.8 5.9 4.6 1.4 5.3 5 5.2 6.6"/>
    <rect width="58.1" height="58.1" fill="#168FFF" rx="16" transform="rotate(-21 176.7 -97.7)"/>
    <rect width="80" height="112" x="65" y="56" fill="#E96B25" rx="40"/>
    <ellipse cx="105" cy="96.5" fill="#FF9357" rx="26" ry="26.5"/>
    <ellipse cx="105" cy="96.5" fill="#9D3800" rx="24" ry="24.5"/>
    <circle cx="122" cy="141" r="6" fill="#FF9357"/>
  </symbol>
  <symbol id="coming-soon-graphic"
    xmlns="http://www.w3.org/2000/svg" fill="none" viewBox="0 0 214 213">
    <path fill="#FF9E87" d="M18.6 40.6a4 4 0 0 1 4.3-5.4l2 .3a4 4 0 0 1 2.6 6.4l-1.3 1.6a4 4 0 0 1-6.8-1l-.8-1.9ZM5.6 107.7a3 3 0 1 1 5.5-2.2 3 3 0 0 1-5.5 2.2ZM192.5 90.7a5.8 5.8 0 1 1 10.7-4.3 5.8 5.8 0 0 1-10.7 4.3Z"/>
    <path fill="#FF9E87" d="M166.5 133.2a4 4 0 0 1 1.9-6.7l2-.5a4 4 0 0 1 4.8 5l-.6 1.9a4 4 0 0 1-6.7 1.7l-1.4-1.4Z" opacity=".2"/>
    <path fill="#03A9F4" d="M167.1 31.3c-3 4.5-3.2-9.4-7.7-12.5-4.5-3-17.1-5-14-9.4 3-4.6 17.5-1.8 22 1.2 4.6 3.1 2.8 16.2-.3 20.7Z" opacity=".3"/>
    <circle r="3.1" fill="#27308C" opacity=".2" transform="matrix(1 0 0 -1 86.2 209.3)"/>
    <path stroke="#FF83CC" stroke-linecap="round" stroke-width="3" d="M36 199.4c-.3-1-1.5-2.6-4.6-1.9-3 .7-4.7-1.1-5-2M200.3 36.2c-.3 1.5.1 4.7 4.9 6.2 4.8 1.5 5.6 5.2 5.4 6.9"/>
    <path fill="#FF862D" d="M107.5 190a84.5 84.5 0 1 0 0-169 84.5 84.5 0 0 0 0 169Z"/>
    <path fill="#fff" d="M158.2 190H56.8V80.7a18 18 0 0 0 18-18h65.4a18 18 0 0 0 18 18V190Z"/>
    <path fill="#9C3CE7" d="M107.5 136a27 27 0 1 0 0-54.2 27 27 0 0 0 0 54.1Z"/>
    <path fill="#FFE6D3" d="M122.1 142.7H93a3.4 3.4 0 1 0 0 6.7H122a3.4 3.4 0 0 0 0-6.7ZM132.3 156.2H82.7a3.4 3.4 0 1 0 0 6.8h49.6a3.4 3.4 0 0 0 0-6.8Z"/>
    <path fill="#fff" d="m103.4 100.4-3.3 3.3 16.7 16.7 3.3-3.4-16.7-16.6ZM108.4 95.4l-3.3 3.3 6.7 6.7 3.3-3.4-6.7-6.6ZM98.4 105.4l-3.3 3.3 6.7 6.7 3.3-3.4-6.7-6.6ZM109.2 119h-14v2.3h14v-2.4Z"/>
  </symbol>
  <symbol id="hot-or-not-logo"
    xmlns="http://www.w3.org/2000/svg" fill="none" viewBox="0 0 243 312">
    <path fill="#EE2345" d="M71 151H57l-1-1h-2l-3-3v-28l-1-7 1-5-1-2-1-3-3-2H27l-2 2-3 5v60l-1 7c0 2 0 5-2 6l-2 1-3 1H5c-4 0-4-2-5-4v-10l1-5-1-7 1-41V98l-1-5v-4l1-7-1-6v-8l1-5-1-4 1-4-1-9V35c0-2 1-4 3-5 0 0 0-1 0 0h14l3 1 1 3v5l-1 5 1 9 1 15a102 102 0 0 1 1 11l1 2 2 1 8 1h9l5-1 2-3 1-3v-3l1-2-1-9 1-17-1-5v-7c0-2 1-3 2-3h18l2 1 1 6v51l1 42v17c0 2-2 4-4 4ZM4 117v-1l-1 2 1-1Zm0-30v1-2c0-1 0 0 0 0v1Zm1 14v-2 1H4l1 1Zm1 71v-1l-1 1H4h1l-1 1v1l2-2ZM4 95l1 1v-1H4h1v-1l-1 1Zm0 73s1 0 0 0Zm1-75v-1s0 1 0 0v1c-1 0-1 0 0 0Zm0-52v-1 1Zm0 59Zm0-53v1h2v-3l-2 2Zm1 45v-1H5l1 1Zm0-39v-1H5l1 2v-1Zm2 122-1-1v-2l-1 1-1 2 1 1h2v-1Zm-2-26v1l1-1H6s1 0 0 0v-1 1ZM6 42h1-1Zm1 128 1 1v-1l-1-1v1ZM7 51v-1 1Zm2 43H8v-2l-1 2v2l2-1v-1ZM8 56l-1-1v2l1-1v2-3 1ZM7 39h1-1c0-1 0 1 0 0Zm1 41v-3s0-1 0 0l-1 1v4h1l1-1v-1H8ZM7 64l1-1-1 1Zm3 39 1-1-1-1v-1H9v-1H8l1-1H7v2h1l-1 1h2v-1 2l1 1H9v1h1v-1ZM9 86H8v2h1v-2ZM8 97v-1 1s1 0 0 0Zm1 11v-1 1Zm1-18v1h1v2c0 1 0 0 0 0l2 1c0 1 0 0 0 0l1-1s1 0 0 0l-1-1v1h-1v-3h-1v-1h1v-2l-1 1-1 1v1Zm1 27v-1h-1v1s0 1 0 0h1c0 1 0 0 0 0Zm0-6h-1l1 1h1l-1-1Zm-1-71 1 1v-1h-1Zm2 61-1-1v-1 2h1Zm-1-54v1-1h1v1l1-1-2-1v1Zm1 109v-1l-1 1v1l1-1Zm0-53h-1 1Zm0 66 1-2-1-1v3Zm2-71h1c0-1 0-1 0 0v-3l-2-1-1 2v1l1 1h2-1Zm-1 77h1l2 1v-1l-1-1h-2l-1 1 1 1v-1ZM12 52h1v-1h-1v1Zm1-14h1v-2h-1l-1 1 1 1Zm-1 21h1v-1h-1v1Zm1 25v-1 1Zm0-2s1 0 0 0Zm2 18h-1c0-1 0 0 0 0l1 1v-1Zm-1-59 1 1v-2l-1 1Zm0 50 1 1h1l2 1v-2l-1 1h-1l1-1v-1l-1 1v1-3h-2v2Zm0-4v1h4-2v-1h-2Zm2-32c1 0 2-1 1-2l-1-1c0-1 0 0 0 0h-1s-1 0 0 0l1 1v2Zm0 24-1 1h1v-1Zm0 25v1-1l1-1h-1v-1l-1 1v1h1Zm0-50Zm1 42v2l1-1-1-1Zm2-61v-1 3-2Zm0 137v5-5Zm1-78v1l-1 1h1l1-1v-1h-1Zm0 63-1-6v1l1 9v-4Zm1-51-1 1v2l1-3Zm0-21v1-1Zm2 10h-1l-1 1h1l1-1Zm10-3h-1v-1h-1v1l1 1v2l1-2c1 0 1 0 0 0l1-1h-1Zm-1-5v-1 1Zm7-1h-1v1h1v-1Zm3 4-1-1-1-1v1l1 1h1Zm-1 5h-1v1-1h1Zm5-1v2-1h1l-1-1Zm7-3v-1h1v-1h-1l-1 1 1 1Zm0-58v1-1Zm0 46v-1 1Zm0 27 1 4-1-2v-2Zm2 36v1-1Zm-1-99v-6 6Zm1 96Zm0-91-1-1 1 3v-2Zm-1 22v1-1Zm2 13h-1v3-1h1s1 0 0 0v-2Zm0 52v-2 2Zm0-60-1-2v1l1 1Zm1 65v3-3Zm0-71-1-1v1l1 2v-2Zm1-36h-1 1Zm0 58v-1h-1l1 2v-1Zm1 3h-2 2Zm1-5h1l-2-1-1 1 1 1-1 1h1v-1l1-1Zm-2-49s1 0 0 0Zm2 94s1 0 0 0Zm1-97h-1c0-1 0 0 0 0v1l-1 1 1 1v-1l1-1v-1Zm-1 47v1l1-1c0 1 0 0 0 0v-1l-1 1Zm0-25v-1 2-1Zm2 81-1 1h1v-1Zm0-47h1v-2h-1v-1l-1 1v1l-1 1 1-1v-1h1v2Zm0 5v-1h-2v1h2Zm-1-56v1h-1 2v-1l1-1h-1l-1 1Zm4 94h-1v-1h-1v-1l-1 1 1 1 1 1 1-1Zm-1 3v-1l-2 1h2Zm-3-79 1 1s0 1 0 0v-1l1-1-1-1v1l-1 1Zm1-21v-1l-1 1 1 1v-1Zm0-5 1-2h-1v1l-1 1 1 1v-1Zm0 10v1h1l-1-1s-1 0 0 0Zm0 32c-1 0 0 0 0 0Zm0 8 1 2v-1l-1-1Zm1-7h-1v2h1v-2Zm0 12v-1h-1v1h1Zm0 31h1v-2l-1 2Zm2 13h-1v2l1-2Zm0 12v-1h-1v2l1-1Zm1-18 1-1-1-1-1 1v-1h-1v1l2 1Zm-1-32v-1c0-1-1-2-2-1v1h1l1 1h-1v2h1v-2Zm-2-31Zm1 67v-1 1c0 1 0 0 0 0Zm0-81h-1v1-1h1Zm-1 28Zm1 9v-1l-1 1v1l1-1Zm1 15v-1h-2v2h1l1-1Zm-1-38-1 1 1-1Zm3 78 1-1v-1h-3v2h2c0 1 0 0 0 0ZM64 35v1s1 0 0 0l1 1v-2h-1Zm4 56v-1h-1v-2h-2l-1 1h1v3h1c1 1 2-1 2-1Zm-3-47v1-1Zm1 5-1-3v1c0 1 0 1 0 0l1 2Zm-1-11v1l1-1v-1h-1v1Zm0 45v1l1 1 1-2-1-1v-2h-1v3Zm1-44-1 1v2h1-1l1 1h1c0 1 0 0 0 0v-1l-1-1v-2Zm2 13 1-2-1-1v2h-1l-1 1-1 1h1l2-1Zm-1 47-1-1v1h1Zm1 35h-1 1-1v1h1v-1Zm1 9-1-1-1 1h2Zm-3-46v-1 1Zm0-63h1v1l1 1s-1 0 0 0v1h1v-1h-1v-2l-1-1-1 1Zm2 103c0-1 0 0 0 0l1 1v-1h-1Zm0-14Zm3 6-1-1v-2l-1 1v1h-1v1h3Zm-3-62v-1h-1v1h1Zm-1 35h1v-1h-1v-2 3Zm0-32s1 0 0 0Zm2 3h-1l-1 1v-1 1h1l1-1Zm0 47v1-2 1Zm0 20h1v-2l-1 2Zm2 2h-1v-1l-1 2h2v-1c0 1 0 0 0 0Zm-3-47v1l1 1-1 1h1v-1l1-1h-1v-1h-1Zm1-53v-1c0-1 0 0 0 0l-1 1 1 1 1-1h-1Zm2 16h-2v-1 1h-1l1 2v-1h1l1-1Zm-2 42v-1 1l-1 1h1v-1Zm1 45v1-1Zm0-65h-1c0-1 0 0 0 0v2h1v-2Zm124-6V52l-2-2-1-1-4-1h-15c-3 0-4-2-4-4v-9l2-5h21c3-1 7 0 11 1h3l7-1h27l2 1v14c1 2-1 3-3 3h-14l-3 1-2 2h-1l-3 18 1-25 1 8v14l-1 11-1 9v1l2 24v4l-1 6-3 2h-1l-3 1-11-1h-1l-1-1-1-1v-2l-1-1V83l1-17-1 8Zm-23-37v-1 1Zm1 2v1-1Zm2-7h1-2 1Zm7 4-1-1v-1h-1s0-1 0 0l-1 1v1h-1l-1-1h-1l-1 1 2 1 1-1h2l1 1 1-1Zm-4 5-1 1s0 1 0 0h1v-1Zm9-4h2l-1-1h-1v1Zm3 3-2 1v2-1l2-1v-1Zm2 0 1-1s0-1 0 0l-1 1Zm2-4h1v1h-1v1h2l-1-1h1v-1l-1-1h-1v1Zm2 4v1l-1 1v1h1s-1 0 0 0c0 1 0 2 1 1l-1-1h1l1-1-1-1v-1h-1Zm2 8 1-1h-1v2c-1 0 0 0 0 0l1-1h-1Zm0-11v-1 1Zm1 5h-1 1Zm1 50v-1h-1v2h1v-1Zm-1-48h1l1-1v-1l-1-1-1 1v2Zm1-6h1l1-1-1-1-1 1v1Zm1 77 1-1v-1h-2l1 2Zm0-67v-1 1Zm1-6-1 1 1 3 1-1v1-2h2v-1c-1 0 0 0 0 0v-1l-1 1-2-1Zm0-2-1 1v1h1v-1c0 1 0 0 0 0l1-1h-1Zm0 43h1v1l-1 1 2-1v-2h-2v1Zm1-35v-1h-1v1s-1 2 1 2v-2Zm0 19-1 2h2v-1h-1l1-1h-1Zm-1-23Zm1 7v1-1Zm1 6s0-1 0 0h-1v1l1-1Zm-1-11h2v-1l-2 1Zm0 12c0 1 0 0 0 0v-1 1Zm1 20h-1v1h1v-1Zm1 30v-2h-1v3l1-1s1 0 0 0Zm2-58v-1h-2l-1 1h3Zm-2 17v-1h-1v1l1 1v-1Zm2-18-2-1s-1 0 0 0l1 1h1v1-1Zm-2-9 1 2v-3h-1v1Zm4 5v-2l-1 1v-1s0-1 0 0v-1h-2l-1 1 1 1h-1v1h1v1h1v-1h2Zm-4 9v1l1-1v-1l-1 1Zm1 8v-1l-1 1h1Zm0 10-1 1 1-1Zm0 15v1-1c1 0 1-1 0 0Zm1 28h-1c0 1 0 0 0 0h1Zm0-72v1h-1l1-1Zm3 66v-1h1l1-1-1-1-1 1h-2v-1h-1v1l1 1h1v1h1Zm-2 1-1 1v1h1v-2Zm-1-33v1-1Zm0-16v3h1l1-1h-1v-1l1-1h-1c0-1 0 0 0 0v-1l-1 1Zm0-5 1-1v-1h-1v2Zm0 34h1v-1l-1 1Zm1-46h1l-1-2v1l-1 1h1Zm0 13v-1h1c-1-1-1 1-1 1Zm0-19v1h1v-1h1v-1h-1l-1 1Zm1 48v1h1l-1-1Zm0 11 1-1v-1h-1v2Zm1-43 1-1h-1l-1 1h1Zm2 63v-1h-1v-1h-1v2h2Zm-2-58 1-1-1 1Zm1-7 1-1h-1v-1 2Zm0 43h3v-1h-1l-1-1v-1 1l-1 2Zm1-25-1 1v1l1-2c-1 0 0 0 0 0Zm-1-28 1 1s0 1 0 0v-1l1-1h1v1c0 1 0 0 0 0h1v-2h-3l-1 1v1Zm1 0v-1 1Zm1 3v3c1 0 2-3 0-3Zm2 75h1-1Zm0-10v2-2Zm0 8v-5 5Zm1-63 1-3v2l-1 2v-1Zm2-18v1h1v-1h-1Zm3 4h1v-1h-1v1Zm6-6h-1v1h1v-1Zm6-1-1-1v-1s0-1 0 0h-1v2h1l1 1v-1Zm-2-2Zm0 6v-1 1c0 1 0 0 0 0Zm2 5h-1v-1h-1v2h1l1-1Zm4-3v2-2Zm1-8-1 1h1v-1Z"/>
    <path fill="#F37131" d="M74 304v4c-1 2-3 3-5 3h-9c-4 0-6-2-7-6l-5-10-4-11-4-9-5-7-1-3v-1l-3-3-3-4-3-1v1h-1v3l-1 2 1 11v11l1 10v13l-1 1v1c0-1 0 0 0 0l-1 1h-6l-3 1H5c-4 0-4-2-5-4v-9l1-6-1-7v-16l1-3v-10l-1-5v-6l1-6-1-14 1-5v-10l-1-8v-9c0-2 1-4 3-5h13c2 0 4 2 4 4l2 5 3 5 3 7 1 3 4 7 3 6 3 6 2 6 2 2 2 2 3-1 1-2v-4l1-46v-8l-1-8 1-7v-6l1-2 2-1h18c2 0 2 0 3 2v146ZM3 238h2-2Zm1 17v1l1-1v-1H3l1 1Zm-1 5h1v-1l-1 1Zm3 34v-3l-1-1v-1l-1-1-1 1 1 1v1l1 1 1 1-1 1h1Zm-1-31H4h1Zm0-43c0-1 0 0 0 0l-1 1 1-1Zm0 42 1-1v-2H5l-1 1 1 1v1Zm0-42 1-1c-1 0 0 0 0 0H5v1Zm1-7v-1 1Zm0 3 1 2v-2H6Zm0 80h1v-1 1l1-2-1 1H6v1Zm1 4-1 1v-1h1ZM6 195l2 1-1-3-1 2Zm3 104H8v-1H7v1l1 1v1l1-2Zm-2-25v-2 3-1Zm2 17-1-1v-1l-1 1v1h1c0 1 0 0 0 0h1Zm-2-1Zm1-81v1h2v-1h1v3h-1c0-1 0 0 0 0v1h1v2h2v-1h-1l-1-1v-1 1-1l1-1v-3H9c-2 0 0-1 0-1s1 0 0 0c-1-1-2 1-1 2Zm0 73H7l2 2v-1l-1-1Zm1-30v-1c0-1 0 0 0 0v1Zm1-33v2-2h1c0 1 0 0 0 0v-1H9v-1h1v-1l-1 1v1l1 1Zm0 83-1-1v1h1Zm1-79H9h2c0 1 0 0 0 0Zm-2 36h1v1-1H9Zm2-33-1-1v2h1v-1Zm-1-24h1v-1h-1v1Zm0 89v-3 3Zm0-60v-1 1Zm1-3v3h1l1-2h-1v-1l1-1h-1l-1 1Zm0 69h1v-1l-1 1Zm1 3v2l1-1v-1 1l-1-1v-1h-1v1h1Zm-1-61s0-1 0 0Zm0 55v1h3v-1h-2c0-1 0-2-1-1v1Zm0-36v1l1 1c1 1 1 0 1-1h1v-1h-1v-1h-1l-1 1Zm2 21v-1h-2v2h2v-1Zm0-62h1v-1l-1 1-1 1 1 1v1h1v-3h-1Zm-1 59v1-1h1-1Zm0-69v1h1v-1l1-1h-1l-1 1Zm1-12 1 1h1v-1l-1-1s0-1 0 0l-1 1Zm0 68 1-1v-1l-1 1v1Zm2-35v-1h-1v1h1c0 1 0 0 0 0Zm0-13-1 1h1v-1Zm0-3v1l1-1h-1Zm1 8-1 1v1l1-1v-1Zm0 4 1-1-1 1Zm1-9h2l1-1h-1v-1l-2 2Zm1 14v2h1v-1l-1-1Zm0-19h1v-2l-1 2Zm1 43v-1 1Zm0 18Zm1-52h-1v1h1v1h1v1l1 1v-3h-1l-1-1Zm0 7-1-2v2h1Zm0 80Zm1-63-1 1v1l1-2Zm-1 42v-2 19-17Zm0-72 1 2 1-1v-2l-1-1v2h-1Zm1 38v1-1Zm1 56v-4 4Zm0-88 1 1v1l1-1v-1h-1v-1l-1 1Zm1 37Zm1-7-1 1 1-1Zm1-31s0-1 0 0l1-1v-1l-1 2c-1 0-1 0 0 0Zm1 5h-1v1h1v1c-1 0 0 0 0 0l1-2h-1Zm-1 2v-1 1Zm1 21h-1l1 1v-1Zm0-21 1 1 1-1h-2Zm3 23v-1 1h2v-1 1h-1v-3 1l-1 1v1Zm3-9v-1 1Zm3 0h2v-1h-2v1Zm0 9h1-1Zm3-2v-2l-1-1v-2l-1 1 1 1v1l1 2Zm2 8-1-1v3l1-1v-1Zm6 8-1-2 1 2Zm1-13h2l-2-1v1Zm0 30v1l1 1c1-1 1-2-1-2Zm2-29v1l2-2-2 1Zm0 19Zm1 6v-3h-1v2h1v1Zm0-29Zm0 26h1-1v-1 1Zm4 16h-1l-1-1h-2v2c0 1 0 0 0 0l1-1 2 1 1-1Zm-4-33v-1 1Zm1-85 1-4v-2l-1 6Zm2-11h-1v2h1v-2Zm-1 120 1 2 1-1h1-2v-2l-1 1Zm4 6h-3v-1h1v-1l-1 1v2h2l1-1Zm-3-43v1-1Zm2 35h1v-2h-2l-1 1 1 1h1v1h1v-1h-1Zm1-117h-2 2Zm-1 112 1 1h1v-2h-1l-1 1Zm8 11v-2h-1v1h-2l1-1-2-1v-1h-1v2h1l-1 1h-1v1c-1 0-1 0 0 0h1l-1 1 2-1h1l1 1 2-1Zm-4 8h-1s0-1 0 0l1-1-1-1h-1v1h1v1h-1v2l1-1v1l1-2Zm-1-6s1 0 0 0v2l1-1-1-1Zm0-7 1 1 1-1v-1 1h-1l1-1v-1l-2 2Zm2 3-1 1h-1l1-1h1Zm1 7h1l-1-1s1 0 0 0h-1v-1l-1 1 1 1h1Zm-2-23 1 2-1-2Zm1 32-1 2 1-1v-1s1 0 0 0Zm1-136h-1l1 2v-2Zm2 7-2-1v-1l-1 1v1h2l-1 1v1l1-1 1-1Zm-2 101s-1 1 0 0h1v-1l-1 1-1-2 1 2Zm0-18v1-1Zm1 32h-1l1-1v1Zm0 9h-1v1l1-1Zm3-119c-1-1-2 0-2 1l-1-1v1l1 1v1-1l1-1h1v-1Zm-3 131h-1 1Zm0-121v-1h1-1v1Zm0 6 1-1v-1l-1 2Zm0-23h1v1h1l1 2h2v-2h-3v-1 1l1-1h1v-1h-2v1h-2Zm0 4 1-1-1 1Zm0 76c0 1 1 0 0 0Zm2-48h1l-1-1-1-1 1 2Zm2 93h-1l1-1c-1-1-2 0-2 1v-1l-1-1h1v-1l-1 1 1 1v2l2 1v-2Zm-3-8v3-3Zm0-124h1v-1l-1 1Zm1 79 1-1v1h1l-1-2h-1v-1h1v-1h-2l1 1-1 1 1 2Zm0 38h-1 1Zm0-113 1 2-1-3v1Zm0 139v-1h-1v1h1Zm1-7h-1v1h1v-1Zm0-104c0-1 0 0 0 0v1h1l-1-1Zm-1 70 1 1v-1h-1Zm0 29 1-1h-1v1Zm1-99v1-1Zm0 89v-1l1-1v-1h1v-2l-1 1h-1v4Zm1-84Zm0-16v-1 1Zm0 108h-1 1Zm2-118-1 1h-1 1l-1 2h2v-1h1v1l1 2v-3h1-1v-1h-1v-1 1l-1-1Zm-1 113-1 1 2 1 1-1h-2v-1h1-2v-1l1-1c0-1 0 0 0 0l-1 1 1 1Zm1-104v-1h-1l1 1Zm1 73v-1l-1-1 1-1h-1c-1-1-2 1-1 1v1l1 1h1Zm0 49h-2v1h1v1l1-1v-1Zm-2-27v-1c0-1 0 0 0 0v1Zm3-95-1 1v-1h-1v2s0 1 0 0l2-2Zm-2 103Zm0-115 1 1v-1h-1Zm3 29v-1h-1v2h1v-1Zm0-7v-1l-1 1v1h1v-1Zm171 14c0 2-2 3-3 3h-14l-3 2-3 1c-2 6-3 13-3 19l1 11 1 8v13l-1 11-1 10 1 17v10l-3 3-2-1-2 1h-11l-1-1h-1l-1-2-1-2v-29l1-17v-12l-1-3v-25l-1-7v-2l-1-3h-1v-1h-4l-16-1c-2 0-3-1-3-3l-1-10c0-2 2-4 3-5h20l11 1h10l5-1h23l1 2c2 4 1 9 1 13Zm-70-8v-1l-1 1h1Zm1 3v-1l-1 1h1Zm2-8h-1 1Zm6 4v-2h-2v2l-1 1v-1l-2-1-1 2h5l1 1v-2Zm-3 5-2 1 1 1v-1h1v-1Zm9-4 1 1v-2h-1v1c-1 0-1 0 0 0Zm3 4h-2l-1 1v1h1v-1l2-1Zm2-1h1v-1c0 1 0 0 0 0l-1 1Zm1-3h2-1v1h1v-1h1v-1h-2l-1 1Zm3 3v2h-1l-1 1h1v1l2 1v-1h-1 1v-3l-1-1Zm2 8v-1 1l-1 1v1l1-1 1-1h-1Zm-1-11h1-1Zm1 5-1 1 1-1s1 0 0 0Zm2 87v-1l-1-1v3l1-1Zm-1-85h1v-2l-1 1v1Zm1-5 1-1c1 1 1 0 1-1h-1l-1-1v3Zm0 105 2-1v-1h-2v2Zm0-96v-1 1Zm1-5c-1 1 0 2 1 3h1l-1-2h2s1 0 0 0l1-1h-4Zm1-3v1h-1v1l1-1v1-2Zm-1 80h1v2l2-1v-1h-1l1-2h-2l-1 2Zm1-71v-2 3-1Zm0 19v1h1l1-1h-2Zm0-24Zm0 8v-1 1Zm2 42v-1h-1v1h1Zm-1-12v1h2v-1h-2Zm0-23v-2 2Zm1 55h-1v2-1l1-1Zm-1 19v2h1v-1l1-2h-2v1Zm2 4v-1l-1-1-1 1v1h1v1l1-1Zm2-51v-1h-2l-1 2 3-1Zm-2 18v-2l-1 1v1h1Zm2-55-3-1 2 1v1l1-1Zm-3-8c0 1 1 2 2 1l-1-2c0-1 0-1 0 0l-1 1Zm5 4v-1h-1v-1h-3l1 1h-1v2h2v-1h1v1l1-1Zm-4 10 1-2h-1v2Zm0 7h1v-1h-1v1Zm0 10v1-1Zm1 62c0 1 0 0 0 0l1-1h-1 1v-1l-1-1v2h-1l1 1Zm0-11v1c-1 0-1 0 0 0v-1Zm0 21c0-1 0 0 0 0v1-1Zm1-100h-1v1-2h1v1Zm2 94h1v-1h1v-1h-3v-1h-1l-1 1h1l1 1 1 1Zm-1 2h-1v1h1v-1Zm-1-63v1-1Zm0-16s0 1 0 0v3h1v-4l-1 1Zm0 31h1v-1h-1v1Zm0 34c0 1 0 1 0 0h1l-1-1v1Zm1-46s1 0 0 0v-1h-1v1h1Zm0-22v-2s1 0 0 0v2Zm0-19h1v-1h1v-1h-1v1h-1v1Zm1 84v1-1s0-1 0 0Zm0 10v1-2 1Zm0-42h1l1-1h-2v1Zm2 55 1-1h-1l-1-1-1 2 1 1 1-1Zm-1-50 1-1-1 1Zm1-44v-2 2Zm0 79h3l-1-1h-1v-1h-1v2Zm0-24v1-1Zm0-64v1l1-1v-2h2v2l1-1v-1h-3v-1 1h-1v2Zm0-1 1-1v1h-1Zm2 3-1 3 1-3Zm1 105h1v-1l-1 1Zm1-11v2-2Zm0 8v-5 6-1Zm1-91 1-3-1 1v3-1Zm1-19h1v1h1v-1h-2Zm4 4h1-1c0-1-1 1 0 0Zm6-5v-1h-1v2l1-1Zm6-2h-1v-1h-1l1-1h-1v1l-1 1h1l1 1h1c0 1 0 0 0 0v-1Zm-3-2Zm1 6v-1 1c0 1 0 0 0 0Zm1 5h-1v-1 2h1v-1Zm5-3-1 3 1-3Zm1-7-1-1v1h1Z"/>
    <path fill="#836DB1" d="M206 162v2l-2 1-2 1h-2a21 21 0 0 1-3 0l-1-1h-1l-1-1v-16l1-1h1l1-1h7l1 1 1 1v14Zm-11-10Zm0 2v1-1Zm0 7Zm0-8Zm0-2Zm0 5Zm0-4v1-1Zm0-3Zm0 5Zm1 5h-1 1Zm-1-8Zm0 9Zm0-10Zm0-2s1 0 0 0Zm0 5v-1 1Zm0 1h1-1Zm0 1h1-1Zm0 6c1 0 0 0 0 0Zm1-10h-1 1Zm0 2h-1 1Zm0-1c0-1 0 0 0 0Zm0 8Zm0-6v-1 1Zm0 7Zm0-9Zm0 1Zm0 6Zm0 3v1-1Zm0-12Zm0 0v1-1Zm0 0v-1 1-1 1Zm0 6Zm0-3v1-1Zm0 0v-1 1Zm0 6v-1 1Zm0-7Zm0 8v1-1Zm0-11Zm0 0Zm0 6Zm0 5Zm0-7Zm1-5Zm0 15Zm0-14v1-1Zm0 13v-1 1Zm0 0Zm0-11h1v-1l-1 1Zm1-2Zm0-1Zm0 2Zm0 15v-1 1Zm5-4v-12h-4l-1 1v11l1 2h4v-2Zm-5-14Zm0 3v-1 1Zm0 15v-1 1Zm0-17v-1 1Zm1-1s0-1 0 0Zm0 0c0 1 0 0 0 0 0 1 0 0 0 0Zm0 18Zm0-17Zm0 17Zm0-18h1-1Zm1 17h-1 1Zm0-17Zm0 18Zm0-18v1h1l-1-1Zm0 18Zm0 0Zm0-18Zm0 0h1-1Zm1 0s-1 0 0 0Zm0 0Zm0 0Zm0 16v1-1Zm0-16v1-1 1-1Zm0 0 1 1v-1h-1Zm0 17Zm0-17h1-1Zm1 1Zm0 16Zm1-17h-1 1Zm-1 0h1-1Zm1 1h-1 1Zm1 4Zm0 8v1-1Zm0-6Zm0 7Zm0-3Zm0 4c0-1 0 0 0 0Zm0-3s1 0 0 0Zm0-3v1-1Zm0 6Zm0-2Zm0-3Zm0 4s1 0 0 0Zm0-8Zm0 7Zm0 3Zm0-7h1-1Zm1 3v-1h-1v1h1Zm-1-5h1-1Zm0-4h1-1Zm0 4s1 0 0 0Zm0 4Zm1 1s-1 0 0 0Zm0-10Zm0 9v-1h-1v1h1Zm0 3v-1s-1 0 0 0v1Zm0-9v-1 1Zm0 6Zm0-8Zm0 10v-1 1Zm0 3Zm0-1v-1 1Zm0-10Zm0 7v-1 1Zm0-8Zm0 8v1-1 1h1v-1h-1s1 0 0 0Zm0-2Zm0-6Zm0 7Zm0-4Zm0 0v1-1Zm0 8Zm0-10s1 0 0 0Zm0 1Zm0 7Zm1 1s-1 0 0 0h-1c0 1 0 0 0 0h1Zm-1-9Zm1 1Zm14 13h-4v-2h-1l-1-2v-1l-1-1-1-1v1l-1 1v5h-3l-1-1v-6l1-1-1-1v-6c1 0 0 0 0 0l1-1-1-2v-1l1-1h9v1l2 1v1l1 3-2 4-2 1v1c-1 0-1 0 0 0l1 2 1 2 1 2v1l1 1Zm-12-2Zm0-17h1-1v-1 1Zm0 18s1 0 0 0Zm0-8Zm0 6h1-1Zm0-5Zm0-11v1h1v-1h-1Zm0 7v-1 1Zm0 0h1-1Zm0 6Zm1-12h-1 1Zm-1 0v1-1Zm1 8h-1 1Zm-1 0h1v-1h-1 1-1v1Zm1-4h-1 1Zm0-3h-1v1h1v-1Zm-1 12h1-1Zm1-15Zm0 5Zm0 7v-1 1Zm0-11Zm0 17Zm0-16Zm0 1Zm0 0Zm0 7Zm0 1Zm0-2Zm0 7Zm0-6c0-1 0 0 0 0Zm0 9v-1 1Zm0-17h1-1v-1 1Zm0 13s1 0 0 0v-1 1Zm0 3c0-1 0 0 0 0Zm0-8h1-1Zm0-9v-1 1Zm0 5v-1 1Zm0 10Zm0-7Zm0-4Zm1 3h-1 1Zm0-6h-1 1Zm0 8h-1 1Zm-1-9h1-1Zm1 2h-1 1Zm0 1h-1l1 1v-1Zm-1 15h1v-1s-1 0 0 0h-1v1Zm1 1v-1h-1l1 1Zm0-9h-1 1Zm0 4v1-1Zm0-6s-1 0 0 0c0 0 0 1 0 0Zm0-6Zm0-1Zm0 10Zm0-9v-1 1Zm0-2v-1 1-1 1Zm0 8Zm0-7v-1 1Zm0 8Zm0-9Zm1 1h-1 1Zm-1 8v-1 1Zm0 1v1-1Zm0-9Zm0 1Zm0 8Zm0-9 1-1h-1v1Zm0-1h1v-1l-1 1Zm0 1v-1 1Zm0-1Zm0 14v-1 1Zm0 1h1v-1l-1 1Zm0 2v1h1l-1-1Zm0 1h1-1Zm1 0Zm0-14v-1 1Zm0 5Zm0 5v1-1Zm0-14Zm0 16Zm1-5h-1 1Zm-1 0v1-1Zm5-9h-4v1h-1v3l2 1h3l1-1v-2l-1-1v-1Zm-4 0h-1 1Zm-1 7Zm0 3h1-1Zm1-3s0 1 0 0Zm0 2v1-1Zm0-1v-1 1Zm0-1v-1 1Zm1 0h-1 1Zm0 1v-1 1s-1 0 0 0Zm0 0Zm0 1v-1 1Zm0-2Zm0-1Zm0-7Zm0 9Zm1 1h-1 1Zm-1-2h1-1Zm1 1h-1 1Zm-1 0h1c0-1 0-1 0 0v-1l-1 1Zm0 0h1-1Zm1-10s-1 0 0 0v-1 1Zm0 10v-1 1Zm0-9v-1 1Zm0 11Zm0-1Zm0-1v1-1c0 1 0 1 0 0Zm0 2Zm0-13Zm0 11Zm0-1Zm0 4Zm0-12v-1h1-1v1Zm0 8v1-1Zm1 0h-1 1Zm0 2h-1 1Zm0 1c0-1-1 0 0 0Zm0-4s-1 0 0 0Zm0 2v1-1Zm0-11Zm0 10s0 1 0 0Zm0 2v-1 1Zm0-11Zm0 12v-1 1Zm0 2Zm0-3Zm0 1v1-1Zm0-11v-1 1Zm0-2Zm0 16Zm0-6Zm0-8Zm0 8Zm0 1Zm0-10Zm0 8Zm0 1h1-1Zm1 5s0-1 0 0Zm0 0v1-1Zm0-6v1-1Zm0 1Zm0-8Zm1 14h-1 1Zm-1-14h1-1Zm0 13h1v-1h-1v1Zm1-12s-1 0 0 0Zm0 14s-1 0 0 0Zm0-8Zm0 0v1-1Zm0-7Zm0 17v-1 1s1 0 0 0Zm0-1Zm0-12h1s0-1 0 0h-1Zm0 3s1 0 0 0Zm0 8Zm1 0h-1 1Zm0-10h-1 1Zm0-3Zm0 3Zm0 12Zm0 0v-1 1Zm1 0h-1 1Zm-1-16c0 1 0 0 0 0Zm1 2Z"/>
    <path fill="#F3DE67" d="M198 140h-6l-1-1v-4l1-1h31v2l-1 2h1-1v1l-3 1h-21Zm-6-4h1l-1-1v1Zm0-1h1-1v-1 1Zm1 1v1-1Zm0 1v1-1Zm0-2Zm1 2Zm0-1h1-1Zm0-1s1 0 0 0h1-1Zm1 2h1-1Zm0-2h1-1Zm2 1h-1 1Zm2 1v1-1Zm1-2Zm2 1v1-1c0 1 0 0 0 0Zm1 0h-1 1Zm1 1Zm0-1Zm1 0h1-1s0 1 0 0Zm3 0h1s0-1 0 0v-1h-1v1Zm0 3h2-2Zm1-2Zm2 1v-1h-1l1 1Zm1 1h-1 1Zm0-4c1 0 0 0 0 0Zm0 2h1-1Zm0-2v1h1l-1-1Zm2 0Zm2 1h-1v1l1-1Zm0-1Zm1 4h-1 1Zm1-4h-1 1-1 1s0 1 0 0Zm0 2h-1 1Zm0-2h-1 2v-1h-1v1Zm0 3h-1 1Zm0-1h1-1Zm1-1h-1 1Zm0-1Zm0 0v2l1-1h-1v-1Zm0 3h1-1Zm1-1h-1 1Zm0-2v-1 1Zm0 1v1-1Zm0 0c1 0 0 0 0 0Zm1 0v1-1Zm0-2s0 1 0 0v1h1v-1h-1Zm-23 44h-6l-1-1v-4l1-1h31v2l-1 2h1l-1 1-3 1h-21Zm-6-4h1-1Zm0-1h1-1Zm1 2v-1 1Zm0 0v1-1Zm0-2s0 1 0 0Zm1 2Zm0-1h1-1Zm0 0s1 0 0 0h1v-1h-1v1Zm1 1h1-1Zm0-1h1v-1h-1v1Zm2 0v1-1h-1 1Zm2 1v1-1 1-1Zm1-2Zm2 2Zm1-1h-1 1Zm1 1Zm0-1Zm1 1 1-1h-1v1Zm3-1h1v-1h-1v1Zm0 3h2-2Zm1-2Zm2 1-1-1v1h1Zm1 1h-1 1Zm0-4c1 0 0 0 0 0Zm0 2h1-1Zm0-1h1-1Zm2-1Zm2 2-1-1v1h1Zm0-1Zm1 3h-1 1Zm1-4h-1 1l-1 1v-1l1 1v-1Zm0 2h-1 1Zm0-2h-1 2c-1 0-1 0 0 0v-1h-1v1Zm0 4h-1 1Zm0-2h1-1Zm1-1h-1 1Zm0-1Zm0 1v1h1v-1h-1Zm0 3h1-1Zm1-2h-1 1Zm0-2Zm0 2Zm0-1c1 0 0 0 0 0Zm1 0v1-1Zm0-2v1h1l-1-1Z"/>
    <path fill="#F37131" d="m128 151 1 1c15-1 29-5 34-10 7-7 12-43 2-51-25-21-22-32-26-39-3-5-18-12-24-16h-1v-1l-2-1c-4-4-1-26-1-26-11 8-14 30-13 37l1 1h-1v1c1 5 15 10 9 18-5 8-25 38-25 45-1 6 3 28 17 37 4 3 8 4 14 5l9 1v-1 1l5-1 1-1Zm37-21Zm-3-19h1-1Zm-3-18Zm-2-5Zm-2 10 1 1-1 1v-2Zm-1-8 1 1h-1v-1Zm0 17 1 1h-1v-1Zm0 25 1 1v1l-1-1v-1Zm0 13v1-1Zm-3-53Zm-7-26v1-1Zm0 19h-1 1Zm-4-13 1 2h1-1l-1-2Zm0 66v1l-1-1h1Zm-1-55Zm0 19-1 1-2-3h1l2 2Zm-3-30c0 1 0 0 0 0Zm1-20 1 1-1 1-1-1 1-1Zm-1 11v1-1Zm-2 26h-1 1Zm-3-12 1 1h-1v-1Zm-3 59 1 1h-1v-1ZM100 31l-1-1h2l-1 1Zm3 10-1-1 1-2 1 1-1 2Zm4 4h1-1Zm-18 57Zm2-6h1-1Zm2 39c0 1 0 1 0 0h1-1Zm1-8v-1 1Zm2-7v-1 1Zm4 14h1-1Zm2-54v-1 1Zm2 6h-1 1Zm2 54v-1h1v1h-1Zm3-90v1-1Zm1 44 1 1h-1v-1Zm1 56-1-1h1l1 1h-1Zm2-36h-1v-1l1 1Zm1-64h-1v-1l1 1Zm10 52Zm-9 35h-1 1Zm0-37v-1 1Zm2 30c-1 0 0 0 0 0Zm2-77v-1 1Zm4 21-1 1v-3l1 2Zm0-21-1-1 1-1 1 2h-1Zm1 73v-1h-1 1v1Zm0-19-1-1h1v1Zm2-36h-1 1Zm34-4c8-6-4-34-4-34 1 12-6 18-6 23s7 13 10 11Zm-7-14-1-1h1v1Zm3-13v-1 1Zm2 25v-1l2 1-1 1-1-1Z"/>
    <path fill="#F37131" d="M130 21c-2-4-1-18 0-21-1 4-7 13-8 18s3 11 8 15c5 3 3-7 0-12Zm-3 7ZM92 77s9-10 5-17c-5-8-6-14-6-19 0 0-9 29 1 36Zm1-5v1-1Zm-3-17h1v4l-1-3v-1Zm0 14v-1h1l-1 1Z"/>
    <path fill="#fff" d="m143 97-12 2-6 7-7-6-12 1-5 8 1 12 27 20 22-25-1-13-7-6Z"/>
    <path fill="#EE2345" d="M112 211c-3 7 0 18-25 39-8 6-6 30-2 43h1v1l3 7c8 8 47 16 64 5 14-9 18-31 17-38 0-6-20-36-25-44-6-8 8-13 9-19 2-5-2-29-13-38 0 0 3 22-1 26-3 3-24 11-28 18Zm-24 44h-1v-1l1 1Zm2 43h-1v-2l1 1v1Zm5-4h-1 1Zm0-20v-1 1Zm3-5Zm4 30h1-1Zm7 4h-1l1-1v1Zm0-26h-1v-1l1 1Zm1-35 1-1-1 1Zm1 57h-1l1-1v1Zm0-8v-1 1Zm1-63v-1 1Zm41 70h1-1Zm1-3Zm12-8Zm-3-20v1h-1l1-1Zm-4-13h2l-1 1h-1v-1Zm-1 41v1-1Zm-4-27-1 1v-1h1Zm-9-11Zm7 0v-1 1Zm0-13v2l-1-1 1-1Zm-8-8h1v1l-1-1Zm10-32Zm-5 8h-1 1Zm-6 89v1-1c-1 0-1 0 0 0Zm-14-2c-1 0-1 0 0 0Zm12-6h-1 1Zm-1-62h1v2l-1-1v-1Zm-4 33Zm-2-55Zm0 88 1 2h-1c-1 1-1 0-1-1l1-1Zm-1-54Zm-8 27Zm-1 24 2 1-1 1-2-1 1-1Zm-4-66h1l-1 1h-1l1-1Zm-1-5h-1 1Zm-1 33 1 1v1l-1-1v-1Zm0-39Zm-2 13h-1 1Zm-1 16Zm-23-21c3 3 10-5 10-10s-7-11-6-24c0 0-12 29-4 34Zm5-4v1c1 0 0 0 0 0v-1Zm-3-8v1l-1-1h1Z"/>
    <path fill="#EE2345" d="M122 180c-3 4-5 14 0 11s9-9 8-15l-8-17c1 3 2 17 0 21Zm-1 8-1-1 1-1 1 1-1 1Zm39 47c5-2 5-10 5-17v-1a90 90 0 0 0-2-7v-1l-2-10c0 5-1 12-6 19-4 8 5 17 5 17Zm-1-19 1 1v1l-2-2h1Zm-2 6 2 1h-2l-1-1h1Z"/>
    <path fill="#fff" d="m153 275-1-9-3-9-8-9-8-3h-14l-7 4-6 6-5 12 1 12-1 9 12 4v3l3 2 5-1 1 4 5-1 1-3 2 2 4 1 2-3v-3l5 3 3-2v-4l8-4 3-4-2-7Zm-31-1-3 4h-6l-4-3v-6l3-4h6l4 3v6Zm8 11-4 1-1-4 3-3 3 2-1 4Zm15-12-3 4h-6l-4-4v-5l3-4 6-1 4 4v6Z"/>
  </symbol>
  <symbol id="posts-graphic"
    xmlns="http://www.w3.org/2000/svg" fill="none" viewBox="0 0 186 174">
    <circle r="4.2" fill="#27308C" opacity=".1" transform="matrix(1 0 0 -1 139 73.6)"/>
    <circle r="2.5" fill="#27308C" opacity=".2" transform="matrix(1 0 0 -1 67 168.2)"/>
    <mask id="a" width="78" height="78" x="23" y="18" maskUnits="userSpaceOnUse" style="mask-type:alpha">
      <rect width="66.9" height="66.9" fill="#FFC467" rx="16" transform="matrix(.93383 -.357716 .357685 .933842 18.6 37.3)"/>
    </mask>
    <g mask="url(#a)">
      <rect width="66.9" height="66.9" fill="#FFC467" rx="16" transform="matrix(.93383 -.357716 .357685 .933842 18.6 37.3)"/>
      <path fill="#151A53" d="M39.6 59.5a18 18 0 0 1 16.6-19.2l44.2-3.3a18 18 0 0 1 19.3 16.6l5.6 76.7a6 6 0 0 1-8.6 5.8l-32.4-16-29.7 20.6a6 6 0 0 1-9.4-4.5l-5.6-76.7ZM27 31.7a4 4 0 0 1 4.3-5.4l5 .7a4 4 0 0 1 2.5 6.4l-3 4a4 4 0 0 1-7-1L27 31.6Z" opacity=".1"/>
    </g>
    <path fill="#5665FF" d="M74.8 69.7a18 18 0 0 1 20.4-15.2l43.9 6.4a18 18 0 0 1 15.2 20.5l-11.2 76a6 6 0 0 1-9.7 3.8l-28.1-22.7-33.5 13.7a6 6 0 0 1-8.2-6.4l11.2-76.1Z" opacity=".1"/>
    <path fill="#3747E9" d="M43.7 58.7a18 18 0 0 1 16.7-19.3l44.2-3.2a18 18 0 0 1 19.3 16.6l5.6 76.7a6 6 0 0 1-8.6 5.8l-32.4-16-29.7 20.6a6 6 0 0 1-9.4-4.5l-5.7-76.7Z"/>
    <path fill="#FF9E87" d="M27.8 29.2a4 4 0 0 1 4.3-5.5l5 .7a4 4 0 0 1 2.5 6.5l-3 3.9a4 4 0 0 1-7-1l-1.8-4.6ZM7.6 125a3.5 3.5 0 1 1 6.5-2.7 3.5 3.5 0 0 1-6.5 2.7ZM159.5 105.4a6.8 6.8 0 1 1 12.7-5 6.8 6.8 0 0 1-12.7 5Z"/>
    <path fill="#FFE1DA" d="M120 162.7a4 4 0 0 1 1.9-6.7l4.8-1.3a4 4 0 0 1 4.9 5l-1.3 4.8a4 4 0 0 1-6.8 1.7l-3.5-3.5Z"/>
    <path stroke="#fff" stroke-width="3" d="M69.7 58.4 99 56.3"/>
    <path fill="#3F13E4" d="M149 32.3c-2.5 6-6.2-10.1-12.3-12.5-6-2.4-21-1.3-18.6-7.4 2.3-6 19.9-6.5 25.9-4.1 6 2.4 7.3 18 5 24Z" opacity=".3"/>
  </symbol>
  <symbol id="transactions-graphic"
    xmlns="http://www.w3.org/2000/svg" fill="none" viewBox="0 0 188 200">
    <path fill="#6360AB" d="M96 186a73 73 0 1 0 0-146 73 73 0 0 0 0 146Z"/>
    <path fill="#FF9E87" d="M17 39c-2-3 1-6 4-6 3 1 5 4 3 7h-1c-1 3-5 2-6-1ZM5 101c-1-2 1-4 3-3 2 0 3 2 1 4-1 2-3 1-4-1Zm164-16c-1-4 2-8 5-7 4 1 6 5 4 9-3 3-8 2-9-2Z"/>
    <path fill="#FF9E87" d="M146 126c-2-3-1-6 2-7h1c3-1 6 2 5 5-1 4-5 4-7 2h-1Z" opacity=".2"/>
    <path fill="#03A9F4" d="M147 29c-3 5-3-8-7-11s-15-5-12-9c2-4 15-2 19 1s3 15 0 19Z" opacity=".3"/>
    <path fill="#27308C" d="M76 194.1c1.5 0 2.7 1.3 2.7 2.9 0 1.6-1.2 2.9-2.7 2.9-1.5 0-2.7-1.3-2.7-2.9 0-1.6 1.2-2.9 2.7-2.9Z" opacity=".2"/>
    <path stroke="#FF83CC" stroke-linecap="round" stroke-width="3" d="M32 188c-1-1-2-3-4-2-3 1-5-1-5-2M173 35c0 1 0 4 4 6 5 1 5 5 5 6"/>
    <path fill="#fff" d="M138 82H54c-3 0-5 2-5 5v102c0 3 2 5 5 5h84c2 0 5-2 5-5V87c0-3-3-5-5-5Z"/>
    <path fill="#A09DE7" d="M86 96H61a3 3 0 0 0 0 6h25a3 3 0 1 0 0-6Z"/>
    <path fill="#DEDCFF" d="M104 109H61a3 3 0 1 0 0 6h43a3 3 0 1 0 0-6Z"/>
    <path fill="#A09DE7" d="M86 123H61a3 3 0 1 0 0 6h25a3 3 0 1 0 0-6Z"/>
    <path fill="#DEDCFF" d="M104 136H61a3 3 0 0 0 0 5h43a3 3 0 0 0 0-5Z"/>
    <path fill="#A09DE7" d="M86 149H61a3 3 0 1 0 0 6h25a3 3 0 1 0 0-6Z"/>
    <path fill="#DEDCFF" d="M104 162H61a3 3 0 1 0 0 6h43a3 3 0 1 0 0-6Z"/>
    <path fill="#4CCB86" d="M138 29H54c-3 0-5 2-5 5v29c0 3 2 5 5 5h84c2 0 5-2 5-5V34c0-3-3-5-5-5Z"/>
    <path fill="#DCFFEC" d="M86 40H61a3 3 0 0 0 0 6h25a3 3 0 0 0 0-6Z"/>
    <path fill="#83FFBC" d="M104 53H61a3 3 0 1 0 0 5h43a3 3 0 1 0 0-5Z"/>
  </symbol>
  <symbol id="videos-graphic"
    xmlns="http://www.w3.org/2000/svg" fill="none" viewBox="0 0 190 184">
    <rect width="58.1" height="58.1" fill="#FFC467" rx="16" transform="rotate(-21 159.4 -95)"/>
    <circle r="6.3" fill="#949EFF" transform="rotate(-13.3 238.8 -422.6)"/>
    <circle r="4.8" fill="#27308C" opacity=".1" transform="matrix(1 0 0 -1 150.8 61.8)"/>
    <circle r="2.9" fill="#27308C" opacity=".2" transform="matrix(1 0 0 -1 78.9 180.9)"/>
    <path fill="#FF9E87" d="M28.2 23.2a4 4 0 0 1 4.3-5.5l7.5 1a4 4 0 0 1 2.6 6.5l-4.7 6a4 4 0 0 1-6.9-1l-2.8-7ZM7.5 133.7a4 4 0 1 1 6.9 1 4 4 0 0 1-6.9-1ZM157.6 116.8a7.8 7.8 0 1 1 13.3 2v-.1a7.8 7.8 0 0 1-13.3-2Z"/>
    <path fill="#FF9E87" d="M135.2 164.9a4 4 0 0 1 1.8-6.7l7.3-2a4 4 0 0 1 4.9 5l-2 7.3a4 4 0 0 1-6.7 1.8l-5.3-5.4Z" opacity=".2"/>
    <path fill="#03A9F4" d="M180.8 36.7c-2.7 6.9-7-11.4-13.9-14.1-6.8-2.7-23.9-1.6-21.2-8.4 2.7-6.9 22.7-7.5 29.5-4.8 6.8 2.7 8.3 20.5 5.6 27.3Z" opacity=".3"/>
    <path fill="#1EC981" fill-opacity=".3" d="M148.7 105.6a6 6 0 0 1-2.4 10L90.6 132a6 6 0 0 1-7.5-7.1l13.7-56.4a6 6 0 0 1 10-3l42 40.2Z"/>
    <path fill="#1EC981" d="M139.7 88.7a6 6 0 0 1 .5 10.4l-48.8 31.3a6 6 0 0 1-9.3-4.8l-2.6-58a6 6 0 0 1 8.7-5.5l51.5 26.6Z"/>
  </symbol>
  <symbol id="votes-graphics"
    xmlns="http://www.w3.org/2000/svg" fill="none" viewBox="0 0 214 213">
    <path fill="#FF9E87" d="M18.6 40.6a4 4 0 0 1 4.3-5.4l2 .3a4 4 0 0 1 2.6 6.4l-1.3 1.6a4 4 0 0 1-6.8-1l-.8-1.9ZM5.6 107.7a3 3 0 1 1 5 .7 3 3 0 0 1-5-.7ZM192.5 90.7a5.8 5.8 0 1 1 9.9 1.4 5.8 5.8 0 0 1-10-1.4Z"/>
    <path fill="#FF9E87" d="M166.5 133.2a4 4 0 0 1 1.9-6.7l2-.5a4 4 0 0 1 4.8 5l-.6 1.9a4 4 0 0 1-6.7 1.7l-1.4-1.4Z" opacity=".2"/>
    <path fill="#03A9F4" d="M167.1 31.3c-3 4.5-3.2-9.4-7.7-12.5-4.5-3-17.1-5-14-9.4 3-4.6 17.5-1.8 22 1.2 4.6 3.1 2.8 16.2-.3 20.7Z" opacity=".3"/>
    <circle r="3.1" fill="#27308C" opacity=".2" transform="matrix(1 0 0 -1 86.2 209.3)"/>
    <path stroke="#FF83CC" stroke-linecap="round" stroke-width="3" d="M36 199.4c-.3-1-1.5-2.6-4.6-1.9-3 .7-4.7-1.1-5-2M200.3 36.2c-.3 1.5.1 4.7 4.9 6.2 4.8 1.5 5.6 5.2 5.4 6.9"/>
    <path fill="#FF862D" d="M107.5 190a84.5 84.5 0 1 0 0-169 84.5 84.5 0 0 0 0 169Z"/>
    <path fill="#fff" d="M158.2 190H56.8V80.7a18 18 0 0 0 18-18h65.4a18 18 0 0 0 18 18V190Z"/>
    <path fill="#9C3CE7" d="M107.5 136a27 27 0 1 0 0-54.2 27 27 0 0 0 0 54.1Z"/>
    <path fill="#FFE6D3" d="M122.1 142.7H93a3.4 3.4 0 1 0 0 6.7H122a3.4 3.4 0 0 0 0-6.7ZM132.3 156.2H82.7a3.4 3.4 0 1 0 0 6.8h49.6a3.4 3.4 0 0 0 0-6.8Z"/>
    <path fill="#fff" d="m103.4 100.4-3.3 3.3 16.7 16.7 3.3-3.4-16.7-16.6ZM108.4 95.4l-3.3 3.3 6.7 6.7 3.3-3.4-6.7-6.6ZM98.4 105.4l-3.3 3.3 6.7 6.7 3.3-3.4-6.7-6.6ZM109.2 119h-14v2.3h14v-2.4Z"/>
  </symbol>
  <symbol id="on-chain-dfinity-graphics"
    xmlns="http://www.w3.org/2000/svg" fill="none" viewBox="0 0 228 49">
    <g clip-path="url(#a)">
      <path stroke="#F15A24" d="M224 .5H4C2 .5.5 2.1.5 4v41c0 2 1.6 3.5 3.5 3.5h220c2 0 3.5-1.6 3.5-3.5V4c0-2-1.6-3.5-3.5-3.5Z"/>
      <path fill="#F15A24" d="M51.4 12c-3 0-6.1 1.5-9.5 4.5l-4 4.1 3.5 3.8c1-1.2 2.3-2.8 4-4.2 3-2.7 4.9-3.2 6-3.2 4.2 0 7.5 3.3 7.5 7.5 0 4.1-3.4 7.5-7.5 7.5h-.8c1.2.5 2.6.8 3.8.8 7.7 0 9.2-5 9.3-5.4l.3-3C64 17.7 58.3 12 51.4 12Z"/>
      <path fill="#9E1EED" d="M24.6 37c3 0 6.1-1.5 9.5-4.5l4-4.1-3.5-3.8c-1 1.2-2.3 2.8-4 4.2-3 2.7-4.9 3.2-6 3.2a7.6 7.6 0 0 1-7.5-7.5c0-4.1 3.4-7.5 7.5-7.5h.8c-1.2-.5-2.6-.8-3.8-.8-7.7 0-9.1 5-9.3 5.4A12.6 12.6 0 0 0 24.6 37Z"/>
      <path fill="#29ABE2" d="M54.4 32.7c-4 0-8-3.2-8.8-4a207 207 0 0 1-7.5-8c-3.7-4-8.6-8.7-13.5-8.7-6 0-11 4.1-12.3 9.6.1-.4 2.1-5.5 9.3-5.4 4 .1 8 3.3 8.8 4.1 2.2 2 7.1 7.5 7.5 8 3.7 4 8.6 8.7 13.5 8.7 6 0 11-4.1 12.3-9.6-.2.4-2.1 5.5-9.3 5.3Z"/>
      <path fill="#fff" d="M73 33.8c.3 0 .5-.2.5-.5v-6.6c0-.3-.2-.5-.5-.5h-.5c-.3 0-.5.2-.5.5v6.6c0 .3.2.5.5.5h.5ZM83.2 33.8c.3 0 .5-.2.5-.5v-6.6c0-.3-.2-.5-.5-.5h-.5c-.3 0-.5.2-.5.5v4.5l-3-4.6a1 1 0 0 0-.8-.4h-.8c-.3 0-.5.2-.5.5v6.6c0 .3.2.5.5.5h.5c.3 0 .5-.2.5-.5v-5l3.4 5.3.4.2h.8ZM92.5 27.6c.2 0 .5-.2.5-.5v-.4c0-.3-.3-.5-.5-.5H87c-.2 0-.5.2-.5.5v.4c0 .3.3.5.5.5h2v5.7c0 .3.2.5.5.5h.5c.3 0 .5-.2.5-.5v-5.7h2ZM100.1 33.8c.3 0 .5-.2.5-.5V33c0-.3-.2-.5-.5-.5h-2.8v-1.8h2.5c.3 0 .5-.2.5-.5v-.3c0-.3-.2-.5-.5-.5h-2.5v-1.7h2.8c.3 0 .5-.3.5-.5v-.4c0-.3-.2-.5-.5-.5h-3.8c-.3 0-.5.2-.5.5v6.6c0 .3.2.5.5.5h3.8ZM107.5 33.6l.5.2h.5c.4 0 .7-.4.5-.7l-1.3-2.4c1-.3 1.7-1.1 1.7-2.2 0-1.3-1-2.3-2.5-2.3h-2.5c-.3 0-.5.2-.5.5v6.6c0 .3.2.5.5.5h.5c.3 0 .5-.2.5-.5V31h.8l1.3 2.7Zm-2.1-4v-2.1h1.2c.8 0 1.2.4 1.2 1 0 .7-.4 1-1.2 1h-1.2ZM118.6 33.8c.3 0 .5-.2.5-.5v-6.6c0-.3-.2-.5-.5-.5h-.5c-.3 0-.5.2-.5.5v4.5l-3-4.6a1 1 0 0 0-.8-.4h-.8c-.3 0-.5.2-.5.5v6.6c0 .3.2.5.5.5h.5c.3 0 .5-.2.5-.5v-5l3.4 5.3.4.2h.8ZM127 33.8c.3 0 .5-.2.5-.5V33c0-.3-.2-.5-.5-.5h-2.8v-1.8h2.5c.3 0 .5-.2.5-.5v-.3c0-.3-.2-.5-.5-.5h-2.5v-1.7h2.8c.3 0 .5-.3.5-.5v-.4c0-.3-.2-.5-.5-.5h-3.8c-.3 0-.5.2-.5.5v6.6c0 .3.2.5.5.5h3.8ZM136 27.6c.2 0 .4-.2.4-.5v-.4c0-.3-.2-.5-.5-.5h-5.4c-.3 0-.5.2-.5.5v.4c0 .3.2.5.5.5h2v5.7c0 .3.2.5.5.5h.5c.3 0 .5-.2.5-.5v-5.7h2ZM146.8 34c2.2 0 3.3-1.4 3.6-2.6L149 31c-.2.7-.9 1.5-2.2 1.5-1.2 0-2.4-.9-2.4-2.5 0-1.7 1.2-2.6 2.4-2.6 1.3 0 2 .8 2.1 1.6l1.5-.5c-.4-1.2-1.5-2.5-3.6-2.5-2 0-4 1.6-4 4s1.9 4 4 4ZM154.4 30c0-1.7 1.3-2.6 2.4-2.6 1.2 0 2.5.9 2.5 2.6 0 1.7-1.3 2.5-2.5 2.5-1.1 0-2.4-.8-2.4-2.5Zm-1.5 0c0 2.5 1.8 4 4 4 2 0 4-1.5 4-4s-2-4-4-4c-2.2 0-4 1.5-4 4ZM172 33.8c.4 0 .6-.2.6-.5v-6.6c0-.3-.2-.5-.5-.5h-1.2c-.2 0-.4 0-.5.3l-2.2 5.2-2.1-5.2c-.1-.2-.3-.3-.5-.3h-1.2c-.2 0-.5.2-.5.5v6.6c0 .3.3.5.5.5h.5c.3 0 .5-.2.5-.5v-4.8l2 5c.2.2.3.3.5.3h.6c.2 0 .4 0 .5-.3l2-5v4.8c0 .3.3.5.6.5h.5ZM177.7 29.7v-2.2h1.2c.7 0 1.2.4 1.2 1 0 .7-.5 1.2-1.2 1.2h-1.2Zm1.3 1.2c1.6 0 2.6-1 2.6-2.3 0-1.4-1-2.4-2.6-2.4h-2.4c-.2 0-.5.2-.5.5v6.6c0 .3.3.5.5.5h.5c.3 0 .5-.2.5-.5V31h1.4ZM187.4 34c1.7 0 3-1 3-2.9v-4.4c0-.3-.2-.5-.5-.5h-.5c-.3 0-.5.2-.5.5V31c0 1-.6 1.5-1.5 1.5S186 32 186 31v-4.3c0-.3-.2-.5-.5-.5h-.5c-.2 0-.5.2-.5.5V31c0 1.9 1.4 2.9 3 2.9ZM199 27.6c.4 0 .6-.2.6-.5v-.4c0-.3-.2-.5-.5-.5h-5.4c-.3 0-.5.2-.5.5v.4c0 .3.2.5.5.5h2v5.7c0 .3.1.5.4.5h.5c.3 0 .5-.2.5-.5v-5.7h2ZM206.8 33.8c.2 0 .5-.2.5-.5V33c0-.3-.3-.5-.5-.5h-2.9v-1.8h2.5c.3 0 .5-.2.5-.5v-.3c0-.3-.2-.5-.5-.5H204v-1.7h2.9c.2 0 .5-.3.5-.5v-.4c0-.3-.3-.5-.5-.5h-3.9c-.3 0-.5.2-.5.5v6.6c0 .3.2.5.5.5h3.9ZM214.2 33.6l.4.2h.6c.3 0 .6-.4.4-.7l-1.3-2.4c1-.3 1.7-1.1 1.7-2.2 0-1.3-1-2.3-2.5-2.3h-3v7.1c0 .3.2.5.5.5h.5c.3 0 .5-.2.5-.5V31h.8l1.4 2.7Zm-2.2-4v-2.1h1.2c.8 0 1.2.4 1.2 1 0 .7-.4 1-1.2 1H212ZM73 17v-3h1.7c1 0 1.6.6 1.6 1.5s-.6 1.4-1.6 1.4H73Zm1.8.8c1.4 0 2.4-1 2.4-2.3 0-1.3-1-2.3-2.4-2.3H72V21h.9v-3.2h1.8Zm5.5-2.2c-1.5 0-2.6 1.1-2.6 2.8 0 1.6 1 2.8 2.6 2.8 1.5 0 2.6-1.2 2.6-2.8 0-1.7-1-2.8-2.6-2.8Zm0 .8c1 0 1.8.7 1.8 2 0 1.2-.9 2-1.8 2-1 0-1.8-.8-1.8-2 0-1.3.9-2 1.8-2Zm7-.7L86 20l-1.3-4.2h-1l1.8 5.3h1l1.4-4.2 1.4 4.2h1l1.7-5.3h-1L89.7 20l-1.5-4.2h-.9Zm6.2 2.2c0-.8.7-1.5 1.6-1.5 1 0 1.5.6 1.5 1.5h-3.1Zm3.3 1.3c-.2.7-.7 1.2-1.6 1.2-1 0-1.7-.8-1.7-1.8h4v-.3c0-1.6-.8-2.7-2.4-2.7-1.4 0-2.5 1-2.5 2.7 0 1.8 1.2 2.9 2.6 2.9 1.2 0 2-.8 2.3-1.7l-.7-.3Zm5-3.5h-.5c-.5 0-1.2.2-1.6 1v-1H99V21h.9v-2.7c0-1.2.6-1.7 1.5-1.7h.4v-.9Zm1.4 2.2c0-.8.7-1.5 1.6-1.5 1 0 1.5.6 1.5 1.5h-3.1Zm3.3 1.3c-.2.7-.7 1.2-1.6 1.2-1 0-1.7-.8-1.7-1.8h4v-.3c0-1.6-.8-2.7-2.4-2.7-1.4 0-2.5 1-2.5 2.7 0 1.8 1.2 2.9 2.6 2.9 1.2 0 2-.8 2.3-1.7l-.7-.3Zm5.9 1v.8h1l-.1-1v-7h-1v3.6c0-.5-.6-1-1.6-1-1.5 0-2.5 1.2-2.5 2.8 0 1.5 1 2.8 2.5 2.8.9 0 1.5-.6 1.7-1.1v.1Zm-1.6.2c-1 0-1.7-.9-1.7-2 0-1.2.7-2 1.7-2s1.6.8 1.6 2c0 1.1-.7 2-1.6 2Zm7.8.6v-.9c.3.6 1 1 1.8 1 1.6 0 2.5-1.2 2.5-2.7 0-1.6-.9-2.8-2.4-2.8a2 2 0 0 0-1.8 1V13h-1v8h1Zm1.7-.6c-1 0-1.7-.9-1.7-2 0-1.2.7-2 1.7-2s1.7.8 1.7 2c0 1.1-.7 2-1.7 2Zm5 2.7 3.4-7.4h-1l-1.6 3.8-1.7-3.8h-1l2.3 4.7-1.3 2.7h1Z"/>
    </g>
    <defs>
      <clipPath id="a">
        <path fill="#fff" d="M0 0h228v49H0z"/>
      </clipPath>
    </defs>
  </symbol>
  <symbol id="stars-graphics"
    xmlns="http://www.w3.org/2000/svg" fill="none" viewBox="0 0 309 89">
    <path fill="#fff" d="M10 69c-1.5 5.5-3 8-10 9.5 7.3.8 8.8 3.5 10 10.5 1-7.3 4-9 10.3-10.5-6.6-1.3-8.8-4-10.3-9.5ZM29.5 0c-1 3.9-2.1 5.6-7 6.7 5 .5 6.1 2.4 7 7.3.7-5 2.8-6.3 7.2-7.3-4.6-1-6.2-2.9-7.2-6.7ZM75.5 19.5c-.8 2.8-1.5 4-5 4.8 3.6.3 4.4 1.7 5 5.2.5-3.6 2-4.5 5.1-5.3-3.2-.6-4.3-2-5.1-4.7ZM300.5 14.5c-1.2 4.4-2.4 6.4-8 7.6 5.8.6 7 2.8 8 8.4.8-5.8 3.2-7.2 8.2-8.4-5.2-1-7-3.2-8.2-7.6ZM254 26c-.8 2.8-1.5 4-5 4.8 3.6.3 4.4 1.7 5 5.2.5-3.6 2-4.5 5.1-5.3-3.2-.6-4.4-2-5.1-4.7ZM291.5 74.5c-.8 2.8-1.5 4-5 4.8 3.6.3 4.4 1.7 5 5.2.5-3.6 2-4.5 5.1-5.3-3.2-.6-4.4-2-5.1-4.7Z"/>
  </symbol>
  <symbol id="heart-broken" viewBox="0 0 24 24" fill="none"
    xmlns="http://www.w3.org/2000/svg">
    <path fill-rule="evenodd" clip-rule="evenodd" d="M12 20.56L11.64 18.04L12.72 14.08L10.92 10.48L12 6.30005C10.65 4.46005 9.27665 4.00059 7.95 4.00059C5.25 4.00059 3 6.30052 3 9.52039C3 15.9602 11.55 20.56 12 20.56ZM21 9.52039C21 14.4535 15.9827 18.3069 13.4327 19.84L13.08 18.04L14.16 14.08L12.36 10.12L13.5751 4.72C14.4 4.16268 15.225 3.98839 16.05 4.00059C18.75 4.04053 21 6.30052 21 9.52039Z" fill="white"/>
  </symbol>
  <symbol id="heart-broken-fill" viewBox="0 0 24 24" fill="none"
    xmlns="http://www.w3.org/2000/svg">
    <path fill-rule="evenodd" clip-rule="evenodd" d="M12 20.56L11.64 18.04L12.72 14.08L10.92 10.48L12 6.30005C10.65 4.46005 9.27665 4.00059 7.95 4.00059C5.25 4.00059 3 6.30052 3 9.52039C3 15.9602 11.55 20.56 12 20.56ZM21 9.52039C21 14.4535 15.9827 18.3069 13.4327 19.84L13.08 18.04L14.16 14.08L12.36 10.12L13.5751 4.72C14.4 4.16268 15.225 3.98839 16.05 4.00059C18.75 4.04053 21 6.30052 21 9.52039Z" fill="#9D7100" stroke="white" stroke-linecap="round" stroke-linejoin="round"/>
  </symbol>
  <symbol id="coin-token" viewBox="0 0 10 11" fill="none"
    xmlns="http://www.w3.org/2000/svg">
    <path d="M9.38925 5.39555C9.38925 7.98848 7.28755 10.0902 4.69463 10.0902C2.1017 10.0902 0 7.98848 0 5.39555C0 2.80263 2.1017 0.700928 4.69463 0.700928C7.28755 0.700928 9.38925 2.80263 9.38925 5.39555Z" fill="#FFCC00"/>
    <path d="M8.28652 2.37384C7.42528 1.351 6.13616 0.700928 4.69463 0.700928C2.1017 0.700928 0 2.80263 0 5.39555C0 5.94003 0.0936538 6.46247 0.264434 6.94911C2.91153 5.37811 5.58342 3.84843 8.28652 2.37384Z" fill="#FCDC59"/>
    <path d="M5.23755 10.0582C6.31457 9.93429 7.28049 9.44673 8.00952 8.72046C7.27681 9.07304 6.54503 9.42929 5.81324 9.78371C5.62226 9.87552 5.42945 9.96642 5.23755 10.0582Z" fill="#FCDC59"/>
    <path d="M8.18904 5.32114C8.18904 7.29246 6.59141 8.89009 4.62009 8.89009C2.64877 8.89009 1.05115 7.29246 1.05115 5.32114C1.05115 3.34982 2.64877 1.7522 4.62009 1.7522C6.59141 1.7522 8.18904 3.34982 8.18904 5.32114Z" fill="#DA8100"/>
    <path d="M8.29008 5.47017C8.29008 7.41487 6.71357 8.99137 4.76888 8.99137C2.82419 8.99137 1.24768 7.41487 1.24768 5.47017C1.24768 3.52548 2.82419 1.94897 4.76888 1.94897C6.71357 1.94897 8.29008 3.52548 8.29008 5.47017Z" fill="#F0AA00"/>
    <path d="M6.25287 6.63605C6.08277 6.83177 5.87423 6.98556 5.62723 7.09741C5.38024 7.20692 5.10879 7.26168 4.81286 7.26168C4.45402 7.26168 4.13247 7.18362 3.8482 7.0275C3.56625 6.86906 3.34373 6.65236 3.18062 6.3774C3.01984 6.10245 2.93945 5.79138 2.93945 5.44419C2.93945 5.09468 3.01984 4.78361 3.18062 4.51099C3.34373 4.23603 3.56625 4.0205 3.8482 3.86438C4.13247 3.70593 4.45402 3.62671 4.81286 3.62671C5.10646 3.62671 5.37675 3.68147 5.62374 3.79098C5.87073 3.9005 6.07928 4.05195 6.24937 4.24535L5.65869 4.864C5.56782 4.75914 5.45248 4.67759 5.31267 4.61934C5.17519 4.55875 5.03073 4.52846 4.87927 4.52846C4.70451 4.52846 4.54839 4.56807 4.41092 4.6473C4.27344 4.72419 4.16509 4.83138 4.08587 4.96885C4.00664 5.104 3.96703 5.26012 3.96703 5.4372C3.96703 5.61662 4.00664 5.77624 4.08587 5.91604C4.16509 6.05585 4.27344 6.16536 4.41092 6.24459C4.54839 6.32148 4.70451 6.35993 4.87927 6.35993C5.03073 6.35993 5.17636 6.3308 5.31617 6.27255C5.45597 6.21197 5.57015 6.12925 5.65869 6.02439L6.25287 6.63605Z" fill="#DA8100"/>
    <path d="M6.22736 6.44415C6.05726 6.63988 5.84871 6.79367 5.60172 6.90551C5.35473 7.01503 5.08327 7.06979 4.78735 7.06979C4.42851 7.06979 4.10696 6.99173 3.82268 6.83561C3.54074 6.67716 3.31821 6.46046 3.15511 6.18551C2.99433 5.91056 2.91394 5.59949 2.91394 5.2523C2.91394 4.90278 2.99433 4.59171 3.15511 4.31909C3.31821 4.04414 3.54074 3.8286 3.82268 3.67249C4.10696 3.51404 4.42851 3.43481 4.78735 3.43481C5.08094 3.43481 5.35124 3.48957 5.59823 3.59909C5.84522 3.7086 6.05376 3.86006 6.22386 4.05346L5.63318 4.6721C5.5423 4.56725 5.42696 4.48569 5.28716 4.42744C5.14968 4.36686 5.00521 4.33657 4.85376 4.33657C4.679 4.33657 4.52288 4.37618 4.3854 4.4554C4.24793 4.5323 4.13958 4.63948 4.06035 4.77696C3.98113 4.9121 3.94152 5.06822 3.94152 5.24531C3.94152 5.42473 3.98113 5.58434 4.06035 5.72415C4.13958 5.86395 4.24793 5.97347 4.3854 6.05269C4.52288 6.12959 4.679 6.16803 4.85376 6.16803C5.00521 6.16803 5.15085 6.13891 5.29065 6.08065C5.43046 6.02007 5.54463 5.93735 5.63318 5.8325L6.22736 6.44415Z" fill="#FFCC00"/>
  </symbol>


</svg>