<?xml version="1.0" standalone="no"?>
<!DOCTYPE svg PUBLIC "-//W3C//DTD SVG 1.1//EN" "http://www.w3.org/Graphics/SVG/1.1/DTD/svg11.dtd">
<svg xmlns="http://www.w3.org/2000/svg">
<defs >
<font id="KumbhSans" horiz-adv-x="1158" ><font-face
    font-family="Kumbh Sans Medium"
    units-per-em="2048"
    panose-1="0 0 0 0 0 0 0 0 0 0"
    ascent="2020"
    descent="-520"
    alphabetic="0" />
<glyph unicode=" " horiz-adv-x="488" />
<glyph unicode="!" horiz-adv-x="469" d="M285 405H185L150 1500H320L285 405ZM234 -20Q187 -20 154 12T121 92Q121 138 154 170T234 202Q282 202 315 170T348 92Q348 45 315 13T234 -20Z" />
<glyph unicode="&quot;" horiz-adv-x="789" d="M288 1085H172L152 1520H309L288 1085ZM616 1085H500L480 1520H637L616 1085Z" />
<glyph unicode="#" horiz-adv-x="1343" d="M1257 886H1022L960 541H1200L1177 400H936L865 0H698L769 400H452L382 0H215L285 400H64L87 541H311L371 886H144L167 1027H397L480 1500H647L563 1027H880L963 1500H1130L1046 1027H1279L1257 886ZM477 541H794L854
886H538L477 541Z" />
<glyph unicode="$" horiz-adv-x="1077" d="M74 221L168 373Q229 325 286 294T402 248T519 233Q601 233 662 259T758 333T792 444Q792 514 752 560T649 639T515 701Q449 730 385 761T267 834T182 936T150 1081Q150 1225 242 1318T486 1434L484 1620H617L615 1438Q694
1434 774 1412T931 1349L853 1189Q792 1226 721 1246T586 1267Q482 1267 417 1216T352 1081Q352 1018 390 975T491 899T625 835Q690 806 755 774T874 697T960 591T993 443Q993 342 946 263T815 132T615 66L617 -120H484L486 62Q375 68 270 108T74 221Z" />
<glyph unicode="%" horiz-adv-x="1660" d="M408 873Q258 873 166 962T74 1196Q74 1342 166 1431T408 1520Q559 1520 650 1431T742 1196Q742 1051 651 962T408 873ZM437 0H262L1229 1500H1404L437 0ZM408 994Q492 994 543 1049T595 1196Q595 1288 544 1343T408
1399Q325 1399 274 1344T222 1196Q222 1105 273 1050T408 994ZM1252 -20Q1102 -20 1010 69T918 303Q918 449 1010 538T1252 627Q1403 627 1494 538T1586 303Q1586 158 1494 69T1252 -20ZM1252 101Q1335 101 1386 156T1438 303Q1438 395 1387 450T1252 506Q1168
506 1117 451T1066 303Q1066 212 1117 157T1252 101Z" />
<glyph unicode="&amp;" horiz-adv-x="1494" d="M1430 117L1329 -30Q1260 15 1195 61T1068 153Q971 64 857 17T615 -30Q471 -30 358 26T179 180T114 402Q114 504 156 578T265 707T409 807Q340 913 303 1009T266 1190Q266 1289 313 1365T442 1486T628 1530Q732 1530
810 1488T934 1372T979 1200Q979 1094 930 1019T806 887T647 781Q720 690 821 593T1049 394Q1101 464 1145 554T1223 751L1389 691Q1350 571 1300 470T1189 286Q1247 243 1305 202T1430 117ZM564 896Q627 934 679 974T763 1064T795 1179Q795 1259 749 1310T629
1362Q557 1362 511 1309T465 1172Q465 1112 490 1042T564 896ZM496 688Q446 654 405 614T341 527T317 420Q317 341 357 280T468 183T628 147Q708 147 783 177T925 264Q794 372 686 479T496 688Z" />
<glyph unicode="&apos;" horiz-adv-x="445" d="M280 1085H164L144 1520H301L280 1085Z" />
<glyph unicode="(" horiz-adv-x="620" d="M556 -289H353Q213 -100 139 135T64 625Q64 879 138 1114T353 1540H556Q405 1343 325 1109T245 626Q245 379 325 144T556 -289Z" />
<glyph unicode=")" horiz-adv-x="621" d="M268 -289H64Q216 -91 296 144T376 626Q376 874 296 1108T64 1540H268Q408 1350 482 1115T557 625Q557 371 483 136T268 -289Z" />
<glyph unicode="*" horiz-adv-x="1042" d="M856 757L719 656L522 988L323 656L185 757L435 1051L64 1140L117 1303L468 1153L437 1540H606L574 1153L927 1303L978 1140L606 1052L856 757Z" />
<glyph unicode="+" horiz-adv-x="1136" d="M992 411H659V77H478V411H144V575H478V909H659V575H992V411Z" />
<glyph unicode="," horiz-adv-x="474" d="M249 -240H104L182 184H360L249 -240Z" />
<glyph unicode="-" horiz-adv-x="1088" d="M944 423H144V582H944V423Z" />
<glyph unicode="." horiz-adv-x="470" d="M235 -20Q185 -20 155 11T124 91Q124 142 154 173T235 204Q284 204 316 173T348 91Q348 42 316 11T235 -20Z" />
<glyph unicode="/" horiz-adv-x="861" d="M210 -20H14L652 1520H847L210 -20Z" />
<glyph unicode="0" horiz-adv-x="1204" d="M602 -30Q440 -30 323 61T143 327T80 751Q80 999 143 1173T323 1438T602 1530Q764 1530 880 1439T1060 1173T1124 751Q1124 502 1061 328T881 62T602 -30ZM602 164Q742 164 820 318T899 751Q899 1029 821 1182T602 1336Q462
1336 384 1183T305 751Q305 473 383 319T602 164Z" />
<glyph unicode="1" horiz-adv-x="794" d="M622 0H402V1283L133 1185L64 1362L445 1500H622V0Z" />
<glyph unicode="2" horiz-adv-x="1234" d="M1100 0H180V134Q363 292 490 420T695 654T810 852T847 1032Q847 1123 813 1192T718 1299T576 1337Q484 1337 400 1285T261 1140L144 1278Q225 1398 349 1464T615 1530Q746 1530 849 1473T1012 1313T1072 1075Q1072 970
1034 861T922 640T738 416T487 193H1100V0Z" />
<glyph unicode="3" horiz-adv-x="1137" d="M86 137L175 299Q257 232 341 198T511 163Q598 163 664 197T768 291T806 430Q806 558 706 629T427 701H371V858H427Q523 858 599 891T718 983T762 1116Q762 1180 730 1230T641 1308T511 1337Q439 1337 365 1307T219 1217L118
1370Q203 1447 309 1488T530 1530Q658 1530 757 1482T913 1349T971 1156Q971 1031 895 932T698 786Q854 748 944 648T1035 402Q1035 277 969 180T789 26T529 -30Q405 -30 292 13T86 137Z" />
<glyph unicode="4" horiz-adv-x="1275" d="M1028 0H808V341H64V512L809 1500H1028V534H1211V341H1028V0ZM292 534H808V1219L292 534Z" />
<glyph unicode="5" horiz-adv-x="1139" d="M80 160L198 336Q243 256 327 210T512 164Q607 164 680 204T794 316T835 482Q835 576 794 648T680 760T512 800Q446 800 388 779T283 719L173 786L239 1500H985V1306H441L402 916Q481 942 571 942Q714 942 824 881T996
713T1059 467Q1059 321 991 209T803 34T527 -30Q394 -30 278 19T80 160Z" />
<glyph unicode="6" horiz-adv-x="1162" d="M579 -30Q428 -30 316 39T142 235T80 533Q80 676 123 813T249 1077T447 1310T709 1500L811 1358Q688 1285 586 1189T410 983T294 756Q355 826 441 865T633 904Q764 904 865 846T1024 687T1082 454Q1082 314 1017 205T839
33T579 -30ZM584 163Q663 163 724 202T821 309T857 462Q857 545 823 608T727 708T587 745Q508 745 445 708T346 607T310 458Q310 375 346 308T445 202T584 163Z" />
<glyph unicode="7" horiz-adv-x="1069" d="M447 0H210L748 1306H64V1500H1005V1352L447 0Z" />
<glyph unicode="8" horiz-adv-x="1183" d="M591 -30Q442 -30 330 23T156 172T94 397Q94 541 172 644T385 794Q273 838 210 929T147 1144Q147 1262 202 1348T357 1482T591 1530Q726 1530 826 1483T980 1349T1035 1144Q1035 1020 972 929T798 794Q933 749 1011 645T1089
397Q1089 269 1027 173T853 23T591 -30ZM591 879Q693 879 756 944T820 1113Q820 1218 757 1283T591 1348Q489 1348 426 1283T362 1113Q362 1009 425 944T591 879ZM591 156Q674 156 737 190T835 287T870 432Q870 515 835 577T737 674T591 709Q509 709 447 674T349
577T314 432Q314 349 349 287T446 191T591 156Z" />
<glyph unicode="9" horiz-adv-x="1162" d="M453 0L351 142Q475 216 577 312T753 518T869 744Q809 674 722 635T530 596Q398 596 297 654T138 813T80 1046Q80 1186 145 1295T324 1467T584 1530Q736 1530 848 1461T1021 1265T1082 967Q1082 824 1039 687T914 423T716
190T453 0ZM575 755Q656 755 718 792T816 895T852 1043Q852 1126 817 1192T719 1298T578 1337Q501 1337 439 1298T341 1192T305 1038Q305 956 340 892T435 792T575 755Z" />
<glyph unicode=":" horiz-adv-x="470" d="M235 756Q188 756 156 788T124 867Q124 914 156 947T235 980Q282 980 314 947T346 867Q346 820 314 788T235 756ZM235 -20Q188 -20 156 12T124 92Q124 138 156 171T235 204Q282 204 314 171T346 92Q346 45 314 13T235 -20Z" />
<glyph unicode=";" horiz-adv-x="475" d="M259 756Q211 756 180 788T149 867Q149 914 180 947T259 980Q306 980 338 947T371 867Q371 820 339 788T259 756ZM250 -240H104L182 184H361L250 -240Z" />
<glyph unicode="&lt;" horiz-adv-x="1138" d="M994 0L64 458V566L994 1020V845L270 512L994 174V0Z" />
<glyph unicode="=" horiz-adv-x="1243" d="M1099 653H144V814H1099V653ZM1099 166H144V327H1099V166Z" />
<glyph unicode="&gt;" horiz-adv-x="1138" d="M144 0V174L868 512L144 845V1020L1074 566V458L144 0Z" />
<glyph unicode="?" horiz-adv-x="928" d="M189 1227L94 1394Q276 1530 482 1530Q598 1530 683 1487T816 1366T864 1180Q864 1112 843 1061T788 967T711 880Q662 828 615 767T536 619T504 405H325Q325 557 357 656T438 822T533 940Q580 993 613 1042T647 1163Q647
1248 595 1297T451 1346Q381 1346 313 1315T189 1227ZM415 -20Q366 -20 335 11T304 91Q304 142 335 173T415 204Q465 204 495 173T526 91Q526 42 496 11T415 -20Z" />
<glyph unicode="@" horiz-adv-x="1926" d="M912 75Q784 75 686 132T533 290T477 523Q477 666 541 779T715 959T963 1026Q1074 1026 1161 982T1302 857L1311 962H1472Q1465 907 1458 841T1443 705T1431 570T1422 454T1418 372Q1418 312 1448 272T1522 231Q1570
231 1607 279T1666 410T1688 596Q1688 794 1605 942T1372 1172T1021 1254Q856 1254 716 1198T471 1041T309 803T251 505Q251 317 329 176T546 -43T871 -122Q1099 -122 1287 -8L1360 -154Q1109 -281 851 -281Q619 -281 443 -182T167 93T68 502Q68 698 139 864T339
1154T641 1346T1019 1414Q1206 1414 1360 1356T1627 1192T1801 939T1862 617Q1862 459 1817 337T1691 145T1508 75Q1423 75 1363 123T1279 259Q1216 171 1122 123T912 75ZM942 235Q1027 235 1097 271T1214 372T1274 517L1279 577Q1279 664 1243 729T1144 830T995
866Q901 866 826 821T707 699T663 524Q663 394 740 315T942 235Z" />
<glyph unicode="A" horiz-adv-x="1531" d="M269 0H38L648 1500H884L1493 0H1262L1112 377H419L269 0ZM494 571H1037L765 1256L494 571Z" />
<glyph unicode="B" horiz-adv-x="1310" d="M144 0V1500H684Q908 1500 1034 1400T1161 1123Q1161 1003 1103 913T946 781Q1080 746 1156 651T1232 417Q1232 292 1171 198T998 52T737 0H144ZM364 849H675Q798 849 871 912T944 1080Q944 1185 870 1245T666 1306H364V849ZM364
194H686Q783 194 855 225T967 313T1007 445Q1007 518 970 572T863 654T701 683H364V194Z" />
<glyph unicode="C" horiz-adv-x="1519" d="M1423 191Q1319 87 1176 29T863 -30Q694 -30 551 28T303 191T139 439T80 750Q80 919 138 1061T302 1309T551 1472T863 1530Q1031 1530 1174 1472T1421 1310L1268 1154Q1193 1239 1089 1287T860 1336Q740 1336 639 1293T463
1170T347 983T305 750Q305 624 346 517T463 331T639 208T860 164Q984 164 1088 212T1267 346L1423 191Z" />
<glyph unicode="D" horiz-adv-x="1562" d="M144 0V1500H596Q870 1500 1069 1410T1375 1151T1482 750Q1482 518 1375 350T1069 91T596 0H144ZM364 194H605Q812 194 958 259T1180 449T1257 750Q1257 927 1181 1051T958 1240T605 1306H364V194Z" />
<glyph unicode="E" horiz-adv-x="1223" d="M144 0V1500H1079V1306H364V857H1038V663H364V194H1089V0H144Z" />
<glyph unicode="F" horiz-adv-x="1193" d="M144 0V1500H1059V1306H364V857H1018V663H364V0H144Z" />
<glyph unicode="G" horiz-adv-x="1660" d="M1263 1179Q1185 1255 1080 1295T857 1336Q736 1336 635 1294T460 1174T346 989T305 753Q305 624 345 516T458 329T632 207T853 164Q961 164 1052 199T1212 299T1324 455T1379 656H868V827H1574L1580 745Q1580 574 1527
432T1377 187T1146 27T851 -30Q685 -30 545 28T300 192T138 440T80 748Q80 916 138 1058T300 1307T546 1471T853 1530Q1010 1530 1152 1476T1406 1321L1263 1179Z" />
<glyph unicode="H" horiz-adv-x="1502" d="M364 0H144V1500H364V836H1138V1500H1358V0H1138V643H364V0Z" />
<glyph unicode="I" horiz-adv-x="508" d="M364 1500H144V0H364V1500Z" />
<glyph unicode="J" horiz-adv-x="514" d="M-196 -360L-206 -167Q-27 -167 61 -81T150 179V1500H370V185Q370 -6 312 -126T129 -303T-196 -360Z" />
<glyph unicode="K" horiz-adv-x="1410" d="M365 0H144V1500H364V651Q400 705 434 751T493 829L1027 1500H1288L740 811L1398 0H1113L599 634L365 339V0Z" />
<glyph unicode="L" horiz-adv-x="1148" d="M1084 0H144V1500H364V194H1084V0Z" />
<glyph unicode="M" horiz-adv-x="1830" d="M1686 0H1466V1189L1007 252H821L364 1184V0H144V1500H426L914 489L1402 1500H1686V0Z" />
<glyph unicode="N" horiz-adv-x="1612" d="M1468 0H1226L364 1158V0H144V1500H386L1248 341V1500H1468V0Z" />
<glyph unicode="O" horiz-adv-x="1725" d="M863 -30Q694 -30 551 28T302 191T138 439T80 750Q80 919 138 1061T301 1309T550 1472T863 1530Q1033 1530 1175 1472T1423 1309T1587 1062T1645 750Q1645 582 1587 440T1424 192T1176 28T863 -30ZM863 164Q983 164 1085
208T1262 331T1378 517T1420 750Q1420 876 1379 983T1262 1169T1085 1292T863 1336Q743 1336 642 1293T465 1170T347 983T305 750Q305 624 347 517T464 331T641 208T863 164Z" />
<glyph unicode="P" horiz-adv-x="1306" d="M144 0V1500H623Q809 1500 942 1442T1147 1275T1218 1015Q1218 865 1147 756T943 587T624 528H364V0H144ZM364 722H603Q790 722 891 799T993 1015Q993 1153 892 1229T603 1306H364V722Z" />
<glyph unicode="Q" horiz-adv-x="1727" d="M1586 -234Q1441 -207 1330 -180T1121 -117T909 -29H863Q694 -29 551 29T302 192T138 439T80 750Q80 919 138 1061T301 1309T550 1472T863 1530Q1033 1530 1175 1472T1423 1309T1587 1062T1645 750Q1645 578 1584 433T1413
183T1154 24Q1241 1 1317 -14T1469 -37T1632 -50L1586 -234ZM863 164Q983 164 1085 208T1262 331T1378 517T1420 750Q1420 876 1379 983T1262 1169T1085 1292T863 1336Q743 1336 642 1293T465 1170T347 983T305 750Q305 624 347 517T464 331T641 208T863 164Z"
/>
<glyph unicode="R" horiz-adv-x="1335" d="M1271 0H1026L683 587H364V0H144V1500H680Q848 1500 968 1445T1153 1288T1218 1044Q1218 885 1137 776T908 621L1271 0ZM364 773H665Q819 773 906 843T993 1040Q993 1165 907 1235T665 1306H364V773Z" />
<glyph unicode="S" horiz-adv-x="1207" d="M74 151L179 320Q246 266 310 231T441 179T576 162Q670 162 740 192T849 276T888 400Q888 479 843 531T724 620T568 692Q495 722 423 757T291 840T196 954T160 1118Q160 1241 222 1334T393 1478T646 1529Q743 1529 844
1504T1043 1428L954 1249Q884 1290 806 1313T654 1336Q574 1336 514 1310T419 1237T385 1127Q385 1056 428 1007T540 922T688 851Q764 817 839 780T976 691T1075 570T1113 400Q1113 271 1047 175T863 24T585 -30Q444 -30 316 15T74 151Z" />
<glyph unicode="T" horiz-adv-x="1218" d="M719 0H499V1306H30V1500H1188V1306H719V0Z" />
<glyph unicode="U" horiz-adv-x="1564" d="M1420 1500V672Q1420 454 1344 296T1124 54T782 -30Q583 -30 440 54T221 296T144 672V1500H364V694Q364 524 413 406T555 226T782 164Q915 164 1008 225T1151 405T1200 694V1500H1420Z" />
<glyph unicode="V" horiz-adv-x="1564" d="M901 0H663L54 1500H286L782 244L1278 1500H1510L901 0Z" />
<glyph unicode="W" horiz-adv-x="2165" d="M1633 0H1437L1084 1129L730 0H534L46 1500H276L631 368L986 1500H1181L1535 370L1888 1500H2119L1633 0Z" />
<glyph unicode="X" horiz-adv-x="1526" d="M1480 0H1204L757 613L308 0H46L626 776L91 1500H367L772 945L1172 1500H1438L901 778L1480 0Z" />
<glyph unicode="Y" horiz-adv-x="1419" d="M819 0H599V641L22 1500H289L709 829L1131 1500H1397L819 639V0Z" />
<glyph unicode="Z" horiz-adv-x="1289" d="M1209 0H80V166L909 1306H120V1500H1194V1324L373 194H1209V0Z" />
<glyph unicode="[" horiz-adv-x="644" d="M580 -289H144V1540H580V1376H325V-123H580V-289Z" />
<glyph unicode="\" horiz-adv-x="861" d="M847 -20H652L14 1520H210L847 -20Z" />
<glyph unicode="]" horiz-adv-x="644" d="M500 -289H64V-125H320V1376H64V1540H500V-289Z" />
<glyph unicode="^" horiz-adv-x="1063" d="M999 700H837L531 1330L226 700H64L472 1500H590L999 700Z" />
<glyph unicode="_" horiz-adv-x="1349" d="M1205 0H144V164H1205V0Z" />
<glyph unicode="`" horiz-adv-x="501" d="M417 1165H269L74 1500H265L417 1165Z" />
<glyph unicode="a" horiz-adv-x="1103" d="M979 0H802L790 128Q735 58 651 19T465 -20Q358 -20 274 22T142 137T94 303Q94 401 146 475T288 592T493 635Q565 635 639 618T774 570V607Q774 680 737 732T635 813T492 841Q423 841 352 817T217 743L155 910Q246 964
344 992T538 1020Q674 1020 772 966T925 813T979 578V0ZM505 154Q576 154 636 183T733 267T774 395V409Q723 447 660 468T530 490Q429 490 362 442T295 319Q295 272 322 235T397 176T505 154Z" />
<glyph unicode="b" horiz-adv-x="1280" d="M325 0H144V1500H349V872Q417 942 508 981T708 1020Q853 1020 966 952T1144 767T1210 500Q1210 352 1145 234T966 48T708 -20Q594 -20 499 23T335 143L325 0ZM675 164Q768 164 841 208T957 328T1000 500Q1000 596 958
672T842 792T675 836Q586 836 515 796T399 686T349 526V475Q355 386 398 316T513 205T675 164Z" />
<glyph unicode="c" horiz-adv-x="1061" d="M993 149Q920 68 818 24T597 -20Q447 -20 328 48T139 234T70 500Q70 649 139 766T327 952T597 1020Q715 1020 817 977T992 852L871 725Q822 777 754 805T608 834Q513 834 439 791T323 674T281 501Q281 404 323 328T439
209T608 166Q685 166 754 195T871 275L993 149Z" />
<glyph unicode="d" horiz-adv-x="1282" d="M1138 0H957L946 143Q878 67 783 24T573 -20Q429 -20 315 48T136 234T70 500Q70 649 135 766T315 952T573 1020Q681 1020 773 981T933 872V1500H1138V0ZM607 164Q698 164 771 206T889 320T933 484V518Q933 610 889 682T772
795T607 836Q514 836 440 792T323 673T280 501Q280 405 323 329T440 209T607 164Z" />
<glyph unicode="e" horiz-adv-x="1165" d="M1036 119Q850 -20 627 -20Q468 -20 342 50T143 241T70 514Q70 659 137 773T320 954T583 1020Q735 1020 850 948T1030 748T1095 450V418H292Q310 340 360 282T484 191T651 158Q817 158 956 266L1036 119ZM283 560H904Q894
644 852 706T744 804T594 840Q510 840 443 805T335 706T283 560Z" />
<glyph unicode="f" horiz-adv-x="856" d="M426 0H221V817H46V1000H221V1195Q221 1293 264 1368T384 1487T561 1530Q623 1530 686 1513T810 1460L732 1299Q699 1323 664 1334T593 1346Q520 1346 473 1294T426 1155V1000H732V817H426V0Z" />
<glyph unicode="g" horiz-adv-x="1257" d="M564 -4Q423 -4 311 63T135 246T70 508Q70 655 134 770T311 953T565 1020Q677 1020 771 977T932 859L942 1000H1123V27Q1123 -141 1055 -263T861 -453T565 -520Q324 -520 140 -363L227 -197Q362 -336 553 -336Q664 -336
745 -290T872 -162T918 33V142Q852 74 761 35T564 -4ZM598 178Q686 178 758 218T874 327T918 486V531Q918 620 875 689T759 798T598 838Q506 838 434 795T320 677T278 508Q278 414 320 339T434 221T598 178Z" />
<glyph unicode="h" horiz-adv-x="1225" d="M144 0V1500H349V861Q460 1020 686 1020Q881 1020 991 902T1101 573V0H896V523Q896 672 825 754T625 836Q496 836 423 753T349 523V0H144Z" />
<glyph unicode="i" horiz-adv-x="500" d="M250 1290Q203 1290 171 1323T139 1403Q139 1450 171 1482T250 1515Q298 1515 330 1483T363 1403Q363 1356 331 1323T250 1290ZM352 0H147V1000H352V0Z" />
<glyph unicode="j" horiz-adv-x="508" d="M264 1290Q217 1290 185 1323T153 1403Q153 1450 185 1482T264 1515Q311 1515 343 1483T376 1403Q376 1356 344 1323T264 1290ZM-124 -505V-343Q-108 -346 -94 -347T-66 -348Q37 -348 99 -277T161 -83V1000H367V-92Q367
-299 274 -409T7 -520Q-23 -520 -56 -516T-124 -505Z" />
<glyph unicode="k" horiz-adv-x="1173" d="M349 0H144V1500H349V489L434 591L820 1000H1077L664 562L1135 0H870L522 422L349 244V0Z" />
<glyph unicode="l" horiz-adv-x="506" d="M362 0H144V1540H362V0Z" />
<glyph unicode="m" horiz-adv-x="1866" d="M1742 0H1537V523Q1537 672 1474 754T1295 836Q1178 836 1112 753T1046 523V0H841V523Q841 672 777 754T598 836Q481 836 415 753T349 523V0H144V1000H310L318 826Q368 921 453 970T655 1020Q778 1020 866 966T999 811Q1049
914 1137 967T1348 1020Q1534 1020 1638 902T1742 573V0Z" />
<glyph unicode="n" horiz-adv-x="1225" d="M1101 0H896V543Q896 676 824 755T629 834Q503 834 426 750T349 527V0H144V1000H317L324 839Q379 927 468 973T677 1020Q874 1020 987 901T1101 573V0Z" />
<glyph unicode="o" horiz-adv-x="1194" d="M598 -20Q448 -20 328 48T139 233T70 500Q70 648 139 765T328 951T598 1020Q749 1020 868 952T1055 766T1124 500Q1124 351 1056 234T868 48T598 -20ZM597 164Q688 164 759 208T872 328T914 501Q914 596 873 671T760
791T597 836Q507 836 435 792T322 672T280 501Q280 404 321 329T435 209T597 164Z" />
<glyph unicode="p" horiz-adv-x="1281" d="M349 -500H144V1000H325L336 857Q404 933 499 976T709 1020Q853 1020 966 952T1145 767T1211 500Q1211 352 1146 234T967 48T709 -20Q601 -20 509 19T349 128V-500ZM676 166Q771 166 844 209T958 327T1000 501Q1000 599
959 674T844 793T677 836Q588 836 517 797T401 688T349 531V469Q356 381 399 313T514 205T676 166Z" />
<glyph unicode="q" horiz-adv-x="1281" d="M1137 -500H932V128Q865 58 773 19T572 -20Q428 -20 315 48T136 234T70 500Q70 649 135 766T314 952T572 1020Q686 1020 782 977T946 857L956 1000H1137V-500ZM606 166Q696 166 767 204T882 311T932 468V531Q926 620
883 688T769 795T607 834Q512 834 439 791T324 673T282 500Q282 403 323 328T438 209T606 166Z" />
<glyph unicode="r" horiz-adv-x="816" d="M349 0H144V1000H323L331 810Q383 909 474 964T685 1020Q714 1020 743 1017T803 1006L777 821Q719 836 663 836Q570 836 499 792T389 669T349 489V0Z" />
<glyph unicode="s" horiz-adv-x="878" d="M74 87L124 271Q158 237 205 211T306 171T412 156Q494 156 544 191T594 284Q594 327 567 355T494 405T396 446Q329 471 263 504T151 592T106 737Q106 823 150 886T273 985T455 1020Q615 1020 772 940L712 765Q680 788
636 806T546 834T461 845Q396 845 357 816T317 738Q317 708 336 684T396 636T509 583Q577 556 645 521T758 430T804 283Q804 193 756 125T623 18T424 -20Q237 -20 74 87Z" />
<glyph unicode="t" horiz-adv-x="822" d="M764 25Q659 -20 561 -20Q463 -20 390 22T275 140T233 317V817H58V1000H243V1250H438V1000H730V817H438V355Q438 267 485 216T608 164Q671 164 733 202L764 25Z" />
<glyph unicode="u" horiz-adv-x="1225" d="M1081 0H907L900 161Q845 73 757 27T547 -20Q351 -20 238 99T124 427V1000H329V457Q329 324 401 245T595 166Q721 166 798 250T876 473V1000H1081V0Z" />
<glyph unicode="v" horiz-adv-x="1159" d="M1095 1000L679 0H480L64 1000H284L581 211L878 1000H1095Z" />
<glyph unicode="w" horiz-adv-x="1613" d="M1246 0H1010L806 715L602 0H366L46 1000H263L482 234L713 1000H899L1130 233L1350 1000H1567L1246 0Z" />
<glyph unicode="x" horiz-adv-x="1155" d="M283 0H14L442 515L43 1000H317L579 666L837 1000H1106L713 519L1141 0H866L577 369L283 0Z" />
<glyph unicode="y" horiz-adv-x="1215" d="M549 -500H328L537 6L50 1000H279L635 241L949 1000H1169L549 -500Z" />
<glyph unicode="z" horiz-adv-x="1064" d="M994 0H70V109L649 816H99V1000H966V907L374 184H994V0Z" />
<glyph unicode="{" horiz-adv-x="633" d="M569 -289Q401 -289 315 -221T228 -18V365Q228 451 181 513T64 581V670Q133 675 180 737T228 886V1269Q228 1403 314 1471T569 1540V1375Q485 1375 447 1340T409 1225V880Q409 794 367 726T252 625Q325 592 367 524T409
370V28Q409 -52 447 -88T569 -124V-289Z" />
<glyph unicode="|" horiz-adv-x="468" d="M324 -250H144V1540H324V-250Z" />
<glyph unicode="}" horiz-adv-x="633" d="M64 -289V-124Q148 -124 186 -88T224 28V370Q224 456 266 524T381 625Q309 658 267 726T224 880V1225Q224 1304 186 1340T64 1376V1540Q233 1540 319 1472T405 1269V886Q405 800 452 738T569 670V581Q500 576 453 514T405
365V-18Q405 -152 319 -220T64 -289Z" />
<glyph unicode="~" horiz-adv-x="1330" d="M1186 598Q1114 521 1048 486T913 450Q849 450 790 474T671 526Q611 555 551 579T425 604Q288 604 144 460V612Q291 756 429 756Q479 756 534 738T673 679Q732 650 791 626T915 602Q1049 602 1186 750V598Z" />
<glyph unicode="&#xa0;" horiz-adv-x="488" />
<glyph unicode="&#xa1;" horiz-adv-x="468" d="M234 798Q186 798 154 830T121 910Q121 956 153 988T234 1020Q282 1020 314 988T347 910Q347 863 315 831T234 798ZM319 -500H148L184 595H283L319 -500Z" />
<glyph unicode="&#xa2;" horiz-adv-x="1061" d="M993 289Q933 222 849 179T666 124L668 -60H531L533 123Q399 138 295 208T130 390T70 640Q70 778 130 890T294 1072T533 1157L531 1340H667L665 1156Q764 1145 848 1103T992 992L871 865Q824 917 757 946T612 976Q517
976 442 932T324 813T280 641Q280 545 323 469T441 348T612 304Q689 304 757 334T871 415L993 289Z" />
<glyph unicode="&#xa3;" horiz-adv-x="1218" d="M908 682H536Q545 646 549 612T553 542Q553 439 518 351T408 184H1075V0H124V119Q247 202 315 309T383 537Q383 571 377 606T358 682H114V818H310Q273 908 257 972T241 1097Q241 1220 297 1315T450 1465T673 1520Q803
1520 915 1459T1104 1288L969 1185Q919 1258 850 1297T703 1337Q626 1337 569 1301T481 1202T449 1052Q449 1005 459 956T501 818H908V682Z" />
<glyph unicode="&#xa4;" horiz-adv-x="1270" d="M1155 347L1071 262L909 425Q853 382 783 359T635 335Q557 335 487 358T359 425L199 262L114 347L277 508Q234 564 212 634T189 783Q189 861 211 931T277 1057L114 1218L199 1303L359 1140Q416 1184 486 1206T635
1229Q714 1229 783 1207T909 1140L1071 1304L1156 1219L992 1057Q1036 1001 1058 931T1081 783Q1081 704 1058 634T991 508L1155 347ZM635 474Q720 474 787 514T892 624T930 783Q930 872 892 941T786 1051T634 1091Q550 1091 483 1051T378 942T340 783Q340 694
378 625T483 515T635 474Z" />
<glyph unicode="&#xa5;" horiz-adv-x="1244" d="M728 0H517V306H178V400H517V558H178V652H511L32 1500H272L621 803L972 1500H1212L736 652H1065V558H728V400H1065V306H728V0Z" />
<glyph unicode="&#xa6;" horiz-adv-x="469" d="M325 820H144V1540H325V820ZM325 -250H144V470H325V-250Z" />
<glyph unicode="&#xa7;" horiz-adv-x="1043" d="M172 -12L242 145Q293 114 361 95T487 75Q567 75 615 112T664 209Q664 258 634 290T553 348T443 399Q375 428 306 464T190 558T144 709Q144 803 196 876T342 991Q296 1017 259 1050T199 1127T177 1232Q177 1320
225 1387T358 1492T555 1530Q720 1530 871 1452L801 1295Q750 1326 682 1345T556 1365Q476 1365 427 1328T378 1229Q378 1192 399 1163T469 1105T595 1044Q667 1014 736 977T852 882T899 731Q899 638 847 565T701 449Q748 423 785 390T844 313T866 208Q866 120
819 53T686 -52T487 -90Q323 -90 172 -12ZM617 492Q673 521 706 570T739 685Q739 743 709 788T609 873T426 948Q370 919 337 870T303 759Q303 701 335 655T436 569T617 492Z" />
<glyph unicode="&#xa8;" horiz-adv-x="903" d="M675 1236Q630 1236 603 1264T575 1336Q575 1381 602 1408T675 1436Q720 1436 747 1409T774 1336Q774 1292 747 1264T675 1236ZM229 1236Q185 1236 157 1264T129 1336Q129 1381 157 1408T229 1436Q274 1436 301 1409T329
1336Q329 1292 302 1264T229 1236Z" />
<glyph unicode="&#xa9;" horiz-adv-x="1327" d="M664 -104Q491 -104 355 -27T142 186T64 495Q64 668 141 803T355 1015T664 1093Q837 1093 972 1016T1185 803T1263 495Q1263 322 1186 187T973 -26T664 -104ZM664 18Q801 18 907 80T1075 249T1136 493Q1136 631
1075 738T907 908T664 971Q528 971 421 909T253 739T191 493Q191 357 252 249T420 80T664 18ZM926 262Q826 170 681 170Q586 170 511 212T394 328T351 495Q351 589 393 662T511 777T681 819Q824 819 926 727L846 644Q818 675 778 691T689 708Q594 708 535 649T476
494Q476 399 535 341T689 282Q737 282 778 298T848 346L926 262Z" />
<glyph unicode="&#xaa;" horiz-adv-x="831" d="M687 810H575L568 918Q533 861 475 831T343 800Q235 800 165 860T94 1010Q94 1074 131 1124T232 1203T379 1232Q430 1232 476 1221T564 1188V1204Q564 1296 514 1349T377 1403Q328 1403 279 1385T189 1335L133 1433Q248
1520 393 1520Q528 1520 607 1445T687 1243V810ZM371 902Q424 902 468 923T538 980T564 1061V1105Q493 1157 400 1157Q321 1157 270 1119T219 1023Q219 969 261 936T371 902Z" />
<glyph unicode="&#xab;" horiz-adv-x="1163" d="M584 111H387L64 497L387 882H584L251 496L584 111ZM1019 111H822L499 497L822 882H1019L686 496L1019 111Z" />
<glyph unicode="&#xac;" horiz-adv-x="1085" d="M941 98H761V430H144V594H941V98Z" />
<glyph unicode="&#xad;" horiz-adv-x="1136" d="M992 411H144V575H992V411Z" />
<glyph unicode="&#xae;" horiz-adv-x="1327" d="M664 423Q491 423 355 500T142 713T64 1022Q64 1195 141 1330T355 1542T664 1620Q837 1620 972 1543T1185 1330T1263 1022Q1263 849 1186 714T973 501T664 423ZM664 546Q801 546 907 607T1075 776T1136 1020Q1136
1158 1075 1265T907 1435T664 1498Q528 1498 421 1436T252 1266T190 1020Q190 884 251 777T420 608T664 546ZM924 702H788L655 957H563V703H443V1345H669Q776 1345 838 1293T900 1150Q900 1087 869 1042T779 974L924 702ZM563 1063H648Q715 1063 747 1085T779 1152Q779
1197 747 1218T648 1239H563V1063Z" />
<glyph unicode="&#xaf;" horiz-adv-x="947" d="M803 1279H144V1400H803V1279Z" />
<glyph unicode="&#xb0;" horiz-adv-x="688" d="M344 960Q262 960 199 996T100 1096T64 1240Q64 1322 100 1384T199 1483T344 1520Q425 1520 488 1484T587 1385T624 1240Q624 1159 588 1096T488 997T344 960ZM344 1074Q412 1074 457 1121T502 1240Q502 1312 457
1359T344 1406Q274 1406 230 1359T185 1240Q185 1168 229 1121T344 1074Z" />
<glyph unicode="&#xb1;" horiz-adv-x="1136" d="M659 273H478V611H144V775H478V1105H659V775H992V611H659V273ZM992 0H145V159H992V0Z" />
<glyph unicode="&#xb2;" horiz-adv-x="755" d="M621 790H180V861Q292 958 360 1034T461 1171T493 1286Q493 1346 459 1383T368 1421Q321 1421 279 1395T208 1323L144 1392Q185 1452 250 1486T387 1520Q484 1520 546 1459T609 1301Q609 1237 579 1170T489 1034T338
891H621V790Z" />
<glyph unicode="&#xb3;" horiz-adv-x="725" d="M134 872L181 955Q259 889 341 889Q399 889 436 924T474 1011Q474 1067 429 1097T300 1127H268V1210H300Q366 1210 409 1242T453 1323Q453 1365 421 1393T338 1421Q266 1421 203 1362L149 1441Q231 1520 348 1520Q441
1520 501 1470T562 1341Q562 1284 530 1240T443 1172Q511 1154 551 1108T591 995Q591 907 523 849T351 790Q227 790 134 872Z" />
<glyph unicode="&#xb4;" horiz-adv-x="501" d="M231 1165H84L236 1500H427L231 1165Z" />
<glyph unicode="&#xb5;" horiz-adv-x="1308" d="M1268 -20Q1149 -20 1071 22T955 150Q903 69 820 25T629 -20Q442 -20 343 114V-500H148V1000H349V477Q349 333 421 249T617 164Q739 164 809 248T880 477V1000H1085V339Q1085 133 1278 133L1268 -20Z" />
<glyph unicode="&#xb6;" horiz-adv-x="1295" d="M1151 -150H1003V1354H803V-150H656V647Q493 647 374 700T189 850T124 1082Q124 1212 186 1305T365 1449T644 1500H1151V-150Z" />
<glyph unicode="&#xb7;" horiz-adv-x="470" d="M235 418Q185 418 154 449T123 530Q123 580 154 611T235 642Q284 642 315 611T347 530Q347 480 316 449T235 418Z" />
<glyph unicode="&#xb8;" horiz-adv-x="589" d="M114 -392L151 -298Q194 -317 239 -317Q291 -317 325 -292T360 -228Q360 -187 322 -161T224 -134Q219 -134 213 -134T202 -135L257 7H345L307 -82Q381 -89 426 -131T471 -240Q471 -317 410 -367T252 -418Q184 -418
114 -392Z" />
<glyph unicode="&#xb9;" horiz-adv-x="493" d="M349 780H229V1385L100 1339L64 1432L252 1500H349V780Z" />
<glyph unicode="&#xba;" horiz-adv-x="848" d="M424 800Q321 800 239 847T111 975T64 1160Q64 1264 110 1345T238 1473T425 1520Q529 1520 609 1474T737 1346T784 1160Q784 1056 737 975T610 847T424 800ZM425 911Q494 911 547 943T630 1032T661 1160Q661 1233
631 1289T547 1377T425 1409Q357 1409 303 1377T218 1288T187 1160Q187 1088 218 1032T303 944T425 911Z" />
<glyph unicode="&#xbb;" horiz-adv-x="1163" d="M341 111H144L476 496L144 882H341L664 497L341 111ZM776 111H579L912 496L579 882H776L1099 497L776 111Z" />
<glyph unicode="&#xbc;" horiz-adv-x="1630" d="M374 0H237L1258 1540H1388L374 0ZM399 780H279V1385L150 1339L114 1432L302 1500H399V780ZM1431 0H1315V161H966V251L1320 720H1431V263H1516V161H1431V0ZM1073 263H1315V584L1073 263Z" />
<glyph unicode="&#xbd;" horiz-adv-x="1678" d="M374 0H237L1258 1540H1388L374 0ZM399 780H279V1385L150 1339L114 1432L302 1500H399V780ZM1564 0H1119V64Q1235 166 1305 241T1406 377T1437 493Q1437 558 1401 598T1309 638Q1224 638 1166 547L1101 619Q1141
677 1201 708T1329 740Q1424 740 1490 679T1556 515Q1556 448 1524 378T1432 239T1286 102H1564V0Z" />
<glyph unicode="&#xbe;" horiz-adv-x="1642" d="M387 0H250L1271 1540H1401L387 0ZM114 868L160 953Q236 890 310 890Q367 890 405 923T443 1008Q443 1062 397 1094T273 1127H246V1211H264Q332 1211 377 1243T422 1323Q422 1364 390 1391T309 1419Q246 1419 181
1368L129 1446Q210 1520 321 1520Q412 1520 471 1471T531 1345Q531 1288 497 1242T405 1172Q478 1153 519 1106T561 993Q561 906 493 848T320 790Q203 790 114 868ZM1444 0H1328V161H978V251L1333 720H1444V263H1528V161H1444V0ZM1085 263H1328V584L1085 263Z"
/>
<glyph unicode="&#xbf;" horiz-adv-x="928" d="M543 1030Q592 1030 623 999T655 919Q655 868 624 837T543 806Q493 806 462 837T431 919Q431 968 462 999T543 1030ZM768 -216L864 -384Q688 -520 482 -520Q365 -520 278 -478T143 -359T94 -179Q94 -108 115 -56T172
40T247 125Q296 178 343 239T422 388T454 605H632Q632 453 600 353T520 188T428 71Q379 16 345 -34T310 -155Q310 -238 363 -287T506 -336Q577 -336 645 -305T768 -216Z" />
<glyph unicode="&#xc0;" horiz-adv-x="1531" d="M829 1665H681L486 2000H677L829 1665ZM269 0H38L648 1500H884L1493 0H1262L1112 377H419L269 0ZM494 571H1037L765 1256L494 571Z" />
<glyph unicode="&#xc1;" horiz-adv-x="1531" d="M851 1665H704L856 2000H1047L851 1665ZM269 0H38L648 1500H884L1493 0H1262L1112 377H419L269 0ZM494 571H1037L765 1256L494 571Z" />
<glyph unicode="&#xc2;" horiz-adv-x="1531" d="M1068 1665H915L765 1914L615 1665H463L678 2000H853L1068 1665ZM269 0H38L648 1500H884L1493 0H1262L1112 377H419L269 0ZM494 571H1037L765 1256L494 571Z" />
<glyph unicode="&#xc3;" horiz-adv-x="1531" d="M1113 1954Q1107 1846 1056 1789T915 1731Q861 1731 822 1751T740 1804Q716 1824 687 1840T618 1857Q517 1857 503 1741H418Q432 1964 616 1964Q678 1964 720 1942T795 1894Q824 1872 853 1856T920 1839Q1014 1839
1028 1954H1113ZM269 0H38L648 1500H884L1493 0H1262L1112 377H419L269 0ZM494 571H1037L765 1256L494 571Z" />
<glyph unicode="&#xc4;" horiz-adv-x="1531" d="M269 0H38L648 1500H884L1493 0H1262L1112 377H419L269 0ZM494 571H1037L765 1256L494 571ZM989 1736Q944 1736 917 1764T889 1836Q889 1881 916 1908T989 1936Q1034 1936 1061 1909T1088 1836Q1088 1792 1061 1764T989
1736ZM543 1736Q499 1736 471 1764T443 1836Q443 1881 471 1908T543 1936Q588 1936 615 1909T643 1836Q643 1792 616 1764T543 1736Z" />
<glyph unicode="&#xc5;" horiz-adv-x="1532" d="M765 1590Q668 1590 609 1647T550 1800Q550 1894 609 1952T765 2010Q861 2010 920 1952T979 1800Q979 1705 920 1648T765 1590ZM765 1679Q818 1679 850 1712T883 1800Q883 1854 851 1887T765 1920Q711 1920 679
1887T646 1800Q646 1745 678 1712T765 1679ZM269 0H38L648 1500H884L1494 0H1262L1112 377H419L269 0ZM494 571H1037L765 1256L494 571Z" />
<glyph unicode="&#xc6;" horiz-adv-x="2170" d="M2076 0H1160L1111 357H468L281 0H30L832 1500H1871L1897 1307H1202L1265 856H1919L1945 663H1290L1355 194H2049L2076 0ZM569 551H1085L978 1330H974L569 551Z" />
<glyph unicode="&#xc7;" horiz-adv-x="1519" d="M1423 191Q1326 95 1197 38T915 -29L892 -82Q966 -89 1010 -131T1055 -240Q1055 -317 994 -367T836 -418Q769 -418 698 -392L735 -298Q778 -317 823 -317Q876 -317 910 -292T944 -228Q944 -187 906 -161T808 -134Q803
-134 798 -134T786 -135L827 -29Q665 -23 529 38T291 203T135 447T80 750Q80 919 138 1061T302 1309T551 1472T863 1530Q1031 1530 1174 1472T1421 1310L1268 1154Q1193 1239 1089 1287T860 1336Q740 1336 639 1293T463 1170T347 983T305 750Q305 624 346 517T463
331T639 208T860 164Q984 164 1088 212T1267 346L1423 191Z" />
<glyph unicode="&#xc8;" horiz-adv-x="1223" d="M713 1665H566L371 2000H561L713 1665ZM144 0V1500H1079V1306H364V857H1038V663H364V194H1089V0H144Z" />
<glyph unicode="&#xc9;" horiz-adv-x="1223" d="M668 1665H521L672 2000H864L668 1665ZM144 0V1500H1079V1306H364V857H1038V663H364V194H1089V0H144Z" />
<glyph unicode="&#xca;" horiz-adv-x="1223" d="M920 1665H768L617 1914L467 1665H315L530 2000H706L920 1665ZM144 0V1500H1079V1306H364V857H1038V663H364V194H1089V0H144Z" />
<glyph unicode="&#xcb;" horiz-adv-x="1223" d="M144 0V1500H1079V1306H364V857H1038V663H364V194H1089V0H144ZM835 1736Q790 1736 763 1764T735 1836Q735 1881 762 1908T835 1936Q880 1936 907 1909T934 1836Q934 1792 907 1764T835 1736ZM389 1736Q345 1736
317 1764T289 1836Q289 1881 317 1908T389 1936Q434 1936 461 1909T489 1836Q489 1792 462 1764T389 1736Z" />
<glyph unicode="&#xcc;" horiz-adv-x="509" d="M325 1665L173 2000H-19L177 1665H325ZM365 1500H145V0H365V1500Z" />
<glyph unicode="&#xcd;" horiz-adv-x="508" d="M330 1665L526 2000H334L182 1665H330ZM364 1500H144V0H364V1500Z" />
<glyph unicode="&#xce;" horiz-adv-x="509" d="M557 1665L342 2000H167L-48 1665H104L254 1914L405 1665H557ZM365 1500H145V0H365V1500Z" />
<glyph unicode="&#xcf;" horiz-adv-x="508" d="M364 1500H144V0H364V1500ZM478 1736Q433 1736 406 1764T378 1836Q378 1881 405 1908T478 1936Q523 1936 550 1909T577 1836Q577 1792 550 1764T478 1736ZM32 1736Q-12 1736 -40 1764T-68 1836Q-68 1881 -40 1908T32
1936Q77 1936 104 1909T132 1836Q132 1792 105 1764T32 1736Z" />
<glyph unicode="&#xd0;" horiz-adv-x="1594" d="M192 0V667H14V826H192V1500H643Q918 1500 1116 1410T1422 1151T1530 750Q1530 518 1423 350T1117 91T643 0H192ZM814 667H412V194H652Q860 194 1005 259T1228 449T1305 750Q1305 927 1228 1051T1006 1240T652 1306H412V826H814V667Z"
/>
<glyph unicode="&#xd1;" horiz-adv-x="1612" d="M1173 1954Q1167 1846 1116 1789T976 1731Q921 1731 883 1751T806 1801Q777 1823 748 1840T679 1857Q578 1857 563 1741H478Q493 1964 676 1964Q738 1964 779 1942T855 1894Q885 1872 914 1856T980 1839Q1074 1839
1089 1954H1173ZM1468 0H1226L364 1158V0H144V1500H386L1248 341V1500H1468V0Z" />
<glyph unicode="&#xd2;" horiz-adv-x="1725" d="M953 1665H806L611 2000H801L953 1665ZM863 -30Q694 -30 551 28T302 191T138 439T80 750Q80 919 138 1061T301 1309T550 1472T863 1530Q1033 1530 1175 1472T1423 1309T1587 1062T1645 750Q1645 582 1587 440T1424
192T1176 28T863 -30ZM863 164Q983 164 1085 208T1262 331T1378 517T1420 750Q1420 876 1379 983T1262 1169T1085 1292T863 1336Q743 1336 642 1293T465 1170T347 983T305 750Q305 624 347 517T464 331T641 208T863 164Z" />
<glyph unicode="&#xd3;" horiz-adv-x="1725" d="M919 1665H772L923 2000H1114L919 1665ZM864 -30Q694 -30 551 28T302 191T138 439T80 750Q80 919 138 1061T302 1309T551 1472T864 1530Q1034 1530 1176 1472T1424 1309T1587 1062T1645 750Q1645 582 1588 440T1425
192T1177 28T864 -30ZM863 164Q983 164 1085 208T1262 331T1378 517T1420 750Q1420 876 1379 983T1262 1169T1085 1292T863 1336Q743 1336 642 1293T465 1170T347 983T305 750Q305 624 347 517T464 331T641 208T863 164Z" />
<glyph unicode="&#xd4;" horiz-adv-x="1725" d="M1165 1665H1013L863 1914L712 1665H561L775 2000H951L1165 1665ZM864 -30Q694 -30 551 28T302 191T138 439T80 750Q80 919 138 1061T302 1309T551 1472T864 1530Q1034 1530 1176 1472T1424 1309T1587 1062T1645
750Q1645 582 1588 440T1425 192T1177 28T864 -30ZM863 164Q983 164 1085 208T1262 331T1378 517T1420 750Q1420 876 1379 983T1262 1169T1085 1292T863 1336Q743 1336 642 1293T465 1170T347 983T305 750Q305 624 347 517T464 331T641 208T863 164Z" />
<glyph unicode="&#xd5;" horiz-adv-x="1725" d="M1210 1954Q1204 1846 1153 1789T1012 1731Q958 1731 919 1751T837 1804Q813 1824 784 1840T715 1857Q614 1857 599 1741H515Q529 1964 712 1964Q774 1964 816 1942T892 1894Q921 1872 950 1856T1017 1839Q1110
1839 1125 1954H1210ZM863 -30Q694 -30 551 28T302 191T138 439T80 750Q80 919 138 1061T301 1309T550 1472T863 1530Q1033 1530 1175 1472T1423 1309T1587 1062T1645 750Q1645 582 1587 440T1424 192T1176 28T863 -30ZM863 164Q983 164 1085 208T1262 331T1378
517T1420 750Q1420 876 1379 983T1262 1169T1085 1292T863 1336Q743 1336 642 1293T465 1170T347 983T305 750Q305 624 347 517T464 331T641 208T863 164Z" />
<glyph unicode="&#xd6;" horiz-adv-x="1725" d="M863 -30Q694 -30 551 28T302 191T138 439T80 750Q80 919 138 1061T301 1309T550 1472T863 1530Q1033 1530 1175 1472T1423 1309T1587 1062T1645 750Q1645 582 1587 440T1424 192T1176 28T863 -30ZM863 164Q983
164 1085 208T1262 331T1378 517T1420 750Q1420 876 1379 983T1262 1169T1085 1292T863 1336Q743 1336 642 1293T465 1170T347 983T305 750Q305 624 347 517T464 331T641 208T863 164ZM1086 1736Q1041 1736 1014 1764T986 1836Q986 1881 1013 1908T1086 1936Q1131
1936 1158 1909T1185 1836Q1185 1792 1158 1764T1086 1736ZM640 1736Q596 1736 568 1764T540 1836Q540 1881 568 1908T640 1936Q685 1936 712 1909T740 1836Q740 1792 713 1764T640 1736Z" />
<glyph unicode="&#xd7;" horiz-adv-x="1030" d="M817 76L515 379L213 76L96 193L399 495L96 797L213 914L515 612L817 914L934 797L631 495L934 193L817 76Z" />
<glyph unicode="&#xd8;" horiz-adv-x="1724" d="M579 -77L482 -35L515 44Q383 104 285 208T134 450T80 750Q80 919 138 1061T301 1309T550 1472T863 1530Q930 1530 994 1521T1116 1492L1150 1574L1247 1535L1213 1455Q1345 1394 1441 1290T1591 1048T1644 750Q1644
582 1587 440T1424 192T1176 28T863 -30Q797 -30 735 -21T614 6L579 -77ZM593 232L1040 1308Q999 1322 954 1329T862 1336Q743 1336 641 1293T464 1170T346 983T304 750Q304 635 340 535T441 358T593 232ZM862 164Q982 164 1084 208T1261 331T1377 517T1419 750Q1419
865 1385 964T1286 1141T1135 1266L690 190Q731 177 774 171T862 164Z" />
<glyph unicode="&#xd9;" horiz-adv-x="1564" d="M874 1665H725L530 2000H722L874 1665ZM1420 1500V672Q1420 454 1344 296T1125 54T782 -30Q584 -30 441 54T221 296T144 672V1500H364V694Q364 524 413 406T556 226T782 164Q916 164 1009 225T1151 405T1200 694V1500H1420Z"
/>
<glyph unicode="&#xda;" horiz-adv-x="1564" d="M838 1665H691L842 2000H1034L838 1665ZM1420 1500V672Q1420 454 1344 296T1125 54T782 -30Q584 -30 441 54T221 296T144 672V1500H364V694Q364 524 413 406T556 226T782 164Q916 164 1009 225T1151 405T1200 694V1500H1420Z"
/>
<glyph unicode="&#xdb;" horiz-adv-x="1564" d="M1085 1665H932L782 1914L632 1665H480L695 2000H870L1085 1665ZM1420 1500V672Q1420 454 1344 296T1125 54T782 -30Q584 -30 441 54T221 296T144 672V1500H364V694Q364 524 413 406T556 226T782 164Q916 164 1009
225T1151 405T1200 694V1500H1420Z" />
<glyph unicode="&#xdc;" horiz-adv-x="1564" d="M1420 1500V672Q1420 454 1344 296T1124 54T782 -30Q583 -30 440 54T221 296T144 672V1500H364V694Q364 524 413 406T555 226T782 164Q915 164 1008 225T1151 405T1200 694V1500H1420ZM1005 1736Q960 1736 933 1764T905
1836Q905 1881 932 1908T1005 1936Q1050 1936 1077 1909T1104 1836Q1104 1792 1077 1764T1005 1736ZM559 1736Q515 1736 487 1764T459 1836Q459 1881 487 1908T559 1936Q604 1936 631 1909T659 1836Q659 1792 632 1764T559 1736Z" />
<glyph unicode="&#xdd;" horiz-adv-x="1418" d="M765 1665H618L770 2000H961L765 1665ZM818 0H598V641L22 1500H289L708 829L1130 1500H1396L818 639V0Z" />
<glyph unicode="&#xde;" horiz-adv-x="1217" d="M350 0H144V1500H350V1191H599Q750 1191 861 1137T1032 985T1093 752Q1093 617 1032 518T861 364T599 309H350V0ZM350 493H561Q716 493 799 560T883 750Q883 873 800 939T561 1006H350V493Z" />
<glyph unicode="&#xdf;" horiz-adv-x="1192" d="M364 0H144V1103Q144 1230 200 1326T355 1476T588 1530Q717 1530 816 1482T972 1348T1029 1153Q1029 1074 1002 1020T937 929T863 865Q835 843 815 824T794 782Q794 763 814 745T883 697Q927 669 966 639T1034 573T1081
491T1098 383Q1098 264 1034 173T858 31T601 -20L556 169Q651 169 723 201T836 292T877 424Q877 483 853 522T793 588T718 639Q670 668 633 699T596 784Q596 828 622 856T685 912Q715 935 743 960T790 1023T809 1116Q809 1181 782 1231T705 1308T591 1336Q487 1336
426 1263T364 1062V0Z" />
<glyph unicode="&#xe0;" horiz-adv-x="1103" d="M654 1165H506L310 1500H502L654 1165ZM979 0H802L790 128Q735 58 651 19T465 -20Q358 -20 274 22T142 137T94 303Q94 401 146 475T288 592T493 635Q565 635 639 618T774 570V607Q774 680 737 732T635 813T492 841Q423
841 352 817T217 743L155 910Q246 964 344 992T538 1020Q674 1020 772 966T925 813T979 578V0ZM503 154Q577 154 638 187T737 276T774 402V409Q727 447 664 468T533 490Q429 490 362 442T295 319Q295 272 322 235T396 176T503 154Z" />
<glyph unicode="&#xe1;" horiz-adv-x="1103" d="M604 1165H456L608 1500H800L604 1165ZM979 0H802L790 128Q735 58 651 19T465 -20Q358 -20 274 22T142 137T94 303Q94 401 146 475T288 592T493 635Q565 635 639 618T774 570V607Q774 680 737 732T635 813T492 841Q423
841 352 817T217 743L155 910Q246 964 344 992T538 1020Q674 1020 772 966T925 813T979 578V0ZM503 154Q577 154 638 187T737 276T774 402V409Q727 447 664 468T533 490Q429 490 362 442T295 319Q295 272 322 235T396 176T503 154Z" />
<glyph unicode="&#xe2;" horiz-adv-x="1103" d="M862 1165H710L560 1414L409 1165H258L472 1500H648L862 1165ZM979 0H802L790 128Q735 58 651 19T465 -20Q358 -20 274 22T142 137T94 303Q94 401 146 475T288 592T493 635Q565 635 639 618T774 570V607Q774 680
737 732T635 813T492 841Q423 841 352 817T217 743L155 910Q246 964 344 992T538 1020Q674 1020 772 966T925 813T979 578V0ZM503 154Q577 154 638 187T737 276T774 402V409Q727 447 664 468T533 490Q429 490 362 442T295 319Q295 272 322 235T396 176T503 154Z"
/>
<glyph unicode="&#xe3;" horiz-adv-x="1103" d="M900 1454Q893 1346 842 1289T701 1231Q647 1231 609 1251T528 1304Q502 1325 473 1341T405 1357Q304 1357 289 1241H204Q219 1464 402 1464Q464 1464 505 1442T581 1394Q611 1372 640 1356T707 1339Q800 1339 815
1454H900ZM979 0H802L790 128Q735 58 651 19T465 -20Q358 -20 274 22T142 137T94 303Q94 401 146 475T288 592T493 635Q565 635 639 618T774 570V607Q774 680 737 732T635 813T492 841Q423 841 352 817T217 743L155 910Q246 964 344 992T538 1020Q674 1020 772
966T925 813T979 578V0ZM503 154Q577 154 638 187T735 276T774 402V409Q727 447 664 468T533 490Q429 490 362 442T295 319Q295 272 322 235T396 176T503 154Z" />
<glyph unicode="&#xe4;" horiz-adv-x="1103" d="M979 0H802L790 128Q735 58 651 19T465 -20Q358 -20 274 22T142 137T94 303Q94 401 146 475T288 592T493 635Q565 635 639 618T774 570V607Q774 680 737 732T635 813T492 841Q423 841 352 817T217 743L155 910Q246
964 344 992T538 1020Q674 1020 772 966T925 813T979 578V0ZM505 154Q576 154 636 183T733 267T774 395V409Q723 447 660 468T530 490Q429 490 362 442T295 319Q295 272 322 235T397 176T505 154ZM795 1236Q750 1236 723 1264T695 1336Q695 1381 722 1408T795 1436Q840
1436 867 1409T894 1336Q894 1292 867 1264T795 1236ZM349 1236Q305 1236 277 1264T249 1336Q249 1381 277 1408T349 1436Q394 1436 421 1409T449 1336Q449 1292 422 1264T349 1236Z" />
<glyph unicode="&#xe5;" horiz-adv-x="1103" d="M560 1101Q463 1101 404 1158T345 1310Q345 1405 404 1462T560 1520Q657 1520 716 1463T775 1310Q775 1216 716 1159T560 1101ZM560 1190Q614 1190 646 1223T679 1310Q679 1365 647 1398T560 1431Q506 1431 474
1398T442 1310Q442 1256 474 1223T560 1190ZM979 0H802L790 128Q735 58 651 19T465 -20Q358 -20 274 22T142 137T94 303Q94 401 146 475T288 592T493 635Q565 635 639 618T774 570V607Q774 680 737 732T635 813T492 841Q423 841 352 817T217 743L155 910Q246 964
344 992T538 1020Q674 1020 772 966T925 813T979 578V0ZM503 154Q577 154 638 187T737 276T774 402V409Q727 447 664 468T533 490Q429 490 362 442T295 319Q295 272 322 235T396 176T503 154Z" />
<glyph unicode="&#xe6;" horiz-adv-x="1866" d="M1736 117Q1556 -20 1332 -20Q1191 -20 1075 36T886 194Q850 128 792 80T658 6T493 -20Q377 -20 287 22T146 139T94 309Q94 406 147 480T293 597T507 639Q654 639 781 573L780 580Q772 696 693 767T491 838Q343
838 211 739L151 910Q239 964 334 992T521 1020Q645 1020 739 970T888 827Q958 919 1063 969T1295 1020Q1445 1020 1557 950T1733 754T1796 459V428H991Q1009 347 1059 287T1184 192T1349 158Q1514 158 1656 267L1736 117ZM983 557H1606Q1596 641 1555 703T1447
800T1296 835Q1211 835 1144 800T1034 703T983 557ZM783 411Q729 452 667 473T537 494Q466 494 411 472T326 412T295 322Q295 274 323 236T402 176T518 154Q589 154 647 179T742 255T782 379L783 411Z" />
<glyph unicode="&#xe7;" horiz-adv-x="1061" d="M993 149Q928 75 838 32T640 -19L612 -82Q686 -89 731 -131T776 -240Q776 -317 715 -367T557 -418Q489 -418 419 -392L456 -298Q499 -317 544 -317Q596 -317 630 -292T665 -228Q665 -187 627 -161T529 -134Q524
-134 518 -134T507 -135L552 -19Q413 -8 304 61T133 244T70 500Q70 649 139 766T327 952T597 1020Q715 1020 817 977T992 852L871 725Q822 777 754 805T608 834Q513 834 439 791T323 674T281 501Q281 404 323 328T439 209T608 166Q685 166 754 195T871 275L993
149Z" />
<glyph unicode="&#xe8;" horiz-adv-x="1165" d="M1036 119Q850 -20 627 -20Q468 -20 342 50T143 241T70 514Q70 659 137 773T320 954T583 1020Q735 1020 850 948T1030 748T1095 450V418H292Q310 340 360 282T484 191T651 158Q817 158 956 266L1036 119ZM283 560H904Q894
644 852 706T744 804T594 840Q510 840 443 805T335 706T283 560ZM684 1165H536L341 1500H532L684 1165Z" />
<glyph unicode="&#xe9;" horiz-adv-x="1165" d="M1036 119Q850 -20 627 -20Q468 -20 342 50T143 241T70 514Q70 659 137 773T320 954T583 1020Q735 1020 850 948T1030 748T1095 450V418H292Q310 340 360 282T484 191T651 158Q817 158 956 266L1036 119ZM283 560H904Q894
644 852 706T744 804T594 840Q510 840 443 805T335 706T283 560ZM658 1165H511L663 1500H854L658 1165Z" />
<glyph unicode="&#xea;" horiz-adv-x="1165" d="M1036 119Q850 -20 627 -20Q468 -20 342 50T143 241T70 514Q70 659 137 773T320 954T583 1020Q735 1020 850 948T1030 748T1095 450V418H292Q310 340 360 282T484 191T651 158Q817 158 956 266L1036 119ZM283 560H904Q894
644 852 706T744 804T594 840Q510 840 443 805T335 706T283 560ZM885 1165H733L582 1414L432 1165H280L495 1500H670L885 1165Z" />
<glyph unicode="&#xeb;" horiz-adv-x="1165" d="M1036 119Q850 -20 627 -20Q468 -20 342 50T143 241T70 514Q70 659 137 773T320 954T583 1020Q735 1020 850 948T1030 748T1095 450V418H292Q310 340 360 282T484 191T651 158Q817 158 956 266L1036 119ZM283 560H904Q894
644 852 706T744 804T594 840Q510 840 443 805T335 706T283 560ZM806 1236Q761 1236 734 1264T706 1336Q706 1381 733 1408T806 1436Q851 1436 878 1409T905 1336Q905 1292 878 1264T806 1236ZM360 1236Q316 1236 288 1264T260 1336Q260 1381 288 1408T360 1436Q405
1436 432 1409T460 1336Q460 1292 433 1264T360 1236Z" />
<glyph unicode="&#xec;" horiz-adv-x="494" d="M334 1165H186L-9 1500H182L334 1165ZM350 0H144V1000H350V0Z" />
<glyph unicode="&#xed;" horiz-adv-x="493" d="M308 1165H160L311 1500H503L308 1165ZM348 0H144V1000H348V0Z" />
<glyph unicode="&#xee;" horiz-adv-x="494" d="M550 1165H397L247 1414L97 1165H-56L160 1500H335L550 1165ZM350 0H145V1000H350V0Z" />
<glyph unicode="&#xef;" horiz-adv-x="494" d="M350 0H144V1000H350V0ZM470 1236Q425 1236 398 1264T370 1336Q370 1381 397 1408T470 1436Q515 1436 542 1409T569 1336Q569 1292 542 1264T470 1236ZM24 1236Q-20 1236 -48 1264T-76 1336Q-76 1381 -48 1408T24
1436Q69 1436 96 1409T124 1336Q124 1292 97 1264T24 1236Z" />
<glyph unicode="&#xf0;" horiz-adv-x="1160" d="M1018 1282L832 1206Q958 1059 1027 886T1096 533Q1096 362 1035 236T862 40T598 -30Q452 -30 338 32T159 204T94 454Q94 585 152 686T311 846T544 904Q649 904 736 865T883 756Q850 857 791 954T652 1136L319 999L283
1087L580 1208Q531 1251 480 1289T369 1359L464 1500Q548 1454 622 1398T761 1280L982 1369L1018 1282ZM592 163Q670 163 732 202T830 307T866 457Q866 541 830 605T732 707T589 745Q510 745 450 709T354 609T319 462Q319 377 355 309T453 202T592 163Z" />
<glyph unicode="&#xf1;" horiz-adv-x="1225" d="M960 1454Q954 1346 903 1289T764 1231Q708 1231 670 1251T593 1301Q564 1323 535 1340T466 1357Q365 1357 351 1241H266Q280 1464 464 1464Q526 1464 567 1442T642 1394Q672 1372 701 1356T767 1339Q862 1339 876
1454H960ZM1101 0H896V543Q896 676 824 755T629 834Q503 834 426 750T349 527V0H144V1000H317L324 839Q379 927 468 973T677 1020Q874 1020 987 901T1101 573V0Z" />
<glyph unicode="&#xf2;" horiz-adv-x="1194" d="M688 1165H541L346 1500H536L688 1165ZM598 -20Q448 -20 328 48T139 234T70 500Q70 649 139 766T328 952T598 1020Q749 1020 868 952T1055 767T1124 500Q1124 352 1056 234T868 48T598 -20ZM597 164Q688 164 759
208T872 329T914 501Q914 597 873 672T760 792T597 836Q507 836 435 792T322 673T280 501Q280 405 321 329T435 209T597 164Z" />
<glyph unicode="&#xf3;" horiz-adv-x="1194" d="M653 1165H506L658 1500H849L653 1165ZM598 -20Q448 -20 328 48T139 234T70 500Q70 649 139 766T328 952T598 1020Q749 1020 868 952T1055 767T1124 500Q1124 352 1056 234T868 48T598 -20ZM597 164Q688 164 759
208T872 329T914 501Q914 597 873 672T760 792T597 836Q507 836 435 792T322 673T280 501Q280 405 321 329T435 209T597 164Z" />
<glyph unicode="&#xf4;" horiz-adv-x="1194" d="M900 1165H748L597 1414L447 1165H295L510 1500H685L900 1165ZM598 -20Q448 -20 328 48T139 234T70 500Q70 649 139 766T328 952T598 1020Q749 1020 868 952T1055 767T1124 500Q1124 352 1056 234T868 48T598 -20ZM597
164Q688 164 759 208T872 329T914 501Q914 597 873 672T760 792T597 836Q507 836 435 792T322 673T280 501Q280 405 321 329T435 209T597 164Z" />
<glyph unicode="&#xf5;" horiz-adv-x="1194" d="M940 1454Q934 1346 883 1289T744 1231Q688 1231 650 1251T573 1301Q544 1323 515 1340T446 1357Q345 1357 331 1241H246Q260 1464 444 1464Q506 1464 547 1442T622 1394Q652 1372 681 1356T747 1339Q842 1339 856
1454H940ZM598 -20Q448 -20 328 48T139 234T70 500Q70 649 139 766T328 952T598 1020Q749 1020 868 952T1055 767T1124 500Q1124 352 1056 234T868 48T598 -20ZM597 164Q688 164 759 208T872 329T914 501Q914 597 873 672T760 792T597 836Q507 836 435 792T322
673T280 501Q280 405 321 329T435 209T597 164Z" />
<glyph unicode="&#xf6;" horiz-adv-x="1194" d="M598 -20Q448 -20 328 48T139 233T70 500Q70 648 139 765T328 951T598 1020Q749 1020 868 952T1055 766T1124 500Q1124 351 1056 234T868 48T598 -20ZM597 164Q688 164 759 208T872 328T914 501Q914 596 873 671T760
791T597 836Q507 836 435 792T322 672T280 501Q280 404 321 329T435 209T597 164ZM818 1236Q773 1236 746 1264T718 1336Q718 1381 745 1408T818 1436Q863 1436 890 1409T917 1336Q917 1292 890 1264T818 1236ZM372 1236Q328 1236 300 1264T272 1336Q272 1381 300
1408T372 1436Q417 1436 444 1409T472 1336Q472 1292 445 1264T372 1236Z" />
<glyph unicode="&#xf7;" horiz-adv-x="1088" d="M544 756Q496 756 465 788T433 867Q433 914 464 947T544 980Q591 980 624 947T657 867Q657 820 624 788T544 756ZM944 411H144V549H944V411ZM544 -20Q497 -20 465 12T433 92Q433 138 465 171T544 204Q591 204 623
171T656 92Q656 45 624 13T544 -20Z" />
<glyph unicode="&#xf8;" horiz-adv-x="1194" d="M416 -75L322 -38L352 35Q224 98 147 220T70 500Q70 649 139 766T328 952T598 1020Q639 1020 677 1015T750 1000L778 1066L872 1028L846 964Q973 901 1048 779T1124 500Q1124 352 1056 234T868 48T598 -20Q558 -20
520 -15T446 0L416 -75ZM426 215L679 826Q638 836 597 836Q507 836 435 792T322 673T280 501Q280 408 319 334T426 215ZM597 164Q688 164 759 208T872 329T914 501Q914 593 875 666T771 783L519 174Q556 164 597 164Z" />
<glyph unicode="&#xf9;" horiz-adv-x="1225" d="M715 1165H568L373 1500H563L715 1165ZM1081 0H907L900 161Q845 73 757 27T547 -20Q351 -20 238 99T124 427V1000H329V457Q329 324 401 245T595 166Q721 166 798 250T876 473V1000H1081V0Z" />
<glyph unicode="&#xfa;" horiz-adv-x="1225" d="M580 1165H433L584 1500H775L580 1165ZM1081 0H907L900 161Q845 73 757 27T547 -20Q351 -20 238 99T124 427V1000H329V457Q329 324 401 245T595 166Q721 166 798 250T876 473V1000H1081V0Z" />
<glyph unicode="&#xfb;" horiz-adv-x="1225" d="M879 1165H727L576 1414L426 1165H274L489 1500H664L879 1165ZM1081 0H907L900 161Q845 73 757 27T547 -20Q351 -20 238 99T124 427V1000H329V457Q329 324 401 245T595 166Q721 166 798 250T876 473V1000H1081V0Z" />
<glyph unicode="&#xfc;" horiz-adv-x="1225" d="M1081 0H907L900 161Q845 73 757 27T547 -20Q351 -20 238 99T124 427V1000H329V457Q329 324 401 245T595 166Q721 166 798 250T876 473V1000H1081V0ZM836 1236Q791 1236 764 1264T736 1336Q736 1381 763 1408T836
1436Q881 1436 908 1409T935 1336Q935 1292 908 1264T836 1236ZM390 1236Q346 1236 318 1264T290 1336Q290 1381 318 1408T390 1436Q435 1436 462 1409T490 1336Q490 1292 463 1264T390 1236Z" />
<glyph unicode="&#xfd;" horiz-adv-x="1215" d="M666 1165H519L671 1500H862L666 1165ZM549 -500H328L538 6L46 1000H279L635 241L950 1000H1169L549 -500Z" />
<glyph unicode="&#xfe;" horiz-adv-x="1275" d="M349 -500H144V1500H349V817Q412 911 511 965T733 1020Q870 1020 978 952T1148 767T1211 500Q1211 352 1149 234T979 48T733 -20Q612 -20 513 35T349 184V-500ZM676 164Q769 164 842 208T958 327T1001 499Q1001
596 959 672T843 792T676 836Q586 836 515 796T400 686T349 525V474Q356 385 399 315T514 204T676 164Z" />
<glyph unicode="&#xff;" horiz-adv-x="1215" d="M549 -500H328L537 6L50 1000H279L635 241L949 1000H1169L549 -500ZM853 1236Q808 1236 781 1264T753 1336Q753 1381 780 1408T853 1436Q898 1436 925 1409T952 1336Q952 1292 925 1264T853 1236ZM407 1236Q363
1236 335 1264T307 1336Q307 1381 335 1408T407 1436Q452 1436 479 1409T507 1336Q507 1292 480 1264T407 1236Z" />
<glyph unicode="&#x2013;" horiz-adv-x="1308" d="M1164 425H144V584H1164V425Z" />
<glyph unicode="&#x2014;" horiz-adv-x="2328" d="M2184 425H144V584H2184V425Z" />
<glyph unicode="&#x2018;" horiz-adv-x="536" d="M299 1070H144L273 1520H400L299 1070Z" />
<glyph unicode="&#x2019;" horiz-adv-x="536" d="M263 1070H144L245 1520H392L263 1070Z" />
<glyph unicode="&#x201a;" horiz-adv-x="474" d="M249 -240H104L182 184H360L249 -240Z" />
<glyph unicode="&#x201c;" horiz-adv-x="908" d="M291 1070H144L273 1520H392L291 1070ZM663 1070H516L645 1520H764L663 1070Z" />
<glyph unicode="&#x201d;" horiz-adv-x="907" d="M634 1070H516L617 1520H763L634 1070ZM263 1070H144L245 1520H392L263 1070Z" />
<glyph unicode="&#x201e;" horiz-adv-x="848" d="M623 -240H478L556 184H734L623 -240ZM249 -240H104L182 184H360L249 -240Z" />
<glyph unicode="&#x2022;" horiz-adv-x="528" d="M264 540Q195 540 150 585T104 700Q104 770 149 815T264 860Q335 860 379 815T424 700Q424 630 380 585T264 540Z" />
<glyph unicode="&#x2039;" horiz-adv-x="746" d="M602 113H405L64 512L405 911H602L256 512L602 113Z" />
<glyph unicode="&#x203a;" horiz-adv-x="746" d="M341 113H144L490 512L144 911H341L682 512L341 113Z" />
</font>
</defs>
</svg>
