<svg width="0" height="0" class="hidden">
  <symbol id="wallet"
    xmlns="http://www.w3.org/2000/svg" fill="none" viewBox="0 0 24 24">
    <path fill="currentColor" fill-rule="evenodd" d="M12.18 2.1a2.75 2.75 0 0 0-3.84-.58L3.11 5.36A3.75 3.75 0 0 0 .25 9v8A3.75 3.75 0 0 0 4 20.75h12A3.75 3.75 0 0 0 19.75 17v-.85a2.75 2.75 0 0 0 0-5.3V9c0-1.47-.85-2.75-2.09-3.36l-1.02-2.55a2.75 2.75 0 0 0-4.15-1.22l-.31.22ZM5.79 5.24h1.97l3.2-2.28a1.25 1.25 0 0 0-1.73-.24L5.8 5.25Zm7.57-2.16c.66-.47 1.59-.2 1.89.55l.64 1.61h-5.55l3.02-2.16Zm4.89 13.16H17a2.75 2.75 0 1 1 0-5.5h1.25V9c0-1.24-1-2.25-2.25-2.25H4c-1.24 0-2.25 1-2.25 2.25v8c0 1.24 1 2.25 2.25 2.25h12c1.24 0 2.25-1 2.25-2.25v-.75Zm-1.25-4a1.25 1.25 0 1 0 0 2.5h2a1.25 1.25 0 1 0 0-2.5h-2Z" clip-rule="evenodd"/>
  </symbol>
  <symbol id="trophy-fill"
    xmlns="http://www.w3.org/2000/svg" fill="none" viewBox="0 0 23 21">
    <path stroke="currentColor" stroke-width="1.5" d="M18 2h3a1 1 0 0 1 1 1v2a5 5 0 0 1-5 5M5 2H2a1 1 0 0 0-1 1v2a5 5 0 0 0 5 5"/>
    <path fill="currentColor" stroke="currentColor" stroke-width="1.5" d="M4.75 1.88c0-.63.5-1.13 1.13-1.13h11.25c.62 0 1.12.5 1.12 1.13V7.5a6.75 6.75 0 0 1-13.5 0V1.87v.01Zm2 17.79c0 .32.26.58.58.58h8.34c.32 0 .58-.26.58-.58 0-1.06-.86-1.92-1.92-1.92H8.67c-1.06 0-1.92.86-1.92 1.92Z"/>
    <path fill="currentColor" d="M11 17h2v-3h-2v3Z"/>
  </symbol>
  <symbol id="arrow-up"
    xmlns="http://www.w3.org/2000/svg" fill="none" viewBox="0 0 24 24">
    <path fill="currentColor" d="m12.4 6 .3.3 5 5a1 1 0 1 1-1.4 1.4L13 9.4V17a1 1 0 1 1-2 0V9.4l-3.3 3.3A1 1 0 0 1 6 12a1 1 0 0 1 .3-.7l5-5 .3-.2c.3-.1.5-.1.8 0Z"/>
  </symbol>
  <symbol id="caret-left"
    xmlns="http://www.w3.org/2000/svg" fill="none" viewBox="0 0 24 24">
    <path stroke="currentColor" stroke-linecap="round" stroke-linejoin="round" stroke-width="2" d="m15 18-6-6 6-6"/>
  </symbol>
  <symbol id="text-align-middle"
    xmlns="http://www.w3.org/2000/svg" fill="none" viewBox="0 0 18 16">
    <path fill="currentColor" fill-rule="evenodd" d="M0 1.5c0 .4.3.7.8.7h16.4a.8.8 0 0 0 0-1.5H.9c-.5 0-.8.4-.8.8Zm0 9c0 .4.3.7.8.7h16.4a.8.8 0 0 0 0-1.5H.9c-.5 0-.8.4-.8.8Zm3.8-3.8a.8.8 0 0 1 0-1.5h10.4a.8.8 0 0 1 0 1.5H3.8ZM4 15c0 .4.3.7.8.7h8.4a.8.8 0 0 0 0-1.5H4.8c-.5 0-.8.4-.8.8Z" clip-rule="evenodd"/>
  </symbol>
  <symbol id="checkmark"
    xmlns="http://www.w3.org/2000/svg" fill="none" viewBox="0 0 20 16">
    <path fill="currentColor" d="M19.4 4.1 9 14.7a2 2 0 0 1-2.9 0L.6 9.2a2 2 0 0 1 2.8-2.8l4 4 9.2-9A2 2 0 0 1 19.4 4Z"/>
  </symbol>
  <symbol id="chevron-up"
    xmlns="http://www.w3.org/2000/svg" fill="none" viewBox="0 0 14 9">
    <path stroke="currentColor" stroke-linecap="round" stroke-width="1.5" d="M1 7.3 7 2l6 5.3"/>
  </symbol>
  <symbol id="close"
    xmlns="http://www.w3.org/2000/svg" fill="none" viewBox="0 0 20 20">
    <path fill="currentColor" fill-rule="evenodd" d="m11 10 3.8-3.8a.7.7 0 1 0-1-1L10 9 6.2 5.2a.7.7 0 1 0-1 1L9 10l-3.8 3.8a.7.7 0 1 0 1 1L10 11l3.8 3.8a.7.7 0 1 0 1-1L11 10Z" clip-rule="evenodd"/>
  </symbol>
  <symbol id="cloud-not-available"
    xmlns="http://www.w3.org/2000/svg" fill="none" viewBox="0 0 48 48">
    <path stroke="currentColor" stroke-linecap="round" stroke-linejoin="round" stroke-width="4" d="M12 33c-3.3 0-8-1.5-8-7.5 0-7 7-8.5 9-8.5 1-3.5 3-9 11-9 7 0 10 4 11 7.5 0 0 9 1 9 9.5 0 6-4 8-8 8M29 28 19 38M19 28l10 10"/>
  </symbol>
  <symbol id="pouch"
    xmlns="http://www.w3.org/2000/svg" fill="none" viewBox="0 0 36 41">
    <path fill="currentColor" fill-rule="evenodd" d="M17.8 2.5c.1-.1.3-.1.4 0L20.8 5c.5.5 1.3.7 2 .4L29 3c.3-.1.5.1.3.3L24.3 13H11.8L6.6 3.3c-.1-.2 0-.4.3-.3l6.4 2.5c.6.3 1.4.1 1.9-.4l2.6-2.6Zm-2.6 12h-3.5l-7.3 9.4a9.2 9.2 0 0 0 7.3 14.9h12.6a9.2 9.2 0 0 0 7.3-14.9l-7.3-9.4h-3.8l3 8.5a.7.7 0 0 1-1.4.5l-3.2-9h-2.2L13 30a.7.7 0 1 1-1.5-.3l3.7-15.3ZM5.2 4l5.2 9.6L3.2 23a10.7 10.7 0 0 0 8.5 17.3h12.6A10.7 10.7 0 0 0 32.8 23l-7.2-9.4L30.8 4c.7-1.4-.7-3-2.2-2.4L22.2 4h-.3l-2.6-2.7c-.7-.6-1.8-.6-2.5 0L14 4.1H14L7.4 1.6C6 1 4.4 2.6 5.3 4Z" clip-rule="evenodd"/>
  </symbol>
  <symbol id="copy"
    xmlns="http://www.w3.org/2000/svg" fill="none" viewBox="0 0 23 25">
    <path fill="currentColor" d="M22.3 8.7v-.4l-.3-.4L14.6.4l-.4-.3a1 1 0 0 0-.5-.1h-5A3.7 3.7 0 0 0 5 3.8V5H3.7A3.7 3.7 0 0 0 0 8.8v12.4A3.8 3.8 0 0 0 3.7 25h10a3.7 3.7 0 0 0 3.7-3.8V20h1.2a3.7 3.7 0 0 0 3.7-3.8V8.8ZM15 4.3 18 7.5h-2A1.2 1.2 0 0 1 15 6.2v-2Zm0 17a1.3 1.3 0 0 1-1.3 1.2H3.7a1.2 1.2 0 0 1-1.2-1.3V8.8a1.3 1.3 0 0 1 1.2-1.3H5v8.8A3.8 3.8 0 0 0 8.7 20h6.2v1.3Zm5-5a1.3 1.3 0 0 1-1.3 1.2h-10a1.2 1.2 0 0 1-1.2-1.3V3.8a1.3 1.3 0 0 1 1.3-1.3h3.7v3.8a3.8 3.8 0 0 0 3.7 3.7h3.7v6.3Z"/>
  </symbol>
  <symbol id="dfinity-logo"
    xmlns="http://www.w3.org/2000/svg" fill="none" viewBox="0 0 197 97">
    <path fill="#F15A24" d="M148.7.4c-10.9 0-22.8 5.8-35.4 17.3-6 5.4-11.2 11.2-15 15.9l12.8 14.3c3.6-4.5 8.9-10.6 14.9-16.1 11.2-10.2 18.5-12.3 22.7-12.3a28.9 28.9 0 1 1 0 57.8L146 77a35 35 0 0 0 14.2 3.6c28.8 0 34.4-19.5 34.8-20.9A48 48 0 0 0 148.7.4Z"/>
    <path fill="#ED1E79" d="M48.1 96.3c10.9 0 22.8-5.8 35.4-17.3 6-5.4 11.2-11.2 15-15.9L85.7 48.8c-3.6 4.5-8.9 10.6-14.9 16.1-11.2 10.2-18.5 12.3-22.7 12.3a28.9 28.9 0 1 1 0-57.8l2.7.3a35 35 0 0 0-14.2-3.6C7.8 16.1 2.2 35.6 1.8 37a48 48 0 0 0 46.3 59.3Z"/>
    <path fill="#29ABE2" d="M70 32.2c-3.1-3-18.5-15.2-33.3-15.6-26.3-.6-34 18-34.6 20.5C7.1 16.1 25.9.5 48.2.4c18.2 0 36.5 17.4 50.1 33.2l.1-.1 12.8 14.3s7.6 8.8 15.7 16.6c3.1 3 18.5 15.1 33.2 15.5 27 .7 34.4-19 34.9-20.5a47.8 47.8 0 0 1-46.1 36.9c-18.2 0-36.5-17.5-50.2-33.2l-.1.1-12.8-14.3c-.1-.1-7.7-8.9-15.8-16.7Zm-68 5V37c.1.1.1.2 0 .2Z"/>
  </symbol>
  <symbol id="discord-logo"
    xmlns="http://www.w3.org/2000/svg" fill="none" viewBox="0 0 24 24">
    <path fill="currentColor" d="M20.3 4.5a20 20 0 0 0-5-1.5l-.6 1.3C13 4 11.1 4 9.3 4.3A12.4 12.4 0 0 0 8.6 3a20 20 0 0 0-5 1.5A19.7 19.7 0 0 0 .1 18a20 20 0 0 0 6.1 3c.5-.7.9-1.3 1.2-2V19c-.7-.2-1.3-.5-1.9-.9V18a10.3 10.3 0 0 0 .5-.3 14.4 14.4 0 0 0 12.1 0l.4.3v.1c-.6.4-1.3.7-2 .9v.1a15.7 15.7 0 0 0 1.4 2 20 20 0 0 0 6-3 19.6 19.6 0 0 0-3.6-13.5ZM8 15.3c-1.2 0-2.1-1-2.1-2.4 0-1.3 1-2.4 2.1-2.4 1.2 0 2.2 1.1 2.2 2.4 0 1.3-1 2.4-2.2 2.4Zm8 0c-1.2 0-2.2-1-2.2-2.4 0-1.3 1-2.4 2.2-2.4 1.2 0 2.2 1.1 2.2 2.4 0 1.3-1 2.4-2.2 2.4Z"/>
  </symbol>
  <symbol id="coin-dollar"
    xmlns="http://www.w3.org/2000/svg" fill="none" viewBox="0 0 22 22">
    <path fill="currentColor" d="M10 8h4a1 1 0 1 0 0-2h-2V5a1 1 0 0 0-2 0v1a3 3 0 0 0 0 6h2a1 1 0 0 1 0 2H8a1 1 0 0 0 0 2h2v1a1 1 0 0 0 2 0v-1a3 3 0 0 0 0-6h-2a1 1 0 0 1 0-2Zm1-8a11 11 0 1 0 0 22 11 11 0 0 0 0-22Zm0 20a9 9 0 1 1 0-18 9 9 0 0 1 0 18Z"/>
  </symbol >
  <symbol id="cloud-download"
    xmlns="http://www.w3.org/2000/svg" fill="none" viewBox="0 0 22 22">
    <path fill="currentColor" d="m13.5 16.8-1.4 1.4v-6.1a1.1 1.1 0 1 0-2.2 0v6.1l-1.4-1.4a1.1 1.1 0 1 0-1.6 1.6l3.3 3.3.4.2a1 1 0 0 0 .8 0l.4-.2 3.3-3.3a1.1 1.1 0 1 0-1.6-1.6Zm4.6-12.2A7.7 7.7 0 0 0 3.4 6.7a4.4 4.4 0 0 0 1 8.7 1.1 1.1 0 1 0 0-2.2 2.2 2.2 0 1 1 0-4.4 1.1 1.1 0 0 0 1.1-1.1 5.5 5.5 0 0 1 10.7-1.8 1.1 1.1 0 0 0 .9.8 3.3 3.3 0 0 1 .2 6.4 1.1 1.1 0 0 0 .6 2.1 5.5 5.5 0 0 0 .2-10.6Z"/>
  </symbol>
  <symbol id="external-link"
    xmlns="http://www.w3.org/2000/svg" fill="none" viewBox="0 0 24 24">
    <path stroke="currentColor" stroke-linecap="round" stroke-linejoin="round" stroke-width="2" d="M12 6H7a1 1 0 0 0-1 1v10a1 1 0 0 0 1 1h10a1 1 0 0 0 1-1v-5m-6 0 7.5-7.5M15 3h6v6"/>
  </symbol>
  <symbol id="eye-open"
    xmlns="http://www.w3.org/2000/svg" fill="none" viewBox="0 0 18 14">
    <path stroke="currentColor" stroke-linecap="round" d="M1 7c1.2 3.5 4.4 6 8 6 3.6 0 6.8-2.5 8-6M1 7c1.2-3.4 4.4-6 8-6 3.6 0 6.8 2.6 8 6"/>
    <path stroke="currentColor" stroke-linecap="round" stroke-linejoin="round" d="M9.1 9.9a2.9 2.9 0 1 0 0-5.8 2.9 2.9 0 0 0 0 5.8Z"/>
  </symbol>
  <symbol id="fire"
    xmlns="http://www.w3.org/2000/svg" fill="none" viewBox="0 0 17 21">
    <path fill="currentColor" d="M8 21c-2.7 0-10.8-3.8-7-11C4.8 2.8 9.2 5 8 0c0 0 2.3 2.2 1 5-1.3 2.8-3 5.2-2 7 0 0 0-3 3-4s2-2 2-2 2.4 1.1 1 4-1.7 3.3-1 5c0 0 0-2.5 2-3s1-2 1-2 1 .9 1 3-.5 8-8 8Z"/>
  </symbol>
  <symbol id="flag"
    xmlns="http://www.w3.org/2000/svg" fill="none" viewBox="0 0 40 45">
    <path fill="currentColor" d="M2 45a2 2 0 0 1-2-2V2C0 1.4.2 1 .6.6A2 2 0 0 1 2 0h19.3c.4 0 .9.1 1.2.4.4.3.6.7.7 1.2l1 4H38a2 2 0 0 1 2 2v20.6c0 .6-.2 1-.6 1.4a2 2 0 0 1-1.4.6H24.5a2 2 0 0 1-1.2-.5c-.4-.2-.6-.6-.7-1l-1-4.1H4V43c0 .6-.2 1-.6 1.4A2 2 0 0 1 2 45Z"/>
  </symbol>
  <symbol id="flash-not-available"
    xmlns="http://www.w3.org/2000/svg" fill="none" viewBox="0 0 21 21">
    <path fill="currentColor" fill-rule="evenodd" d="m10.3 4.1-2 2.4L6.4 9A18.8 18.8 0 0 0 5 11.2a.5.5 0 0 0 0 .1l.5.2h2.9a1.2 1.2 0 0 1 .8.4l.3.7v1.1a28.2 28.2 0 0 0 .3 3.9 28.2 28.2 0 0 0 2.6-2.9l2-2.4a18.8 18.8 0 0 0 1.5-2.2V10l-.1-.1-.5-.1H13l-.7-.1a1.2 1.2 0 0 1-.7-.4c-.2-.2-.3-.5-.3-.7v-1a28.2 28.2 0 0 0-.4-4l-.6.5Zm-1-1c.5-.6 1.3-1.1 2.1-.8.9.2 1.1 1.1 1.2 1.9l.1 3.3v.7H15.4c.7.2 1.3.4 1.7 1v.2c.3.6 0 1.3-.2 1.8l-1.4 2-2 2.4-2.1 2.6c-.6.6-1.3 1.1-2.2.8-.8-.3-1-1.2-1.2-2L8 13.8V13H5.2c-.6-.1-1.3-.3-1.6-1l-.1-.1c-.3-.7 0-1.4.3-1.9l1.4-2 2-2.4 2-2.6Z" clip-rule="evenodd"/>
    <rect width="1.5" height="16.1" x="15" y="4" fill="currentColor" rx=".8" transform="rotate(42 15 4)"/>
  </symbol>
  <symbol id="flash"
    xmlns="http://www.w3.org/2000/svg" fill="none" viewBox="0 0 21 21">
    <path fill="currentColor" fill-rule="evenodd" d="m10.3 4.1-2 2.4L6.4 9A18.8 18.8 0 0 0 5 11.2a.5.5 0 0 0 0 .1l.5.2h2.9a1.2 1.2 0 0 1 .8.4l.3.7v1.1a28.2 28.2 0 0 0 .3 3.9 28.2 28.2 0 0 0 2.6-2.9l2-2.4a18.8 18.8 0 0 0 1.5-2.2V10l-.1-.1-.5-.1H13l-.7-.1a1.2 1.2 0 0 1-.7-.4c-.2-.2-.3-.5-.3-.7v-1a28.2 28.2 0 0 0-.4-4l-.6.5Zm-1-1c.5-.6 1.3-1.1 2.1-.8.9.2 1.1 1.1 1.2 1.9l.1 3.3v.7H15.4c.7.2 1.3.4 1.7 1v.2c.3.6 0 1.3-.2 1.8l-1.4 2-2 2.4-2.1 2.6c-.6.6-1.3 1.1-2.2.8-.8-.3-1-1.2-1.2-2L8 13.8V13H5.2c-.6-.1-1.3-.3-1.6-1l-.1-.1c-.3-.7 0-1.4.3-1.9l1.4-2 2-2.4 2-2.6Z" clip-rule="evenodd"/>
  </symbol>
  <symbol id="flash-fill"
    xmlns="http://www.w3.org/2000/svg" fill="none" viewBox="0 0 21 21">
    <path fill="currentColor" d="M5.8 8.5 7.7 6c1.8-2.3 2.7-3.4 3.5-3.1.8.2.8 1.7.8 4.6V8l.1.8c.2.2.4.2.9.2 2 0 3 0 3.4.6.3.7-.3 1.5-1.6 3.2L13 15.2c-1.7 2.2-2.6 3.4-3.4 3-.8-.2-.8-1.6-.8-4.5v-.4c0-.5 0-.7-.2-.9l-.8-.1c-2.1 0-3.1 0-3.5-.6v-.1c-.3-.7.3-1.5 1.6-3.1Z"/>
  </symbol>
  <symbol id="flip"
    xmlns="http://www.w3.org/2000/svg" fill="none" viewBox="0 0 19 21">
    <path fill="currentColor" fill-rule="evenodd" d="M9.3 2.6a7 7 0 0 0-6.1 3.7h4.4a.8.8 0 0 1 0 1.5H.8V2a.7.7 0 1 1 1.5 0v3a8.6 8.6 0 0 1 7-3.8C14 1.1 18 5 18 9.7h-1.5a7 7 0 0 0-7-7Zm0 16.1a7 7 0 0 0 6.2-3.7H11a.8.8 0 0 1 0-1.5H18v6a.7.7 0 1 1-1.5 0v-3a8.6 8.6 0 0 1-7.1 3.7 8.5 8.5 0 0 1-8.5-8.5h1.5a7 7 0 0 0 7 7Z" clip-rule="evenodd"/>
  </symbol>
  <symbol id="flip-not-available"
    xmlns="http://www.w3.org/2000/svg" fill="none" viewBox="0 0 19 21">
    <path fill="currentColor" fill-rule="evenodd" d="M9.3 2.6a7 7 0 0 0-6.1 3.7h4.4a.8.8 0 0 1 0 1.5H.8V2a.7.7 0 1 1 1.5 0v3a8.6 8.6 0 0 1 7-3.8C14 1.1 18 5 18 9.7h-1.5a7 7 0 0 0-7-7Zm0 16.1a7 7 0 0 0 6.2-3.7H11a.8.8 0 0 1 0-1.5H18v6a.7.7 0 1 1-1.5 0v-3a8.6 8.6 0 0 1-7.1 3.7 8.5 8.5 0 0 1-8.5-8.5h1.5a7 7 0 0 0 7 7Z" clip-rule="evenodd"/>
    <rect fill="currentColor" width="1.5" height="24.8" x="17.6" rx=".8" transform="rotate(42 17.6 0)"/>
  </symbol>
  <symbol id="giftbox"
    xmlns="http://www.w3.org/2000/svg" fill="none" viewBox="0 0 39 39">
    <path fill="currentColor" fill-rule="evenodd" d="M12.6 10.8h6v7.8H4a17.2 17.2 0 0 1-1.8-.1l-.6-.6v-.5l-.1-1.2v-3a17.2 17.2 0 0 1 .1-1.7l.6-.6h.5l1.3-.1h8.6Zm-8.9 9.3H2.6c-.4 0-.8-.1-1.1-.3-.5-.3-1-.7-1.2-1.2-.2-.3-.2-.7-.3-1v-5.7c0-.4.1-.8.3-1.1.3-.5.7-1 1.2-1.2.3-.2.7-.2 1-.3h6.1l-.2-.2C7.4 8.1 7 6.7 7 5.4c0-1.3.4-2.7 1.4-3.7 1-1 2.4-1.7 4.2-1.7 3 0 5.6 2.2 6.8 5.5C20.5 2.2 23 0 26 0c1.8 0 3.2.7 4.2 1.7s1.4 2.4 1.4 3.7a5.4 5.4 0 0 1-1.6 3.9h6c.4 0 .8.1 1.1.3.5.3 1 .7 1.2 1.2.2.3.2.7.3 1v5.7c0 .4-.1.8-.3 1.1-.3.5-.7 1-1.2 1.2-.3.2-.7.2-1 .3H35v15l-.4 1.6c-.4.7-1 1.2-1.7 1.6l-1.4.4H7.3c-.6 0-1-.2-1.5-.4-.7-.4-1.3-1-1.7-1.6l-.3-1.5V20Zm1.5 0v15l.3.9c.2.4.5.7 1 1l.9.2H18.6V20.1H5.2Zm14.9 17.1h11.3l.9-.2 1-1 .2-1V20.2H20v17.1Zm14.1-18.6h.6a17.2 17.2 0 0 0 1.7-.1c.3-.2.5-.3.6-.6v-.5l.1-1.2v-3a17.2 17.2 0 0 0-.1-1.7c-.1-.3-.3-.4-.6-.6H36l-1.2-.1H20v7.8h14.1Zm-8.1-9.3a4 4 0 0 0 3.1-1.2 4 4 0 0 0 1-2.7c0-1-.3-2-1-2.7a4 4 0 0 0-3.1-1.2c-3 0-5.7 2.9-6 7.8h6Zm-7.5 0h-6a4 4 0 0 1-3.1-1.2 4 4 0 0 1-1-2.7c0-1 .3-2 1-2.7a4 4 0 0 1 3.1-1.2c3 0 5.7 2.9 6 7.8Z" clip-rule="evenodd"/>
  </symbol>
  <symbol id="giftbox-fill"
    xmlns="http://www.w3.org/2000/svg" fill="none" viewBox="0 0 28 28">
    <path fill="currentColor" fill-rule="evenodd" d="M6 6.7a4 4 0 0 1-1-2.5c0-1 .4-2 1-2.7C7 .7 8 .2 9.4.2c2 0 3.8 1.4 4.7 3.4l.7-1.3a5 5 0 0 1 4-2c1.4 0 2.4.4 3.1 1.2a4 4 0 0 1 1 2.7 4 4 0 0 1-.8 2.5h3.2l1 .3c.6.3 1 .7 1.3 1.2l.2 1.1v2.9c0 .4 0 .7-.2 1a3 3 0 0 1-1.2 1.3l-1.1.2H14.8v-8h-1.6v8.1H2.8l-1-.3a2.8 2.8 0 0 1-1.5-2.3V9.3c0-.4 0-.7.2-1 .3-.6.7-1 1.2-1.3l1.1-.2H6v-.1Zm7.3 10.5H3.6c-.4 0-.8.3-.8.7v6.3l.4 1.5c.4.7 1 1.3 1.7 1.7.4.2.9.3 1.4.3h15.3c.6 0 1-.1 1.5-.3.7-.4 1.3-1 1.7-1.7.2-.4.3-.9.3-1.4v-6.4c0-.4-.3-.7-.7-.7h-9.6v10.6h-1.6V17.2h.1Zm0-10.5h-4c-1 0-1.6-.3-2-.7-.5-.5-.7-1.1-.7-1.8 0-.6.2-1.2.7-1.7.4-.4 1-.8 2-.8 1.8 0 3.7 1.8 4 5Zm1.5 0h4a3 3 0 0 0 2-.7c.4-.5.6-1.1.6-1.8 0-.6-.2-1.2-.7-1.7-.4-.4-1-.8-2-.8-1.1 0-2 .5-2.8 1.5-.6.9-1 2-1.1 3.5Z" clip-rule="evenodd"/>
  </symbol>
  <symbol id="google-logo"
    xmlns="http://www.w3.org/2000/svg" viewBox="0 0 186.7 190.5">
    <path fill="#4285f4" d="M95.3 78v36.8h51.2a44 44 0 0 1-19.1 28.7l30.9 24a93 93 0 0 0 28.4-70c0-6.8-.6-13.3-1.7-19.6z"/>
    <path fill="#34a853" d="m41.9 113.4-7 5.3L10.2 138a95.2 95.2 0 0 0 85 52.6 91 91 0 0 0 63-23l-30.8-24a56.9 56.9 0 0 1-85.5-30z"/>
    <path fill="#fbbc05" d="M10.2 52.6a94 94 0 0 0 0 85.3L42 113.3a57 57 0 0 1 0-36.1z"/>
    <path fill="#ea4335" d="M95.3 38A52 52 0 0 1 131.7 52L159 25A91.4 91.4 0 0 0 95.2 0a95 95 0 0 0-85 52.6L42 77.2a56.9 56.9 0 0 1 53.4-39.3z"/>
  </symbol>
  <symbol id="heart-fill-color"
    xmlns="http://www.w3.org/2000/svg" fill="none" viewBox="0 0 33 31">
    <path fill="#F74909" stroke="#fff" stroke-linecap="round" stroke-linejoin="round" stroke-width="2" d="M17.5 27c.6 0 12.5-6.4 12.5-15.3C30 7.2 26.9 4 23.1 4c-1.9 0-3.7.6-5.6 3.2C15.6 4.6 13.7 4 11.9 4 8 4 5 7.2 5 11.7 5 20.7 16.9 27 17.5 27Z"/>
  </symbol>
  <symbol id="heart"
    xmlns="http://www.w3.org/2000/svg" fill="none" viewBox="0 0 33 31">
    <path stroke="currentColor" stroke-linecap="round" stroke-linejoin="round" stroke-width="2" d="M17.5 27c.6 0 12.5-6.4 12.5-15.3C30 7.2 26.9 4 23.1 4c-1.9 0-3.7.6-5.6 3.2C15.6 4.6 13.7 4 11.9 4 8 4 5 7.2 5 11.7 5 20.7 16.9 27 17.5 27Z"/>
  </symbol>
  <symbol id="heart-fill"
    xmlns="http://www.w3.org/2000/svg" fill="none" viewBox="0 0 33 31">
    <path fill="currentColor" d="M17.5 27c.6 0 12.5-6.4 12.5-15.3C30 7.2 26.9 4 23.1 4c-1.9 0-3.7.6-5.6 3.2C15.6 4.6 13.7 4 11.9 4 8 4 5 7.2 5 11.7 5 20.7 16.9 27 17.5 27Z"/>
  </symbol>
  <symbol id="home-fill"
    xmlns="http://www.w3.org/2000/svg" fill="none" viewBox="0 0 20 22">
    <path fill="currentColor" fill-rule="evenodd" d="M9.8 2h.4c.1 0 .3 0 .8.3l7.7 3.4a.8.8 0 0 0 .6-1.4L11.6 1c-.5-.2-.8-.4-1.1-.4h-1c-.3 0-.6.2-1 .4h-.1L.7 4.3a.7.7 0 1 0 .6 1.4L9 2.3c.5-.3.7-.3.8-.3Zm-.4 2.6h1.2c.4 0 .7.3 1.2.6h.1L17 8h.1l1.8 1.2.8 1.4c.2.6.2 1.2.1 2.1v4a5.8 5.8 0 0 1-5 5H13a1 1 0 0 1-.8-1v-4.2a1.7 1.7 0 1 0-3.6 0V21.1a1 1 0 0 1-1 .7h-.1c-1.5 0-2.4 0-3.1-.3-2-.5-3.5-2-4-4-.3-.7-.3-1.6-.3-3v-1.8c0-1 0-1.5.2-2.1l.8-1.4L3 8h.1l5-2.8 1.3-.6Z" clip-rule="evenodd"/>
  </symbol>
  <symbol id="home"
    xmlns="http://www.w3.org/2000/svg" fill="none" viewBox="0 0 20 20">
    <path fill="currentColor" fill-rule="evenodd" d="M9.8 1.5h.4l.8.3 8 3.6a.8.8 0 0 0 .6-1.4l-8-3.5-1.1-.5h-1l-1 .4h-.1L.4 4a.8.8 0 0 0 .7 1.4L9 1.8l.8-.3Zm0 3.1h.4l.8.3 5.1 2.3c1 .5 1.4.7 1.7 1 .3.2.4.5.6.8l.1 2v3.9a4.3 4.3 0 0 1-4.7 3.6v-4a3.3 3.3 0 1 0-6.6 0v4a10 10 0 0 1-2.7-.2 4.3 4.3 0 0 1-2.8-2.8 12 12 0 0 1-.2-3.2V11L1.6 9l.6-.9 1.7-.9 5-2.3.9-.3Zm.7-1.4h-1l-1 .3h-.1L3.3 6h-.1c-1 .4-1.6.7-2 1.2-.5.4-.8.9-1 1.4-.2.6-.2 1.3-.2 2.3v1.7C0 14 0 15 .3 16c.5 1.8 2 3.2 3.7 3.7.9.3 1.9.3 3.5.3H8a1 1 0 0 0 .7-1v-4.5a1.8 1.8 0 0 1 3.6 0v4.7c.1.4.4.7.8.8h2a5.8 5.8 0 0 0 4.8-5l.1-1.6v-2.6c0-1 0-1.7-.2-2.3-.2-.5-.5-1-1-1.4-.4-.5-1-.8-2-1.2l-5.2-2.3c-.5-.2-.8-.4-1.1-.4Z" clip-rule="evenodd"/>
  </symbol>
  <symbol id="hot-logo"
    xmlns="http://www.w3.org/2000/svg" fill="none" viewBox="0 0 42 71">
    <path fill="#F47421" d="M13.4 4.3s-1 10.1.5 11.8c1.6 1.6 11 5.4 12.9 8.4 1.8 3.1.4 8.5 12 18.2 4.2 3.6 2 20.3-1.2 23.5C33.9 69.9 16 73.6 8 68.5c-6.3-4-8.2-14.3-8-17.3.3-3.1 9.4-17 12-20.7 2.5-3.8-4-5.9-4.5-8.5-.6-2.7 1-13.8 5.9-17.7Zm22.9 26.9c-1.6 1.1-4.9-2.6-4.9-4.8 0-2.3 3.7-5.3 3-11 0 0 5.4 13.4 1.9 15.8ZM22.6 15.5c-2.5-1.7-4.2-4.5-3.8-7 .4-2.3 3.5-7.1 3.4-8.5 0 0-.8 7.9.4 10 1.2 2.2 2 6.8 0 5.5Z"/>
    <path fill="#F47421" d="M4.7 35.9s4.3-4.5 2.3-8c-2-3.3-2.9-6.4-2.8-8.7 0 0-4 13.7.5 16.7Z"/>
    <path fill="#fff" d="m28.4 45.3-5.8.7-2.4 3.4-3.2-2.8-5.7.7L9 50.7l.6 5.9 12.6 9 10.1-11.7-.7-5.8-3.1-2.8Z"/>
  </symbol>
  <symbol id="not-logo"
    xmlns="http://www.w3.org/2000/svg" fill="none" viewBox="0 0 44 74">
    <path fill="#EE2345" d="M29.2 4.5s1 10.5-.5 12.2C27 18.4 17 22.4 15.3 25.6c-2 3.2-.5 8.8-12.5 18.9C-1.6 48.2.7 65.6 4 69c3.8 3.8 22.5 7.7 30.8 2.4 6.6-4.2 8.6-14.9 8.3-18-.2-3.3-9.7-17.7-12.4-21.6-2.7-4 4-6.1 4.7-8.9.6-2.8-1-14.4-6.2-18.4Zm-23.9 28c1.7 1.2 5.1-2.7 5.1-5 0-2.4-3.8-5.5-3-11.4 0 0-5.7 14-2 16.4Zm14.3-16.4c2.7-1.8 4.4-4.6 4-7.2C23 6.4 19.9 1.4 20 0c0 0 .9 8.2-.4 10.5-1.2 2.2-2.1 7 0 5.6Z"/>
    <path fill="#EE2345" d="M38.3 37.4s-4.5-4.7-2.4-8.2c2.2-3.6 3-6.7 2.9-9.2 0 0 4.2 14.3-.5 17.4Z"/>
    <path fill="#fff" d="m34.9 56.9-.5-4.5-1.4-4.6-4-4-4-1.8-6.7.3L15 44l-3 3-2.3 6 .6 5.7-.5 4.1 5.5 2 .2 1.4 1.6 1.2 2-.7.8 1.9 2.4-.1.6-2 .7 1.4 2 .4 1.1-1.3-.2-1.9 2.2 1.8 1.6-.9-.1-2 3.8-1.8 1.7-2.1-1-3.2ZM20 56.2l-1.8 2h-2.7l-2-1.7v-2.7l1.7-2 2.7-.1 2 1.8.1 2.7Zm3.8 5.5h-2l-.7-1.8 1.6-1.2 1.7 1-.6 2Zm7.2-6.2-1.8 2h-2.6l-2-1.7-.1-2.7 1.8-2H29l2 1.7v2.7Z"/>
  </symbol>
  <symbol id="ic-app"
    xmlns="http://www.w3.org/2000/svg" fill="none" viewBox="0 0 24 24">
    <path fill="currentColor" fill-rule="evenodd" d="M21.2 6.5h-.6c-1.6.2-2.3 1.6-2 3.9.2 2 1.3 4.3 3.3 4h.4c-1.1 5-5.5 8.7-10.8 8.7C5.3 23.1.4 18.1.4 12 .4 5.7 5.4.7 11.4.7c4.3 0 8 2.3 9.8 5.8ZM9 19.6c4.8 0 9.3-4.3 9.3-9 0-4.8-2.6-8.7-7.3-8.7C5.8 2 1 6.5 1 11.2c0 6.1 3.8 8.4 7.8 8.4Z" clip-rule="evenodd"/>
    <path fill="currentColor" d="M23.8 10c.4 1.9-.1 3.4-1.7 3.7-1.5.3-2.4-1.5-2.7-3.2-.3-1.8.2-3 1.4-3.2 1.2-.3 2.6.7 3 2.7ZM11.8 5.8c-.7 0-1.5.6-2.3 1.6l-.8 1.4 1 1c.2-.4.5-1 .9-1.4.7-1 1.1-1.1 1.4-1.2 1.1-.1 2.2.7 2.3 2 .2 1.2-.6 2.3-1.6 2.4h-.2l1 .2c2-.3 2.2-1.9 2.2-2V9c-.3-2-2-3.5-3.9-3.2Z"/>
    <path fill="currentColor" stroke="currentColor" stroke-width=".1" d="M8.1 12.4c-.8 1-1.5 1.6-2.3 1.7-1.8.2-3.5-1.2-3.8-3.2V10s0-.4.4-.9c.3-.4.8-.9 1.8-1H5c-1.1.2-1.9 1.4-1.7 2.6.2 1.2 1.2 2.1 2.3 2 .3 0 .8-.3 1.5-1.2L8 10a105.5 105.5 0 0 1 .9.9c-.2.5-.4 1-.8 1.4Z"/>
    <path fill="currentColor" d="M13.5 11.7c-1 .2-2.3-.6-2.5-.8l-2.3-2C7.6 7.6 6.1 6.5 4.8 6.6 3.2 7 2.1 8.4 2 10c0 0 .3-1.7 2.2-1.9 1-.1 2.2.7 2.5.9.6.5 2.1 2 2.3 2 1 1.1 2.6 2.3 3.9 2.1 1.5-.2 2.7-1.6 2.8-3.3 0 .1-.3 1.7-2.2 2Z"/>
  </symbol>
  <symbol id="info"
    xmlns="http://www.w3.org/2000/svg" fill="none" viewBox="0 0 24 24">
    <path stroke="currentColor" stroke-linecap="round" stroke-linejoin="round" stroke-width="2" d="M12 11v5m0 5a9 9 0 1 1 0-18 9 9 0 0 1 0 18Zm0-13v.1h0V8h0Z"/>
  </symbol>
  <symbol id="loading"
    xmlns="http://www.w3.org/2000/svg" fill="none" viewBox="0 0 84 84">
    <path fill="currentColor" d="M46.3 4.3c0 2.4-2 4.3-4.3 4.3-2.4 0-4.3-1.9-4.3-4.3S39.7 0 42 0c2.4 0 4.3 2 4.3 4.3Z"/>
    <path fill="currentColor" d="M46.3 79.7c0 2.4-2 4.3-4.3 4.3-2.4 0-4.3-2-4.3-4.3 0-2.4 2-4.3 4.3-4.3 2.4 0 4.3 1.9 4.3 4.3Z" opacity=".7"/>
    <path fill="currentColor" d="M79.7 46.3c-2.4 0-4.3-2-4.3-4.3 0-2.4 1.9-4.3 4.3-4.3s4.3 2 4.3 4.3c0 2.4-2 4.3-4.3 4.3Z" opacity=".5"/>
    <path fill="currentColor" d="M4.3 46.3C2 46.3 0 44.3 0 42c0-2.4 2-4.3 4.3-4.3 2.4 0 4.3 2 4.3 4.3 0 2.4-1.9 4.3-4.3 4.3Z" opacity=".8"/>
    <path fill="currentColor" d="M71.7 18.4a4.3 4.3 0 1 1-6.1-6.1 4.3 4.3 0 0 1 6 6.1Z" opacity=".3"/>
    <path fill="currentColor" d="M18.4 71.7a4.3 4.3 0 1 1-6-6.1 4.3 4.3 0 0 1 6 6Z" opacity=".7"/>
    <path fill="currentColor" d="M65.6 71.7a4.3 4.3 0 1 1 6.1-6.1 4.3 4.3 0 0 1-6.1 6Z" opacity=".6"/>
    <path fill="currentColor" d="M15.4 19.7a4.3 4.3 0 1 0 0-8.7 4.3 4.3 0 0 0 0 8.7Z" opacity=".9"/>
    <path fill="currentColor" d="M60.3 8.8a4.3 4.3 0 1 1-8-3.3 4.3 4.3 0 0 1 8 3.3Z" opacity=".2"/>
    <path fill="currentColor" d="M31.7 78.5a4.3 4.3 0 1 1-8-3.3 4.3 4.3 0 0 1 8 3.3Z" opacity=".7"/>
    <path fill="currentColor" d="M75.2 60.3a4.3 4.3 0 1 1 3.3-8 4.3 4.3 0 0 1-3.3 8Z" opacity=".5"/>
    <path fill="currentColor" d="M5.5 31.7a4.3 4.3 0 1 1 3.3-8 4.3 4.3 0 0 1-3.3 8Z" opacity=".8"/>
    <path fill="currentColor" d="M78.4 31.5a4.3 4.3 0 1 1-3.3-8 4.3 4.3 0 1 1 3.3 8Z" opacity=".4"/>
    <path fill="currentColor" d="M8.9 60.5a4.3 4.3 0 1 1-3.3-8 4.3 4.3 0 1 1 3.3 8Z" opacity=".8"/>
    <path fill="currentColor" d="M52.5 78.4a4.3 4.3 0 1 1 8-3.3 4.3 4.3 0 1 1-8 3.3Z" opacity=".6"/>
    <path fill="currentColor" d="M23.5 8.9a4.3 4.3 0 1 1 8-3.3 4.3 4.3 0 1 1-8 3.3Z" opacity=".9"/>
  </symbol>
  <symbol id="lock"
    xmlns="http://www.w3.org/2000/svg" fill="none" viewBox="0 0 22 22">
    <path fill="currentColor" stroke="currentColor" stroke-width=".3" d="M11 12a1.2 1.2 0 0 1 .8 2.2V15.6a.8.8 0 0 1-1.6 0V14.2a1.2 1.2 0 0 1 .8-2.1Zm4.4-3.7v.1h.2a2.6 2.6 0 0 1 2.6 2.6v6.4a2.6 2.6 0 0 1-2.6 2.6H6.4a2.6 2.6 0 0 1-2.6-2.6V11a2.6 2.6 0 0 1 2.6-2.6h.2v-2a4.4 4.4 0 1 1 8.8 0v1.9Zm-1.6.1h.1v-2a2.9 2.9 0 1 0-5.8 0v2h5.7Zm2.5 9.8c.2-.2.4-.5.4-.8V11a1 1 0 0 0-1.1-1H6.4a1 1 0 0 0-1 1v6.4a1 1 0 0 0 1 1h9.2c.3 0 .5 0 .7-.2Z"/>
  </symbol>
  <symbol id="logout"
    xmlns="http://www.w3.org/2000/svg" fill="none" viewBox="0 0 20 21">
    <path stroke="currentColor" stroke-linecap="round" stroke-linejoin="round" stroke-width="2" d="M19 10.7H7M7 19.7H3a2 2 0 0 1-2-2v-14a2 2 0 0 1 2-2h4M14 15.7l5-5-5-5"/>
  </symbol>
  <symbol id="text-align-right"
    xmlns="http://www.w3.org/2000/svg" fill="none" viewBox="0 0 19 17">
    <rect fill="currentColor" width="13.4" height="2" x="5.4" rx="1"/>
    <rect fill="currentColor" width="13.4" height="2" x="5.4" y="14.3" rx="1"/>
    <rect fill="currentColor" width="18.8" height="2" y="7.2" rx="1"/>
  </symbol>
  <symbol id="chat-box"
    xmlns="http://www.w3.org/2000/svg" fill="none" viewBox="0 0 24 24">
    <path stroke="currentColor" stroke-linecap="round" stroke-linejoin="round" stroke-width="1.5" d="M20 5H4a1 1 0 0 0-1 1v13a1 1 0 0 0 1.6.7l3.1-2.5.7-.2H20c.6 0 1-.4 1-1V6c0-.6-.4-1-1-1Z"/>
    <path stroke="currentColor" stroke-linecap="round" stroke-linejoin="round" stroke-width="2" d="M16 11h0v0h0v0ZM12 11h0v0h0v0ZM8 11h0v0h0v0Z"/>
  </symbol>
  <symbol id="music"
    xmlns="http://www.w3.org/2000/svg" fill="none" viewBox="0 0 16 16">
    <path fill="currentColor" d="M15.9 4a.5.5 0 0 0-.4-.2l-6.7 2c-.2 0-.3.1-.3.4v6.3a1.9 1.9 0 1 0 1 1.6V8.4L15 6.8v3.8a1.9 1.9 0 1 0 1 1.7v-8l-.2-.4ZM7.5 15a1 1 0 0 1-1-.9 1 1 0 0 1 2 0c0 .5-.5 1-1 1Zm6.7-1.8a1 1 0 0 1-1-1 1 1 0 0 1 2 0c0 .6-.5 1-1 1Zm1-7.4L9.3 7.4v-.9L15.1 5v.9ZM6.6 3.3c-1-.7-1.8-1.5-2.4-2.3L3.7.2a.5.5 0 0 0-.9.3v7.3a1.9 1.9 0 1 0 1 1.6V2C4.3 2.7 5 3.4 6 4c.4.3.6.8.6 1.2 0 .8-.6 1.4-1.4 1.4a.5.5 0 1 0 0 1 2.4 2.4 0 0 0 1.4-4.3Zm-4.7 7a1 1 0 0 1-1-.9 1 1 0 0 1 2 0c0 .6-.5 1-1 1Z"/>
  </symbol>
  <symbol id="speaker-muted"
    xmlns="http://www.w3.org/2000/svg" fill="none" viewBox="0 0 32 24">
    <path fill="currentColor" d="M13.4.4 8 6H1.5A1.5 1.5 0 0 0 0 7.5v9A1.5 1.5 0 0 0 1.5 18h6.4l5.5 5.6a1.5 1.5 0 0 0 2.6-1.1v-21a1.5 1.5 0 0 0-2.6-1ZM28.8 12l2.9-2.8a1 1 0 0 0 0-1.5l-1.4-1.4a1 1 0 0 0-1.5 0L26 9.2l-2.9-2.9a1 1 0 0 0-1.4 0l-1.4 1.4a1 1 0 0 0 0 1.5L23 12l-2.8 2.8a1 1 0 0 0 0 1.5l1.4 1.4a1 1 0 0 0 1.4 0l2.9-2.9 2.8 2.9a1 1 0 0 0 1.5 0l1.4-1.4a1 1 0 0 0 0-1.5L28.8 12Z"/>
  </symbol>
  <symbol id="notebook"
    xmlns="http://www.w3.org/2000/svg" fill="none" viewBox="0 0 22 22">
    <path stroke="currentColor" stroke-linecap="round" stroke-linejoin="round" stroke-width="1.5" d="M17.4 3.7H4.6a1 1 0 0 0-1 .9v12.8c0 .5.5 1 1 1h12.8c.5 0 1-.5 1-1V4.6c0-.5-.5-1-1-1ZM11 10h3.7M11 7.3h3.7M7.3 18.3V3.7"/>
  </symbol>
  <symbol id="bell"
    xmlns="http://www.w3.org/2000/svg" fill="none" viewBox="0 0 24 24">
    <path fill="currentColor" fill-rule="evenodd" d="M7.2 2.8c1.2-1 3-1.5 4.8-1.5 1.9 0 3.6.5 4.8 1.5 1.2 1 2 2.5 2 4.2v.1a2.9 2.9 0 0 0-.1.4v1.2c.2.9.5 2 1.3 2.8 1.3 1.3 1.4 3.4.1 5.2-1.3 1.8-3.9 3-8.1 3-4.2 0-6.8-1.2-8.1-3-1.3-1.8-1.2-4 0-5.2 1-.9 1.2-2 1.4-2.8a6.5 6.5 0 0 0 0-1.6V7c0-1.7.7-3.2 2-4.2ZM12 21c-1 0-2 0-2 .7 0 .6 1 1.3 2 1.3s2-.7 2-1.3c0-.7-1-.7-2-.7Z" clip-rule="evenodd"/>
  </symbol>
  <symbol id="bell-alert"
    xmlns="http://www.w3.org/2000/svg" fill="none" viewBox="0 0 24 24">
    <path fill="currentColor" fill-rule="evenodd" d="M7.2 2.8c1.2-1 3-1.5 4.8-1.5 1.9 0 3.6.5 4.8 1.5 1.2 1 2 2.5 2 4.2v.1a2.9 2.9 0 0 0-.1.4v1.2c.2.9.5 2 1.3 2.8 1.3 1.3 1.4 3.4.1 5.2-1.3 1.8-3.9 3-8.1 3-4.2 0-6.8-1.2-8.1-3-1.3-1.8-1.2-4 0-5.2 1-.9 1.2-2 1.4-2.8a6.5 6.5 0 0 0 0-1.6V7c0-1.7.7-3.2 2-4.2ZM12 21c-1 0-2 0-2 .7 0 .6 1 1.3 2 1.3s2-.7 2-1.3c0-.7-1-.7-2-.7Z" clip-rule="evenodd"/>
    <circle cx="17.5" cy="3.5" r="3.5" fill="red"/>
  </symbol>
  <symbol id="pencil"
    xmlns="http://www.w3.org/2000/svg" fill="none" viewBox="0 0 18 18">
    <path fill="currentColor" d="M17.3 5a.8.8 0 0 0-.2-.6L13.6 1a.8.8 0 0 0-1-.2l-.2.2L10 3.3l-9 9a.8.8 0 0 0-.3.7v3.5a.8.8 0 0 0 .8.8H5a.8.8 0 0 0 .7-.2l9-9.1 2.4-2.3.2-.3V5ZM4.7 15.7H2.3v-2.4L10.6 5 13 7.4l-8.3 8.3ZM14 6.2 11.8 4 13 2.7 15.3 5l-1.2 1.2Z"/>
  </symbol>
  <symbol id="pie-chart"
    xmlns="http://www.w3.org/2000/svg" fill="none" viewBox="0 0 18 18">
    <path fill="currentColor" d="M14.3 9H9V3.7c0-.4-.3-.7-.8-.7-3.7 0-6.7 3-6.7 6.8 0 3.7 3 6.7 6.8 6.7 3.7 0 6.7-3 6.7-6.8 0-.4-.3-.7-.8-.7ZM9 15a5.2 5.2 0 0 1-6-4.5 5.2 5.2 0 0 1 4.5-6v5.3c0 .4.3.7.8.7h5.1A5.1 5.1 0 0 1 9 14.9Zm2.3-13.5c-.5 0-.8.3-.8.8v4.5c0 .4.3.7.8.7h4.4c.5 0 .8-.3.8-.8 0-2.9-2.3-5.2-5.3-5.2ZM12 6V3c1.5.4 2.6 1.5 3 3h-3Z"/>
  </symbol>
  <symbol id="play"
    xmlns="http://www.w3.org/2000/svg" viewBox="0 0 512 512">
    <path fill="currentColor" d="M133 440a35.4 35.4 0 0 1-17.5-4.7c-12-6.8-19.5-20-19.5-34.3V111c0-14.4 7.5-27.5 19.5-34.3a35.1 35.1 0 0 1 35.8.4L399 225.5a36 36 0 0 1 0 61L151.2 434.9A35.5 35.5 0 0 1 133 440Z"/>
  </symbol>
  <symbol id="plus"
    xmlns="http://www.w3.org/2000/svg" fill="none" viewBox="0 0 16 16">
    <path stroke="currentColor" stroke-linecap="round" stroke-width="2" d="M8 1v14M15 8H1"/>
  </symbol>
  <symbol id="grid-fill"
    xmlns="http://www.w3.org/2000/svg" fill="none" viewBox="0 0 24 24">
    <path fill="currentColor" fill-rule="evenodd" d="M6.2 2.3h2c.4 0 .7 0 1 .2a2.8 2.8 0 0 1 1.5 2.3v3.4c0 .4 0 .7-.2 1a2.8 2.8 0 0 1-2.3 1.5H4.8c-.4 0-.7 0-1-.2a2.8 2.8 0 0 1-1.5-2.3V4.8c0-.4 0-.7.2-1a2.8 2.8 0 0 1 2.3-1.5h1.4Zm11 0h2c.4 0 .7 0 1 .2a2.8 2.8 0 0 1 1.5 2.3v3.4c0 .4 0 .7-.2 1a2.8 2.8 0 0 1-2.3 1.5h-3.4c-.4 0-.7 0-1-.2a2.8 2.8 0 0 1-1.5-2.3V4.8c0-.4 0-.7.2-1a2.8 2.8 0 0 1 2.3-1.5h1.4Zm-11 11H4.8c-.4 0-.7 0-1 .2a2.8 2.8 0 0 0-1.5 2.3v3.4c0 .4 0 .7.2 1a2.8 2.8 0 0 0 2.3 1.5h3.4c.4 0 .7 0 1-.2a2.8 2.8 0 0 0 1.5-2.3v-3.4c0-.4 0-.7-.2-1a2.8 2.8 0 0 0-2.3-1.5h-2Zm11 0h2c.4 0 .7 0 1 .2a2.8 2.8 0 0 1 1.5 2.3v3.4c0 .4 0 .7-.2 1a2.8 2.8 0 0 1-2.3 1.5h-3.4c-.4 0-.7 0-1-.2a2.8 2.8 0 0 1-1.5-2.3v-3.4c0-.4 0-.7.2-1a2.8 2.8 0 0 1 2.3-1.5h1.4Z" clip-rule="evenodd"/>
  </symbol>
  <symbol id="grid"
    xmlns="http://www.w3.org/2000/svg" fill="none" viewBox="0 0 24 24">
    <path fill="currentColor" fill-rule="evenodd" d="M6.2 2.3H4.8c-.4 0-.7 0-1 .2a2.8 2.8 0 0 0-1.5 2.3v3.4c0 .4 0 .7.2 1a2.8 2.8 0 0 0 2.3 1.5h3.4c.4 0 .7 0 1-.2a2.8 2.8 0 0 0 1.5-2.3V4.8c0-.4 0-.7-.2-1a2.8 2.8 0 0 0-2.3-1.5h-2ZM4.4 3.9l.5-.1h1.9a17.2 17.2 0 0 1 1.8 0l.5.6.1.5v1.9a17.2 17.2 0 0 1 0 1.8l-.6.5-.5.1H6.2a17.2 17.2 0 0 1-1.8 0L4 8.5 3.8 8V6.2a17.2 17.2 0 0 1 0-1.8l.6-.5Zm12.8-1.6h-1.4c-.4 0-.7 0-1 .2a2.8 2.8 0 0 0-1.5 2.3v3.4c0 .4 0 .7.2 1a2.8 2.8 0 0 0 2.3 1.5h3.4c.4 0 .7 0 1-.2a2.8 2.8 0 0 0 1.5-2.3V4.8c0-.4 0-.7-.2-1a2.8 2.8 0 0 0-2.3-1.5h-2Zm-1.8 1.6.5-.1h1.9a17.2 17.2 0 0 1 1.8 0l.5.6.1.5v1.9a17.2 17.2 0 0 1 0 1.8l-.6.5-.5.1h-1.9a17.2 17.2 0 0 1-1.8 0l-.5-.6-.1-.5V6.2a17.2 17.2 0 0 1 0-1.8l.6-.5Zm-9.2 9.3h2l1 .3a2.8 2.8 0 0 1 1.5 2.3v3.4c0 .4 0 .7-.2 1a2.8 2.8 0 0 1-2.3 1.5H4.8c-.4 0-.7 0-1-.2a2.8 2.8 0 0 1-1.5-2.3v-3.4c0-.4 0-.7.2-1a2.8 2.8 0 0 1 2.3-1.5h1.4Zm-1.3 1.6h-.5l-.5.6-.1.5v1.9a17.2 17.2 0 0 0 0 1.8l.6.5.5.1h1.9a17.2 17.2 0 0 0 1.8 0l.5-.6.1-.5v-1.9a17.2 17.2 0 0 0 0-1.8l-.6-.5-.5-.1H4.9Zm12.3-1.6h-1.4l-1 .3a2.8 2.8 0 0 0-1.5 2.3v3.4c0 .4 0 .7.2 1a2.8 2.8 0 0 0 2.3 1.5h3.4c.4 0 .7 0 1-.2a2.8 2.8 0 0 0 1.5-2.3v-3.4c0-.4 0-.7-.2-1a2.8 2.8 0 0 0-2.3-1.5h-2ZM15.4 15l.5-.1h1.9a17.2 17.2 0 0 1 1.8 0l.5.6.1.5v1.9a17.2 17.2 0 0 1 0 1.8l-.6.5-.5.1h-1.9a17.2 17.2 0 0 1-1.8 0l-.5-.6-.1-.5v-1.9a17.2 17.2 0 0 1 0-1.8l.6-.5Z" clip-rule="evenodd"/>
  </symbol>
  <symbol id="help"
    xmlns="http://www.w3.org/2000/svg" fill="none" viewBox="0 0 22 22">
    <path stroke="currentColor" d="M21.5 11a10.5 10.5 0 1 1-21 0 10.5 10.5 0 0 1 21 0Z"/>
    <path fill="currentColor" d="M8.8 8.7 8 7c1-.7 2-1 3-1 .6 0 1.1.1 1.6.3.4.2.8.5 1 1 .3.3.4.8.4 1.4 0 .3 0 .6-.2.9l-.4.7-.6.7-.7.7a3.6 3.6 0 0 0-.8 2.5H9.5l.2-1.8.6-1.2.7-.8.5-.6c.2-.2.2-.5.2-.8 0-.3 0-.6-.3-.8-.2-.2-.5-.4-1-.4a2 2 0 0 0-.8.3c-.3.1-.6.3-.8.6Zm1.6 8.6a1 1 0 0 1-.7-.2 1 1 0 0 1-.3-.8c0-.3.1-.5.3-.7.2-.2.4-.3.7-.3a1 1 0 0 1 1 1c0 .3 0 .6-.3.8a1 1 0 0 1-.7.2Z"/>
  </symbol>
  <symbol id="report"
    xmlns="http://www.w3.org/2000/svg" fill="none" viewBox="0 0 25 25">
    <path fill="currentColor" d="m13.63 4-.16 11.41h-1.94L11.37 4h2.26ZM12.5 20a1.5 1.5 0 0 1-1.06-.41 1.3 1.3 0 0 1-.44-.99c0-.38.15-.7.44-.98.3-.27.65-.41 1.06-.41.41 0 .76.14 1.06.41a1.3 1.3 0 0 1 .23 1.68 1.5 1.5 0 0 1-1.29.7Z"/>
    <path stroke="currentColor" d="m1.45 7.92 6.47-6.47h9.16l6.47 6.47v9.16l-6.47 6.47H7.92l-6.47-6.47V7.92Z"/>
  </symbol>
  <symbol id="download"
    xmlns="http://www.w3.org/2000/svg" fill="none" viewBox="0 0 20 21">
    <path stroke="currentColor" stroke-linecap="round" stroke-linejoin="round" stroke-width="2" d="M19 17.74a2 2 0 0 1-2 2H3a2 2 0 0 1-2-2M10 13.74v-12M5 8.74l5 5 5-5"/>
  </symbol>
  <symbol id="share"
    xmlns="http://www.w3.org/2000/svg" fill="none" viewBox="0 0 24 24">
    <path stroke="currentColor" stroke-linejoin="round" stroke-width="1.5" d="M21.15 12.75 12.93 20v-4.3a.2.2 0 0 0-.2-.2c-4.34 0-7.78.06-10.73 4 0-8.88 5.84-10.94 10.73-11 .11 0 .2-.09.2-.2V4l8.22 7.25a1 1 0 0 1 0 1.5Z"/>
  </symbol>
  <symbol id="share-message"
    xmlns="http://www.w3.org/2000/svg" fill="none" viewBox="0 0 24 24">
    <path fill="currentColor" fill-rule="evenodd" d="M2.29.93 2.26.92a7.52 7.52 0 0 0-.6-.15 1.22 1.22 0 0 0-.75.06c-.34.15-.58.46-.65.83-.06.33.07.61.13.75.08.15.18.34.3.53l.01.03 2.1 3.6.06.12a8.95 8.95 0 0 0 1.64 2.3c.51.46 1.12.8 1.78.99.75.21 1.56.18 2.83.13h.14l5.67-.24-4.88 1.9-.14.06c-1.26.5-2.08.81-2.7 1.36a4.77 4.77 0 0 0-1.27 1.75c-.32.77-.36 1.64-.43 3l-.01.14-.21 3.95v.03a7.2 7.2 0 0 0-.02.6c0 .14.03.44.22.7.22.3.57.46.94.45.32 0 .57-.17.69-.27.13-.1.3-.23.45-.37l.02-.02 14.52-12.8.03-.02c.33-.3.62-.56.83-.78.22-.23.44-.51.52-.88.1-.5-.01-1.02-.32-1.42-.23-.3-.55-.47-.84-.58l-1.09-.34h-.03L2.29.92Z" clip-rule="evenodd"/>
  </symbol>
  <symbol id="speaker-max"
    xmlns="http://www.w3.org/2000/svg" fill="none" viewBox="0 0 15 12">
    <path stroke="currentColor" stroke-linecap="round" stroke-linejoin="round" stroke-width="1.5" d="M9.75 4.25s1 .5 1 1.75-1 1.75-1 1.75m1-6.5c2 1 3 2.5 3 4.75s-1 3.75-3 4.75m-10-7v4.5h2.5l4 3V.75l-4 3H.75Z"/>
  </symbol>
  <symbol id="telegram-logo"
    xmlns="http://www.w3.org/2000/svg" fill="none" viewBox="0 0 19 18">
    <path fill="currentColor" d="M18.22 1.08a1.68 1.68 0 0 0-1.7-.27L1.85 6.73a1.67 1.67 0 0 0 .09 3.13l2.96 1.03 1.66 5.46c.02.08.05.15.1.21l.02.03a.8.8 0 0 0 .23.21.8.8 0 0 0 .25.12h.01l.17.02h.02c.08 0 .16-.02.24-.05l.06-.02a.82.82 0 0 0 .16-.1l.13-.1 2.2-2.44 3.3 2.55a1.66 1.66 0 0 0 2.08-.03c.3-.24.5-.58.58-.96l2.67-13.1a1.66 1.66 0 0 0-.56-1.61ZM7.67 11.15a.81.81 0 0 0-.23.41L7.2 12.8l-.64-2.12 3.32-1.73-2.2 2.2Zm6.79 4.34-3.9-3.02a.82.82 0 0 0-1.1.1l-.71.78.25-1.22 5.8-5.8a.82.82 0 0 0-.97-1.3L5.52 9.36 2.47 8.25l14.71-5.89-2.72 13.13Z"/>
  </symbol>
  <symbol id="stopwatch"
    xmlns="http://www.w3.org/2000/svg" fill="none" viewBox="0 0 18 20">
    <path fill="currentColor" d="m15.3 6.09-.12.1A7.85 7.85 0 1 1 1.15 11c0-1.74.58-3.44 1.66-4.8l.08-.11-.1-.1-.91-.9a.86.86 0 0 1 1.2-1.22l.91.92.1.09.1-.08a7.85 7.85 0 0 1 9.6 0l.11.08.1-.1.9-.9a.85.85 0 0 1 1.2 1.2l-.9.9.1.11ZM8.1 10l.05-.04V8a.85.85 0 1 1 1.7 0v1.96l.05.04a1.35 1.35 0 1 1-1.8 0Zm-2.52 6.11A6.15 6.15 0 1 0 12.42 5.9 6.15 6.15 0 0 0 5.58 16.1ZM11 1.85H7a.85.85 0 1 1 0-1.7h4a.85.85 0 1 1 0 1.7Z"/>
  </symbol>
  <symbol id="stopwatch-not-available"
    xmlns="http://www.w3.org/2000/svg" fill="none" viewBox="0 0 18 20">
    <path fill="currentColor" d="m15.3 6.09-.12.1A7.85 7.85 0 1 1 1.15 11c0-1.74.58-3.44 1.66-4.8l.08-.11-.1-.1-.91-.9a.86.86 0 0 1 1.2-1.22l.91.92.1.09.1-.08a7.85 7.85 0 0 1 9.6 0l.11.08.1-.1.9-.9a.85.85 0 0 1 1.2 1.2l-.9.9.1.11ZM8.1 10l.05-.04V8a.85.85 0 1 1 1.7 0v1.96l.05.04a1.35 1.35 0 1 1-1.8 0Zm-2.52 6.11A6.15 6.15 0 1 0 12.42 5.9 6.15 6.15 0 0 0 5.58 16.1ZM11 1.85H7a.85.85 0 1 1 0-1.7h4a.85.85 0 1 1 0 1.7Z"/>
    <rect fill="currentColor" width="1.9" height="22.73" x="16.39" y="2.22" rx=".95" transform="rotate(44.32 16.4 2.22)"/>
  </symbol>
  <symbol id="trophy"
    xmlns="http://www.w3.org/2000/svg" fill="none" viewBox="0 0 23 21">
    <path stroke="currentColor" stroke-width="1.5" d="M18 2h3a1 1 0 0 1 1 1v2a5 5 0 0 1-5 5M5 2H2a1 1 0 0 0-1 1v2a5 5 0 0 0 5 5"/>
    <path stroke="currentColor" stroke-width="1.5" d="M4.75 1.88c0-.63.5-1.13 1.13-1.13h11.25c.62 0 1.12.5 1.12 1.13V7.5a6.75 6.75 0 0 1-13.5 0V1.87ZM6.75 19.67c0 .32.26.58.58.58h8.34c.32 0 .58-.26.58-.58 0-1.06-.86-1.92-1.92-1.92H8.67c-1.06 0-1.92.86-1.92 1.92Z"/>
    <path fill="currentColor" d="M11 17h2v-3h-2z"/>
  </symbol>
  <symbol id="arrow-long-down"
    xmlns="http://www.w3.org/2000/svg" fill="none" viewBox="0 0 33 233">
    <path stroke="currentColor" stroke-linecap="round" stroke-width="2" d="M27 1C-7.5 59.5-5.5 169.5 21.5 226.5"/>
    <path stroke="currentColor" stroke-linecap="round" stroke-linejoin="round" stroke-width="2" d="m27.42 212.85-5.02 14.72-14.73-5.02"/>
  </symbol>
  <symbol id="twitter-logo"
    xmlns="http://www.w3.org/2000/svg" fill="none" viewBox="0 0 20 17">
    <path fill="currentColor" d="M20 1.95c-.75.33-1.55.54-2.36.64a4.13 4.13 0 0 0 1.8-2.27 8.2 8.2 0 0 1-2.6 1 4.1 4.1 0 0 0-7 3.74A11.64 11.64 0 0 1 1.39.77a4.16 4.16 0 0 0-.07 4c.32.6.78 1.1 1.34 1.48a4.05 4.05 0 0 1-1.86-.5v.04a4.1 4.1 0 0 0 3.3 4 3.93 3.93 0 0 1-1.87.1 4.11 4.11 0 0 0 3.83 2.84A8.22 8.22 0 0 1 0 14.43a11.57 11.57 0 0 0 6.29 1.85A11.59 11.59 0 0 0 17.99 4.6v-.53a8.43 8.43 0 0 0 2-2.12Z"/>
  </symbol>
  <symbol id="user-single"
    xmlns="http://www.w3.org/2000/svg" fill="none" viewBox="0 0 86 86">
    <path fill="currentColor" d="M56.3 45.54a21.5 21.5 0 1 0-26.6 0A35.83 35.83 0 0 0 7.43 74.86a3.6 3.6 0 0 0 7.16.78 28.67 28.67 0 0 1 56.98 0 3.58 3.58 0 0 0 3.58 3.2h.4a3.58 3.58 0 0 0 3.15-3.95 35.83 35.83 0 0 0-22.4-29.35ZM43 43a14.33 14.33 0 1 1 0-28.67A14.33 14.33 0 0 1 43 43Z"/>
  </symbol>
  <symbol id="user-multiple"
    xmlns="http://www.w3.org/2000/svg" fill="none" viewBox="0 0 18 18">
    <path fill="currentColor" d="M9.22 9.16a3.7 3.7 0 0 0 .18-5.44 3.75 3.75 0 0 0-6.07 4.19c.22.48.54.9.95 1.25a6 6 0 0 0-3.53 5.46.75.75 0 1 0 1.5 0 4.5 4.5 0 1 1 9 0 .75.75 0 1 0 1.5 0 6 6 0 0 0-3.53-5.46Zm-2.47-.54a2.25 2.25 0 1 1 0-4.5 2.25 2.25 0 0 1 0 4.5Zm7.3.25a3.75 3.75 0 0 0-2.8-6.24.75.75 0 1 0 0 1.5 2.25 2.25 0 0 1 1.13 4.19.75.75 0 0 0-.04 1.27l.29.2.1.05a5.25 5.25 0 0 1 3 4.79.75.75 0 1 0 1.5 0 6.75 6.75 0 0 0-3.18-5.77Z"/>
  </symbol>
  <symbol id="coin-face"
    xmlns="http://www.w3.org/2000/svg" fill="none" viewBox="0 0 67 67">
    <path fill="#FC0" d="M67 33.5a33.5 33.5 0 1 1-67 0 33.5 33.5 0 0 1 67 0Z"/>
    <path fill="#FCDC59" d="M59.13 11.94A33.5 33.5 0 0 0 1.9 44.59a1819.7 1819.7 0 0 1 57.24-32.65ZM37.37 66.77a33.4 33.4 0 0 0 19.78-9.55c-5.23 2.52-10.45 5.06-15.67 7.6l-4.1 1.95Z"/>
    <path fill="#DA8100" d="M58.44 32.97a25.46 25.46 0 1 1-50.93 0 25.46 25.46 0 0 1 50.93 0Z"/>
    <path fill="#F0AA00" d="M59.16 34.03a25.13 25.13 0 1 1-50.26 0 25.13 25.13 0 0 1 50.26 0Z"/>
  </symbol>
  <symbol id="wallet-fill"
    xmlns="http://www.w3.org/2000/svg" fill="none" viewBox="0 0 22 21">
    <path fill="currentColor" fill-rule="evenodd" d="M4 4.06 9.32.26a1.4 1.4 0 0 1 2.18.8l-4.5 3H4Zm12.31-2.05L17 4.06H8.5l4.84-3.1A2 2 0 0 1 16.3 2ZM3.75 5.3A3.75 3.75 0 0 0 0 9.06v8a3.75 3.75 0 0 0 3.75 3.75h12a3.75 3.75 0 0 0 3.75-3.75v-1.5a2 2 0 0 0 0-4v-2.5a3.75 3.75 0 0 0-3.75-3.75h-12Zm15.75 5h-3a3.25 3.25 0 1 0 0 6.5h3v-1.25h-3a2 2 0 1 1 0-4h3v-1.25Z" clip-rule="evenodd"/>
  </symbol>
  <symbol id="whatsapp-logo"
    xmlns="http://www.w3.org/2000/svg" xml:space="preserve" style="enable-background:new 0 0 308 308" viewBox="0 0 308 308">
    <path fill="currentColor" d="m228 177-27-13-5-1c-3 0-6 2-8 5a208 208 0 0 1-12 14l-5-2c-24-10-42-36-45-40v-1l1-1 4-5 2-2 4-6v-1c3-4 1-8 0-10l-11-26c-3-6-6-8-10-8h-2c-2 0-14 1-19 5-5 3-14 14-14 33 0 17 11 33 15 39l1 1c18 26 40 46 63 55 22 8 32 9 38 9h7c7-1 24-9 28-20 3-8 3-17 2-20l-7-5z"/>
    <path fill="currentColor" d="M157 0A151 151 0 0 0 26 226L0 303a4 4 0 0 0 5 5l80-26a151 151 0 0 0 223-132C308 67 240 0 157 0zm0 269c-24 0-47-7-66-20a4 4 0 0 0-4 0l-40 13 13-39v-3c-15-21-23-45-23-70C37 85 91 31 157 31s120 54 120 119c0 66-54 119-120 119z"/>
  </symbol>
</svg>