<?xml version="1.0" standalone="no"?>
<!DOCTYPE svg PUBLIC "-//W3C//DTD SVG 20010904//EN"
 "http://www.w3.org/TR/2001/REC-SVG-20010904/DTD/svg10.dtd">
<svg version="1.0" xmlns="http://www.w3.org/2000/svg"
 width="700.000000pt" height="700.000000pt" viewBox="0 0 700.000000 700.000000"
 preserveAspectRatio="xMidYMid meet">
<metadata>
Created by potrace 1.14, written by Peter Selinger 2001-2017
</metadata>
<g transform="translate(0.000000,700.000000) scale(0.100000,-0.100000)"
fill="#000000" stroke="none">
<path d="M3632 6925 c-12 -35 -71 -167 -131 -292 -170 -357 -199 -451 -181
-585 23 -164 132 -345 288 -474 159 -132 214 -121 213 43 -1 115 -48 288 -114
419 -14 28 -33 84 -42 125 -23 105 -30 397 -16 629 7 105 11 193 9 195 -2 2
-14 -25 -26 -60z"/>
<path d="M2707 6539 c-164 -166 -299 -425 -392 -749 -75 -261 -112 -479 -122
-714 -6 -157 -6 -158 15 -152 31 10 39 -14 13 -36 -20 -15 -22 -22 -13 -48 20
-56 72 -118 179 -216 172 -157 250 -240 279 -301 34 -68 42 -146 21 -206 -8
-24 -89 -156 -179 -293 -568 -859 -930 -1479 -1020 -1747 -29 -89 -30 -96 -25
-212 19 -364 167 -835 360 -1144 253 -406 567 -602 1077 -675 189 -27 422 -40
562 -30 93 6 98 8 98 29 0 29 22 47 52 43 18 -2 23 -9 23 -30 -1 -26 2 -28 42
-28 70 0 349 39 508 71 316 63 554 138 760 239 164 81 236 135 290 216 114
171 211 507 266 919 20 145 23 213 23 465 0 257 -3 310 -22 410 -36 196 -90
341 -156 421 -12 14 -67 65 -121 114 -255 226 -413 387 -560 570 -94 116 -231
330 -289 448 -65 134 -91 208 -157 432 -70 238 -99 294 -201 390 -130 122
-309 234 -790 493 -102 56 -200 110 -218 120 -17 11 -40 17 -51 15 -12 -4 -19
0 -19 10 0 8 -24 33 -54 55 -63 48 -85 95 -107 227 -18 105 -18 573 0 793 7
90 10 166 7 170 -4 3 -39 -28 -79 -69z m-382 -918 c3 -5 1 -13 -5 -16 -15 -9
-43 3 -35 15 8 13 32 13 40 1z m155 -405 c0 -43 -34 -89 -50 -66 -11 16 -4 67
12 88 20 24 38 13 38 -22z m165 -276 c3 -5 1 -10 -4 -10 -6 0 -11 5 -11 10 0
6 2 10 4 10 3 0 8 -4 11 -10z m271 -207 c-10 -10 -19 5 -10 18 6 11 8 11 12 0
2 -7 1 -15 -2 -18z m446 -100 c22 -20 24 -61 3 -70 -23 -8 -55 26 -55 59 0 33
23 38 52 11z m656 -62 c3 -19 0 -22 -13 -17 -9 3 -19 6 -21 6 -2 0 -4 9 -4 21
0 29 34 21 38 -10z m-678 -870 c15 -30 12 -97 -5 -111 -9 -7 -18 -11 -20 -8
-5 5 -25 103 -25 124 0 21 38 17 50 -5z m831 -40 c11 -27 -6 -19 -22 11 -8 16
-8 19 2 16 6 -2 16 -14 20 -27z m-421 -221 c0 -11 -7 -20 -15 -20 -8 0 -15 9
-15 20 0 11 7 20 15 20 8 0 15 -9 15 -20z m565 -320 c3 -5 1 -10 -4 -10 -6 0
-11 5 -11 10 0 6 2 10 4 10 3 0 8 -4 11 -10z m485 -270 c0 -5 -5 -10 -11 -10
-5 0 -7 5 -4 10 3 6 8 10 11 10 2 0 4 -4 4 -10z m-2005 -180 c3 -5 1 -10 -4
-10 -6 0 -11 5 -11 10 0 6 2 10 4 10 3 0 8 -4 11 -10z m-865 -64 c0 -3 -4 -8
-10 -11 -5 -3 -10 -1 -10 4 0 6 5 11 10 11 6 0 10 -2 10 -4z m2460 -157 c63
-56 132 -117 152 -135 l38 -34 29 -252 c17 -139 31 -269 32 -289 3 -34 -22
-64 -489 -602 -270 -311 -496 -568 -501 -571 -7 -5 -1192 842 -1228 877 -7 7
-25 132 -44 297 l-32 285 118 165 c65 91 119 166 119 167 1 1 128 16 284 34
l283 32 27 -25 c132 -121 286 -248 292 -241 6 7 231 324 234 330 2 3 500 61
536 62 31 1 49 -11 150 -100z m460 16 c0 -25 -23 -35 -35 -15 -10 16 2 40 20
40 9 0 15 -9 15 -25z m-1840 -6 c0 -5 -7 -9 -15 -9 -15 0 -20 12 -9 23 8 8 24
-1 24 -14z m1800 -384 c0 -8 -7 -15 -15 -15 -8 0 -15 7 -15 15 0 8 7 15 15 15
8 0 15 -7 15 -15z m-2668 -559 c-9 -18 -11 -16 -11 19 0 33 1 37 10 21 8 -12
8 -25 1 -40z m2664 -608 c3 -11 3 -22 0 -25 -9 -10 -36 18 -36 38 0 24 27 14
36 -13z m-2786 -77 c0 -12 -20 -25 -27 -18 -7 7 6 27 18 27 5 0 9 -4 9 -9z
m600 -211 c0 -5 -7 -10 -15 -10 -8 0 -15 5 -15 10 0 6 7 10 15 10 8 0 15 -4
15 -10z m218 -458 c4 -28 -24 -40 -45 -19 -21 21 -9 49 19 45 15 -2 24 -11 26
-26z"/>
<path d="M4863 5380 c0 -74 -5 -164 -12 -200 -23 -121 -80 -274 -157 -425 -95
-186 -124 -262 -124 -324 0 -195 253 -501 414 -501 163 0 229 244 166 615 -39
235 -150 619 -258 895 l-29 75 0 -135z m-133 -770 c0 -5 -2 -10 -4 -10 -3 0
-8 5 -11 10 -3 6 -1 10 4 10 6 0 11 -4 11 -10z m294 -566 c11 -30 6 -53 -15
-64 -15 -9 -24 -8 -35 1 -14 12 -19 60 -7 72 12 13 51 7 57 -9z"/>
<path d="M1878 5125 c-20 -31 -97 -384 -127 -585 -75 -502 -31 -859 124 -1010
l47 -45 45 50 c64 69 149 202 188 293 66 153 73 304 18 409 -16 32 -59 114
-94 183 -113 216 -175 418 -187 605 -4 61 -10 105 -14 100z m20 -657 c19 -24
23 -57 12 -98 -6 -22 -15 -40 -19 -40 -9 0 -41 105 -41 133 0 20 33 23 48 5z
m-10 -595 c2 -8 -5 -13 -17 -13 -12 0 -21 6 -21 16 0 18 31 15 38 -3z"/>
</g>
</svg>
